<?xml version="1.0" encoding="UTF-8" standalone="no"?>
<!-- Generator: Adobe Illustrator 22.0.1, SVG Export Plug-In . SVG Version: 6.00 Build 0)  -->

<svg
   version="1.1"
   id="Layer_1"
   x="0px"
   y="0px"
   viewBox="0 0 30 30"
   style="enable-background:new 0 0 30 30;"
   xml:space="preserve"
   sodipodi:docname="cloud.svg"
   inkscape:version="1.3-beta (cedbd6c6ff, 2023-05-28)"
   xmlns:inkscape="http://www.inkscape.org/namespaces/inkscape"
   xmlns:sodipodi="http://sodipodi.sourceforge.net/DTD/sodipodi-0.dtd"
   xmlns="http://www.w3.org/2000/svg"
   xmlns:svg="http://www.w3.org/2000/svg"><defs
   id="defs1" /><sodipodi:namedview
   id="namedview1"
   pagecolor="#ffffff"
   bordercolor="#000000"
   borderopacity="0.25"
   inkscape:showpageshadow="2"
   inkscape:pageopacity="0.0"
   inkscape:pagecheckerboard="0"
   inkscape:deskcolor="#d1d1d1"
   showgrid="false"
   inkscape:zoom="27.1"
   inkscape:cx="15"
   inkscape:cy="15"
   inkscape:window-width="1920"
   inkscape:window-height="1009"
   inkscape:window-x="-8"
   inkscape:window-y="-8"
   inkscape:window-maximized="1"
   inkscape:current-layer="Layer_1" />&#10;&#10;<path
   id="path2"
   style="display:inline;opacity:0.75;fill:#002931;fill-opacity:1;stroke-width:0.0369004"
   d="m 11.337891,7.4628906 c -0.114491,-0.00255 -0.228593,-0.00174 -0.34375,0.00195 C 10.441384,7.4825943 9.8840765,7.5726587 9.3554688,7.7363281 8.931393,7.8676323 8.1575769,8.2599926 7.75,8.5507812 7.3273051,8.8523561 6.6886871,9.4726582 6.4101562,9.8535156 5.9888584,10.429589 5.6530905,11.124647 5.4648438,11.804688 c -0.041532,0.150022 -0.082737,0.279962 -0.091797,0.289062 -0.00906,0.0091 -0.2065183,0.08014 -0.4394531,0.158203 -0.7766336,0.260254 -1.3274524,0.596318 -1.8710938,1.142578 -0.996856,1.001663 -1.4765625,2.145317 -1.4765625,3.523438 0,1.35242 0.5497838,2.62272 1.5410156,3.564453 0.3835939,0.364442 0.7351602,0.607408 1.2246094,0.847656 0.551149,0.270534 1.082657,0.422619 1.6640625,0.476563 0.1725077,0.01599 2.9191456,0.02538 6.105469,0.02148 5.746567,-0.007 5.796806,-0.0067 6.144531,-0.08398 0.464092,-0.103136 0.875469,-0.245097 1.236328,-0.425782 1.704671,-0.853547 2.747391,-2.530813 2.748047,-4.419921 1.88e-4,-0.54168 -0.07693,-1.005812 -0.261719,-1.564454 l -0.125,-0.373046 c -0.06849,-0.09447 -0.135698,-0.190102 -0.203125,-0.285157 -0.06923,-0.09759 -0.135595,-0.196172 -0.203125,-0.294922 -0.06026,-0.09178 -0.120697,-0.184743 -0.179687,-0.277343 -0.01538,-0.02508 -0.02989,-0.05088 -0.04492,-0.07617 -0.01778,-0.02251 -0.03545,-0.04547 -0.05273,-0.06836 -0.02616,-0.03524 -0.05263,-0.06975 -0.07813,-0.105468 -0.02363,-0.03427 -0.0478,-0.0679 -0.07227,-0.101563 -0.02324,-0.03115 -0.04775,-0.0621 -0.07031,-0.09375 -0.02093,-0.02875 -0.04273,-0.05583 -0.06445,-0.08398 -0.02502,-0.03128 -0.05026,-0.0632 -0.07617,-0.09375 -0.02213,-0.02712 -0.04514,-0.05379 -0.06836,-0.08008 -0.0468,-0.03006 -0.111229,-0.08254 -0.195312,-0.160157 -0.420689,-0.388304 -0.986824,-0.727945 -1.550782,-0.93164 -0.477527,-0.172483 -0.866384,-0.244088 -1.464844,-0.267578 l -0.560546,-0.02149 -0.04492,-0.189453 C 16.757957,11.08561 16.26181,10.176807 15.650391,9.4648438 c -0.0091,-0.00782 -0.01823,-0.015605 -0.02734,-0.023438 -0.04888,-0.042363 -0.09603,-0.08612 -0.144531,-0.1289062 -0.0032,-0.00265 -0.0065,-0.00517 -0.0098,-0.00781 -0.03399,-0.027897 -0.06853,-0.05537 -0.103516,-0.082031 -0.07294,-0.056113 -0.147946,-0.1103391 -0.222656,-0.1640624 -0.06291,-0.045836 -0.124417,-0.092425 -0.185547,-0.140625 -0.05737,-0.04357 -0.114275,-0.089528 -0.171875,-0.1328126 -0.06396,-0.048222 -0.127769,-0.096569 -0.193359,-0.1425781 -0.06628,-0.046559 -0.132242,-0.092176 -0.201172,-0.1347656 -0.05661,-0.036203 -0.113815,-0.071616 -0.171875,-0.1054687 -0.05024,-0.029058 -0.100824,-0.057246 -0.152344,-0.083984 -0.04748,-0.026344 -0.09452,-0.053351 -0.140625,-0.082031 -0.05163,-0.031994 -0.102057,-0.066088 -0.148437,-0.1054687 -0.04102,-0.034876 -0.08365,-0.068592 -0.121094,-0.1074219 0.0012,-0.00454 0.0028,-0.00909 0.0039,-0.013672 L 13.572266,7.96875 C 12.918136,7.6514651 12.139325,7.4807392 11.337891,7.4628906 Z m -0.138672,1.6738282 c 0.681935,0 0.766229,0.00764 1.099609,0.097656 0.724054,0.1955088 1.387114,0.583432 1.94336,1.134766 0.729922,0.723478 1.099635,1.535773 1.21875,2.675781 0.02544,0.243543 0.06889,0.478004 0.0957,0.521484 0.0477,0.07736 0.07208,0.07896 1.166015,0.0957 1.226783,0.01878 1.402697,0.04477 1.919922,0.279297 0.915359,0.415047 1.690276,1.367674 1.867188,2.294922 0.215934,1.13182 -0.09736,2.198887 -0.878907,2.988281 -0.473311,0.478077 -0.967306,0.765272 -1.574218,0.914063 -0.229356,0.05623 -0.764396,0.06256 -5.990235,0.06836 -3.1558769,0.0035 -5.8517947,-0.0071 -5.9902341,-0.02344 -0.6898168,-0.08153 -1.3217027,-0.402441 -1.8515625,-0.9375 -0.458434,-0.462939 -0.7456998,-0.977722 -0.890625,-1.595703 -0.097168,-0.414337 -0.089458,-1.178232 0.017578,-1.580079 0.2195445,-0.824235 0.8095384,-1.58263 1.5546875,-2.001953 0.4499104,-0.253174 0.9298155,-0.387443 1.5527344,-0.433593 0.1737401,-0.01288 0.337614,-0.03688 0.3632812,-0.05274 0.027023,-0.0167 0.069574,-0.198872 0.099609,-0.43164 0.1642253,-1.272773 0.5236116,-2.04714 1.3125,-2.824219 0.5487588,-0.5405456 1.1683836,-0.9038163 1.871094,-1.0937501 0.326627,-0.088286 0.414597,-0.095703 1.09375,-0.095703 z" /><path
   id="path33"
   style="opacity:0.75;fill:#002a31;fill-opacity:0.93725491;stroke-width:0.0369004"
   d="M 11.34375,7.4960938 C 11.23223,7.4948864 11.117277,7.4963111 10.998047,7.5 10.084511,7.5282643 9.4665621,7.6711327 8.7265625,8.0234375 7.96191,8.3874798 7.5539242,8.6809467 6.9140625,9.3242188 6.3014953,9.9400501 5.8235348,10.741945 5.546875,11.621094 5.4730573,11.85567 5.3951937,12.067381 5.3730469,12.091797 5.3509,12.116211 5.15865,12.19608 4.9472656,12.269531 c -0.9052823,0.314561 -1.5816624,0.770188 -2.15625,1.453125 -0.8162205,0.97014 -1.1694005,1.925867 -1.1699218,3.160156 -3.646e-4,0.861384 0.1434509,1.477827 0.5175781,2.220704 0.5001147,0.993032 1.3043998,1.778095 2.2949219,2.240234 0.416083,0.194129 0.8388356,0.328517 1.2128906,0.388672 0.1522118,0.02448 0.3015895,0.05019 0.3320312,0.05664 0.030443,0.0064 2.7622322,0.0081 6.0703124,0.0039 l 6.013672,-0.0078 0.294922,-0.07813 c 1.043699,-0.280313 1.761848,-0.679851 2.4375,-1.355469 0.741548,-0.741498 1.219574,-1.683735 1.382812,-2.726562 0.0567,-0.362218 0.04673,-1.171018 -0.01758,-1.537109 -0.0303,-0.172509 -0.112244,-0.495514 -0.183594,-0.71875 -0.07013,-0.219439 -0.12658,-0.413698 -0.128906,-0.445313 -0.0011,-0.0024 -8.79e-4,-0.0054 -0.002,-0.0078 -0.01709,-0.03855 -0.03444,-0.07752 -0.04883,-0.117188 -0.0077,-0.02193 -0.01489,-0.04413 -0.02148,-0.06641 -0.01742,-0.02463 -0.0348,-0.04797 -0.05273,-0.07227 -0.03094,-0.03784 -0.06134,-0.077 -0.0918,-0.115234 -0.03337,-0.04291 -0.06535,-0.0867 -0.09961,-0.128906 -0.03597,-0.04291 -0.06862,-0.08867 -0.105469,-0.13086 -0.04135,-0.05024 -0.08059,-0.101424 -0.121093,-0.152344 -0.04719,-0.06222 -0.09558,-0.1237 -0.140626,-0.1875 -0.03858,-0.05234 -0.07824,-0.10419 -0.117187,-0.15625 -0.03161,-0.04262 -0.06338,-0.0868 -0.0957,-0.128906 -0.03059,-0.04094 -0.06218,-0.0809 -0.09375,-0.121094 -0.03701,-0.04735 -0.07303,-0.09452 -0.111328,-0.140624 -0.06264,-0.03338 -0.153583,-0.09405 -0.25586,-0.181641 -0.353162,-0.302458 -0.652887,-0.498625 -1.089843,-0.708985 -0.632759,-0.304604 -0.926751,-0.36904 -2.109375,-0.46875 l -0.328125,-0.02734 -0.07031,-0.25586 c -0.211494,-0.77504 -0.747955,-1.714129 -1.373047,-2.4042965 -0.0099,-0.010883 -0.01584,-0.018583 -0.02539,-0.029297 -0.03292,-0.015112 -0.06619,-0.04391 -0.09766,-0.080078 -0.02352,-0.01418 -0.04698,-0.028595 -0.07031,-0.042969 C 15.207875,9.1257051 15.09284,9.0470784 14.980469,8.9648438 14.855384,8.870608 14.73263,8.774328 14.609375,8.6777344 14.492887,8.5841656 14.372464,8.4956882 14.246094,8.4160156 14.108342,8.3304472 13.963061,8.2602876 13.818359,8.1875 13.739529,8.148333 13.662633,8.107198 13.585938,8.0644531 c -0.06645,-0.023986 -0.132969,-0.048802 -0.197266,-0.078125 -0.06399,-0.029183 -0.123933,-0.061963 -0.189453,-0.087891 -0.0141,-0.00807 -0.04324,-0.00719 -0.04297,-0.023437 2.24e-4,-0.013365 0.0017,-0.027376 0.002,-0.041016 C 12.570139,7.612918 12.018808,7.5034021 11.34375,7.4960938 Z m -0.144531,1.640625 c 0.823159,0 0.857785,0.00232 1.179687,0.1015624 0.69265,0.2135364 1.281292,0.5569362 1.802735,1.0527348 0.760158,0.722775 1.108216,1.439209 1.28125,2.636718 0.09058,0.626914 0.09414,0.642152 0.18164,0.669922 0.03783,0.01201 0.564434,0.03595 1.169922,0.05469 1.187606,0.03676 1.380477,0.06547 1.804688,0.257812 0.733061,0.332391 1.492841,1.114334 1.75,1.800782 0.174104,0.464767 0.201718,0.631387 0.199218,1.226562 -0.0021,0.51084 -0.01327,0.606576 -0.101562,0.896484 -0.184737,0.606649 -0.458407,1.052248 -0.914063,1.484375 -0.429435,0.407282 -0.85765,0.659152 -1.380859,0.814453 -0.206007,0.06116 -0.595766,0.06672 -6.087891,0.07422 -3.2268981,0.0044 -5.9677544,-0.0067 -6.0917965,-0.02344 C 5.3414222,20.095707 4.8320603,19.837968 4.2871094,19.320312 3.8352239,18.891072 3.5134024,18.36974 3.3574219,17.816406 3.262009,17.477944 3.2233639,16.767541 3.2792969,16.375 3.424865,15.353386 4.1478161,14.393332 5.109375,13.943359 5.455964,13.781181 5.7954415,13.695672 6.328125,13.632812 6.5913146,13.601763 6.8127825,13.57 6.8203125,13.5625 c 0.00753,-0.0075 0.052839,-0.253988 0.1015625,-0.546875 0.1176,-0.706909 0.236291,-1.112941 0.4570312,-1.558594 0.2273974,-0.45908 0.4537185,-0.758223 0.8828126,-1.171875 0.5324964,-0.5133257 1.0763762,-0.8360331 1.7656252,-1.0488279 0.312663,-0.096532 0.353189,-0.099609 1.171875,-0.099609 z" /><path
   style="opacity:0.75;fill:#002a31;fill-opacity:0.937255"
   d="M 15.151573,9.4953691 C 14.877892,9.2017082 14.538864,8.9670506 14.221819,8.7226607 13.825817,8.4174083 13.504655,8.0074229 12.946728,8.0452579 c 0.07674,-0.02737 0.152069,-0.059085 0.230225,-0.082109 0.0453,-0.013344 0.511156,0.2028497 0.581465,0.2404633 0.05432,0.02906 0.105562,0.056148 0.153483,0.093839 0.01063,0.00836 0.04206,0.032922 0.02952,0.027859 -0.147515,-0.05954 -0.283735,-0.13945 -0.416175,-0.2258009 -0.0454,-0.029599 -0.101991,-0.062739 -0.141677,-0.099704 -0.009,-0.00836 -0.04179,-0.021994 -0.02952,-0.021994 0.176347,0 0.339458,0.1129184 0.475207,0.214071 0.04791,0.0357 0.09283,0.072349 0.138725,0.1114342 0.01373,0.01169 0.05452,0.046143 0.03837,0.038122 -0.162424,-0.080686 -0.301413,-0.1950116 -0.457498,-0.2859168 -0.04963,-0.028904 -0.09814,-0.058504 -0.14758,-0.087974 -0.0096,-0.00573 -0.03767,-0.019148 -0.02656,-0.020527 0.181853,-0.022584 0.535878,0.2413097 0.690674,0.348965 0.370837,0.2579046 0.750147,0.4990275 1.083237,0.8078982 0.1547,0.1434511 0.274041,0.3162528 0.422079,0.4633318 0.01002,0.00996 -0.01527,-0.023791 -0.02361,-0.03519 -0.04446,-0.060736 -0.08969,-0.1201706 -0.138725,-0.177415 C 15.285128,9.2107484 15.127825,9.090701 14.983332,8.968989 14.544159,8.5990593 14.011249,8.3462951 13.50458,8.0848464"
   id="path53" /><path
   style="opacity:0.75;fill:#002a31;fill-opacity:0.937255"
   d="M 13.336339,8.149361 C 13.257159,8.07613 13.097595,8.0302784 13.02347,7.9382224 c -0.02426,-0.030128 0.08437,-0.00881 0.115112,0.014662 0.07386,0.056387 0.110501,0.1645244 0.197757,0.1964762 0.0998,0.036547 0.21303,-0.018059 0.318773,-0.00733 0.166906,0.016933 0.622368,0.3391836 0.752658,0.4560006 0.02432,0.021806 0.28442,0.263799 0.280402,0.2697881 -0.0052,0.0078 -0.0337,-0.018638 -0.112161,-0.070379 -0.240966,-0.1588974 -0.47206,-0.3298766 -0.711336,-0.4911904 -0.06293,-0.042427 -0.267268,-0.2237675 -0.330579,-0.2287334 -0.06992,-0.00548 -0.240497,0.1274526 -0.197757,0.071846 0.06118,-0.079602 0.166351,-0.1156353 0.259741,-0.152489 0.04762,-0.018793 0.243694,0.1310228 0.280402,0.1510227 0.447068,0.2435782 0.830823,0.5900177 1.18064,0.9545222 0.169454,0.1765691 0.369781,0.3434461 0.504723,0.5498399 0.05863,0.089677 0.09664,0.1767907 0.162338,0.2624569"
   id="path54" /><path
   style="opacity:0.75;fill:#002a31;fill-opacity:0.937255"
   d="m 13.486871,7.9191613 c 0.597716,0.2773694 1.107606,0.7012796 1.58796,1.1436671 0.145003,0.1335417 0.304473,0.2538514 0.419127,0.4164121 0.09649,0.1368001 0.16124,0.2938994 0.244983,0.4384057"
   id="path55" /><path
   style="opacity:0.75;fill:#002a31;fill-opacity:0.937255"
   d="m 20.423129,13.319323 c 0.157858,0.101234 0.346668,0.159868 0.49882,0.271254 0.217902,0.159519 0.578085,0.725934 0.717238,0.976516 0.05347,0.09629 0.06934,0.350784 0.150532,0.403216"
   id="path56" /></svg>
