<?xml version="1.0" encoding="UTF-8" standalone="no"?>
<svg
   fill="hsl(200, 100%, 20%)"
   viewBox="0 0 576 512"
   version="1.1"
   id="svg1"
   sodipodi:docname="cloud-showers-heavy.svg"
   inkscape:version="1.3-beta (cedbd6c6ff, 2023-05-28)"
   xmlns:inkscape="http://www.inkscape.org/namespaces/inkscape"
   xmlns:sodipodi="http://sodipodi.sourceforge.net/DTD/sodipodi-0.dtd"
   xmlns="http://www.w3.org/2000/svg"
   xmlns:svg="http://www.w3.org/2000/svg">
  <defs
     id="defs1" />
  <sodipodi:namedview
     id="namedview1"
     pagecolor="#ffffff"
     bordercolor="#000000"
     borderopacity="0.25"
     inkscape:showpageshadow="2"
     inkscape:pageopacity="0.0"
     inkscape:pagecheckerboard="0"
     inkscape:deskcolor="#d1d1d1"
     showgrid="false"
     inkscape:zoom="1.5878906"
     inkscape:cx="288.11809"
     inkscape:cy="256"
     inkscape:window-width="1920"
     inkscape:window-height="1009"
     inkscape:window-x="-8"
     inkscape:window-y="-8"
     inkscape:window-maximized="1"
     inkscape:current-layer="svg1" />
  <!--! Font Awesome Pro 6.2.1 by @fontawesome - https://fontawesome.com License - https://fontawesome.com/license (Commercial License) Copyright 2022 Fonticons, Inc. -->
  <path
     d="M128 320c-53 0-96-43-96-96c0-42.5 27.6-78.6 65.9-91.2C96.7 126.1 96 119.1 96 112C96 50.1 146.1 0 208 0c43.1 0 80.5 24.3 99.2 60c14.7-17.1 36.5-28 60.8-28c44.2 0 80 35.8 80 80c0 5.5-.6 10.8-1.6 16c.5 0 1.1 0 1.6 0c53 0 96 43 96 96s-43 96-96 96H128zm-14.5 33.9c12.2 5.2 17.8 19.3 12.6 31.5l-48 112c-5.2 12.2-19.3 17.8-31.5 12.6s-17.8-19.3-12.6-31.5l48-112c5.2-12.2 19.3-17.8 31.5-12.6zm120 0c12.2 5.2 17.8 19.3 12.6 31.5l-48 112c-5.2 12.2-19.3 17.8-31.5 12.6s-17.8-19.3-12.6-31.5l48-112c5.2-12.2 19.3-17.8 31.5-12.6zm244.6 31.5l-48 112c-5.2 12.2-19.3 17.8-31.5 12.6s-17.8-19.3-12.6-31.5l48-112c5.2-12.2 19.3-17.8 31.5-12.6s17.8 19.3 12.6 31.5zM345.5 353.9c12.2 5.2 17.8 19.3 12.6 31.5l-48 112c-5.2 12.2-19.3 17.8-31.5 12.6s-17.8-19.3-12.6-31.5l48-112c5.2-12.2 19.3-17.8 31.5-12.6z"
     id="path1" />
  <path
     style="opacity:0.75;fill:#002a31;fill-opacity:0.937255;stroke-width:0.629766"
     d="M 119.18423,319.24736 C 58.201154,313.35064 18.040484,252.29277 37.152721,194.53158 c 5.01505,-15.15653 12.039403,-26.49086 23.596815,-38.07527 10.129026,-10.15269 18.992483,-16.06087 32.140993,-21.42444 3.789216,-1.5457 5.023835,-2.34026 4.98045,-3.20527 -0.03173,-0.63255 -0.385971,-4.06601 -0.787208,-7.6299 -3.947461,-35.062135 9.346499,-70.454652 35.430709,-94.327201 7.73577,-7.079863 15.26416,-12.268539 24.9498,-17.195772 18.44498,-9.3832351 37.24388,-13.22753929 58.3381,-11.9299201 28.60471,1.7596291 56.51521,15.5105811 75.82414,37.3570541 4.31263,4.879381 12.91916,17.121912 14.4826,20.60105 l 0.76756,1.708061 5.87533,-5.560408 c 25.19241,-23.842037 60.46711,-29.24162 90.92819,-13.918599 25.55179,12.853476 42.0229,37.922923 43.81285,66.684285 0.37037,5.95116 -0.35583,16.45082 -1.36634,19.75498 -0.30258,0.98939 0.20835,1.10209 4.99582,1.10209 11.88315,0 27.98628,4.13824 40.03095,10.28728 25.62191,13.08049 43.41477,36.04971 50.3282,64.9698 1.51729,6.34707 1.6555,8.03538 1.64967,20.15252 -0.005,11.2457 -0.21035,14.13776 -1.36932,19.32297 -4.38851,19.63417 -13.99718,36.70737 -28.25006,50.19627 -15.97257,15.11641 -35.21366,23.71447 -57.87605,25.86247 -8.26466,0.78334 -328.34227,0.76786 -336.45169,-0.0163 z"
     id="path2" />
  <path
     style="opacity:0.75;fill:#002a31;fill-opacity:0.937255;stroke-width:0.629766"
     d="m 49.751538,510.81527 c -5.756133,-1.8906 -11.326876,-6.34534 -14.41269,-11.52535 -2.132887,-3.58037 -3.311639,-10.25698 -2.591761,-14.68008 0.41183,-2.53038 8.114452,-21.23018 24.62473,-59.78191 13.213994,-30.85487 24.810852,-57.66304 25.770794,-59.57371 4.434481,-8.8264 15.0514,-14.33562 24.323339,-12.62161 13.77137,2.54578 22.73465,15.55165 19.55596,28.376 -0.83144,3.35439 -48.756464,115.853 -50.705661,119.02583 -2.001947,3.25869 -6.225334,7.1011 -9.875905,8.98503 -3.266349,1.68564 -4.54697,1.97459 -9.446494,2.13145 -3.117343,0.0998 -6.376384,-0.0512 -7.242312,-0.33565 z"
     id="path3" />
  <path
     style="opacity:0.75;fill:#002a31;fill-opacity:0.937255;stroke-width:0.629766"
     d="m 168.46248,510.27183 c -10.22603,-3.67112 -16.75453,-13.56698 -15.87462,-24.06263 0.32854,-3.91875 2.66946,-9.70376 25.33292,-62.60401 13.73401,-32.05745 25.83368,-59.5888 26.88816,-61.18077 5.65216,-8.53321 17.90903,-12.30638 27.73016,-8.5365 8.23574,3.16133 14.41741,11.77914 14.86938,20.72924 0.13006,2.57571 -0.10657,5.84173 -0.52651,7.26678 -1.36403,4.62884 -49.20754,115.85611 -51.17064,118.96224 -2.29533,3.63179 -6.0988,6.85985 -10.29532,8.73779 -4.2899,1.91972 -12.58467,2.25627 -16.95353,0.68786 z"
     id="path4" />
  <path
     style="opacity:0.75;fill:#002a31;fill-opacity:0.937255;stroke-width:0.629766"
     d="m 279.44533,509.8457 c -9.80304,-4.03123 -15.47167,-12.97866 -14.80491,-23.36823 0.27545,-4.29219 1.5815,-7.53944 25.3494,-63.02662 13.78244,-32.17571 25.86307,-59.67309 26.84583,-61.10529 3.43171,-5.00111 8.81931,-8.37673 15.45229,-9.68169 9.76952,-1.92204 20.77292,4.05367 25.3183,13.74981 1.44741,3.08761 1.67477,4.38826 1.67051,9.5568 l -0.005,5.98278 -25.09075,58.39716 c -13.79991,32.11843 -25.94397,59.68529 -26.9868,61.25968 -2.33942,3.53188 -7.87557,7.58165 -12.06513,8.82582 -4.83231,1.43504 -11.35582,1.18955 -15.68381,-0.59022 z"
     id="path5" />
  <path
     style="opacity:0.75;fill:#00363f;fill-opacity:0.93725491;stroke-width:0.629766"
     d="m 401.7909,510.80938 c -11.60336,-3.76769 -19.06706,-15.32205 -17.02867,-26.36166 0.59599,-3.22782 45.55151,-109.50377 50.41974,-119.1935 4.46318,-8.88352 14.9914,-14.34671 24.32334,-12.62161 10.62092,1.96339 17.87129,9.18923 19.81723,19.75018 0.64093,3.47851 0.60463,4.76168 -0.2295,8.11089 -0.89148,3.57954 -46.50038,110.94497 -50.39102,118.62277 -2.03154,4.00905 -6.45044,8.107 -11.05666,10.2536 -2.8492,1.32779 -4.65963,1.69447 -8.92703,1.80806 -2.94416,0.0784 -6.0615,-0.0876 -6.92743,-0.36873 z"
     id="path6" />
  <path
     style="opacity:0.75;fill:#00363f;fill-opacity:0.937255;stroke-width:0.629766"
     d="m 118.39606,318.96488 c -0.51955,-0.1043 -3.07011,-0.52269 -5.66789,-0.92976 -13.006257,-2.03804 -28.855895,-8.57357 -39.917044,-16.45961 -19.307017,-13.76493 -32.942849,-34.74337 -38.318803,-58.95268 -1.854088,-8.34944 -1.999535,-27.19554 -0.275687,-35.72175 4.595449,-22.72924 15.96356,-41.77488 33.836721,-56.68858 7.014797,-5.85328 13.401613,-9.79178 22.49944,-13.87453 l 7.375862,-3.31 -0.177436,-3.06503 c -0.09759,-1.68577 -0.39157,-6.46577 -0.653282,-10.62223 C 95.004138,86.087447 107.04752,54.953866 130.899,31.96098 168.31468,-4.107847 225.36987,-9.4410067 269.05854,19.046694 c 6.08852,3.970083 15.19603,11.493663 19.73296,16.301105 4.07082,4.31355 12.08482,15.071856 15.46293,20.758052 3.00639,5.06051 1.81129,5.315225 9.90914,-2.111956 14.98962,-13.748163 33.9219,-21.238599 53.6949,-21.244035 34.09046,-0.0094 64.47327,21.952634 75.35905,54.472772 3.11619,9.309288 4.15372,17.235788 3.70246,28.286158 -0.21338,5.2249 -0.56211,10.24352 -0.77497,11.15248 l -0.38702,1.65266 6.82826,0.44028 c 38.04778,2.45335 70.39865,25.84233 84.05455,60.76963 1.41744,3.62536 3.31719,9.29659 4.22167,12.60274 1.56835,5.73284 1.64458,6.74019 1.64634,21.75534 0.002,14.50364 -0.1148,16.19074 -1.47863,21.41205 -4.42736,16.94981 -12.51898,31.88441 -23.64117,43.63423 -14.20103,15.00241 -29.33158,23.56577 -50.10242,28.3562 l -7.24231,1.67031 -170.35178,0.0999 c -93.69348,0.055 -170.77688,0.0146 -171.29644,-0.0897 z"
     id="path7" />
  <path
     style="opacity:0.75;fill:#003c46;fill-opacity:0.93725502;stroke-width:0.629766"
     d="M 117.45141,318.86269 C 92.352759,315.53906 69.723082,303.18476 54.694166,284.60142 40.79357,267.41324 33.804093,249.297 32.968618,228.29028 c -0.433071,-10.88887 0.315351,-18.47415 2.734052,-27.70971 4.602695,-17.57493 12.138163,-30.50664 25.699544,-44.10331 10.201858,-10.22841 19.976739,-16.62336 34.51176,-22.57839 2.227257,-0.91251 2.368752,-1.1243 2.035197,-3.04618 -0.911121,-5.24976 -1.392382,-20.19762 -0.87421,-27.15285 2.993509,-40.18066 27.158899,-75.161725 63.830329,-92.398802 26.0391,-12.23944829 56.16166,-13.9000619 83.07132,-4.579604 19.14035,6.62947 36.83519,18.702821 48.93013,33.385484 3.06877,3.725323 10.90502,14.942478 13.47456,19.288076 0.54322,0.918672 1.45206,0.317827 6.61255,-4.371622 16.57268,-15.059938 34.32039,-22.275525 54.78967,-22.275525 39.06584,0 71.95302,27.98103 78.43264,66.731971 0.86132,5.151052 1.00987,8.534272 0.70382,16.028972 -0.21338,5.2249 -0.56063,10.23582 -0.7717,11.13537 l -0.38376,1.63554 6.825,0.43639 c 40.04952,2.56077 73.92033,28.61317 86.06239,66.19658 3.89491,12.05594 3.89398,12.04889 3.86138,29.28413 -0.029,15.3264 -0.10599,16.33776 -1.68775,22.16837 -5.03617,18.56414 -14.06535,33.82756 -27.72492,46.86771 -12.68974,12.1143 -27.78192,20.03086 -46.34393,24.30956 l -6.08264,1.4021 -170.66667,0.0842 c -93.86667,0.0463 -171.51685,-0.0284 -172.55597,-0.16602 z"
     id="path8" />
  <path
     style="opacity:0.75;fill:#003c46;fill-opacity:0.937255;stroke-width:0.629766"
     d="m 46.705481,509.16355 c -1.93479,-0.90071 -5.028935,-3.23635 -7.291822,-5.50431 -4.436227,-4.44616 -5.87604,-7.65047 -6.467909,-14.39435 -0.35297,-4.02183 -0.230458,-4.49285 3.767406,-14.48463 8.430441,-21.07002 44.990592,-106.33412 47.379555,-110.49668 2.043427,-3.56049 6.661435,-7.64106 10.891696,-9.62414 2.991472,-1.40234 4.446535,-1.67543 8.927033,-1.67543 4.711,0 5.86094,0.24061 9.58805,2.00622 8.16994,3.87026 13.07671,10.96657 13.57869,19.6379 0.26688,4.61032 0.14462,5.1497 -2.87489,12.68266 -7.15649,17.85374 -44.250846,104.63539 -47.379934,110.84459 -2.138603,4.24372 -7.066769,8.97642 -11.493016,11.03716 -2.767409,1.28843 -4.261434,1.53562 -9.28114,1.53562 -5.049935,0 -6.506822,-0.24396 -9.343719,-1.56461 z"
     id="path9" />
  <path
     style="opacity:0.75;fill:#003c46;fill-opacity:0.937255;stroke-width:0.629766"
     d="m 46.917589,509.08105 c -1.385486,-0.83385 -2.905327,-1.69439 -3.377424,-1.91231 -1.210175,-0.55863 -5.137678,-4.49954 -7.231491,-7.25618 -2.046809,-2.69475 -3.542641,-7.73098 -3.553352,-11.96359 -0.0094,-3.70392 4.341923,-15.6129 11.391212,-31.17641 0.658152,-1.45308 1.196639,-2.77776 1.196639,-2.94375 0,-0.33841 23.674213,-55.79779 25.708486,-60.22487 0.716219,-1.55868 2.987908,-6.80148 5.048197,-11.65068 6.867489,-16.16367 8.198628,-18.64799 11.882205,-22.17587 5.0586,-4.84478 8.987017,-6.56261 15.083509,-6.59575 4.75936,-0.0259 10.65876,1.21527 12.3248,2.59295 0.44083,0.36453 2.28933,1.80528 4.10778,3.20167 1.81846,1.39638 3.30628,2.95739 3.30628,3.46889 0,0.5115 0.24406,0.93 0.54237,0.93 0.2983,0 1.19392,1.62952 1.99028,3.62116 2.07979,5.20144 2.21063,11.52084 0.34495,16.66071 -3.39826,9.36206 -42.306693,100.69569 -47.3774,111.21369 -3.231961,6.70394 -7.81161,11.81222 -12.647729,14.10764 -2.456706,1.16606 -4.183912,1.43934 -9.607701,1.52021 -5.96601,0.0889 -6.858845,-0.0497 -9.131611,-1.41751 z"
     id="path10" />
  <path
     style="opacity:0.75;fill:#003c46;fill-opacity:0.937255;stroke-width:0.629766"
     d="m 167.68407,509.63219 c -9.40927,-3.86535 -15.01413,-12.42978 -14.52392,-22.19308 0.19348,-3.85332 0.79965,-6.11513 3.29121,-12.28044 5.89885,-14.59661 35.80139,-84.41608 44.77329,-104.5412 3.06721,-6.88016 4.18918,-8.70843 7.02895,-11.45384 4.661,-4.50612 8.86256,-6.08727 16.25809,-6.1183 6.91418,-0.029 10.07051,1.20687 15.00785,5.8764 5.03035,4.75749 6.90393,9.02554 7.2076,16.41898 0.24015,5.84694 0.18597,6.12578 -2.38644,12.28045 -11.80171,28.23636 -43.2727,101.17674 -47.47178,110.02548 -2.51331,5.29629 -5.96921,8.86132 -10.98562,11.33251 -3.96218,1.95186 -14.14786,2.31734 -18.19923,0.65304 z"
     id="path11" />
  <path
     style="opacity:0.75;fill:#003c46;fill-opacity:0.937255;stroke-width:0.629766"
     d="m 171.87372,510.49139 c -0.14432,-0.13699 -1.31578,-0.38798 -2.60325,-0.55774 -2.87576,-0.37922 -7.07167,-2.79331 -9.72403,-5.59469 -1.82575,-1.92832 -6.17602,-9.23758 -5.93532,-9.97242 0.0567,-0.17318 -0.0713,-1.73185 -0.28452,-3.46371 -0.70327,-5.71231 1.85514,-13.88016 10.55349,-33.6925 1.7617,-4.01266 2.11595,-4.84988 3.99699,-9.44649 0.92133,-2.25142 2.17773,-5.22706 2.792,-6.61255 0.61427,-1.38548 5.6718,-13.14637 11.23895,-26.1353 14.55545,-33.95985 19.87221,-46.05935 21.76403,-49.52904 2.3955,-4.39347 7.08915,-9.01254 10.9578,-10.78366 2.89234,-1.32416 4.20501,-1.52084 9.70307,-1.45383 7.7565,0.0945 10.26803,1.0564 15.16692,5.80861 4.58213,4.44492 5.87143,6.94223 6.77521,13.12319 1.00867,6.89832 0.5756,9.29858 -3.45082,19.12587 -4.0605,9.91046 -30.90398,72.58289 -33.62202,78.49853 -1.03445,2.25141 -3.05825,6.87732 -4.49732,10.27981 -2.83851,6.71124 -6.25841,14.32076 -8.30468,18.47851 -1.54904,3.14744 -6.47983,8.4831 -9.08377,9.82966 -3.12993,1.61855 -14.34289,3.14172 -15.44273,2.09775 z"
     id="path12" />
  <path
     style="opacity:0.75;fill:#003c46;fill-opacity:0.937255;stroke-width:0.629766"
     d="m 284.3047,510.74534 c -7.05149,-1.03479 -13.94935,-6.0676 -17.09463,-12.4726 -1.57536,-3.20804 -1.76332,-4.26342 -1.76117,-9.88898 l 0.002,-6.29766 5.13987,-12.28044 c 14.30244,-34.1721 41.77714,-97.65881 45.25721,-104.57732 2.42734,-4.82565 5.977,-8.26485 10.92474,-10.58479 3.00236,-1.40778 4.39915,-1.65954 9.20719,-1.65954 7.18809,0 11.29374,1.74648 16.61505,7.06779 4.82298,4.82298 6.37142,8.82179 6.37142,16.45404 v 5.52625 l -17.06785,39.63586 c -24.86169,57.73511 -31.51745,72.95807 -34.29604,78.44135 -3.71248,7.32624 -13.96328,12.00591 -23.2982,10.63604 z"
     id="path13" />
  <path
     style="opacity:0.75;fill:#003c46;fill-opacity:0.937255;stroke-width:0.629766"
     d="m 284.0246,510.62019 c -1.2123,-0.32258 -3.20079,-0.8457 -4.41887,-1.16247 -4.04318,-1.05149 -10.07084,-6.44652 -12.30549,-11.01398 -1.44281,-2.949 -1.63459,-4.1109 -1.62594,-9.8505 0.006,-4.05465 0.35167,-7.45656 0.91688,-9.0262 2.56992,-7.13699 36.62041,-86.84207 42.03822,-98.40267 1.01496,-2.16574 1.84538,-4.0619 1.84538,-4.21368 0,-0.15178 1.13358,-2.68428 2.51907,-5.62778 1.38549,-2.94349 2.51907,-5.59787 2.51907,-5.89861 0,-0.7561 3.01704,-4.46194 5.66607,-6.95966 1.21131,-1.14211 3.68737,-2.8031 5.50237,-3.6911 3.04406,-1.48932 3.82567,-1.59652 10.07808,-1.38223 7.84421,0.26885 10.00111,1.2051 15.76703,6.84406 4.90103,4.79311 5.84162,7.05499 6.24417,15.01563 l 0.33892,6.70226 -11.4829,26.76507 c -6.3156,14.72078 -11.69754,27.04846 -11.95988,27.39483 -0.26232,0.34637 -0.69338,1.3334 -0.9579,2.1934 -0.26452,0.85999 -1.43278,3.62429 -2.59614,6.14288 -1.16336,2.51859 -2.1152,4.68957 -2.1152,4.8244 0,0.61019 -19.58622,45.25909 -21.57659,49.18618 -1.22887,2.4246 -3.04069,5.15352 -4.02627,6.06426 -1.8809,1.73806 -7.14499,5.1843 -7.14499,4.67761 0,-0.16217 -1.13698,0.1063 -2.52661,0.59659 -3.36693,1.18792 -7.98832,1.54287 -10.69848,0.82171 z"
     id="path14" />
  <path
     style="opacity:0.75;fill:#003c46;fill-opacity:0.937255;stroke-width:0.629766"
     d="m 398.0123,508.8473 c -7.71004,-4.32159 -12.5915,-11.47357 -13.08556,-19.17202 -0.26839,-4.18219 -0.099,-4.91115 2.86123,-12.31491 7.32051,-18.30902 40.69486,-96.99803 46.00295,-108.46435 3.23476,-6.9876 7.47342,-11.62047 12.83174,-14.02514 14.71172,-6.60222 31.26926,3.27098 32.47917,19.3672 0.25591,3.40456 0.0351,5.03375 -1.10968,8.18696 -3.21804,8.86403 -42.13058,100.53458 -48.31917,113.8308 -2.72195,5.84812 -6.54951,10.03609 -11.57615,12.66615 -2.29244,1.19945 -3.9519,1.48313 -9.69339,1.65699 -6.74937,0.20439 -7.01645,0.15989 -10.39114,-1.73168 z"
     id="path15" />
  <path
     style="opacity:0.75;fill:#003546;fill-opacity:0.93725502;stroke-width:0.629766"
     d="m 398.0123,508.8473 c -7.5773,-4.24719 -12.54494,-11.42613 -13.07985,-18.90221 -0.18152,-2.5369 0.0168,-5.1935 0.49783,-6.6678 2.38226,-7.3018 46.31305,-110.82589 49.87523,-117.53233 2.39873,-4.51603 7.00066,-8.87467 11.69123,-11.07314 3.08537,-1.44611 4.4127,-1.68503 9.26894,-1.66841 5.08225,0.0174 6.10265,0.23005 9.87536,2.05816 10.35818,5.01917 15.57418,17.0491 11.8644,27.36347 -2.95832,8.22508 -41.43838,99.03065 -47.80772,112.81706 -2.87642,6.22598 -6.74087,10.68758 -11.54541,13.32943 -3.00297,1.65123 -3.98566,1.84509 -10.24887,2.02179 -6.73767,0.19009 -7.0223,0.14227 -10.39114,-1.74602 z"
     id="path16" />
  <path
     style="opacity:0.75;fill:#003a4c;fill-opacity:0.93725502;stroke-width:0.629766"
     d="m 113.4157,318.29235 c -2.56601,-0.44199 -5.39995,-1.00911 -6.29766,-1.26024 -0.8977,-0.25115 -2.05728,-0.56441 -2.57683,-0.69613 -1.8382,-0.46606 -2.2391,-0.58617 -5.667901,-1.69796 -1.905043,-0.61771 -4.959285,-1.80713 -6.787203,-2.64317 -1.827918,-0.83604 -3.669985,-1.53236 -4.093481,-1.54738 -0.423496,-0.015 -1.903572,-0.72532 -3.289058,-1.57844 -1.385486,-0.85312 -3.36925,-1.96715 -4.408364,-2.47562 -6.898332,-3.37559 -20.363745,-14.7127 -25.072105,-21.10928 -1.402256,-1.90504 -2.778441,-3.61999 -3.058191,-3.81099 -1.110298,-0.75808 -7.513034,-11.06946 -9.88515,-15.91969 -4.579596,-9.36382 -7.789495,-20.25869 -8.752116,-29.70597 -0.569926,-5.59332 -0.540603,-20.85486 0.0484,-25.19065 3.238365,-23.83835 16.398428,-45.8874 37.272667,-62.44857 2.770972,-2.19842 5.384106,-4.28278 5.806965,-4.63189 1.096047,-0.9049 14.339977,-7.66217 18.323803,-9.34911 3.06996,-1.29996 3.319857,-1.55898 3.004426,-3.11409 -0.921039,-4.54075 -1.465164,-26.60522 -0.748471,-30.35056 0.165698,-0.865931 0.460763,-3.095108 0.655701,-4.953738 0.194931,-1.858623 1.073487,-6.36392 1.952344,-10.01176 3.798354,-15.765714 11.277694,-31.008631 21.360264,-43.532271 5.43042,-6.745165 19.85882,-20.223021 21.64927,-20.223021 0.34581,0 0.72321,-0.212546 0.83867,-0.472324 0.41887,-0.942468 9.16058,-6.369215 14.69454,-9.122195 9.57415,-4.7628504 23.0638,-9.1176664 31.8032,-10.2669127 1.2123,-0.1594195 3.19607,-0.4401737 4.40837,-0.6238982 7.45807,-1.13027273 24.02863,-0.79716582 31.80319,0.6393181 1.03912,0.1919942 2.73949,0.5034426 3.7786,0.6921074 4.2292,0.7678661 15.4726,4.1462729 19.52276,5.8661779 4.27026,1.8133735 13.85962,6.7766495 17.47738,9.0459685 14.58767,9.150431 24.23837,18.798036 34.75102,34.739853 l 5.13281,7.783613 2.8077,-2.609489 c 4.71268,-4.379964 10.01545,-8.774275 12.13307,-10.054454 1.10574,-0.668461 2.15214,-1.392266 2.32532,-1.608456 0.33549,-0.418785 1.02555,-0.855849 5.98278,-3.789304 5.9481,-3.519802 15.64107,-6.95854 24.24601,-8.601662 3.42568,-0.654137 21.85154,-0.859755 24.113,-0.269081 1.11227,0.290513 3.01418,0.67049 4.22648,0.844393 1.2123,0.173903 2.91267,0.491647 3.7786,0.706097 0.86593,0.21445 2.22798,0.52551 3.02679,0.691244 2.82381,0.585878 9.65736,3.399371 15.08917,6.212484 6.60688,3.421674 14.90974,9.569337 19.73407,14.611637 3.42114,3.575715 9.34754,11.033612 10.22066,12.861887 0.23643,0.495065 1.14627,2.033698 2.02186,3.419183 1.59485,2.523568 4.11056,7.737599 5.01362,10.391144 0.0589,0.173186 0.27592,0.739976 0.48217,1.259533 1.39258,3.507886 3.17776,9.862726 3.8949,13.864979 0.86667,4.836767 0.9027,25.108557 0.0505,28.392767 l -0.42501,1.63782 6.18489,0.38085 c 3.40169,0.20946 7.03508,0.53877 8.07419,0.73179 14.30874,2.65798 17.68916,3.65345 27.39483,8.06727 5.71854,2.6006 8.01742,3.86561 13.11146,7.21487 6.28589,4.13289 8.1857,5.7221 15.25698,12.76254 10.07185,10.02793 17.39272,21.80582 22.27814,35.84128 4.22866,12.1486 4.28715,12.57846 4.2132,30.9652 -0.0748,18.59953 -0.33757,20.37644 -4.79273,32.40897 -2.9032,7.84098 -9.91023,20.95104 -12.27119,22.95922 -0.20361,0.17318 -2.10152,2.4526 -4.21758,5.06536 -4.32569,5.34108 -13.08056,13.77518 -16.88947,16.27068 -1.38548,0.90774 -2.61353,1.86297 -2.72898,2.12275 -0.11547,0.25978 -0.61141,0.47233 -1.10209,0.47233 -0.4907,0 -0.89218,0.21619 -0.89218,0.48043 0,0.26423 -0.54745,0.76017 -1.21655,1.10209 -14.97088,7.65016 -19.05985,9.32791 -28.5474,11.71332 l -7.70714,1.93776 -171.9262,0.15751 c -137.12927,0.12563 -172.87046,-0.005 -176.59168,-0.64612 z"
     id="path17" />
  <path
     style="opacity:0.75;fill:#003d50;fill-opacity:0.93725502;stroke-width:0.629766"
     d="m 204.67405,319.24477 c -1.2123,-0.30117 -22.07098,-0.545 -46.3526,-0.54186 -30.35631,0.004 -45.11189,-0.2147 -47.23248,-0.6998 -1.69623,-0.38803 -3.57999,-0.82367 -4.18614,-0.96809 -0.60615,-0.14441 -1.59803,-0.3791 -2.20418,-0.52153 -0.60615,-0.14243 -1.95228,-0.58745 -2.99139,-0.98892 -1.03912,-0.40148 -1.960151,-0.71004 -2.046743,-0.68569 -0.08659,0.0243 -0.299139,0.009 -0.472325,-0.0344 l -0.94465,-0.23616 c -0.346371,-0.0866 -0.771463,-0.22829 -0.944649,-0.31489 -0.173186,-0.0866 -0.527429,-0.21848 -0.787208,-0.29308 -0.259778,-0.0746 -1.605904,-0.64686 -2.99139,-1.27165 -1.385486,-0.62479 -2.873309,-1.14236 -3.306273,-1.15013 -0.432964,-0.008 -0.787208,-0.29752 -0.787208,-0.64389 0,-0.34637 -0.184553,-0.44521 -0.410119,-0.21965 -0.426546,0.42655 -7.433821,-3.07337 -8.911692,-4.45112 -0.464429,-0.43296 -1.132103,-0.78721 -1.48372,-0.78721 -1.547207,0 -10.233301,-6.82623 -16.609281,-13.05291 -7.046248,-6.88125 -8.534117,-8.56917 -11.531896,-13.08239 -0.92027,-1.38548 -1.885764,-2.61353 -2.145543,-2.72898 -0.259778,-0.11546 -0.472324,-0.49253 -0.472324,-0.83793 0,-0.3454 -0.958795,-2.093 -2.130655,-3.88356 -2.029658,-3.10124 -6.63188,-12.24569 -6.965087,-13.83939 -0.08647,-0.41358 -0.499347,-1.58969 -0.917505,-2.61359 -1.230208,-3.01228 -3.131212,-10.28952 -2.77971,-10.64102 0.178065,-0.17807 0.09625,-0.69188 -0.181819,-1.14179 -0.278065,-0.44992 -0.562879,-1.24811 -0.632919,-1.77376 -0.07004,-0.52565 -0.315158,-2.231 -0.544705,-3.78967 -0.229547,-1.55867 -0.43366,-8.50184 -0.453584,-15.42927 -0.03153,-10.96218 0.147887,-13.37108 1.383713,-18.57811 1.53271,-6.45793 4.796875,-16.31714 5.723366,-17.28708 0.314311,-0.32906 0.571475,-1.10839 0.571475,-1.73186 0,-0.62347 0.283395,-1.13358 0.629767,-1.13358 0.346371,0 0.562383,-0.21255 0.480026,-0.47233 -0.220687,-0.69611 1.486551,-4.5658 2.014355,-4.5658 0.41647,0 2.047913,-3.05638 2.016951,-3.7786 -0.0074,-0.17318 0.397423,-0.54485 0.899661,-0.82591 0.502238,-0.28107 0.748778,-0.77701 0.547865,-1.10209 -0.200913,-0.32509 -0.06518,-0.59106 0.301638,-0.59106 0.366813,0 0.666933,-0.39478 0.666933,-0.87728 0,-0.4825 0.465654,-1.05596 1.034787,-1.27435 0.569133,-0.2184 0.892188,-0.53969 0.7179,-0.71397 -0.174287,-0.17429 0.760934,-1.49601 2.078269,-2.93715 1.317336,-1.44115 2.339813,-2.7797 2.272173,-2.97457 -0.06764,-0.19486 2.924105,-3.34662 6.648322,-7.00392 3.724218,-3.65729 6.771304,-6.56684 6.771304,-6.46566 0,0.10118 2.327198,-1.67967 5.171551,-3.95745 2.844353,-2.27777 6.245091,-4.57095 7.557195,-5.09595 1.312105,-0.525 2.385645,-1.2544 2.385645,-1.6209 0,-0.36648 0.189549,-0.47679 0.421218,-0.24512 0.23167,0.23167 0.886726,-6e-5 1.45568,-0.51496 0.568953,-0.5149 3.709294,-2.0625 6.978535,-3.43912 4.566984,-1.92308 5.914829,-2.76429 5.817839,-3.63101 -0.875445,-7.82288 -1.223328,-26.37771 -0.587919,-31.35684 0.13261,-1.03911 0.446083,-3.586748 0.696604,-5.661418 0.250521,-2.074665 1.13407,-6.325587 1.963447,-9.446495 0.829375,-3.120901 1.664345,-6.350185 1.855475,-7.176187 0.19113,-0.826001 0.76014,-2.299749 1.26446,-3.274998 0.50432,-0.97525 0.91695,-2.156704 0.91695,-2.625458 0,-2.055337 6.61701,-14.795705 11.69195,-22.511626 4.06694,-6.183374 14.00581,-17.842482 16.73341,-19.629676 0.85311,-0.558981 2.95401,-2.324612 4.66866,-3.923624 1.71465,-1.599012 3.61348,-3.065747 4.21963,-3.259412 0.60615,-0.193664 1.10209,-0.633139 1.10209,-0.976611 0,-0.343472 0.2854,-0.44811 0.63422,-0.232529 0.34882,0.215582 0.80423,-0.05109 1.01202,-0.592599 0.2078,-0.541511 0.77259,-0.984565 1.25509,-0.984565 0.4825,0 0.87727,-0.283395 0.87727,-0.629767 0,-0.346371 0.42509,-0.629766 0.94465,-0.629766 0.51956,0 0.94465,-0.250342 0.94465,-0.556316 0,-0.305973 0.49594,-0.735686 1.10209,-0.954915 0.60615,-0.21923 2.51907,-1.24941 4.25092,-2.289291 1.73186,-1.03988 4.08362,-2.320088 5.22614,-2.844906 8.38629,-3.8522567 10.31494,-4.6395565 13.66685,-5.5790047 2.07823,-0.5824702 4.20369,-1.2304035 4.72325,-1.4398518 1.7494,-0.7052334 5.73243,-1.7016223 9.70838,-2.4286324 1.00996,-0.1846742 2.02274,-0.4509956 2.2506,-0.5918254 1.16712,-0.721317 10.4399,-1.23356118 21.10375,-1.1658065 11.91675,0.075715 15.04256,0.4518236 25.66298,3.0878567 0.77933,0.1934345 1.70037,0.4139498 2.04674,0.4900339 0.34637,0.076084 0.98401,0.3596369 1.41697,0.6301173 0.43297,0.2704803 0.78721,0.3486239 0.78721,0.1736523 0,-1.1707147 21.94241,8.5267716 24.41982,10.7923816 0.47344,0.432964 1.14668,0.787208 1.49609,0.787208 1.89059,0 13.02816,8.706976 19.74215,15.433735 4.15645,4.164367 7.98228,8.135062 8.50184,8.823767 0.51956,0.688705 1.86568,2.425616 2.99139,3.859803 1.12571,1.434187 2.04674,2.921075 2.04674,3.304194 0,0.38312 0.2834,0.696582 0.62977,0.696582 0.34637,0 0.62976,0.360523 0.62976,0.801161 0,0.440639 0.79644,1.786764 1.76986,2.99139 0.97342,1.204626 2.41351,3.25296 3.2002,4.551853 1.60035,2.642326 2.05191,2.822555 3.29724,1.315978 0.47537,-0.575104 3.13147,-2.997491 5.90245,-5.383082 6.27931,-5.406003 6.44642,-5.536832 7.07224,-5.536832 0.28207,0 1.51371,-0.824982 2.73696,-1.833294 5.17545,-4.266043 16.17717,-9.205979 25.55853,-11.476157 4.40698,-1.066438 7.86366,-1.378278 16.58799,-1.496463 6.0615,-0.08211 11.63164,0.08104 12.37809,0.362561 0.74645,0.28152 2.58852,0.6666 4.09348,0.855732 4.32005,0.54291 6.07158,0.95011 10.20555,2.372611 6.78016,2.333057 16.74235,7.391996 19.91461,10.112919 0.70669,0.60615 1.58165,1.102091 1.94434,1.102091 0.84784,0 16.95962,16.392665 16.95962,17.255288 0,0.280686 4.09191,6.601997 4.97038,7.678387 0.87276,1.069413 6.03346,12.533049 6.06017,13.461664 0.005,0.184409 0.23458,0.689531 0.5095,1.122496 0.27491,0.432964 0.33145,0.787208 0.12563,0.787208 -0.20581,0 -0.0943,0.522945 0.24774,1.162107 0.34207,0.639157 0.76823,1.843585 0.94703,2.676507 0.1788,0.832916 0.60164,2.647979 0.93963,4.033464 0.33799,1.385486 0.77326,4.64453 0.96727,7.24231 0.194,2.59779 0.48119,5.78598 0.63819,7.08487 0.19099,1.58009 0.0337,2.36482 -0.47517,2.37127 -0.47178,0.006 -0.40189,0.24148 0.18402,0.62012 0.51956,0.33577 0.64321,0.61483 0.27479,0.62013 -0.4214,0.006 -0.70164,2.31026 -0.75558,6.21244 -0.0471,3.41155 -0.17082,6.59711 -0.2748,7.07902 -0.14812,0.68651 1.29399,0.9693 6.66054,1.30611 3.76728,0.23643 7.59311,0.61977 8.50184,0.85186 0.90874,0.2321 2.37389,0.51645 3.25588,0.63192 5.46467,0.71535 17.51693,4.53979 21.01984,6.67004 1.01664,0.61825 2.081,0.98036 2.36525,0.80468 0.28425,-0.17568 0.51682,-0.0193 0.51682,0.34752 0,0.36681 0.56679,0.66694 1.25953,0.66694 0.69274,0 1.25953,0.28339 1.25953,0.62976 0,0.34637 0.52343,0.62977 1.16317,0.62977 0.63975,0 1.81669,0.56679 2.61543,1.25953 0.79874,0.69274 1.83399,1.25953 2.30054,1.25953 0.46656,0 0.84829,0.2834 0.84829,0.62977 0,0.34637 0.42509,0.62977 0.94465,0.62977 0.51956,0 0.94465,0.2355 0.94465,0.52334 0,0.28785 0.77934,0.92548 1.73186,1.41698 2.07142,1.06884 3.04788,1.78551 4.4352,3.25525 0.57216,0.60615 1.25469,1.10209 1.51674,1.10209 0.26206,0 1.84575,1.34612 3.51933,2.99139 1.67358,1.64526 3.59251,3.45458 4.26428,4.02069 0.67177,0.56612 2.35498,2.37983 3.74046,4.03046 1.38549,1.65063 3.01501,3.52545 3.62116,4.16626 0.60615,0.64082 1.10698,1.37767 1.11297,1.63745 0.006,0.25978 0.64362,1.07493 1.41698,1.81145 1.96077,1.8674 7.03838,10.57981 9.37831,16.09178 1.07658,2.536 2.31883,5.4611 2.76056,6.50021 1.22941,2.89205 3.94602,12.29084 4.36158,15.09005 0.44913,3.02527 0.47463,32.48376 0.0309,35.67656 -1.58527,11.40625 -11.93541,33.74201 -18.43152,39.77547 -0.77933,0.72383 -1.41697,1.53053 -1.41697,1.79267 0,0.81108 -7.95216,9.29517 -12.35343,13.17978 -2.68226,2.36739 -8.79061,6.89876 -9.29962,6.89876 -0.24279,0 -1.06159,0.57775 -1.81954,1.2839 -0.75796,0.70614 -2.02139,1.44536 -2.80762,1.64269 -0.78623,0.19733 -1.42951,0.62818 -1.42951,0.95745 0,0.32926 -0.28339,0.42351 -0.62976,0.20944 -0.34637,-0.21407 -0.62977,-0.0724 -0.62977,0.31488 0,0.38726 -0.25919,0.54391 -0.57598,0.34813 -0.31678,-0.19579 -0.67196,-0.068 -0.78928,0.28395 -0.11732,0.35196 -0.8223,0.75721 -1.56662,0.90056 -0.74432,0.14334 -2.22824,0.71306 -3.2976,1.26605 -1.06935,0.55298 -2.03057,0.92884 -2.13602,0.83522 -0.10545,-0.0936 -0.90302,0.29586 -1.77237,0.86547 -2.02954,1.32981 -10.2387,3.92242 -16.54309,5.22463 -4.40247,0.90935 -16.59977,1.0282 -116.48843,1.13498 -61.36409,0.0656 -104.7696,0.27831 -96.45669,0.4727 11.6363,0.27209 8.01329,0.37086 -15.74415,0.42918 -16.9722,0.0417 -31.85043,-0.17065 -33.06273,-0.47182 z"
     id="path18" />
  <path
     style="opacity:0.75;fill:#003d50;fill-opacity:0.937255;stroke-width:0.629766"
     d="m 49.751538,510.19438 c -5.085742,-1.69096 -11.087243,-6.52663 -14.156235,-11.40628 -1.894703,-3.01255 -3.082644,-8.35168 -2.64567,-11.89082 0.719031,-5.82357 3.772934,-13.42486 29.511617,-73.45571 19.226189,-44.84162 21.574964,-49.78854 25.408142,-53.51397 5.13007,-4.98585 7.886838,-6.22946 14.445058,-6.51629 3.97613,-0.1739 6.70986,0.048 9.01137,0.73148 3.72404,1.10592 10.32035,5.86687 11.72355,8.46158 2.1676,4.00819 3.03635,6.3353 3.65739,9.79708 1.09859,6.12375 0.25336,8.9696 -9.5704,32.2234 -24.062862,56.95911 -34.892957,82.11218 -38.793565,90.09868 -3.204877,6.56199 -8.213878,12.16041 -12.714542,14.2107 -3.101882,1.41307 -13.043568,2.20215 -15.876715,1.26015 z"
     id="path19" />
  <path
     style="opacity:0.75;fill:#003d50;fill-opacity:0.937255;stroke-width:0.629766"
     d="m 171.9262,510.56381 c -0.17319,-0.17682 -1.36826,-0.4604 -2.65573,-0.63016 -7.39154,-0.97468 -14.92919,-9.87426 -15.85693,-18.722 -0.79695,-7.60049 0.0839,-10.04353 22.47764,-62.3408 17.36353,-40.54999 24.58873,-57.11502 27.03217,-61.97595 2.40947,-4.79337 7.32986,-9.97647 11.39286,-12.00115 2.82467,-1.40759 3.98087,-1.59323 9.8468,-1.58103 8.22939,0.0171 10.62891,0.97073 15.83792,6.29419 4.25177,4.34519 5.15557,6.16943 6.23903,12.59292 0.98946,5.86616 0.57978,9.20241 -1.89503,15.4324 -4.94821,12.45639 -39.54161,92.87841 -44.69257,103.90037 -1.45685,3.11734 -3.07092,6.56831 -3.58682,7.66881 -1.554,3.31491 -7.53598,8.82181 -10.81238,9.95366 -2.88956,0.99822 -12.71208,2.03651 -13.32696,1.40874 z"
     id="path20" />
  <path
     style="opacity:0.75;fill:#003d50;fill-opacity:0.937255;stroke-width:0.629766"
     d="m 282.45018,510.12147 c -6.05465,-1.74845 -7.14004,-2.34487 -10.62086,-5.83615 -5.03172,-5.04685 -6.01108,-7.60006 -6.09946,-15.90156 l -0.0738,-6.92743 5.64225,-13.53997 c 9.62043,-23.08662 36.02786,-84.53634 40.32476,-93.83518 1.04036,-2.25141 2.59039,-5.65215 3.44452,-7.55719 1.92453,-4.29247 7.12214,-9.55292 11.60666,-11.74699 3.12849,-1.53063 3.79992,-1.62026 10.17115,-1.35775 8.16079,0.33624 10.21219,1.29266 16.23334,7.56847 4.5144,4.70533 5.219,6.5587 5.70031,14.99403 l 0.34202,5.99405 -10.54372,24.54961 c -5.79904,13.50229 -11.17741,25.96659 -11.95193,27.69845 -0.77451,1.73186 -3.04407,6.97466 -5.04347,11.65068 -16.74846,39.16984 -24.15238,55.31237 -26.67987,58.16924 -1.42058,1.60571 -6.17114,4.83502 -7.50691,5.10302 -0.59959,0.1203 -2.36544,0.51112 -3.92412,0.86851 -5.17842,1.18735 -7.20914,1.20691 -11.02091,0.10616 z"
     id="path21" />
  <path
     style="opacity:0.75;fill:#003d50;fill-opacity:0.937255;stroke-width:0.629766"
     d="m 398.24523,508.88806 c -4.69678,-2.37123 -9.18389,-7.01886 -11.45533,-11.86512 -1.39153,-2.96891 -1.68714,-4.48545 -1.68401,-8.63918 0.004,-4.88666 0.16195,-5.41679 5.26412,-17.63345 16.91279,-40.49602 38.91933,-92.11579 43.41304,-101.83206 3.18548,-6.88761 7.06089,-11.14584 12.64402,-13.89299 3.78556,-1.86267 4.64532,-2.03702 9.8275,-1.99286 4.32266,0.0368 6.35586,0.35841 8.51296,1.34645 6.65965,3.0504 10.94502,7.72217 13.26267,14.45856 1.95525,5.68302 1.63442,9.32509 -1.53404,17.41494 -5.07796,12.96523 -40.95781,97.42997 -46.29108,108.97381 -2.885,6.24457 -6.74581,10.70348 -11.55277,13.34248 -2.95262,1.62098 -4.0557,1.84817 -9.93398,2.04597 -6.35302,0.21377 -6.76407,0.14601 -10.4731,-1.72655 z"
     id="path22" />
  <path
     style="opacity:0.75;fill:#006181;fill-opacity:0.93725502;stroke-width:0.629766"
     d="M 49.810815,510.03025 C 44.6595,508.50234 36.81348,501.75272 34.919536,497.21987 c -1.875815,-4.48946 -2.290967,-8.00263 -1.453474,-12.29981 0.438785,-2.25142 0.740085,-4.30603 0.669555,-4.56581 -0.07053,-0.25978 0.110301,-0.47232 0.401846,-0.47232 0.431356,0 1.100597,-1.6367 2.317587,-5.6679 0.389998,-1.29185 1.185269,-3.12097 2.053584,-4.72325 0.563122,-1.03911 0.984063,-2.03099 0.935425,-2.20418 -0.04864,-0.17319 0.460278,-1.55533 1.130925,-3.07145 0.670648,-1.5161 1.219359,-2.98096 1.219359,-3.25523 0,-0.27427 0.398877,-1.30098 0.886394,-2.28157 0.487517,-0.98059 1.167109,-2.49138 1.510205,-3.35731 0.343096,-0.86593 1.137891,-2.70799 1.766211,-4.09348 0.628321,-1.38549 1.17338,-2.66076 1.211242,-2.83395 0.07528,-0.34436 0.824126,-2.04136 3.543958,-8.0312 0.983409,-2.16575 1.788017,-4.12216 1.788017,-4.3476 0,-0.22543 0.741108,-1.97644 1.646905,-3.89115 0.905798,-1.9147 1.707447,-3.78411 1.781441,-4.15425 0.07399,-0.37013 0.590412,-1.66485 1.147596,-2.87715 2.756642,-5.9978 4.240786,-9.40273 4.240786,-9.72925 0,-0.1984 0.595033,-1.70378 1.322295,-3.34527 0.727263,-1.64149 1.56573,-3.55131 1.863262,-4.24406 0.297532,-0.69274 1.544566,-3.47653 2.771186,-6.18621 1.22662,-2.70967 2.230219,-5.17318 2.230219,-5.47446 0,-0.30127 0.594782,-1.55585 1.321739,-2.78795 0.726956,-1.2321 1.128934,-2.24018 0.893285,-2.24018 -0.235648,0 0.228352,-1.06273 1.031112,-2.36163 0.80276,-1.29889 1.386921,-2.43544 1.298136,-2.52566 -0.08878,-0.0902 0.275148,-1.00829 0.808742,-2.04014 0.533593,-1.03186 0.958685,-2.02374 0.944649,-2.20418 -0.01404,-0.18045 0.394012,-1.13937 0.906773,-2.13094 0.512761,-0.99157 0.754665,-1.98048 0.537565,-2.19758 -0.2171,-0.2171 -0.121031,-0.39473 0.213487,-0.39473 0.567547,0 2.497896,-4.42996 2.16468,-4.96772 -0.08332,-0.13446 0.119563,-0.41786 0.450844,-0.62977 0.33128,-0.21191 1.51124,-2.19236 2.622133,-4.401 2.64096,-5.25065 6.88681,-9.7169 11.289311,-11.87532 3.165872,-1.55214 4.211133,-1.73377 9.839804,-1.70981 5.59129,0.0238 6.66804,0.21867 9.59966,1.73739 1.8161,0.94082 3.42901,1.72323 3.58425,1.73867 0.62392,0.0621 5.72771,5.33815 5.55418,5.74167 -0.10256,0.23849 0.31543,0.7145 0.92887,1.05779 0.61343,0.3433 0.99818,0.71496 0.85499,0.82592 -0.1432,0.11095 0.23821,1.70276 0.84756,3.53735 1.76249,5.30637 1.47812,10.84251 -0.88001,17.13179 -1.10389,2.94416 -2.07002,5.63641 -2.14696,5.98278 -0.0769,0.34637 -0.49048,1.2674 -0.91897,2.04674 -0.42849,0.77934 -0.61138,1.41697 -0.40643,1.41697 0.20496,0 -0.11032,0.92104 -0.70061,2.04675 -2.58875,4.93684 -3.02297,5.82533 -2.84693,5.82533 0.19106,0 -0.67147,2.29794 -2.12745,5.6679 -0.44894,1.03911 -1.17395,2.88118 -1.61112,4.09348 -0.43717,1.2123 -1.297,3.05437 -1.91073,4.09348 -0.61373,1.03912 -1.17489,2.1727 -1.24705,2.51907 -0.17122,0.82201 -1.10128,3.23011 -2.31069,5.98278 -0.53263,1.2123 -1.34039,3.05436 -1.79503,4.09348 -0.45464,1.03911 -1.55006,3.50127 -2.43427,5.47145 -0.88422,1.97019 -1.60767,3.76943 -1.60767,3.99831 0,0.22888 -0.44609,1.45086 -0.99132,2.71551 -0.54522,1.26464 -1.34734,3.14954 -1.782488,4.18865 -0.435143,1.03912 -1.322162,2.97655 -1.971143,4.30541 -0.64898,1.32885 -1.229436,2.74583 -1.289894,3.14883 -0.06046,0.403 -1.021695,2.71649 -2.136085,5.14109 -4.253075,9.25353 -5.054164,11.06701 -5.054164,11.44147 0,0.21237 -0.549794,1.55075 -1.221765,2.97418 -3.497445,7.40858 -5.075898,11.02089 -5.075898,11.61625 0,0.36365 -0.594783,1.66925 -1.321739,2.90135 -0.726956,1.2321 -1.0812,2.24452 -0.787208,2.24982 0.293992,0.005 0.251136,0.21785 -0.09524,0.47233 -0.346372,0.25447 -1.513952,2.30475 -2.594623,4.55616 -3.667422,7.64052 -9.65872,13.7945 -14.663568,15.06174 -3.722696,0.94259 -11.559646,1.28307 -13.855965,0.60196 z"
     id="path23" />
  <path
     style="opacity:0.75;fill:#006181;fill-opacity:0.937255;stroke-width:0.629766"
     d="m 172.16746,510.62135 c -0.17357,-0.28085 -0.88397,-0.51064 -1.57865,-0.51064 -2.61954,0 -7.85564,-2.79185 -10.52985,-5.61443 -6.83965,-7.21914 -8.18902,-15.0343 -4.48545,-25.9784 1.0941,-3.23305 2.04647,-6.16166 2.11639,-6.50803 0.0699,-0.34637 0.51564,-1.33826 0.99047,-2.20418 0.47484,-0.86593 0.80971,-1.64824 0.74416,-1.73846 -0.0655,-0.0902 0.31894,-1.01126 0.85441,-2.04674 0.53547,-1.03549 0.81807,-1.8827 0.62801,-1.8827 -0.19007,0 0.1569,-0.76687 0.77103,-1.70416 0.61414,-0.93729 1.04002,-1.79045 0.94641,-1.8959 -0.0936,-0.10545 0.26637,-1.03598 0.79997,-2.06784 0.53359,-1.03185 0.95868,-2.02373 0.94465,-2.20418 -0.014,-0.18045 0.41105,-1.17233 0.94465,-2.20418 0.53359,-1.03186 0.95868,-2.02374 0.94465,-2.20418 -0.014,-0.18045 0.41259,-1.1753 0.94806,-2.21079 0.53547,-1.03548 0.81807,-1.8827 0.62801,-1.8827 -0.19007,0 0.11864,-0.70848 0.68602,-1.57441 0.56738,-0.86593 0.83419,-1.57442 0.59292,-1.57442 -0.24127,0 0.17434,-0.99188 0.92358,-2.20418 0.74925,-1.2123 1.1266,-2.20852 0.83857,-2.21382 -0.28802,-0.005 -0.22268,-0.21785 0.14521,-0.47233 0.75408,-0.52161 3.79987,-7.76264 3.57207,-8.4922 -0.0811,-0.25978 0.10519,-0.47233 0.41401,-0.47233 0.30882,0 0.78166,-0.77933 1.05075,-1.73185 0.26908,-0.95252 0.53548,-1.87356 0.59199,-2.04674 0.0565,-0.17319 1.00065,-2.25422 2.09809,-4.62452 1.09744,-2.37029 2.00435,-4.63745 2.01537,-5.03813 0.011,-0.40067 0.42703,-1.26619 0.92447,-1.92337 0.49745,-0.65718 0.75511,-1.43651 0.57258,-1.73185 -0.18254,-0.29535 -0.0887,-0.53699 0.20854,-0.53699 0.29723,0 0.90115,-1.06273 1.34204,-2.36163 0.87117,-2.56649 2.13426,-5.4504 3.99192,-9.1144 0.65375,-1.28942 1.21322,-2.5647 1.24327,-2.83394 0.0716,-0.64159 1.69389,-4.43712 2.83367,-6.62976 0.49514,-0.95252 0.72651,-1.73186 0.51416,-1.73186 -0.21235,0 0.03,-0.77934 0.53863,-1.73186 2.34949,-4.40019 4.16432,-8.3444 3.83946,-8.3444 -0.1965,0 0.34126,-1.34613 1.19501,-2.99139 3.9373,-7.58753 4.76673,-9.44532 4.38666,-9.8254 -0.22457,-0.22457 -0.061,-0.4083 0.36359,-0.4083 0.42454,0 0.59674,-0.2834 0.38267,-0.62977 -0.21407,-0.34637 -0.10819,-0.62977 0.23528,-0.62977 0.34347,0 0.78311,-0.49973 0.97697,-1.11053 0.58427,-1.84087 8.97364,-10.20372 10.27858,-10.24609 0.2611,-0.008 1.60831,-0.32319 2.9938,-0.69936 1.53667,-0.41722 4.85225,-0.52795 8.50184,-0.28392 7.78643,0.52064 7.5572,0.48381 7.5572,1.21403 0,0.34637 0.18132,0.44845 0.40292,0.22685 0.68443,-0.68444 8.96606,7.81983 10.26068,10.53652 1.70829,3.58475 2.61449,11.16549 1.85012,15.4769 -0.80106,4.51836 -0.77165,4.41702 -1.91972,6.61254 -0.54336,1.03912 -1.19406,2.59779 -1.446,3.46372 -0.25192,0.86593 -1.15958,3.03835 -2.01701,4.82761 -0.85743,1.78925 -1.63207,3.63132 -1.72142,4.09348 -0.0894,0.46216 -0.52991,1.69047 -0.97903,2.72958 -0.44911,1.03912 -1.2123,2.8062 -1.69597,3.92685 -1.73639,4.02312 -2.71128,6.21426 -4.59737,10.33293 -1.05369,2.30094 -1.9158,4.50722 -1.9158,4.90285 0,0.39563 -0.45768,1.41784 -1.01708,2.27158 -0.55939,0.85375 -0.81967,1.55226 -0.5784,1.55226 0.24127,0 -0.21813,1.06273 -1.02089,2.36163 -0.80275,1.29889 -1.40571,2.4267 -1.33988,2.50624 0.0658,0.0795 -0.57576,1.71715 -1.42575,3.63912 -0.84998,1.92197 -1.54464,3.69896 -1.54368,3.94885 0.002,0.43865 -1.44438,3.56144 -3.92862,8.48389 -0.65551,1.2989 -1.016,2.36163 -0.80107,2.36163 0.21494,0 -0.0133,0.77933 -0.5071,1.73185 -0.49383,0.95253 -1.55969,3.00714 -2.36857,4.56581 -0.80887,1.55867 -1.38652,2.83395 -1.28366,2.83395 0.22436,0 -0.96278,3.04595 -2.20903,5.6679 -0.49391,1.03911 -0.83808,2.03099 -0.76482,2.20418 0.0733,0.17318 -0.61417,1.59016 -1.52761,3.14883 -0.91345,1.55867 -1.66966,3.04947 -1.68047,3.31287 -0.0108,0.26341 -0.45624,1.32317 -0.98984,2.35503 -0.53359,1.03185 -0.95868,2.02373 -0.94465,2.20418 0.014,0.18044 -0.41259,1.17529 -0.94806,2.21078 -0.53547,1.03549 -0.81266,1.8827 -0.61598,1.8827 0.19668,0 -0.38976,1.27528 -1.3032,2.83395 -0.91344,1.55867 -1.42133,2.83828 -1.12864,2.84359 0.29269,0.005 0.23605,0.21785 -0.12586,0.47232 -0.36192,0.25448 -1.91998,3.29663 -3.46237,6.76035 -2.328,5.22796 -3.53916,7.04645 -7.1305,10.70603 -2.37939,2.4246 -4.43588,4.33243 -4.56999,4.23963 -0.1341,-0.0928 -0.88018,-0.012 -1.65796,0.17945 -3.64736,0.89805 -12.54207,1.90003 -12.82356,1.44457 z"
     id="path24" />
  <path
     style="opacity:0.75;fill:#006181;fill-opacity:0.937255;stroke-width:0.629766"
     d="m 279.96023,509.21611 c -3.79358,-1.29234 -4.9306,-2.07338 -8.50184,-5.84011 -2.26743,-2.39154 -4.23038,-4.75938 -4.36211,-5.26187 -1.14023,-4.34932 -1.42107,-7.17714 -1.23545,-12.43963 0.16994,-4.81768 0.52428,-6.73453 1.67792,-9.07681 0.80437,-1.63315 1.46996,-3.19182 1.47908,-3.46372 0.009,-0.2719 0.33284,-1.06115 0.71938,-1.75389 0.38653,-0.69274 0.73305,-1.40123 0.77004,-1.57441 0.12486,-0.58456 1.68736,-4.0813 2.60303,-5.82534 0.5001,-0.95252 0.72844,-1.73186 0.50742,-1.73186 -0.22102,0 0.16738,-0.92103 0.86311,-2.04674 0.69572,-1.12571 1.27988,-2.26226 1.29813,-2.52567 0.0183,-0.2634 0.46976,-1.32317 1.00335,-2.35502 0.5336,-1.03185 1.00279,-2.09162 1.04265,-2.35502 0.0399,-0.26341 0.3528,-1.18742 0.69542,-2.05334 0.34262,-0.86593 0.90089,-2.28291 1.2406,-3.14884 0.3397,-0.86592 1.08375,-2.54414 1.65344,-3.72936 0.56968,-1.18522 1.04332,-2.3188 1.05253,-2.51906 0.009,-0.20027 0.82116,-2.04504 1.80435,-4.09951 0.98318,-2.05446 1.84966,-4.03823 1.92551,-4.40837 0.17247,-0.84171 1.40579,-3.78371 2.76952,-6.60651 0.57259,-1.18522 1.06618,-2.3188 1.09685,-2.51907 0.0307,-0.20027 0.84194,-2.06449 1.80279,-4.14272 0.96086,-2.07822 1.80826,-4.06199 1.88311,-4.40836 0.0749,-0.34637 0.65077,-1.76335 1.27983,-3.14883 0.62906,-1.38549 1.53546,-3.43596 2.01423,-4.55661 2.16811,-5.07489 3.00931,-6.93806 4.127,-9.14081 0.65906,-1.29889 1.01535,-2.36162 0.79176,-2.36162 -0.2236,0 0.20647,-0.99188 0.95571,-2.20418 0.74925,-1.2123 1.17932,-2.20419 0.95572,-2.20419 -0.2236,0 0.14549,-1.06273 0.82019,-2.36162 0.67471,-1.29889 1.87501,-3.7786 2.66734,-5.51046 0.79233,-1.73185 1.97258,-4.20381 2.62278,-5.49324 0.6502,-1.28943 1.17138,-2.49241 1.15818,-2.67329 -0.0234,-0.32007 1.31969,-3.39035 3.99965,-9.1434 1.1271,-2.41955 9.81796,-12.1546 9.81796,-10.99757 0,0.22402 1.00366,-0.18486 2.23035,-0.90862 2.00643,-1.18382 2.90738,-1.28184 8.97417,-0.97629 8.82565,0.44448 8.94801,0.45926 8.94801,1.0804 0,0.29259 0.28339,0.35683 0.62976,0.14276 0.34637,-0.21407 0.62977,-0.0724 0.62977,0.31489 0,0.38725 0.21255,0.5748 0.47232,0.41678 0.43064,-0.26196 10.44018,9.33393 10.20285,9.78121 -0.0564,0.10623 0.2007,1.32673 0.57125,2.71222 0.37055,1.38548 0.86067,5.09467 1.08916,8.24263 0.33803,4.65718 0.21623,6.18253 -0.65372,8.18696 -0.58804,1.35487 -1.49785,3.45528 -2.0218,4.66758 -0.52395,1.2123 -1.35314,3.00648 -1.84264,3.98707 -0.48949,0.98059 -0.88999,2.04257 -0.88999,2.35995 0,0.31737 -0.873,2.49072 -1.93999,4.82965 -1.06699,2.33893 -2.17505,4.81939 -2.46235,5.51214 -0.2873,0.69274 -1.08664,2.5348 -1.7763,4.09348 -0.68967,1.55867 -1.73461,3.96752 -2.3221,5.35301 -0.58748,1.38549 -1.7121,3.93604 -2.49916,5.6679 -0.78706,1.73185 -2.20745,4.99089 -3.15642,7.24231 -0.94897,2.25141 -2.27501,5.14846 -2.94677,6.43789 -0.67176,1.28943 -1.1814,2.42301 -1.13253,2.51907 0.13692,0.26912 -1.30498,3.69026 -2.65426,6.29766 -0.66726,1.28943 -1.19366,2.49683 -1.1698,2.68311 0.0239,0.18628 -0.3932,1.18294 -0.92679,2.21479 -0.5336,1.03185 -0.95869,2.02374 -0.94465,2.20418 0.014,0.18045 -0.41106,1.17233 -0.94465,2.20419 -0.5336,1.03185 -1.0028,2.09161 -1.04268,2.35502 -0.0399,0.2634 -0.49851,1.47081 -1.01918,2.68311 -0.52067,1.2123 -1.22083,2.91266 -1.55592,3.77859 -0.76326,1.9724 -2.85164,6.55137 -4.30838,9.4465 -0.60999,1.2123 -1.16114,2.48757 -1.22478,2.83395 -0.0636,0.34637 -0.62174,1.62164 -1.2402,2.83394 -0.61847,1.2123 -1.14914,2.41971 -1.17926,2.68311 -0.0301,0.26341 -0.47429,1.29021 -0.98705,2.28178 -0.51276,0.99157 -0.75467,1.98048 -0.53757,2.19759 0.2171,0.21709 0.0641,0.39472 -0.33999,0.39472 -0.40411,0 -0.67745,0.21255 -0.60743,0.47233 0.07,0.25977 -0.46639,1.6059 -1.19201,2.99139 -0.72562,1.38548 -1.34743,2.73275 -1.38179,2.99392 -0.0344,0.26117 -1.36052,3.05943 -2.94702,6.21834 -4.21036,8.38332 -7.27086,11.02546 -14.83728,12.80909 -5.56722,1.31235 -8.96502,1.17722 -14.06236,-0.55925 z"
     id="path25" />
  <path
     style="opacity:0.75;fill:#006181;fill-opacity:0.937255;stroke-width:0.629766"
     d="m 46.918014,508.46092 c -1.731624,-0.92553 -5.038336,-3.57271 -7.34825,-5.88263 -3.494761,-3.49475 -4.380789,-4.82227 -5.277655,-7.90738 -1.312714,-4.51558 -0.91359,-11.4491 0.894307,-15.53578 1.85847,-4.201 4.929847,-11.73603 6.626522,-16.25689 0.844954,-2.25142 3.14875,-7.77762 5.119548,-12.28045 1.970799,-4.50283 4.651884,-10.73751 5.957967,-13.85486 7.062898,-16.85763 18.64932,-43.79507 21.128418,-49.12177 0.806024,-1.73186 2.627639,-5.91828 4.048032,-9.30317 3.954303,-9.42334 6.844126,-14.26575 11.014097,-18.45605 4.722299,-4.74533 7.812199,-5.93328 15.43272,-5.93328 4.85441,0 5.87542,0.22016 9.84604,2.12303 6.2159,2.97889 9.75371,7.22122 11.27118,13.51573 0.73841,3.06294 0.98443,5.71404 0.73065,7.87336 -0.4786,4.07213 -4.42967,15.72034 -7.83232,23.09059 -0.7196,1.55867 -2.35737,5.3845 -3.63949,8.50185 -1.28212,3.11734 -4.02148,9.63542 -6.08746,14.48462 -2.06599,4.8492 -5.11572,12.07577 -6.77719,16.05904 -3.734744,8.95384 -7.528243,17.73862 -19.172418,44.39853 -4.703973,10.76997 -7.253334,15.23847 -11.086888,19.43299 -4.508325,4.93282 -7.383232,6.15143 -15.271224,6.47314 -6.021687,0.24559 -6.627271,0.15575 -9.576586,-1.42062 z"
     id="path26" />
  <path
     style="opacity:0.75;fill:#006181;fill-opacity:0.937255;stroke-width:0.629766"
     d="m 50.691585,509.48208 c -4.550069,-0.64921 -13.656019,-8.4536 -15.799409,-13.54111 -1.314743,-3.12065 -1.355512,-11.57062 -0.07308,-15.14615 3.205873,-8.93824 28.477524,-68.63949 41.904877,-98.99526 6.451512,-14.5852 8.242524,-17.63111 13.028942,-22.15791 4.797829,-4.53759 6.884452,-5.30814 14.473405,-5.34476 5.73808,-0.0277 6.60544,0.12998 9.76138,1.77449 6.23241,3.24761 9.05646,6.33644 10.98401,12.01389 1.75842,5.17933 1.4064,10.37924 -1.23725,18.27636 -3.36815,10.06128 -39.381971,94.91648 -45.170711,106.43051 -4.186699,8.3275 -9.449148,14.14306 -14.168808,15.65803 -3.367494,1.08093 -9.907911,1.57344 -13.703358,1.03191 z"
     id="path27" />
  <path
     style="opacity:0.75;fill:#006181;fill-opacity:0.937255;stroke-width:0.629766"
     d="m 46.91759,508.10143 c -1.385486,-0.72812 -4.546939,-3.34911 -7.025451,-5.82443 -5.341018,-5.33412 -6.119568,-7.42144 -5.757284,-15.43541 0.232966,-5.15334 0.520539,-6.05694 6.678022,-20.98339 12.093467,-29.31596 37.048816,-87.08186 41.242224,-95.46628 3.200875,-6.39992 8.665877,-12.59503 12.868541,-14.58774 2.471645,-1.17194 4.122823,-1.4321 9.302678,-1.4657 5.68052,-0.0369 6.62389,0.12837 9.62655,1.68603 7.83987,4.067 11.51474,9.52018 11.95609,17.74179 0.24241,4.51581 0.0269,5.7888 -2.0787,12.27877 -1.29204,3.98236 -3.27547,9.36686 -4.40763,11.96556 -1.13216,2.59871 -5.38116,12.65998 -9.44223,22.35838 -18.810493,44.92207 -31.099459,72.77537 -34.32969,77.80925 -1.087377,1.69453 -3.625169,4.60683 -5.639535,6.47178 -4.342642,4.02052 -6.900034,4.84335 -14.928055,4.80307 -4.379925,-0.022 -6.076278,-0.30626 -8.06553,-1.35168 z"
     id="path28" />
  <path
     style="opacity:0.75;fill:#006181;fill-opacity:0.937255;stroke-width:0.629766"
     d="m 46.91759,508.13654 c -1.385486,-0.74742 -4.543072,-3.38035 -7.016858,-5.85094 -5.171531,-5.16485 -5.88452,-6.9197 -5.889839,-14.49642 -0.0034,-4.79378 0.204624,-5.51783 4.974909,-17.31857 10.154023,-25.11903 37.30818,-88.33921 42.185577,-98.21626 3.196779,-6.47369 5.522794,-9.83071 9.089429,-13.11832 4.240637,-3.90888 6.582841,-4.69211 14.031162,-4.69197 5.62029,1.1e-4 6.74434,0.19321 9.62655,1.65373 7.59926,3.85084 11.4201,9.44593 11.89886,17.42421 0.47135,7.85498 -1.14695,12.25195 -26.165779,71.09301 -10.952599,25.75911 -19.322076,44.71756 -22.082401,50.02082 -2.686612,5.16164 -8.106983,11.23905 -11.707275,13.12639 -2.079465,1.0901 -3.893544,1.3843 -9.49784,1.54037 -6.118828,0.1704 -7.221467,0.0343 -9.446495,-1.16605 z"
     id="path29" />
  <path
     style="opacity:0.75;fill:#007fa9;fill-opacity:0.93725502;stroke-width:0.629766"
     d="m 47.09044,508.22156 c -3.589222,-1.94889 -10.3315,-8.56871 -11.784736,-11.5707 -1.010569,-2.08755 -1.298323,-3.91375 -1.298323,-8.23964 0,-5.40986 0.119827,-5.86095 4.505838,-16.9623 2.478211,-6.27255 5.312159,-13.18295 6.297663,-15.35644 0.985503,-2.1735 1.791825,-4.06238 1.791825,-4.19752 0,-0.13514 5.505174,-13.09336 12.233719,-28.79604 23.796327,-55.53446 24.955988,-57.8969 31.360882,-63.88793 4.338666,-4.05832 6.546277,-4.80787 14.094662,-4.78559 5.59885,0.0165 6.75534,0.21744 9.62655,1.67239 7.71718,3.91059 11.44962,9.45679 11.89044,17.66851 0.42348,7.88894 0.0184,8.99485 -24.91503,68.01476 -10.206116,24.15894 -20.069251,46.55797 -22.987485,52.20426 -2.941685,5.69165 -8.289177,11.80828 -12.04452,13.7769 -2.079465,1.0901 -3.893544,1.3843 -9.49784,1.54037 -5.990566,0.16683 -7.244732,0.0206 -9.273645,-1.08103 z"
     id="path30" />
  <path
     style="opacity:0.75;fill:#007fa9;fill-opacity:0.937255;stroke-width:0.629766"
     d="m 170.0369,509.80743 c -4.14802,-1.10153 -6.71337,-2.59835 -9.87945,-5.76443 -6.3697,-6.3697 -7.77163,-14.62738 -4.31573,-25.42061 1.4749,-4.60631 11.41554,-29.30152 14.82985,-36.84133 0.62741,-1.38548 4.16719,-9.60393 7.86618,-18.26322 3.699,-8.65928 7.85297,-18.29471 9.23105,-21.41205 1.37808,-3.11735 3.08337,-7.08487 3.78954,-8.81673 1.56717,-3.84346 4.35825,-10.19206 8.8079,-20.03448 3.67161,-8.12143 7.94533,-13.9838 12.47694,-17.11494 2.54061,-1.75545 3.18585,-1.8983 9.56002,-2.11647 9.75992,-0.33407 10.7411,-0.048 15.50174,4.51947 5.10492,4.8978 6.79975,7.80127 7.74421,13.26687 1.36845,7.91925 0.90987,9.68927 -8.09382,31.24093 -5.49879,13.16216 -9.7455,23.06767 -10.53284,24.56796 -0.45647,0.86982 -1.71989,3.84546 -2.8076,6.61254 -1.08772,2.76708 -2.98196,7.29822 -4.20943,10.06919 -4.65592,10.51059 -6.42403,14.59172 -7.77594,17.94834 -0.76728,1.90504 -2.19557,5.16408 -3.17399,7.24231 -0.97841,2.07823 -3.94952,8.73801 -6.60247,14.79951 -5.99252,13.69186 -7.16247,15.73396 -11.77491,20.55259 l -3.69844,3.86379 -5.16513,0.72441 c -8.21004,1.15148 -8.78908,1.16998 -11.77768,0.37635 z"
     id="path31" />
  <path
     style="opacity:0.75;fill:#007fa9;fill-opacity:0.937255;stroke-width:0.629766"
     d="m 279.93112,508.97413 c -2.40216,-0.7752 -4.28473,-2.14225 -7.93914,-5.76512 -4.31536,-4.27813 -4.83619,-5.05807 -5.25307,-7.86648 -0.54601,-3.67831 -0.51121,-14.24971 0.0523,-15.89063 0.67245,-1.95812 7.17954,-17.34173 8.84147,-20.90238 0.86873,-1.86124 2.24311,-5.12029 3.05417,-7.24231 0.81107,-2.12204 2.6562,-6.5505 4.10029,-9.84103 1.44409,-3.29053 3.27277,-7.54145 4.06373,-9.44649 1.16024,-2.79445 8.11243,-18.96395 14.48633,-33.6925 0.59958,-1.38549 1.45132,-3.36925 1.89276,-4.40836 2.06616,-4.86362 8.90679,-20.04202 11.06915,-24.56089 2.99165,-6.25192 8.35112,-12.3791 12.43186,-14.21262 2.58314,-1.16064 3.86027,-1.29599 10.22833,-1.08401 8.56408,0.28507 9.38104,0.65903 15.80131,7.23293 3.95192,4.04649 4.2237,4.51591 4.88069,8.43017 0.38265,2.27979 0.69573,6.20743 0.69573,8.72811 0,4.0477 -0.33103,5.34327 -2.83395,11.09143 -1.55867,3.57961 -2.83395,6.64489 -2.83395,6.81172 0,0.16684 -3.5843,8.47204 -7.96512,18.456 -9.58556,21.84568 -10.80542,24.66106 -16.46055,37.99031 -6.57865,15.50598 -17.56482,40.01867 -20.18092,45.02829 -3.30378,6.32646 -6.56762,9.37212 -11.76324,10.97689 -5.0732,1.56695 -11.81677,1.63574 -16.36818,0.16697 z"
     id="path32" />
  <path
     style="opacity:0.75;fill:#007fa9;fill-opacity:0.937255;stroke-width:0.629766"
     d="m 45.938795,507.05591 c -3.322626,-2.13051 -9.795921,-8.81099 -10.608377,-10.94791 -1.080284,-2.84137 -1.435379,-8.40648 -0.767071,-12.02169 0.805134,-4.35538 4.630817,-14.12871 16.313479,-41.67548 17.458212,-41.16504 24.864208,-58.10987 29.752961,-68.07441 4.564245,-9.30311 5.333168,-10.47584 9.358445,-14.27308 3.824443,-3.60779 4.85213,-4.23401 8.03148,-4.89405 5.223668,-1.08442 12.489498,-0.52119 15.899998,1.23254 4.49734,2.3126 8.67637,6.65836 10.12424,10.52813 1.58833,4.24517 1.70867,11.77193 0.26607,16.64086 -1.87096,6.31472 -12.86493,33.02698 -30.178231,73.32464 -15.875311,36.95065 -18.1181,41.3149 -24.338342,47.3601 -3.98338,3.87128 -6.226305,4.59562 -14.230489,4.59562 -6.428582,0 -6.986734,-0.10412 -9.624163,-1.79527 z"
     id="path33" />
  <path
     style="opacity:0.75;fill:#007fa9;fill-opacity:0.937255;stroke-width:0.629766"
     d="m 48.806889,508.43039 c -3.580467,-0.99565 -11.623246,-8.66228 -13.349141,-12.7248 -0.545777,-1.28469 -0.895026,-4.17404 -0.883394,-7.30835 0.02589,-6.97729 0.994845,-9.63527 18.830199,-51.65431 15.697563,-36.98252 21.495758,-50.17257 26.985474,-61.38804 4.835893,-9.87971 5.801529,-11.4067 9.43052,-14.91279 4.988357,-4.81941 7.042379,-5.58732 14.720663,-5.50339 6.7426,0.0737 9.86603,1.16549 14.37453,5.0246 5.40274,4.62455 7.69806,13.78801 5.55079,22.16008 -1.66373,6.48678 -13.71893,35.98121 -32.49193,79.49531 -14.397051,33.37104 -18.548123,40.71269 -25.422628,44.96287 -2.780963,1.71934 -3.534559,1.87634 -9.749736,2.03122 -3.704698,0.0923 -7.302604,0.0102 -7.995347,-0.1824 z"
     id="path34" />
  <path
     style="opacity:0.75;fill:#007fa9;fill-opacity:0.937255;stroke-width:0.629766"
     d="m 48.806889,508.43438 c -3.884117,-1.09241 -12.449848,-9.63701 -13.567494,-13.53401 -1.109032,-3.86697 -0.708135,-10.75488 0.91526,-15.72527 4.094442,-12.53604 36.779273,-88.9844 45.517381,-106.46311 3.124014,-6.24892 4.819252,-8.82366 7.808613,-11.8598 5.06558,-5.14484 6.917862,-5.87929 14.745671,-5.84682 5.12276,0.0212 6.84237,0.28236 9.21734,1.39965 4.40313,2.07141 7.82534,5.33754 9.79471,9.34798 1.57001,3.19719 1.76799,4.28164 1.75037,9.58772 -0.0164,4.92495 -0.33467,6.87358 -1.8003,11.02091 -4.22385,11.95243 -32.345886,78.65614 -42.1228,99.91266 -4.984017,10.83603 -10.609598,18.43738 -15.526995,20.98026 -2.119118,1.09584 -14.041319,1.93653 -16.731756,1.17983 z"
     id="path35" />
  <path
     style="opacity:0.75;fill:#007fa9;fill-opacity:0.937255;stroke-width:0.629766"
     d="m 48.773037,508.43747 c -2.142283,-0.44931 -8.225014,-5.61622 -11.111491,-9.43853 -2.620869,-3.4706 -2.716858,-3.76147 -2.933926,-8.89052 -0.15558,-3.67616 0.104255,-6.47391 0.847146,-9.12154 2.846823,-10.146 38.586603,-93.79794 47.323755,-110.7652 3.095233,-6.01084 9.060844,-12.64065 12.825958,-14.25398 3.516161,-1.50666 14.187311,-1.22173 17.797381,0.4752 9.01685,4.23842 13.26926,13.35894 11.25392,24.13731 -1.18373,6.33078 -23.2421,59.99527 -40.709235,99.03902 -8.866704,19.81947 -13.823294,26.4874 -21.060817,28.33238 -2.810813,0.71652 -11.688032,1.01957 -14.232691,0.48586 z"
     id="path36" />
  <path
     style="opacity:0.75;fill:#006485;fill-opacity:0.93725502;stroke-width:0.629766"
     d="m 168.44932,508.97624 c -8.41779,-2.91072 -14.17324,-11.01447 -14.14727,-19.91956 0.0215,-7.38532 3.81535,-17.38989 27.46608,-72.43023 19.09274,-44.43289 22.26637,-51.05551 26.91289,-56.16086 4.86456,-5.34494 6.39824,-5.95168 15.36663,-6.07929 8.67543,-0.12344 9.4209,0.16178 14.7273,5.63481 4.41231,4.55086 5.95938,7.58754 6.70651,13.16396 0.99498,7.42629 -0.61627,12.46339 -13.58213,42.46069 -2.91942,6.75425 -6.66759,15.53949 -8.32926,19.52276 -9.47698,22.7177 -25.33013,58.24535 -27.99926,62.74766 -1.05472,1.77911 -3.43882,4.8849 -5.298,6.90177 l -3.38033,3.66702 -5.4364,0.77138 c -7.34559,1.04228 -9.30439,1.00009 -13.00676,-0.28011 z"
     id="path37" />
  <path
     style="opacity:0.75;fill:#006485;fill-opacity:0.937255;stroke-width:0.629766"
     d="m 279.11664,508.2612 c -3.13737,-1.46457 -9.88485,-7.6791 -11.32547,-10.43093 -0.75013,-1.43288 -0.99063,-3.86713 -0.9955,-10.07626 l -0.006,-8.18697 6.4894,-15.11439 c 3.56917,-8.31291 11.10341,-25.88339 16.74275,-39.04551 22.85158,-53.33514 25.78659,-59.55637 30.56241,-64.78188 4.95852,-5.42541 6.95088,-6.2265 15.26641,-6.1383 8.60894,0.0913 10.618,0.92575 16.29781,6.76918 4.94452,5.08697 5.58861,6.8801 5.69342,15.85023 0.083,7.10123 1.90948,2.15577 -16.67605,45.15194 -20.2435,46.83173 -22.44863,51.87073 -28.2548,64.56583 -6.64502,14.52918 -8.89252,17.79873 -14.04707,20.43486 -3.31701,1.69638 -4.39888,1.91323 -10.37317,2.07913 -5.61214,0.15586 -7.09873,-0.0149 -9.37372,-1.07693 z"
     id="path38" />
  <path
     style="opacity:0.75;fill:#006485;fill-opacity:0.937255;stroke-width:0.629766"
     d="m 284.0246,509.50325 c 0,-0.40822 -0.63763,-0.66728 -1.41697,-0.57568 -1.72495,0.20272 -4.74896,-1.33557 -7.67379,-3.90361 -1.19919,-1.0529 -2.37655,-1.82693 -2.61637,-1.72008 -0.23982,0.10686 -0.75032,-0.36054 -1.13444,-1.03865 -0.38412,-0.67812 -1.09201,-1.65876 -1.57309,-2.17921 -2.06369,-2.23257 -2.67212,-5.23852 -2.67148,-13.19843 l 6.5e-4,-7.95031 5.12517,-11.96556 c 2.81884,-6.58106 5.57327,-12.95744 6.12095,-14.16974 0.54767,-1.2123 0.952,-2.41673 0.89851,-2.67651 -0.0535,-0.25978 0.15541,-0.47233 0.46423,-0.47233 0.52349,0 1.30584,-2.12978 1.2465,-3.3933 -0.0145,-0.30764 0.29552,-0.75824 0.68883,-1.00131 0.39331,-0.24308 0.76121,-1.0541 0.81757,-1.80227 0.0564,-0.74817 0.34228,-1.36031 0.63539,-1.36031 0.2931,0 0.35776,-0.2834 0.1437,-0.62977 -0.21407,-0.34637 -0.11982,-0.62976 0.20944,-0.62976 0.49038,0 1.02125,-1.21213 1.6549,-3.7786 0.0428,-0.17319 0.56755,-1.23295 1.1662,-2.35503 0.59865,-1.12208 1.07697,-2.18777 1.06294,-2.36822 -0.014,-0.18045 0.39401,-1.13937 0.90677,-2.13093 0.51276,-0.99158 0.75466,-1.98049 0.53756,-2.19759 -0.2171,-0.2171 -0.0948,-0.39473 0.27173,-0.39473 0.54726,0 1.07626,-1.16032 1.7227,-3.77859 0.0428,-0.17319 0.5505,-1.19999 1.12832,-2.28179 0.57782,-1.08178 0.87295,-2.14451 0.65585,-2.36162 -0.2171,-0.2171 -0.0948,-0.39473 0.27173,-0.39473 0.62689,0 1.76122,-2.90662 1.53607,-3.93603 -0.0568,-0.25978 0.14937,-0.47233 0.45819,-0.47233 0.54773,0 1.63684,-2.99542 1.43111,-3.93604 -0.0568,-0.25978 0.14937,-0.47232 0.45819,-0.47232 0.54773,0 1.63684,-2.99542 1.43111,-3.93604 -0.0568,-0.25978 0.14937,-0.47233 0.45819,-0.47233 0.54773,0 1.63684,-2.99542 1.43111,-3.93604 -0.0568,-0.25978 0.18009,-0.47232 0.52646,-0.47232 0.34637,0 0.58546,-0.21255 0.53132,-0.47233 -0.0541,-0.25978 0.6927,-2.17269 1.65966,-4.25092 0.96697,-2.07823 1.76699,-4.13284 1.77783,-4.56581 0.0108,-0.43296 0.22515,-0.7872 0.47624,-0.7872 0.4693,0 1.51088,-3.09145 1.32615,-3.93604 -0.0568,-0.25978 0.18009,-0.47233 0.52646,-0.47233 0.34637,0 0.5715,-0.21254 0.50029,-0.47232 -0.0712,-0.25978 0.34257,-1.35743 0.91953,-2.43922 0.57696,-1.0818 0.87139,-2.14453 0.65429,-2.36163 -0.2171,-0.2171 -0.0474,-0.39472 0.37716,-0.39472 0.42454,0 0.59675,-0.2834 0.38268,-0.62977 -0.21407,-0.34637 -0.14603,-0.62977 0.1512,-0.62977 0.56556,0 2.40252,-4.37638 2.18081,-5.19557 -0.0703,-0.25978 0.17229,-0.47232 0.53911,-0.47232 0.36681,0 0.50674,-0.25919 0.31095,-0.57598 -0.19578,-0.31679 -0.12828,-0.67103 0.15002,-0.78721 0.62851,-0.26238 5.27877,-8.71307 4.79464,-8.71307 -0.19321,0 0.5214,-0.73432 1.58802,-1.63182 1.06662,-0.8975 1.80353,-1.85151 1.63758,-2.12002 -0.30988,-0.5014 1.99746,-2.89071 2.72609,-2.82292 0.64814,0.0603 3.86155,-1.88511 3.86594,-2.34046 0.002,-0.22735 0.57077,-0.26514 1.26351,-0.084 0.69275,0.18116 1.26036,0.0838 1.26137,-0.2164 0.002,-0.57791 9.09793,-0.64416 10.70419,-0.078 0.51956,0.18315 2.17928,0.66917 3.68826,1.08006 2.03785,0.5549 3.85435,1.85782 7.06158,5.06505 2.37488,2.37488 4.50087,5.04671 4.72441,5.93739 0.22355,0.89069 0.62915,1.61943 0.90133,1.61943 0.27218,0 0.50528,0.63764 0.51802,1.41697 0.0127,0.77934 0.0765,3.86907 0.1417,6.86608 0.0652,2.99701 -0.0737,5.76011 -0.30857,6.14022 -0.23492,0.38012 -0.25199,0.97452 -0.0379,1.32089 0.21407,0.34637 0.0588,0.62976 -0.34509,0.62976 -0.40387,0 -0.5712,0.4251 -0.37182,0.94465 0.19937,0.51956 0.088,0.94465 -0.2475,0.94465 -0.3355,0 -0.5498,0.21255 -0.47621,0.47233 0.0736,0.25978 -0.2577,1.18081 -0.73619,2.04674 -0.47849,0.86593 -0.81634,1.64823 -0.7508,1.73845 0.0656,0.0902 -0.31893,1.01126 -0.8544,2.04674 -0.53547,1.03549 -0.81807,1.8827 -0.62801,1.8827 0.19007,0 -0.0871,0.66027 -0.6158,1.46725 -0.52876,0.80699 -0.77146,1.65717 -0.53932,1.8893 0.23212,0.23213 0.12214,0.42205 -0.24441,0.42205 -0.62688,0 -1.76122,2.90663 -1.53607,3.93604 0.0568,0.25978 -0.14937,0.47233 -0.45819,0.47233 -0.54773,0 -1.63683,2.99542 -1.43111,3.93604 0.0568,0.25977 -0.18009,0.47232 -0.52646,0.47232 -0.34637,0 -0.5715,0.21255 -0.50028,0.47233 0.0712,0.25977 -0.35962,1.39038 -0.95741,2.51246 -0.59779,1.12208 -1.07541,2.18778 -1.06137,2.36822 0.014,0.18045 -0.41259,1.1753 -0.94807,2.21079 -0.53547,1.03548 -0.80149,1.8827 -0.59116,1.8827 0.21033,0 -0.20373,0.9484 -0.92013,2.10757 -0.7164,1.15916 -1.11738,2.29274 -0.89105,2.51906 0.22632,0.22632 0.0809,0.4115 -0.32323,0.4115 -0.4041,0 -0.67646,0.21254 -0.60525,0.47232 0.0712,0.25978 -0.36115,1.39336 -0.96082,2.51907 -0.59966,1.1257 -0.90873,2.04674 -0.68682,2.04674 0.22192,0 -0.0745,0.72954 -0.65876,1.62119 -0.58424,0.89166 -1.1559,2.10752 -1.27037,2.70192 -0.11448,0.5944 -1.1493,3.05306 -2.2996,5.46368 -1.15031,2.41062 -2.11093,4.52465 -2.13472,4.69783 -0.0238,0.17319 -0.53307,1.23295 -1.13172,2.35503 -0.59865,1.12208 -1.07697,2.18777 -1.06293,2.36822 0.014,0.18045 -0.41105,1.17233 -0.94465,2.20418 -0.53359,1.03185 -0.95868,2.02374 -0.94465,2.20418 0.014,0.18045 -0.41105,1.17233 -0.94465,2.20419 -0.53359,1.03185 -0.95868,2.02373 -0.94465,2.20418 0.014,0.18044 -0.39401,1.13936 -0.90677,2.13093 -0.51276,0.99157 -0.75466,1.98048 -0.53756,2.19759 0.2171,0.2171 0.0948,0.39472 -0.27173,0.39472 -0.62689,0 -1.76122,2.90663 -1.53607,3.93604 0.0568,0.25978 -0.12316,0.47233 -0.39995,0.47233 -0.5388,0 -2.35707,4.40696 -2.14364,5.19557 0.0703,0.25978 -0.15557,0.47233 -0.50194,0.47233 -0.34637,0 -0.5715,0.21254 -0.50028,0.47232 0.0712,0.25978 -0.34258,1.35743 -0.91954,2.43922 -0.57695,1.08179 -0.87138,2.14452 -0.65428,2.36163 0.2171,0.2171 0.0948,0.39472 -0.27173,0.39472 -0.62689,0 -1.76122,2.90663 -1.53607,3.93604 0.0568,0.25978 -0.19682,0.47233 -0.56363,0.47233 -0.36681,0 -0.49179,0.28339 -0.27772,0.62976 0.21407,0.34637 0.0891,0.62977 -0.27771,0.62977 -0.36682,0 -0.60867,0.21255 -0.53745,0.47232 0.0712,0.25978 -0.34258,1.35743 -0.91954,2.43923 -0.57696,1.08178 -0.87138,2.14452 -0.65428,2.36162 0.2171,0.2171 0.0474,0.39473 -0.37717,0.39473 -0.42454,0 -0.61171,0.25919 -0.41592,0.57597 0.19578,0.31679 0.14166,0.67103 -0.12028,0.78721 -0.62793,0.27851 -3.6704,6.92748 -3.46763,7.57812 0.0866,0.27785 -0.14268,0.50519 -0.5095,0.50519 -0.36681,0 -0.49178,0.2834 -0.27771,0.62977 0.21407,0.34637 0.0419,0.62976 -0.38268,0.62976 -0.42454,0 -0.61656,0.15534 -0.4267,0.3452 0.33852,0.33852 0.0607,0.72495 -3.92204,5.45489 -2.85381,3.38925 -7.6742,5.54883 -12.97014,5.81076 -2.38715,0.11807 -4.8362,0.41819 -5.44235,0.66695 -0.68204,0.2799 -1.1021,0.1694 -1.1021,-0.28993 z"
     id="path39" />
  <path
     style="opacity:0.75;fill:#006485;fill-opacity:0.937255;stroke-width:0.629766"
     d="m 283.65296,509.57279 c 0.29463,-0.47673 -0.15435,-0.72241 -1.32305,-0.72397 -1.85206,-0.002 -5.1867,-1.73782 -7.59436,-3.95214 -0.77933,-0.71675 -1.41697,-1.06269 -1.41697,-0.76875 0,0.29394 -0.70288,-0.12588 -1.56194,-0.93293 -1.72998,-1.62523 -4.10596,-5.83412 -4.10596,-7.27342 0,-0.5089 -0.21255,-0.92514 -0.47232,-0.92499 -0.25978,1.5e-4 -0.41577,-3.65292 -0.34664,-8.11794 l 0.12569,-8.11821 6.16019,-14.39621 c 3.3881,-7.91791 6.37088,-14.5502 6.62839,-14.73842 0.25752,-0.18822 0.55942,-0.93992 0.67091,-1.67044 0.11148,-0.73052 0.55964,-1.7583 0.9959,-2.28396 0.43626,-0.52567 0.8376,-1.54519 0.89187,-2.26561 0.0543,-0.72042 0.33848,-1.30985 0.63159,-1.30985 0.2931,0 0.37272,-0.25919 0.17694,-0.57598 -0.19579,-0.31679 -0.0582,-0.67523 0.3057,-0.79653 0.36392,-0.12131 0.70939,-0.85401 0.7677,-1.62821 0.0583,-0.7742 0.2984,-1.40765 0.53352,-1.40765 0.44771,0 1.4757,-3.11942 1.29709,-3.93604 -0.0568,-0.25977 0.14937,-0.47232 0.45819,-0.47232 0.54773,0 1.63684,-2.99542 1.43111,-3.93604 -0.0568,-0.25978 0.19681,-0.47232 0.56363,-0.47232 0.36681,0 0.50674,-0.2592 0.31095,-0.57598 -0.19578,-0.31679 -0.0582,-0.67523 0.3057,-0.79654 0.36392,-0.1213 0.70939,-0.854 0.76771,-1.6282 0.0583,-0.7742 0.2984,-1.40765 0.53351,-1.40765 0.44772,0 1.4757,-3.11943 1.2971,-3.93604 -0.0568,-0.25978 0.19681,-0.47232 0.56362,-0.47232 0.36682,0 0.50675,-0.2592 0.31096,-0.57598 -0.19578,-0.31679 -0.0875,-0.67103 0.24068,-0.78721 0.32816,-0.11618 0.74493,-1.03846 0.92617,-2.04952 0.18123,-1.01105 0.6057,-2.00897 0.94325,-2.21759 0.33756,-0.20862 0.76265,-1.2005 0.94465,-2.20418 0.182,-1.00368 0.6071,-1.99556 0.94465,-2.20418 0.33756,-0.20862 0.76643,-1.22136 0.95306,-2.25053 0.18662,-1.02917 0.62004,-1.9648 0.96314,-2.07916 0.34311,-0.11437 0.80604,-1.1792 1.02874,-2.36629 0.2227,-1.1871 0.62604,-2.15835 0.89631,-2.15835 0.49528,0 1.55292,-3.05868 1.36103,-3.93604 -0.0568,-0.25978 0.14936,-0.47233 0.45819,-0.47233 0.49842,0 1.1883,-1.7641 1.6993,-4.34532 0.096,-0.48488 0.45947,-1.05771 0.80773,-1.27294 0.34826,-0.21524 0.78211,-1.21254 0.96411,-2.21621 0.18201,-1.00368 0.5862,-1.98953 0.89821,-2.19077 0.62671,-0.40423 1.68838,-3.24209 1.49159,-3.98706 -0.0686,-0.25978 0.17534,-0.47232 0.54216,-0.47232 0.36681,0 0.49178,-0.2834 0.27771,-0.62977 -0.21407,-0.34637 -0.0891,-0.62976 0.27772,-0.62976 0.36681,0 0.60867,-0.21255 0.53745,-0.47233 -0.0712,-0.25978 0.35388,-1.37928 0.94465,-2.48779 0.59077,-1.10851 1.07413,-2.45463 1.07413,-2.99139 0,-0.53676 0.33063,-0.97592 0.73473,-0.97592 0.4041,0 0.54518,-0.18955 0.31351,-0.42122 -0.23167,-0.23167 -0.0429,-0.86931 0.41958,-1.41698 1.21884,-1.44348 4.90728,-8.23806 4.47203,-8.23806 -0.20273,0 0.5041,-0.73432 1.57072,-1.63182 1.06662,-0.8975 1.80558,-1.84819 1.64214,-2.11264 -0.31085,-0.50298 2.14615,-3.08807 2.97689,-3.13208 0.26341,-0.014 1.39699,-0.50106 2.51907,-1.08245 2.17864,-1.12885 13.84457,-2.24371 14.21562,-1.35853 0.11546,0.27543 0.76438,0.50079 1.44206,0.50079 3.33549,0 13.02599,7.93387 14.16856,11.60017 0.22454,0.72052 0.65862,1.47165 0.96461,1.66917 0.72094,0.46538 1.01961,14.44213 0.3086,14.44113 -0.29683,-4.1e-4 -0.37658,0.42434 -0.1772,0.94389 0.19937,0.51956 0.0577,0.94465 -0.31488,0.94465 -0.37257,0 -0.52129,0.40679 -0.33051,0.90397 0.19079,0.49717 0.0668,0.99731 -0.27548,1.11141 -0.3423,0.11411 -0.67008,0.8409 -0.72841,1.61511 -0.0583,0.7742 -0.27219,1.40764 -0.47527,1.40764 -0.31195,0 -1.90592,3.68503 -2.24736,5.19558 -0.0587,0.25978 -0.17574,0.68487 -0.26005,0.94465 -0.0843,0.25977 -0.11974,0.68487 -0.0787,0.94465 0.041,0.25977 -0.22555,0.47232 -0.59236,0.47232 -0.36682,0 -0.50674,0.25919 -0.31096,0.57598 0.19579,0.31679 0.0875,0.67103 -0.24067,0.78721 -0.32816,0.11617 -0.73659,0.99236 -0.9076,1.94709 -0.17102,0.95472 -0.75448,2.17939 -1.29657,2.72149 -0.5421,0.54209 -0.98563,1.67387 -0.98563,2.51506 0,0.84119 -0.25268,1.52943 -0.5615,1.52943 -0.54773,0 -1.63683,2.99542 -1.43111,3.93604 0.0568,0.25978 -0.14937,0.47233 -0.45818,0.47233 -0.54774,0 -1.63684,2.99541 -1.43112,3.93603 0.0568,0.25978 -0.18008,0.47233 -0.52646,0.47233 -0.34637,0 -0.5715,0.21255 -0.50028,0.47232 0.0712,0.25978 -0.34258,1.35743 -0.91953,2.43923 -0.57696,1.08178 -0.87139,2.14452 -0.65429,2.36162 0.2171,0.2171 0.0948,0.39473 -0.27173,0.39473 -0.62688,0 -1.76122,2.90663 -1.53607,3.93604 0.0568,0.25977 -0.22732,0.47232 -0.63142,0.47232 -0.4041,0 -0.5558,0.17892 -0.33712,0.39761 0.21869,0.21869 -0.0175,0.99023 -0.52481,1.71454 -0.50732,0.72432 -0.92241,1.63977 -0.92241,2.03435 0,0.39458 -0.90381,2.66953 -2.00848,5.05544 -1.10466,2.38592 -1.95484,4.55058 -1.88929,4.81036 0.0655,0.25978 -0.16422,0.47233 -0.51059,0.47233 -0.34637,0 -0.58547,0.21254 -0.53132,0.47232 0.0541,0.25978 -0.6185,2.031 -1.49477,3.93604 -3.40836,7.40986 -5.41316,12.50335 -5.06025,12.85626 0.20286,0.20286 0.0215,0.36883 -0.40306,0.36883 -0.42455,0 -0.61171,0.25919 -0.41592,0.57598 0.19578,0.31678 0.0875,0.67103 -0.24068,0.78721 -0.32816,0.11618 -0.74493,1.03846 -0.92617,2.04952 -0.18124,1.01105 -0.5848,2.00293 -0.89681,2.20418 -0.54892,0.35405 -1.44298,2.58884 -1.7588,4.39633 -0.0847,0.48488 -0.41808,1.05167 -0.7408,1.25953 -0.64179,0.41338 -1.71086,3.24272 -1.51105,3.99908 0.0686,0.25978 -0.17535,0.47233 -0.54217,0.47233 -0.36681,0 -0.49178,0.28339 -0.27771,0.62977 0.21407,0.34637 0.10194,0.62976 -0.24918,0.62976 -0.35112,0 -0.82448,0.99188 -1.0519,2.20418 -0.22743,1.2123 -0.68209,2.20419 -1.01036,2.20419 -0.32826,0 -0.4217,0.28339 -0.20763,0.62976 0.21407,0.34637 0.11982,0.62977 -0.20944,0.62977 -0.57568,0 -1.68106,2.96319 -1.46828,3.93604 0.0568,0.25978 -0.19681,0.47232 -0.56363,0.47232 -0.36681,0 -0.49178,0.2834 -0.27771,0.62977 0.21407,0.34637 0.0891,0.62977 -0.27772,0.62977 -0.36681,0 -0.60964,0.21254 -0.53963,0.47232 0.07,0.25978 -0.48463,1.64166 -1.23255,3.07085 -0.74792,1.4292 -1.18306,2.77532 -0.96699,2.99139 0.21607,0.21608 0.0455,0.39287 -0.37903,0.39287 -0.42454,0 -0.61087,0.26054 -0.41406,0.57899 0.19681,0.31845 -0.0564,0.9932 -0.56261,1.49944 -0.50625,0.50625 -0.74501,1.09589 -0.53059,1.31031 0.21442,0.21442 0.012,0.38985 -0.44984,0.38985 -0.46182,0 -0.68645,0.15324 -0.49916,0.34052 0.38927,0.38927 -1.94575,3.33436 -5.15297,6.49931 -2.81804,2.78089 -5.57009,3.90844 -11.06026,4.53154 -2.43757,0.27665 -5.24294,0.70655 -6.23415,0.95533 -1.28356,0.32215 -1.67386,0.24465 -1.35622,-0.26929 z"
     id="path40" />
  <path
     style="opacity:0.75;fill:#006485;fill-opacity:0.937255;stroke-width:0.629766"
     d="m 283.65296,509.57279 c 0.29463,-0.47673 -0.15435,-0.72241 -1.32305,-0.72397 -1.85206,-0.002 -5.1867,-1.73782 -7.59436,-3.95214 -0.77933,-0.71675 -1.41697,-1.06269 -1.41697,-0.76875 0,0.29394 -0.70288,-0.12588 -1.56194,-0.93293 -1.72998,-1.62523 -4.10596,-5.83412 -4.10596,-7.27342 0,-0.5089 -0.21255,-0.92536 -0.47232,-0.92547 -0.25978,-1.1e-4 -0.42834,-3.63035 -0.37458,-8.06719 l 0.0977,-8.06698 5.77579,-13.50231 c 3.17668,-7.42627 6.30171,-14.53698 6.94451,-15.80157 0.6428,-1.26461 1.03935,-2.42865 0.88123,-2.58677 -0.15812,-0.15812 0.14445,-0.64597 0.67238,-1.08411 0.52792,-0.43814 0.95987,-1.47041 0.95987,-2.29392 0,-0.82353 0.28339,-1.49731 0.62976,-1.49731 0.34637,0 0.56956,-0.21255 0.49597,-0.47233 -0.0736,-0.25978 0.21978,-1.10996 0.65193,-1.8893 0.43214,-0.77933 0.61798,-1.41697 0.41297,-1.41697 -0.20502,0 0.0684,-0.62985 0.6076,-1.39966 0.5392,-0.76981 0.98036,-1.90339 0.98036,-2.51907 0,-0.61567 0.27056,-1.1194 0.60123,-1.1194 0.33068,0 0.78731,-0.99188 1.01474,-2.20418 0.22743,-1.2123 0.66536,-2.20418 0.97319,-2.20418 0.30782,0 0.49947,-0.21255 0.42588,-0.47233 -0.0736,-0.25978 0.19984,-1.0727 0.60761,-1.8065 0.40777,-0.73379 0.56244,-1.51312 0.34372,-1.73185 -0.21873,-0.21873 -0.0799,-0.39769 0.3085,-0.39769 0.38841,0 0.89227,-0.99188 1.1197,-2.20418 0.22743,-1.2123 0.66536,-2.20418 0.97318,-2.20418 0.30783,0 0.49948,-0.21255 0.42589,-0.47233 -0.0736,-0.25978 0.21978,-1.10996 0.65192,-1.8893 0.43215,-0.77933 0.61094,-1.41697 0.39732,-1.41697 -0.21363,0 0.22461,-0.99188 0.97385,-2.20418 0.74924,-1.2123 1.16486,-2.20418 0.92359,-2.20418 -0.24128,0 0.0393,-0.72954 0.62357,-1.6212 0.58423,-0.89166 1.17698,-2.21695 1.31721,-2.9451 0.14022,-0.72816 0.5277,-1.49248 0.86104,-1.6985 0.33335,-0.20602 0.755,-1.19577 0.937,-2.19945 0.182,-1.00368 0.58619,-1.98953 0.8982,-2.19077 0.31201,-0.20124 0.76665,-1.07438 1.0103,-1.94031 0.48626,-1.72815 1.45983,-4.06684 3.23419,-7.76912 0.63687,-1.32886 1.22638,-2.88239 1.31003,-3.45228 0.0836,-0.5699 0.44193,-1.1328 0.7962,-1.25089 0.35427,-0.11809 0.82633,-1.18596 1.04903,-2.37305 0.2227,-1.18709 0.67349,-2.15835 1.00175,-2.15835 0.32827,0 0.4217,-0.2834 0.20763,-0.62977 -0.21407,-0.34637 -0.0891,-0.62976 0.27772,-0.62976 0.36681,0 0.60673,-0.21255 0.53314,-0.47233 -0.0736,-0.25978 0.22962,-1.12835 0.6738,-1.93017 0.44417,-0.80181 0.92283,-2.05626 1.06369,-2.78766 0.14085,-0.7314 0.61698,-1.55886 1.05806,-1.83879 0.44108,-0.27993 0.54549,-0.5133 0.23203,-0.51861 -0.31346,-0.005 -0.14646,-0.50558 0.37112,-1.11173 1.2154,-1.42338 4.29229,-7.0583 4.29229,-7.86076 0,-0.33949 0.70849,-1.17455 1.57441,-1.85569 0.86593,-0.68114 1.57442,-1.59356 1.57442,-2.0276 0,-2.21813 6.22468,-5.41122 11.32739,-5.81064 1.90967,-0.14948 4.82739,-0.3932 6.48383,-0.54161 1.8232,-0.16335 2.86476,-0.0321 2.63933,0.33267 -0.2048,0.33137 0.22244,0.6025 0.94943,0.6025 3.42219,0 10.65786,5.75348 14.10699,11.21726 1.51804,2.40473 1.68819,3.30006 1.81939,9.5734 0.0796,3.80631 -0.0981,6.92023 -0.39497,6.91981 -0.29683,-4.1e-4 -0.37658,0.42434 -0.1772,0.94389 0.19937,0.51956 0.0577,0.94465 -0.31488,0.94465 -0.37257,0 -0.52129,0.40679 -0.33051,0.90397 0.19079,0.49717 0.0668,0.99731 -0.27548,1.11141 -0.3423,0.11411 -0.67008,0.8409 -0.72841,1.61511 -0.0583,0.7742 -0.27219,1.40764 -0.47527,1.40764 -0.41685,0 -2.01463,4.07706 -2.33392,5.95545 -0.1152,0.6777 -0.55653,1.4527 -0.98075,1.72221 -0.42421,0.26951 -0.55223,0.49436 -0.28446,0.49966 0.26776,0.005 0.0226,0.71813 -0.54476,1.58406 -0.56737,0.86593 -0.83419,1.57442 -0.59292,1.57442 0.24127,0 -0.15122,0.95448 -0.87222,2.12107 -0.72099,1.16659 -1.31089,2.58357 -1.31089,3.14883 0,0.56527 -0.27056,1.02776 -0.60123,1.02776 -0.33067,0 -0.78731,0.99188 -1.01474,2.20418 -0.22743,1.2123 -0.65252,2.20419 -0.94465,2.20419 -0.29213,0 -0.71722,0.99188 -0.94465,2.20418 -0.22743,1.2123 -0.71259,2.20418 -1.07815,2.20418 -0.36554,0 -0.47816,0.18647 -0.25025,0.41438 0.2279,0.22791 0.12274,0.76578 -0.23371,1.19528 -0.35645,0.42949 -0.77627,1.44651 -0.93295,2.26005 -0.15667,0.81353 -0.56209,1.57155 -0.90092,1.6845 -0.33884,0.11294 -0.79828,1.17661 -1.02098,2.3637 -0.2227,1.18709 -0.704,2.15835 -1.06955,2.15835 -0.36555,0 -0.48568,0.17896 -0.26695,0.39769 0.21873,0.21873 0.0634,0.99806 -0.34505,1.73185 -0.4085,0.7338 -0.75355,1.47587 -0.76677,1.64906 -0.0654,0.85724 -4.44885,10.4425 -4.92816,10.77643 -0.30417,0.21192 -0.51342,0.49531 -0.465,0.62977 0.0484,0.13446 -0.47323,1.51975 -1.1592,3.07842 -0.68596,1.55867 -1.339,3.25904 -1.4512,3.7786 -0.1122,0.51956 -0.35884,1.08635 -0.54808,1.25953 -0.58951,0.53947 -3.73291,8.18697 -3.36515,8.18697 0.19153,0 -0.26477,0.99188 -1.01402,2.20418 -0.74924,1.2123 -1.17433,2.20418 -0.94464,2.20418 0.22968,0 -0.1723,0.95449 -0.89329,2.12107 -0.72099,1.16659 -1.3109,2.56333 -1.3109,3.10386 0,0.54052 -0.40268,1.38545 -0.89485,1.87762 -0.49217,0.49217 -1.21158,2.07109 -1.59869,3.5087 -0.38711,1.43762 -0.96347,2.61384 -1.28079,2.61384 -0.31733,0 -0.76304,0.99188 -0.99046,2.20418 -0.22743,1.2123 -0.7126,2.20419 -1.07815,2.20419 -0.36555,0 -0.48572,0.17892 -0.26703,0.39761 0.21868,0.21868 -0.0175,0.99023 -0.52481,1.71454 -0.50733,0.72431 -0.92241,1.82066 -0.92241,2.43634 0,0.61567 -0.30012,1.1194 -0.66694,1.1194 -0.36681,0 -0.49178,0.2834 -0.27771,0.62977 0.21407,0.34637 0.14603,0.62977 -0.15121,0.62977 -0.50959,0 -2.11832,3.68356 -2.44781,5.60485 -0.0832,0.48488 -0.38258,1.05167 -0.66539,1.25953 -0.2828,0.20786 -0.60629,0.80302 -0.71886,1.32258 -0.11257,0.51955 -0.46858,1.0397 -0.79114,1.15588 -0.32255,0.11618 -0.42627,0.47042 -0.23048,0.78721 0.19579,0.31678 0.0391,0.57597 -0.34813,0.57597 -0.38725,0 -0.52895,0.2834 -0.31488,0.62977 0.21407,0.34637 0.0419,0.62977 -0.38268,0.62977 -0.42454,0 -0.60839,0.16349 -0.40857,0.36332 0.19983,0.19983 -1.30613,2.0173 -3.34657,4.03882 -4.04806,4.01052 -6.88343,5.2683 -13.49564,5.9867 -2.07822,0.2258 -4.4585,0.57257 -5.2895,0.77059 -1.04125,0.24813 -1.37227,0.13575 -1.06492,-0.36156 z"
     id="path41" />
  <path
     style="opacity:0.75;fill:#006485;fill-opacity:0.937255;stroke-width:0.629766"
     d="m 283.70972,509.48094 c 0.22598,-0.36564 -0.39221,-0.62976 -1.47396,-0.62976 -1.07863,0 -3.21575,-0.91021 -5.0753,-2.1616 -1.76666,-1.18887 -3.21212,-1.98155 -3.21212,-1.76149 0,0.22006 -1.11348,-0.68719 -2.47442,-2.01609 -1.48586,-1.45092 -2.79878,-3.51476 -3.28631,-5.16595 -0.44655,-1.51235 -0.96258,-2.74961 -1.14674,-2.74946 -0.18416,1.5e-4 -0.2782,-3.68371 -0.20897,-8.18637 l 0.12587,-8.18663 5.46172,-12.75337 c 7.15036,-16.69639 7.77421,-18.11659 8.82609,-20.09284 0.48935,-0.91937 0.88973,-2.1238 0.88973,-2.67651 0,-0.55271 0.28339,-1.00492 0.62976,-1.00492 0.34637,0 0.56956,-0.21255 0.49597,-0.47233 -0.0736,-0.25978 0.18186,-1.03911 0.56767,-1.73185 0.3858,-0.69275 0.76776,-1.54293 0.84879,-1.8893 0.25039,-1.0702 1.33606,-3.69765 2.25203,-5.45018 0.48052,-0.91937 0.87367,-2.1238 0.87367,-2.67651 0,-0.55271 0.2834,-1.00492 0.62977,-1.00492 0.34637,0 0.56956,-0.21255 0.49597,-0.47233 -0.0736,-0.25978 0.2577,-1.18081 0.73618,-2.04674 0.47849,-0.86593 0.86045,-1.71611 0.8488,-1.8893 -0.0329,-0.4891 1.3339,-3.92659 3.94753,-9.92801 0.56346,-1.29384 1.41365,-3.2776 1.88929,-4.40836 2.2578,-5.36749 4.99536,-11.43984 6.38394,-14.16055 0.48614,-0.95253 0.70804,-1.73186 0.49311,-1.73186 -0.35943,0 0.12733,-1.05898 3.53104,-7.68197 0.65829,-1.28092 1.19689,-2.7485 1.19689,-3.26128 0,-0.51279 0.4067,-1.33904 0.90378,-1.83612 0.49707,-0.49708 1.37988,-2.35938 1.96179,-4.13846 0.5819,-1.77908 1.35602,-3.23469 1.72025,-3.23469 0.36423,0 0.50396,-0.15828 0.31052,-0.35172 -0.19345,-0.19345 0.60124,-1.93426 1.76596,-3.86847 1.16472,-1.93422 1.96752,-3.75971 1.784,-4.05665 -0.18351,-0.29694 -0.0335,-0.53989 0.33327,-0.53989 0.36681,0 0.66693,-0.31346 0.66693,-0.69657 0,-0.38312 0.70849,-1.25387 1.57441,-1.93501 0.86593,-0.68114 1.57442,-1.59356 1.57442,-2.0276 0,-1.10231 2.37172,-3.05577 5.35301,-4.40899 2.91453,-1.3229 14.99206,-2.60457 15.32432,-1.62622 0.11546,0.33997 0.62547,0.61813 1.13336,0.61813 2.92947,0 9.86965,5.50367 13.12536,10.40861 2.2552,3.39759 2.29045,3.54926 2.41185,10.37509 0.0678,3.8099 -0.11967,6.92684 -0.41651,6.92655 -0.29683,-2.9e-4 -0.38721,0.39685 -0.20083,0.88254 0.18638,0.4857 0.14585,1.0761 -0.0901,1.31202 -0.23592,0.23591 -0.45341,0.61786 -0.48333,0.84878 -0.0929,0.71683 -0.95182,2.86689 -1.80308,4.51332 -0.44772,0.86593 -1.16835,2.708 -1.6014,4.09348 -0.43305,1.38549 -1.34289,3.4401 -2.02188,4.56581 -0.67898,1.1257 -1.0466,2.04674 -0.81691,2.04674 0.22969,0 -0.23919,1.06273 -1.04195,2.36162 -0.80276,1.29889 -1.35807,2.4511 -1.23403,2.56047 0.12406,0.10936 -0.24182,1.16795 -0.81305,2.35243 -0.57122,1.18447 -1.456,3.14961 -1.96617,4.36696 -0.51017,1.21736 -1.35915,3.13441 -1.88661,4.26012 -0.52747,1.1257 -0.97323,2.33013 -0.99059,2.6765 -0.0174,0.34638 -0.57768,1.51341 -1.24515,2.5934 -0.66748,1.08 -1.21359,2.42612 -1.21359,2.99139 0,0.56527 -0.23617,1.02776 -0.52481,1.02776 -0.28864,0 -0.52913,0.35424 -0.5344,0.78721 -0.0106,0.86692 -5.73182,14.26413 -6.5218,15.27183 -0.27154,0.34637 -0.98384,1.90504 -1.58291,3.46372 -0.59905,1.55867 -1.89959,4.57483 -2.89007,6.70258 -0.99048,2.12775 -1.80087,4.21976 -1.80087,4.64891 0,0.42915 -0.54612,1.66392 -1.21359,2.74392 -0.66748,1.07999 -1.2278,2.24702 -1.24516,2.59339 -0.0174,0.34637 -0.50151,1.62165 -1.07591,2.83395 -0.57439,1.2123 -1.60725,3.47946 -2.29523,5.03813 -0.68798,1.55867 -1.78317,3.88198 -2.43374,5.1629 -0.65058,1.28092 -1.18287,2.76874 -1.18287,3.30627 0,0.53753 -0.28339,0.97733 -0.62976,0.97733 -0.34638,0 -0.58031,0.21254 -0.51987,0.47232 0.14226,0.61137 -1.02636,3.34887 -3.35284,7.85408 -1.02337,1.98174 -1.77508,3.69129 -1.67049,3.799 0.37031,0.38134 -2.21404,5.50805 -2.77658,5.50805 -0.31421,0 -0.39614,0.2834 -0.18207,0.62977 0.21407,0.34637 0.0419,0.62977 -0.38268,0.62977 -0.42454,0 -0.61268,0.15921 -0.41808,0.3538 0.60593,0.60594 -6.04606,6.8722 -8.56324,8.06669 -1.31519,0.6241 -4.98913,1.53027 -8.16431,2.01371 -6.96758,1.06088 -6.88839,1.05751 -6.40281,0.27182 z"
     id="path42" />
  <path
     style="opacity:0.75;fill:#006485;fill-opacity:0.937255;stroke-width:0.629766"
     d="m 283.39484,509.48094 c 0,-0.34637 -0.58086,-0.62976 -1.29081,-0.62976 -1.45234,0 -4.75981,-1.54849 -6.42383,-3.0075 -0.60615,-0.53148 -1.10209,-0.72169 -1.10209,-0.4227 0,0.29899 -1.27528,-0.70798 -2.83395,-2.2377 -1.55867,-1.52972 -2.83395,-2.97109 -2.83395,-3.20304 0,-0.23196 -0.44624,-1.48974 -0.99164,-2.79507 -0.73077,-1.74898 -0.98822,-4.50286 -0.97864,-10.46805 l 0.013,-8.09471 6.37939,-14.95696 c 3.50866,-8.22632 6.92469,-16.02842 7.59118,-17.33797 0.66649,-1.30956 1.2118,-2.79738 1.2118,-3.30627 0,-0.5089 0.33062,-0.92526 0.73472,-0.92526 0.4041,0 0.54826,-0.18648 0.32035,-0.41438 -0.22791,-0.22791 -0.12274,-0.76579 0.23371,-1.19528 0.35645,-0.42949 0.74979,-1.30576 0.87409,-1.94724 0.1243,-0.6415 0.96378,-2.77771 1.86551,-4.74715 0.90173,-1.96944 1.63951,-3.88236 1.63951,-4.25092 0,-0.36857 0.2834,-0.67012 0.62977,-0.67012 0.34637,0 0.58477,-0.21255 0.52978,-0.47233 -0.099,-0.46758 0.3392,-1.81365 1.38378,-4.25092 0.2969,-0.69274 2.14146,-5.06352 4.09904,-9.71283 1.95757,-4.64931 3.78066,-8.90023 4.05129,-9.44649 0.27064,-0.54626 1.11041,-2.41018 1.86615,-4.14204 0.75574,-1.73185 1.66214,-3.67688 2.01423,-4.32228 0.35209,-0.6454 0.73169,-1.64872 0.84355,-2.2296 0.18718,-0.97194 1.09007,-3.02401 5.98411,-13.60064 0.96164,-2.07823 1.94326,-4.41623 2.18137,-5.19557 0.23811,-0.77933 0.74446,-1.41697 1.12522,-1.41697 0.38076,0 0.52645,-0.16584 0.32376,-0.36853 -0.20269,-0.20269 0.58603,-1.95315 1.75271,-3.8899 1.16669,-1.93675 1.97706,-3.75468 1.80082,-4.03984 -0.17623,-0.28515 -0.0203,-0.51846 0.34651,-0.51846 0.36681,0 0.66693,-0.31346 0.66693,-0.69657 0,-0.38312 0.70849,-1.25387 1.57441,-1.93501 0.86593,-0.68114 1.57442,-1.59356 1.57442,-2.0276 0,-1.10189 2.3727,-3.05678 5.34102,-4.4005 3.10016,-1.40341 14.97638,-2.72615 15.31646,-1.70591 0.12637,0.37913 0.64253,0.68933 1.14703,0.68933 3.05288,0 9.73643,5.29366 13.12054,10.39203 2.30102,3.46663 2.30994,3.50622 2.30798,10.24144 -10e-4,3.71875 -0.0542,6.97391 -0.11811,7.23369 -0.35952,1.46199 -0.44534,1.76047 -0.58847,2.04674 -0.0866,0.17318 -0.21734,0.52743 -0.29056,0.7872 -0.22557,0.80043 -1.051,2.90072 -1.91815,4.88069 -0.45509,1.03912 -1.60423,3.87307 -2.55366,6.29767 -0.94943,2.4246 -2.27317,5.32939 -2.94166,6.4551 -0.66848,1.12571 -1.0346,2.04674 -0.81358,2.04674 0.22102,0 -0.0276,0.77934 -0.55246,1.73186 -1.11596,2.02523 -3.52526,7.48814 -3.52526,7.99329 0,0.19126 -0.82487,2.11972 -1.83305,4.28547 -1.00818,2.16575 -3.55426,7.97277 -5.65794,12.9045 -2.10369,4.93172 -4.09904,9.46604 -4.43411,10.07626 -0.33506,0.61022 -1.0203,2.10137 -1.52275,3.31367 -0.50244,1.2123 -1.64975,3.81615 -2.54957,5.78633 -0.89982,1.9702 -1.63604,3.79363 -1.63604,4.0521 0,0.25846 -0.58438,1.76383 -1.29862,3.34527 -0.71424,1.58143 -1.6552,3.72552 -2.09101,4.76464 -1.22889,2.93007 -3.2083,7.22945 -5.02824,10.92159 -0.91211,1.85041 -1.65839,3.76332 -1.65839,4.25092 0,0.48759 -0.28339,0.88653 -0.62976,0.88653 -0.34638,0 -0.58478,0.21254 -0.52979,0.47232 0.12949,0.61172 -0.45291,2.1317 -2.594,6.76999 -0.95933,2.07823 -2.39774,5.26642 -3.19647,7.08487 -0.79873,1.81845 -1.70392,3.30627 -2.01152,3.30627 -0.30761,0 -0.38414,0.2834 -0.17007,0.62977 0.21407,0.34637 0.0419,0.62977 -0.38268,0.62977 -0.42454,0 -0.59888,0.17301 -0.38741,0.38447 0.21146,0.21146 -1.28908,2.02713 -3.33453,4.03482 -4.16844,4.09149 -6.76317,5.19771 -14.6765,6.25704 -5.94985,0.79648 -5.46488,0.79385 -5.46488,0.0297 z"
     id="path43" />
  <path
     style="opacity:0.75;fill:#006485;fill-opacity:0.937255;stroke-width:0.629766"
     d="m 283.39484,509.48094 c 0,-0.34637 -0.58086,-0.62976 -1.29081,-0.62976 -1.45234,0 -4.75981,-1.54849 -6.42383,-3.0075 -0.60615,-0.53148 -1.10209,-0.72169 -1.10209,-0.4227 0,0.29899 -1.27528,-0.70798 -2.83395,-2.2377 -1.55867,-1.52972 -2.83395,-2.97109 -2.83395,-3.20304 0,-0.23196 -0.4444,-1.48534 -0.98756,-2.7853 -0.7287,-1.74403 -0.98508,-4.52919 -0.9781,-10.6255 l 0.009,-8.26193 7.31612,-17.00369 c 4.02386,-9.35203 7.83064,-18.13727 8.4595,-19.52276 0.62885,-1.38548 2.13822,-4.92792 3.35414,-7.87207 3.43835,-8.32538 19.85477,-46.39888 20.55453,-47.67071 0.34381,-0.6249 1.74827,-3.70356 3.12101,-6.84147 1.37274,-3.13791 3.37057,-7.18876 4.43963,-9.00188 1.06906,-1.81313 1.94375,-3.70922 1.94375,-4.21354 0,-0.50431 0.28339,-0.91693 0.62976,-0.91693 0.34637,0 0.62977,-0.3925 0.62977,-0.87222 0,-0.47972 0.71752,-1.34236 1.59448,-1.91697 0.87697,-0.57461 1.45383,-1.27232 1.28193,-1.55047 -0.41587,-0.67289 2.59893,-3.44753 5.13731,-4.72806 2.36274,-1.19193 15.22187,-2.7168 15.82799,-1.87692 0.22236,0.30811 1.53787,0.94985 2.92336,1.42607 3.43328,1.18009 8.84692,5.90024 11.46987,10.00058 2.14986,3.36076 2.16646,3.44272 2.17491,10.74135 0.007,6.06341 -0.23049,7.9629 -1.35272,10.81846 -0.74868,1.90504 -1.62436,3.73294 -1.94596,4.06199 -0.3216,0.32905 -0.58473,0.9625 -0.58473,1.40766 0,0.44516 -4.71589,11.65343 -10.47977,24.90726 -5.76388,13.25383 -13.09467,30.19086 -16.29064,37.63785 -3.19598,7.44699 -6.84022,15.72318 -8.09833,18.39154 -1.25811,2.66837 -2.28747,5.14807 -2.28747,5.51046 0,0.36239 -0.28339,0.65889 -0.62976,0.65889 -0.34638,0 -0.58478,0.21254 -0.52979,0.47232 0.24986,1.18039 -7.68441,18.42067 -8.47751,18.42067 -0.35702,0 -0.46853,0.18059 -0.24781,0.40131 0.66082,0.66081 -6.37404,7.1721 -8.8801,8.21919 -2.00755,0.83881 -11.5225,2.70588 -13.82543,2.71289 -0.43297,10e-4 -0.78721,-0.281 -0.78721,-0.62737 z"
     id="path44" />
  <path
     style="opacity:0.75;fill:#006485;fill-opacity:0.937255;stroke-width:0.629766"
     d="m 282.76507,509.506 c -0.51956,-0.25993 -2.8268,-1.36957 -5.1272,-2.46586 -3.85274,-1.83607 -9.35742,-6.66585 -9.35742,-8.21016 0,-0.33156 -0.30276,-1.39914 -0.67279,-2.3724 -0.37003,-0.97326 -0.66883,-5.45518 -0.66399,-9.95981 l 0.009,-8.19026 16.77445,-39.04551 c 9.22594,-21.47503 18.4779,-43.01304 20.55991,-47.86224 5.36085,-12.48594 13.18195,-28.05549 14.50975,-28.88472 0.61859,-0.38631 1.1247,-1.00629 1.1247,-1.37773 0,-0.949 3.08097,-3.72298 5.47743,-4.93166 2.73432,-1.37908 14.37567,-2.63318 16.16721,-1.74165 0.73801,0.36725 2.33372,1.06817 3.54602,1.55759 3.12038,1.25972 8.00167,5.77992 10.55938,9.77827 2.167,3.38756 2.17988,3.45107 2.17819,10.73775 -0.002,8.67463 1.55881,4.42866 -19.43144,52.86042 -24.80895,57.24282 -30.26683,69.37689 -31.20561,69.37689 -0.32483,0 -0.43381,0.2537 -0.24217,0.56377 0.19164,0.31008 -0.11559,0.74184 -0.68274,0.95947 -0.56714,0.21764 -0.86373,0.56313 -0.65909,0.76778 0.20464,0.20464 -1.06786,1.60118 -2.82778,3.10342 -3.02738,2.58412 -7.53994,4.68182 -10.07153,4.68182 -0.63104,0 -1.14999,0.21254 -1.15321,0.47232 -0.008,0.62817 -7.60551,0.78555 -8.81087,0.1825 z"
     id="path45" />
  <path
     style="opacity:0.75;fill:#006485;fill-opacity:0.937255;stroke-width:0.629766"
     d="m 278.64267,507.63838 c -4.6945,-2.28003 -10.36222,-7.09787 -10.36222,-8.8084 0,-0.33156 -0.30596,-1.40062 -0.67992,-2.37569 -0.37395,-0.97507 -0.67878,-5.45699 -0.67739,-9.95982 l 0.003,-8.18696 19.18968,-44.71341 c 10.55432,-24.59237 20.75495,-48.11414 22.66806,-52.2706 7.55579,-16.41581 11.52532,-22.50317 16.24396,-24.91044 3.0997,-1.58135 14.4037,-2.99425 16.44911,-2.05599 0.7872,0.3611 2.42316,1.08345 3.63546,1.60522 3.07309,1.32265 8.29456,6.17399 10.73014,9.96952 2.0146,3.13948 2.04645,3.30528 2.02834,10.55761 -0.0218,8.72539 1.39862,4.84883 -19.19327,52.38144 -24.96329,57.6232 -30.67261,70.18803 -32.53808,71.60846 -0.55951,0.42603 -0.78751,0.78361 -0.50667,0.79463 0.75222,0.0295 -5.21574,5.0769 -6.92211,5.85437 -0.80333,0.36603 -1.46206,0.83256 -1.46386,1.03674 -0.002,0.20418 -1.18789,0.43949 -2.63578,0.52293 -1.44789,0.0834 -2.79254,0.36682 -2.98813,0.62976 -0.19558,0.26294 -2.05597,0.54637 -4.1342,0.62984 -3.28045,0.13175 -4.44661,-0.17268 -8.84565,-2.30921 z"
     id="path46" />
  <path
     style="opacity:0.75;fill:#006485;fill-opacity:0.937255;stroke-width:0.629766"
     d="m 278.64267,507.63588 c -4.69518,-2.27805 -10.36222,-7.09394 -10.36222,-8.8059 0,-0.33156 -0.31091,-1.40062 -0.69091,-2.37569 -0.37999,-0.97507 -0.69546,-5.45699 -0.70104,-9.95982 l -0.0101,-8.18696 19.21533,-44.71341 c 25.26382,-58.78803 29.27479,-67.3999 34.02103,-73.04585 1.31869,-1.56866 3.44415,-3.38467 4.72325,-4.03558 2.37654,-1.20937 9.615,-2.58401 13.60666,-2.58401 5.19536,0 13.26653,5.56567 17.39018,11.99181 1.94278,3.02756 2.04568,3.49785 2.17078,9.9204 0.1309,6.7206 0.1214,6.76733 -2.96894,14.61424 -1.70514,4.32964 -9.05597,21.61673 -16.33518,38.41575 -23.22798,53.60568 -31.14729,71.16359 -32.09759,71.16359 -0.2956,0 -0.53745,0.27958 -0.53745,0.62129 0,0.87327 -4.32075,4.77029 -6.76999,6.10607 -1.12571,0.61394 -2.04674,1.32631 -2.04674,1.58305 0,0.25673 -0.4251,0.30366 -0.94465,0.10429 -0.51956,-0.19938 -0.94465,-0.0979 -0.94465,0.22558 0,0.32344 -0.85019,0.46329 -1.8893,0.31078 -1.03912,-0.15251 -1.89154,-0.0326 -1.89429,0.26651 -0.003,0.2991 -1.77396,0.61098 -3.93604,0.69307 -3.45055,0.13101 -4.5504,-0.15124 -8.9981,-2.30921 z"
     id="path47" />
  <path
     style="opacity:0.75;fill:#005f7f;fill-opacity:0.93725502;stroke-width:0.629766"
     d="m 278.98647,507.8262 c -5.67335,-2.72435 -10.53108,-7.16343 -11.08808,-10.1325 -0.21477,-1.14484 -0.57091,-2.19313 -0.79143,-2.32954 -0.22051,-0.13641 -0.37317,-4.02996 -0.33925,-8.65234 l 0.0617,-8.40431 19.23432,-44.71341 c 25.98882,-60.41541 29.1417,-67.17809 34.05101,-73.03672 1.31869,-1.57368 3.44415,-3.3938 4.72325,-4.04471 2.37654,-1.20937 9.615,-2.58401 13.60666,-2.58401 5.21319,0 13.26746,5.56711 17.42279,12.04263 1.96754,3.06616 2.08077,3.56659 2.24452,9.92039 l 0.17245,6.69135 -3.69246,9.13161 c -2.03086,5.02239 -8.57125,20.32571 -14.53422,34.00738 -5.96297,13.68168 -11.9142,27.42633 -13.22496,30.54367 -3.56114,8.46936 -15.60015,35.35026 -17.76916,39.67528 -1.04223,2.07823 -2.14297,3.87306 -2.44607,3.98852 -0.3031,0.11546 -0.55109,0.46588 -0.55109,0.77873 0,0.83007 -4.39016,4.75566 -6.76999,6.05359 -1.12571,0.61394 -2.04674,1.32631 -2.04674,1.58305 0,0.25673 -0.4251,0.30366 -0.94465,0.10429 -0.51956,-0.19938 -0.94465,-0.0979 -0.94465,0.22558 0,0.32344 -0.85019,0.46329 -1.8893,0.31078 -1.03912,-0.15251 -1.8893,0.002 -1.8893,0.34277 0,0.34104 -1.77122,0.65291 -3.93604,0.69305 -3.31351,0.0614 -4.68307,-0.28575 -8.65929,-2.19513 z"
     id="path48" />
  <path
     style="opacity:0.75;fill:#0096c9;fill-opacity:0.93725502;stroke-width:0.629766"
     d="m 45.026545,506.20576 c -4.13476,-3.05227 -8.717484,-8.1535 -9.739403,-10.84135 -0.357497,-0.94029 -0.649995,-3.9422 -0.649995,-6.67092 0,-6.10686 1.529304,-10.92417 9.574033,-30.15822 3.129779,-7.48296 7.045452,-16.86441 8.701495,-20.84769 9.844055,-23.67785 22.931452,-53.23511 28.724145,-64.8721 3.115872,-6.25951 4.734341,-8.70364 7.876885,-11.89531 5.175978,-5.25688 6.867696,-5.93559 14.718755,-5.90513 7.10796,0.0276 10.12071,1.04288 14.68328,4.94827 5.42644,4.64484 7.69898,13.78434 5.53013,22.24071 -1.31532,5.12846 -9.17598,24.68379 -23.56849,58.6324 -19.45185,45.88244 -23.953293,55.28949 -29.480523,61.60794 -4.099357,4.68618 -7.110009,5.89519 -15.574578,6.25436 l -7.01539,0.29769 z"
     id="path49" />
  <path
     style="opacity:0.75;fill:#0084b0;fill-opacity:0.93725502;stroke-width:0.629766"
     d="m 169.6183,509.31323 c -0.16401,-0.26543 -0.54243,-0.33165 -0.84093,-0.14717 -0.2985,0.18448 -0.7236,0.0428 -0.94465,-0.31488 -0.22105,-0.35767 -0.66573,-0.48727 -0.98816,-0.28799 -0.32244,0.19928 -0.58625,0.015 -0.58625,-0.40957 0,-0.42455 -0.16596,-0.60594 -0.3688,-0.4031 -0.37122,0.37122 -2.55265,-1.24671 -4.9501,-3.67141 -2.55769,-2.58677 -4.59229,-5.25935 -4.2582,-5.59344 0.18729,-0.18729 0.0807,-0.34072 -0.23676,-0.34097 -0.31751,-2.4e-4 -0.62046,-0.74575 -0.67323,-1.65668 -0.0528,-0.91093 -0.34565,-1.83176 -0.65084,-2.04629 -0.81129,-0.57029 -0.53647,-10.15336 0.35293,-12.30678 0.41808,-1.01226 0.61577,-2.21669 0.43932,-2.67651 -0.17645,-0.45982 -0.016,-0.83605 0.35656,-0.83605 0.37256,0 0.52128,-0.40678 0.33049,-0.90396 -0.19078,-0.49718 -0.0668,-0.99731 0.27549,-1.11141 0.3423,-0.11411 0.67009,-0.84091 0.72841,-1.61511 0.0583,-0.7742 0.35944,-1.40765 0.66916,-1.40765 0.30972,0 0.40703,-0.40678 0.21624,-0.90396 -0.19078,-0.49718 -0.10537,-0.99312 0.18982,-1.10209 0.29518,-0.10897 0.63351,-0.76492 0.75183,-1.45766 0.11832,-0.69274 0.39935,-1.40123 0.62451,-1.57442 0.22516,-0.17318 0.50855,-0.88167 0.62976,-1.57441 0.12122,-0.69275 0.40461,-1.40123 0.62977,-1.57442 0.22516,-0.17318 0.50856,-0.88167 0.62977,-1.57441 0.12121,-0.69275 0.40461,-1.40123 0.62976,-1.57442 0.22516,-0.17319 0.50856,-0.88167 0.62977,-1.57442 0.12121,-0.69274 0.44713,-1.42673 0.72426,-1.63108 0.27713,-0.20434 0.54998,-0.98368 0.60634,-1.73186 0.0564,-0.74816 0.26957,-1.3603 0.47381,-1.3603 0.44786,0 2.84539,-6.4141 2.64826,-7.08487 -0.0763,-0.25978 0.11387,-0.47233 0.42269,-0.47233 0.54773,0 1.63684,-2.99542 1.43111,-3.93604 -0.0568,-0.25978 0.14937,-0.47232 0.45819,-0.47232 0.54773,0 1.63684,-2.99542 1.43111,-3.93604 -0.0568,-0.25978 0.14937,-0.47233 0.45819,-0.47233 0.54773,0 1.63684,-2.99542 1.43111,-3.93604 -0.0568,-0.25978 0.18009,-0.47232 0.52646,-0.47232 0.34637,0 0.56956,-0.21255 0.49597,-0.47233 -0.0736,-0.25977 0.19984,-1.0727 0.60761,-1.80649 0.40777,-0.73379 0.56245,-1.51313 0.34372,-1.73186 -0.21873,-0.21872 -0.0978,-0.39769 0.26877,-0.39769 0.62688,0 1.76122,-2.90663 1.53607,-3.93604 -0.0568,-0.25977 0.18009,-0.47232 0.52646,-0.47232 0.34637,0 0.56956,-0.21255 0.49597,-0.47232 -0.0736,-0.25978 0.21978,-1.10997 0.65192,-1.8893 0.43215,-0.77934 0.61094,-1.41698 0.39732,-1.41698 -0.21362,0 0.19774,-0.9484 0.91414,-2.10757 0.71641,-1.15916 1.11738,-2.29274 0.89106,-2.51906 -0.22633,-0.22632 -0.0809,-0.4115 0.32323,-0.4115 0.4041,0 0.67452,-0.21254 0.60093,-0.47232 -0.0736,-0.25978 0.21978,-1.10997 0.65192,-1.8893 0.43215,-0.77934 0.62211,-1.41698 0.42213,-1.41698 -0.19997,0 0.34226,-1.20442 1.20495,-2.6765 0.8627,-1.47208 1.57739,-2.89203 1.58821,-3.15543 0.0108,-0.26341 0.45624,-1.32317 0.98983,-2.35503 0.53359,-1.03185 0.95869,-2.02374 0.94465,-2.20418 -0.014,-0.18044 0.41106,-1.17233 0.94465,-2.20418 0.53359,-1.03186 0.95868,-2.02374 0.94465,-2.20418 -0.014,-0.18045 0.39401,-1.13937 0.90677,-2.13094 0.51276,-0.99157 0.75467,-1.98048 0.53757,-2.19758 -0.2171,-0.2171 -0.0641,-0.39473 0.34,-0.39473 0.4041,0 0.67452,-0.21255 0.60093,-0.47233 -0.0736,-0.25977 0.19984,-1.0727 0.60761,-1.80649 0.40777,-0.7338 0.56244,-1.51313 0.34371,-1.73186 -0.21872,-0.21873 -0.0978,-0.39769 0.26877,-0.39769 0.62689,0 1.76122,-2.90662 1.53607,-3.93604 -0.0568,-0.25977 0.15812,-0.47232 0.47763,-0.47232 0.562,0 1.98409,-3.51724 1.88122,-4.65284 -0.0279,-0.30764 0.21739,-0.73274 0.54502,-0.94465 0.84928,-0.54932 2.81696,-4.53246 2.43013,-4.91928 -0.1779,-0.17791 -0.0443,-0.64751 0.29683,-1.04357 1.01705,-1.18072 6.13739,-10.48148 5.77036,-10.48148 -0.18621,0 0.41085,-0.58948 1.32679,-1.30996 0.91594,-0.72048 1.52763,-1.53279 1.35931,-1.80513 -0.56019,-0.90641 4.15702,-3.82672 8.79588,-5.44531 1.60298,-0.55931 13.53778,-0.70666 13.53904,-0.16716 5.1e-4,0.22223 0.72751,0.58641 1.61554,0.80929 2.02328,0.50782 9.24332,7.76328 10.3257,10.37636 0.44431,1.07265 1.04794,1.95027 1.34143,1.95027 0.29348,0 0.38147,0.39643 0.19554,0.88095 -0.18592,0.48452 -0.0477,1.06039 0.30714,1.2797 0.35487,0.21932 0.48556,0.81477 0.29045,1.32324 -0.19512,0.50846 -0.15404,1.42042 0.0913,2.02657 0.65635,1.62175 0.72197,6.45616 0.0876,6.45559 -0.30015,-2.7e-4 -0.41031,0.708 -0.24477,1.57393 0.16553,0.86593 0.0266,1.57442 -0.30884,1.57442 -0.3354,0 -0.45372,0.40678 -0.26294,0.90396 0.19079,0.49718 0.0533,1.00182 -0.30552,1.12143 -0.35883,0.11961 -0.69715,0.9879 -0.75183,1.92954 -0.0547,0.94164 -0.34229,1.71227 -0.63913,1.71252 -0.29683,2.4e-4 -0.37658,0.42553 -0.1772,0.94509 0.19937,0.51956 0.0713,0.94465 -0.28467,0.94465 -0.35595,0 -0.48413,0.26381 -0.28485,0.58625 0.19928,0.32244 0.0697,0.76711 -0.28799,0.98817 -0.35767,0.22105 -0.48727,0.66572 -0.28798,0.98816 0.19927,0.32244 0.0622,0.58625 -0.30462,0.58625 -0.36681,0 -0.60672,0.21255 -0.53314,0.47233 0.0736,0.25978 -0.21977,1.10996 -0.65192,1.8893 -0.43214,0.77933 -0.62752,1.41697 -0.43416,1.41697 0.19336,0 -0.15092,0.76687 -0.76505,1.70416 -0.61414,0.93729 -1.04002,1.79044 -0.94641,1.8959 0.0936,0.10545 -0.26791,1.03895 -0.80338,2.07444 -0.53547,1.03548 -0.81807,1.8827 -0.62801,1.8827 0.19007,0 -0.087,0.66026 -0.6158,1.46724 -0.52875,0.80699 -0.77145,1.65717 -0.53932,1.8893 0.23212,0.23213 0.0914,0.42205 -0.31267,0.42205 -0.40411,0 -0.67453,0.21255 -0.60094,0.47233 0.0736,0.25978 -0.19984,1.0727 -0.6076,1.80649 -0.40778,0.7338 -0.56246,1.51313 -0.34372,1.73186 0.21873,0.21873 0.0978,0.39769 -0.26878,0.39769 -0.62688,0 -1.76121,2.90663 -1.53607,3.93604 0.0568,0.25978 -0.14936,0.47232 -0.45818,0.47232 -0.54774,0 -1.63684,2.99542 -1.43111,3.93604 0.0568,0.25978 -0.18009,0.47233 -0.52646,0.47233 -0.34638,0 -0.56956,0.21254 -0.49598,0.47232 0.0736,0.25978 -0.19983,1.0727 -0.6076,1.8065 -0.40778,0.73379 -0.56245,1.51312 -0.34372,1.73186 0.21873,0.21872 0.0198,0.39768 -0.442,0.39768 -0.46183,0 -0.66206,0.17763 -0.44496,0.39473 0.21709,0.2171 -0.0248,1.20601 -0.53757,2.19758 -0.51276,0.99157 -0.87867,1.87668 -0.81311,1.9669 0.0655,0.0902 -0.27292,0.87252 -0.75213,1.73845 -0.47922,0.86593 -0.89324,1.71612 -0.92003,1.8893 -0.0268,0.17319 -0.54005,1.23592 -1.14058,2.36163 -0.60053,1.1257 -0.93636,2.04674 -0.74629,2.04674 0.19007,0 -0.0871,0.66026 -0.6158,1.46724 -0.52876,0.80699 -0.77146,1.65717 -0.53933,1.8893 0.23213,0.23213 0.0914,0.42205 -0.31267,0.42205 -0.4041,0 -0.67646,0.21255 -0.60525,0.47233 0.0712,0.25978 -0.36115,1.39336 -0.96082,2.51906 -0.59966,1.12571 -0.9253,2.04674 -0.72364,2.04674 0.20166,0 -0.0285,0.77934 -0.51141,1.73186 -0.48295,0.95252 -1.52095,3.14883 -2.30667,4.88069 -0.78572,1.73186 -1.81611,3.8884 -2.28976,4.79232 -0.47365,0.90392 -0.67972,1.82496 -0.45794,2.04674 0.22179,0.22179 0.0726,0.40325 -0.33147,0.40325 -0.4041,0 -0.67452,0.21255 -0.60094,0.47233 0.0736,0.25978 -0.19983,1.0727 -0.6076,1.8065 -0.40778,0.73379 -0.56245,1.51312 -0.34372,1.73185 0.21873,0.21873 0.0503,0.39769 -0.37421,0.39769 -0.42454,0 -0.59675,0.28339 -0.38268,0.62976 0.21407,0.34638 0.14603,0.62977 -0.1512,0.62977 -0.42853,0 -2.10374,3.56375 -2.36828,5.03813 -0.0311,0.17319 -0.68709,1.51931 -1.45781,2.99139 -0.77073,1.47208 -1.23362,2.67651 -1.02865,2.67651 0.20496,0 -0.0727,0.44533 -0.61697,0.98963 -0.884,0.884 -1.27946,2.21291 -1.06421,3.57617 0.041,0.25978 -0.22554,0.47233 -0.59236,0.47233 -0.36681,0 -0.49178,0.28339 -0.27771,0.62976 0.21407,0.34638 0.11107,0.62977 -0.22888,0.62977 -0.59001,0 -2.02467,3.47959 -1.91839,4.65284 0.0279,0.30764 -0.22038,0.73273 -0.55166,0.94465 -0.33128,0.21191 -1.52496,2.22736 -2.65262,4.47877 -1.12766,2.25142 -2.6516,4.94367 -3.38653,5.98278 -0.73492,1.03912 -1.3491,2.031 -1.36483,2.20418 -0.0737,0.81178 -5.99154,6.00189 -7.009,6.14711 -0.63322,0.0904 -2.28489,0.32438 -3.67038,0.52 -3.98934,0.56324 -11.74172,0.62273 -12.06928,0.0926 z"
     id="path50" />
</svg>
