<?xml version="1.0" encoding="UTF-8" standalone="no"?>
<!-- Generator: Adobe Illustrator 22.0.1, SVG Export Plug-In . SVG Version: 6.00 Build 0)  -->

<svg
   version="1.1"
   id="Layer_1"
   x="0px"
   y="0px"
   viewBox="0 0 30 30"
   style="enable-background:new 0 0 30 30;"
   xml:space="preserve"
   sodipodi:docname="cloud-sun.svg"
   inkscape:version="1.3-beta (cedbd6c6ff, 2023-05-28)"
   xmlns:inkscape="http://www.inkscape.org/namespaces/inkscape"
   xmlns:sodipodi="http://sodipodi.sourceforge.net/DTD/sodipodi-0.dtd"
   xmlns="http://www.w3.org/2000/svg"
   xmlns:svg="http://www.w3.org/2000/svg"><defs
   id="defs1" /><sodipodi:namedview
   id="namedview1"
   pagecolor="#ffffff"
   bordercolor="#000000"
   borderopacity="0.25"
   inkscape:showpageshadow="2"
   inkscape:pageopacity="0.0"
   inkscape:pagecheckerboard="0"
   inkscape:deskcolor="#d1d1d1"
   showgrid="false"
   inkscape:zoom="27.1"
   inkscape:cx="15"
   inkscape:cy="15"
   inkscape:window-width="1920"
   inkscape:window-height="1009"
   inkscape:window-x="-8"
   inkscape:window-y="-8"
   inkscape:window-maximized="1"
   inkscape:current-layer="Layer_1" />&#10;<path
   d="M3.95,13.05c0-0.93,0.29-1.75,0.87-2.48s1.31-1.2,2.19-1.4c0.26-1.1,0.82-2,1.7-2.71s1.88-1.06,3.01-1.06  c1.1,0,2.08,0.35,2.95,1.04s1.43,1.57,1.68,2.65h0.26c1.1,0,2.04,0.39,2.82,1.16c0.78,0.77,1.17,1.71,1.17,2.81  c0,0.01,0,0.02,0,0.04c0,0.02,0,0.04,0,0.06c0.75,0.8,1.12,1.75,1.12,2.85c0,0.76-0.19,1.46-0.57,2.1  c-0.38,0.65-0.89,1.16-1.53,1.53c-0.64,0.38-1.34,0.56-2.09,0.56c-0.96,0-1.82-0.3-2.56-0.89s-1.24-1.35-1.48-2.26H7.79  C6.72,17,5.81,16.59,5.07,15.82S3.95,14.12,3.95,13.05z M5.31,13.05c0,0.7,0.24,1.31,0.73,1.82s1.07,0.79,1.75,0.82h8.99  c0.68-0.03,1.27-0.3,1.75-0.82c0.49-0.52,0.73-1.12,0.73-1.82c0-0.71-0.26-1.32-0.79-1.83c-0.53-0.52-1.14-0.77-1.86-0.77h-1.29  c-0.09,0-0.14-0.05-0.14-0.14l-0.07-0.47c-0.09-0.87-0.46-1.6-1.12-2.19s-1.42-0.89-2.28-0.89c-0.89,0-1.66,0.29-2.31,0.88  S8.4,8.96,8.31,9.83L8.25,10.3c0,0.09-0.05,0.14-0.16,0.14h-0.4C7.02,10.52,6.45,10.8,6,11.3C5.54,11.79,5.31,12.38,5.31,13.05z   M11.51,22.06c-0.25-0.33-0.25-0.65,0-0.98l1.13-1.15c0.14-0.12,0.31-0.18,0.52-0.18c0.19,0,0.34,0.06,0.46,0.18  c0.12,0.12,0.18,0.28,0.18,0.47c0,0.2-0.06,0.36-0.18,0.48l-1.14,1.18c-0.12,0.12-0.29,0.19-0.49,0.19  C11.79,22.25,11.63,22.18,11.51,22.06z M14.9,17.04c0.21,0.54,0.56,0.97,1.04,1.3c0.48,0.33,1.01,0.5,1.6,0.5  c0.77,0,1.43-0.28,1.97-0.83c0.54-0.56,0.81-1.23,0.81-2.02c0-0.39-0.06-0.74-0.19-1.05c-0.33,0.61-0.8,1.11-1.39,1.49  c-0.6,0.38-1.25,0.58-1.96,0.61H14.9z M16.85,22.23c0-0.19,0.07-0.34,0.2-0.47c0.13-0.12,0.3-0.19,0.48-0.19  c0.18,0,0.35,0.07,0.5,0.21c0.12,0.12,0.19,0.27,0.19,0.45v1.64c0,0.19-0.07,0.35-0.2,0.49c-0.13,0.14-0.3,0.21-0.48,0.21  s-0.35-0.07-0.48-0.21c-0.13-0.14-0.2-0.3-0.2-0.49V22.23z M21.26,20.4c0-0.18,0.06-0.33,0.19-0.46c0.13-0.12,0.29-0.19,0.47-0.19  c0.19,0,0.35,0.06,0.47,0.18l1.18,1.15c0.13,0.14,0.2,0.3,0.2,0.48c0,0.19-0.07,0.35-0.2,0.48c-0.13,0.13-0.3,0.2-0.49,0.2  c-0.21,0-0.37-0.06-0.5-0.19l-1.13-1.18C21.32,20.73,21.26,20.57,21.26,20.4z M21.26,11.59c0-0.19,0.06-0.35,0.19-0.47l1.13-1.18  c0.14-0.12,0.3-0.19,0.5-0.19c0.19,0,0.35,0.06,0.5,0.19c0.13,0.15,0.2,0.32,0.2,0.51c0,0.18-0.07,0.33-0.2,0.48l-1.18,1.15  c-0.12,0.12-0.28,0.19-0.47,0.19s-0.35-0.06-0.47-0.19C21.32,11.94,21.26,11.78,21.26,11.59z M23.08,15.99  c0-0.19,0.06-0.35,0.19-0.48c0.12-0.13,0.28-0.2,0.47-0.2h1.62c0.19,0,0.36,0.07,0.5,0.2s0.21,0.29,0.21,0.48  c0,0.19-0.07,0.36-0.21,0.49c-0.14,0.13-0.3,0.2-0.5,0.2h-1.62c-0.19,0-0.34-0.07-0.47-0.2C23.14,16.35,23.08,16.19,23.08,15.99z"
   id="path1" />&#10;<path
   style="opacity:0.75;fill:#003039;fill-opacity:1;stroke-width:0.0369004"
   d="m 17.121771,20.165096 c -0.03044,-0.006 -0.179889,-0.031 -0.332103,-0.05564 -1.406291,-0.227653 -2.715526,-1.36613 -3.189311,-2.773341 l -0.0908,-0.269689 -3.037067,-0.02109 C 7.1998073,17.022596 7.3103321,17.029119 6.6794405,16.821456 5.4757005,16.425237 4.4890483,15.386445 4.1082492,14.114391 4.0160178,13.806293 4.0086457,13.73161 4.0062608,13.081181 4.0034355,12.310667 4.0345768,12.123293 4.254639,11.586716 4.5435102,10.882361 5.0580831,10.228194 5.6625654,9.7968446 5.9426877,9.5969535 6.500081,9.327641 6.8125254,9.2412255 L 7.0383348,9.1787712 7.0813809,8.9897546 C 7.1050563,8.8857955 7.1872207,8.6420314 7.2639684,8.4480567 7.7705103,7.1678073 8.891831,6.103162 10.194132,5.665994 c 0.461544,-0.1549353 0.79308,-0.2113202 1.355683,-0.2305635 1.049082,-0.035883 1.907898,0.2064209 2.765198,0.780164 0.920477,0.6160239 1.541749,1.4209549 1.881376,2.437542 l 0.147934,0.4428045 0.43485,0.022951 c 0.482857,0.025484 0.745613,0.071929 1.111434,0.1964561 0.561581,0.1911649 1.021091,0.4800125 1.491335,0.9374509 0.723647,0.70394 1.084489,1.46228 1.17903,2.477829 l 0.04294,0.461255 0.15335,0.184502 c 0.373507,0.449382 0.665117,1.015443 0.817405,1.586715 0.08925,0.33479 0.09837,0.430591 0.09837,1.033211 0,0.600093 -0.0093,0.699031 -0.09664,1.024993 -0.436636,1.630079 -1.792244,2.862114 -3.421413,3.109526 -0.307748,0.04674 -0.873755,0.06551 -1.033211,0.03427 z m 0.96773,-1.361263 c 0.562195,-0.107566 1.074312,-0.395934 1.474757,-0.830423 0.561575,-0.609317 0.796644,-1.274355 0.757534,-2.143152 -0.02244,-0.498422 -0.150946,-0.995967 -0.225031,-0.871243 -0.416146,0.700603 -0.999711,1.268117 -1.657635,1.612044 -0.715206,0.373871 -1.088559,0.440011 -2.483793,0.440011 -0.596466,0 -1.084484,0.0099 -1.084484,0.02204 0,0.01212 0.06991,0.157417 0.155348,0.322878 0.119321,0.231071 0.232766,0.377855 0.489176,0.632941 0.346487,0.344697 0.595992,0.515222 0.981953,0.671118 0.466105,0.188269 1.073157,0.24309 1.592175,0.143785 z m -0.764778,-3.168365 c 0.894102,-0.260966 1.640362,-1.01774 1.863346,-1.889598 0.100049,-0.39119 0.100489,-0.973368 0.001,-1.362253 -0.222151,-0.868601 -1.007272,-1.638364 -1.905315,-1.868045 -0.243059,-0.06216 -0.409359,-0.07277 -1.141256,-0.07277 -0.658599,0 -0.865959,-0.01111 -0.896609,-0.04804 -0.02193,-0.02642 -0.07448,-0.274888 -0.116773,-0.5521453 C 14.981587,8.8755479 14.71252,8.3272583 14.090714,7.7266167 13.58642,7.2394602 13.02528,6.9403733 12.364351,6.8064518 11.983269,6.7292348 11.18138,6.7489971 10.811808,6.8447138 10.22713,6.9961418 9.4875358,7.4561514 9.10879,7.9039506 8.6103137,8.4933093 8.3998542,9.0025525 8.2822155,9.9039911 c -0.031728,0.2431229 -0.06444,0.4529689 -0.072693,0.4663229 -0.00825,0.01335 -0.1774992,0.03428 -0.3761018,0.0465 -0.7991791,0.04917 -1.471667,0.394947 -1.967957,1.011871 -0.3975212,0.494147 -0.5589524,0.963939 -0.5614957,1.634047 -0.0017,0.447136 0.062301,0.740871 0.2452103,1.125461 0.2888808,0.607407 0.8721386,1.152571 1.4631013,1.367545 0.4337807,0.157795 0.4567701,0.158441 5.3862444,0.151233 4.360959,-0.0064 4.720977,-0.0116 4.926199,-0.0715 z"
   id="path2" /><path
   style="opacity:0.75;fill:#003039;fill-opacity:1;stroke-width:0.0369004"
   d="m 16.687568,20.073016 c -0.744043,-0.161612 -1.384443,-0.50392 -1.952833,-1.043836 -0.5163,-0.490435 -0.899862,-1.068455 -1.099835,-1.657432 l -0.106272,-0.313002 -2.8252,-0.02557 C 9.1495686,17.01912 7.6997506,16.991481 7.4816104,16.97176 6.1994278,16.855843 5.0098105,16.006892 4.3894607,14.765096 4.3120613,14.610161 4.2019021,14.350554 4.1446625,14.188192 4.0422638,13.897735 4.0405974,13.879639 4.0410229,13.062731 l 4.325e-4,-0.830259 0.1184505,-0.340314 C 4.6078464,10.605203 5.5413342,9.6669609 6.7574467,9.2813893 L 7.0278681,9.1956513 7.1779033,8.7583423 C 7.6962771,7.247433 8.7852528,6.1581451 10.270844,5.6645147 c 0.4676,-0.1553737 0.811873,-0.2032601 1.46131,-0.2032601 1.011168,0 1.756123,0.2243273 2.584085,0.7781425 0.90262,0.6037521 1.542926,1.4517949 1.885662,2.4974324 l 0.120917,0.3689001 0.408702,0.025839 c 1.174178,0.074233 1.974629,0.440852 2.755396,1.2620144 0.653017,0.686803 0.932515,1.30392 1.050114,2.318594 0.04204,0.362779 0.07338,0.502191 0.128538,0.571956 0.424693,0.537124 0.699746,1.04351 0.871874,1.605166 0.09733,0.317589 0.101778,0.36597 0.101778,1.107011 0,0.741197 -0.0044,0.789195 -0.101499,1.103335 -0.445624,1.44193 -1.547141,2.534873 -2.943875,2.920962 -0.493634,0.136452 -1.404109,0.161483 -1.906278,0.05241 z m 1.478579,-1.275391 c 0.146073,-0.03215 0.423061,-0.134041 0.615528,-0.226414 0.304923,-0.146346 0.395117,-0.213591 0.701107,-0.522718 0.584232,-0.590222 0.804951,-1.077504 0.83982,-1.854079 0.02679,-0.596703 -0.0735,-1.249765 -0.191922,-1.249765 -0.02563,0 -0.118314,0.112085 -0.20596,0.249078 -0.244774,0.382583 -0.909853,1.02143 -1.305893,1.254382 -0.75242,0.442578 -1.121048,0.519302 -2.650192,0.551595 -0.647179,0.01367 -1.097786,0.03748 -1.097786,0.058 0,0.115025 0.30844,0.590941 0.548091,0.845692 0.460479,0.489492 0.938677,0.776623 1.494859,0.89758 0.316543,0.06884 0.931867,0.06719 1.252348,-0.0034 z m -1.105325,-3.113728 c 0.758649,-0.07981 1.580929,-0.690624 1.957644,-1.454192 0.180335,-0.365526 0.242436,-0.664447 0.242436,-1.166974 0,-0.7939 -0.197136,-1.271304 -0.754254,-1.826578 -0.367224,-0.366008 -0.61383,-0.528431 -1.021976,-0.673109 -0.25407,-0.09006 -0.328716,-0.09759 -1.218528,-0.122937 -0.521334,-0.01485 -0.964405,-0.03721 -0.984603,-0.04969 -0.0202,-0.01248 -0.05363,-0.109584 -0.0743,-0.21578 -0.02067,-0.1062 -0.07253,-0.3745521 -0.115261,-0.5963429 C 14.946867,8.8250197 14.679517,8.3055766 14.175306,7.79726 13.462159,7.0783064 12.693187,6.7522173 11.715867,6.7543134 11.074636,6.7556887 10.750043,6.8181123 10.316687,7.0233951 9.4040081,7.4557353 8.7646428,8.1250952 8.4825096,8.9436192 8.387676,9.2187494 8.2296373,9.9979517 8.2282173,10.197394 c -0.00101,0.142049 -0.050256,0.165377 -0.4395228,0.208211 -0.4652209,0.05119 -0.8644666,0.172803 -1.1777966,0.35876 -0.6018198,0.357172 -1.1035323,1.006985 -1.240091,1.606154 -0.2337538,1.025625 0.047271,1.971728 0.7886249,2.654994 0.4257948,0.392432 0.8441859,0.598607 1.3313431,0.656058 0.3492004,0.04118 9.1802951,0.04333 9.5700471,0.0023 z"
   id="path3" /><path
   style="opacity:0.75;fill:#003039;fill-opacity:1;stroke-width:0.0369004"
   d="M 17.028672,20.103521 C 16.22675,20.041789 15.35974,19.622134 14.704797,18.978705 14.186399,18.469421 13.853919,17.958892 13.633658,17.333948 l -0.100792,-0.285978 -0.9454,-0.0075 c -0.51997,-0.0041 -1.01182,-0.01102 -1.093001,-0.01536 -0.08118,-0.0043 -0.778598,-0.01229 -1.5498156,-0.01766 C 7.491738,16.990401 7.1602189,16.965139 6.5767086,16.750849 5.5297389,16.366357 4.6894699,15.511962 4.2197273,14.354244 L 4.0774908,14.00369 4.0660046,13.118081 4.0545184,12.232472 4.1716974,11.900369 C 4.3980059,11.258976 4.6917174,10.775839 5.139936,10.307678 5.5870006,9.8407229 6.0443149,9.5494103 6.697417,9.315552 L 7.0295203,9.1966343 7.1672557,8.8141844 C 7.5202972,7.8338935 7.9989882,7.1283574 8.7201037,6.5254634 9.2593849,6.0745932 10.024964,5.702363 10.725299,5.5505226 c 0.360858,-0.078238 1.447518,-0.088442 1.857727,-0.017445 0.398519,0.068974 0.893609,0.2389136 1.253091,0.4301239 1.129663,0.6008729 1.92773,1.5366636 2.344599,2.7492101 l 0.134554,0.3913783 0.478141,0.043678 c 1.105718,0.1010063 1.845017,0.4260185 2.555233,1.1233361 0.367763,0.361085 0.609743,0.682166 0.8022,1.064436 0.18397,0.365411 0.276161,0.700368 0.368823,1.340037 0.05665,0.3911 0.09445,0.543499 0.155561,0.627306 0.417941,0.573128 0.659707,1.018368 0.841554,1.549816 0.08388,0.245138 0.08836,0.304378 0.08789,1.162361 l -4.97e-4,0.904059 -0.123646,0.332104 c -0.258857,0.695268 -0.615291,1.252283 -1.099022,1.717492 -0.525756,0.505623 -1.129877,0.859444 -1.765938,1.034271 -0.342143,0.09404 -1.072376,0.140442 -1.586894,0.100835 z m 1.141784,-1.302804 c 0.998531,-0.211535 1.906321,-1.139928 2.109183,-2.15705 0.111425,-0.558668 0.01358,-1.699018 -0.145784,-1.699018 -0.02628,0 -0.112817,0.09539 -0.192297,0.21198 -0.193127,0.283296 -0.671651,0.782207 -1.007747,1.050682 -0.32138,0.256721 -0.817061,0.51489 -1.183602,0.616464 -0.378918,0.105003 -1.504302,0.186178 -2.593382,0.187063 -0.346981,2.82e-4 -0.351539,0.0135 -0.132962,0.385539 0.185372,0.315524 0.771183,0.907471 1.074915,1.086176 0.244845,0.144058 0.635997,0.294147 0.87539,0.335896 0.280701,0.04895 0.926703,0.03938 1.196286,-0.01773 z M 17.484028,15.59702 c 0.421347,-0.162429 0.701427,-0.345919 1.021507,-0.669221 0.320503,-0.323729 0.491728,-0.583644 0.639371,-0.970546 0.0877,-0.229823 0.09507,-0.295129 0.09678,-0.857622 0.0016,-0.53231 -0.0086,-0.642144 -0.0814,-0.87363 -0.21543,-0.685157 -0.953087,-1.41966 -1.675301,-1.668138 -0.269423,-0.09269 -0.429076,-0.108639 -1.359529,-0.135774 -0.521714,-0.01521 -0.808074,-0.03774 -0.836338,-0.06579 -0.02364,-0.02346 -0.08774,-0.26682 -0.14245,-0.5408048 C 15.091965,9.5415129 15.013935,9.2094096 14.973274,9.0774908 14.79155,8.4879135 14.409,7.9456979 13.864166,7.505473 13.187797,6.958967 12.589173,6.7527675 11.678967,6.7527675 c -0.592739,0 -0.935276,0.068354 -1.366725,0.272733 C 9.3897421,7.4624932 8.7263022,8.162858 8.4701893,8.9700768 8.3751863,9.2695081 8.2291506,9.9757347 8.2282173,10.140249 8.2272576,10.309426 8.1820804,10.33593 7.8003114,10.391284 6.9988216,10.507496 6.56032,10.709151 6.0849482,11.18013 c -0.6074338,0.601822 -0.8571003,1.26475 -0.791041,2.100414 0.051493,0.651395 0.29576,1.163705 0.7946537,1.666656 0.4424533,0.44605 0.8512312,0.664839 1.3692095,0.732838 0.1297761,0.01704 2.378023,0.02875 4.9961046,0.02602 l 4.760147,-0.005 z"
   id="path4" /><path
   style="opacity:0.75;fill:#003039;fill-opacity:1;stroke-width:0.0369004"
   d="M 16.678132,20.058077 C 15.9403,19.903804 15.276135,19.526155 14.66658,18.914296 14.126318,18.37199 13.864339,17.970489 13.635403,17.333948 L 13.53255,17.04797 13.233065,17.047834 c -0.947014,-4.33e-4 -4.0667096,-0.04687 -4.9489322,-0.07366 -1.1274304,-0.03424 -1.323356,-0.06506 -1.8757612,-0.295021 -0.9944952,-0.41401 -1.881723,-1.406198 -2.2569348,-2.523935 -0.087652,-0.261112 -0.092396,-0.317679 -0.092396,-1.101757 0,-0.772481 0.00571,-0.843221 0.087293,-1.082055 C 4.5970729,10.651911 5.5198812,9.709045 6.774919,9.2856875 L 7.0285092,9.2001446 7.1782985,8.7974893 C 7.4868804,7.9679772 7.7947365,7.4559964 8.3073897,6.9197516 8.9593033,6.2378383 9.8274446,5.7503561 10.748144,5.5492097 c 0.414131,-0.090476 1.531145,-0.081584 1.964033,0.015634 0.90082,0.2023066 1.687446,0.6396253 2.311458,1.2850366 0.600403,0.6209919 0.885368,1.0863533 1.175498,1.9196415 l 0.117609,0.3377879 0.301038,0.024583 c 0.456659,0.03729 0.939495,0.1188594 1.225091,0.2069642 0.630925,0.1946366 1.225619,0.6008011 1.750903,1.1958331 0.5689,0.644441 0.794484,1.179333 0.94167,2.232838 0.05015,0.358941 0.07603,0.447106 0.167891,0.571955 0.245459,0.333599 0.5351,0.83203 0.667677,1.148975 0.236205,0.564686 0.261239,0.733134 0.243278,1.637003 -0.01458,0.733601 -0.02278,0.812814 -0.108962,1.051661 -0.256535,0.711002 -0.587897,1.244281 -1.080674,1.739189 -0.530133,0.532426 -1.150549,0.900042 -1.845318,1.093408 -0.34068,0.09482 -1.533859,0.125166 -1.901204,0.04836 z m 1.492324,-1.25736 c 0.411441,-0.08716 0.886201,-0.340498 1.216932,-0.649364 0.499592,-0.466563 0.774752,-0.932701 0.891924,-1.510968 0.112036,-0.552919 0.01401,-1.695736 -0.145457,-1.695736 -0.02628,0 -0.112817,0.09548 -0.192297,0.212178 -0.193944,0.284759 -0.902821,0.994181 -1.17772,1.178625 -0.306991,0.205976 -0.802703,0.436074 -1.088561,0.505285 -0.317774,0.07694 -0.905574,0.124305 -1.931321,0.155633 -0.657679,0.02009 -0.846981,0.03674 -0.861982,0.07583 -0.06777,0.1766 0.768728,1.145711 1.217353,1.41035 0.228196,0.134609 0.619597,0.28805 0.856393,0.335729 0.248669,0.05007 0.942851,0.04003 1.214736,-0.01757 z M 17.09661,15.684282 c 0.493839,-0.0628 1.014639,-0.348827 1.445825,-0.794058 0.28993,-0.299373 0.462464,-0.56643 0.602754,-0.932971 0.08813,-0.230252 0.09533,-0.29408 0.09678,-0.857622 0.0019,-0.734043 -0.05888,-0.979845 -0.349825,-1.414841 -0.334822,-0.500601 -0.862588,-0.925887 -1.392459,-1.122078 -0.225361,-0.08344 -0.340764,-0.09646 -1.226625,-0.13836 -0.537823,-0.02544 -0.980724,-0.0483 -0.984224,-0.0508 -0.02168,-0.01549 -0.09244,-0.300323 -0.16156,-0.6503048 C 14.942639,8.7883343 14.706277,8.3154198 14.147598,7.7631011 13.636865,7.2581826 13.032982,6.9262579 12.404503,6.8050071 12.040106,6.734705 11.287413,6.7378282 10.930179,6.8111246 10.164216,6.9682829 9.2611413,7.5914159 8.8077683,8.2756146 8.5313207,8.6928098 8.3560089,9.2188579 8.2603269,9.9182882 8.2361328,10.095148 8.197452,10.260945 8.1743701,10.286724 c -0.023081,0.02578 -0.2337874,0.07916 -0.468235,0.118631 -0.7016544,0.118118 -1.1117527,0.302603 -1.5480741,0.696408 -0.6989844,0.630874 -0.9973919,1.509929 -0.8285202,2.440672 0.1008709,0.555955 0.3280079,0.978837 0.7552028,1.406032 0.4725717,0.472571 0.9063078,0.687395 1.479832,0.732939 0.4931473,0.03916 9.2259734,0.0418 9.5320344,0.0029 z"
   id="path5" /><path
   style="opacity:0.75;fill:#003039;fill-opacity:1;stroke-width:0.0369004"
   d="m 16.678132,20.058077 c -1.316373,-0.27524 -2.583545,-1.407642 -3.043463,-2.719775 l -0.09871,-0.281625 -1.980155,-0.02328 C 8.4502026,16.996874 7.3081158,16.955322 6.9655443,16.866389 5.6729426,16.530823 4.6028087,15.499834 4.1514368,14.15522 c -0.087652,-0.261112 -0.092396,-0.317679 -0.092396,-1.101757 0,-0.775736 0.00542,-0.842214 0.088234,-1.082055 C 4.6069799,10.640032 5.5168267,9.7100753 6.774919,9.2856875 L 7.0285092,9.2001446 7.1842293,8.7801716 C 7.48487,7.9693514 7.7948797,7.4558465 8.3073897,6.9197516 8.9697439,6.2269172 9.923124,5.7004496 10.820439,5.5320167 c 0.350353,-0.065764 1.497793,-0.053026 1.848722,0.020522 0.931708,0.19527 1.720167,0.6403575 2.412905,1.3620922 0.532666,0.5549619 0.879583,1.1348034 1.131003,1.8903694 l 0.09965,0.2994653 0.321501,0.024995 c 0.75675,0.058834 1.291263,0.194652 1.779065,0.4520557 0.381655,0.2013923 0.626967,0.3873188 0.980459,0.7431127 0.35667,0.358991 0.53008,0.588852 0.729428,0.966884 0.21999,0.417176 0.330904,0.838955 0.44699,1.699795 0.01691,0.125366 0.09375,0.276323 0.300543,0.590406 0.313765,0.476557 0.523806,0.895329 0.649093,1.294142 0.07909,0.251772 0.08537,0.335483 0.08537,1.138904 0,0.819307 -0.0049,0.881413 -0.08865,1.125461 -0.238148,0.693879 -0.590999,1.271686 -1.072378,1.756058 -0.579112,0.582712 -1.114676,0.901875 -1.8648,1.111306 -0.341708,0.0954 -1.534861,0.127091 -1.901204,0.05049 z m 1.759709,-1.339266 c 0.437447,-0.15714 0.691496,-0.320733 1.047742,-0.674685 0.551799,-0.548246 0.800493,-1.090813 0.836331,-1.824596 0.02842,-0.581908 -0.07356,-1.276211 -0.187148,-1.274085 -0.02338,4.38e-4 -0.108936,0.09546 -0.190117,0.211167 -0.204777,0.291862 -0.91376,0.999661 -1.180811,1.17884 -0.306991,0.205976 -0.802703,0.436074 -1.088561,0.505285 -0.307407,0.07443 -0.898142,0.123308 -1.826569,0.151139 -0.940795,0.0282 -0.988934,0.0353 -0.95747,0.141139 0.08709,0.292967 0.728305,1.030058 1.123522,1.291515 0.484106,0.320262 0.935129,0.435979 1.623616,0.416565 0.436865,-0.01232 0.535227,-0.02736 0.799465,-0.122284 z m -1.500572,-3.034397 c 0.595649,-0.03705 1.052582,-0.253148 1.535446,-0.72617 0.325276,-0.318646 0.525308,-0.619353 0.665548,-1.000516 0.100492,-0.273129 0.105168,-0.313829 0.102833,-0.894997 -0.0028,-0.685952 -0.04951,-0.887959 -0.303184,-1.309963 -0.174914,-0.290982 -0.706157,-0.812827 -1.005854,-0.988062 -0.447741,-0.261797 -0.674197,-0.304999 -1.788147,-0.34113 -0.365313,-0.01185 -0.708952,-0.03009 -0.76364,-0.04054 C 15.266093,10.36122 15.239814,10.297178 15.147395,9.8154982 15.006621,9.0817972 14.843103,8.6459698 14.559471,8.2484954 14.086984,7.5863633 13.370368,7.0685862 12.63046,6.8547248 12.380168,6.782381 12.257642,6.7716579 11.678967,6.771453 10.920462,6.7711843 10.706126,6.8171612 10.170072,7.0951234 9.3569631,7.5167486 8.7853144,8.1276828 8.5036052,8.8761147 8.4103646,9.1238328 8.2287823,9.9629185 8.2287823,10.146064 c 0,0.05676 -0.022063,0.121513 -0.04903,0.143894 -0.026966,0.02238 -0.2636498,0.08035 -0.5259628,0.128816 -0.8083806,0.149368 -1.3055348,0.421796 -1.7610111,0.96499 -0.2256983,0.269164 -0.4685569,0.728974 -0.5364658,1.015703 -0.071701,0.30274 -0.089774,0.744036 -0.043031,1.050718 0.091298,0.599015 0.3318278,1.057145 0.7943177,1.512915 0.5368092,0.529008 0.8897644,0.683865 1.6414787,0.720184 0.6509118,0.03145 8.68483,0.03244 9.188191,0.0011 z"
   id="path6" /><path
   style="opacity:0.75;fill:#003039;fill-opacity:1;stroke-width:0.0369004"
   d="M 16.808118,20.086966 C 16.095416,19.975868 15.337747,19.573593 14.720517,18.978582 14.189252,18.466441 13.850572,17.954203 13.633124,17.333948 L 13.532866,17.04797 12.753518,17.047721 C 11.541511,17.047332 9.2300852,17.009851 8.1918819,16.97375 7.4485162,16.947902 7.1909303,16.925471 6.9652341,16.866933 6.3006212,16.694555 5.793608,16.408492 5.2744713,15.912985 4.746179,15.408738 4.3799813,14.836042 4.1524647,14.158282 c -0.088901,-0.264832 -0.093424,-0.31832 -0.093424,-1.104819 0,-0.772481 0.00571,-0.843221 0.087293,-1.082055 C 4.3774393,11.294869 4.7252491,10.727128 5.198519,10.253892 5.6478235,9.8046199 6.0711746,9.539572 6.697417,9.3154753 L 7.0295203,9.1966343 7.1670611,8.8176037 C 7.2427086,8.6091368 7.3781455,8.2875877 7.468032,8.1030503 8.0335679,6.9420019 9.1678827,5.992777 10.424354,5.6291207 11.074901,5.440835 12.257092,5.431949 12.933579,5.6102599 c 0.807965,0.2129662 1.537172,0.6579372 2.168438,1.3232071 0.524256,0.5524964 0.827172,1.0526606 1.078945,1.7815149 l 0.132632,0.3839544 0.476194,0.045398 c 1.125008,0.1072524 1.842263,0.4256458 2.56192,1.1372507 0.390256,0.385888 0.606461,0.670953 0.799136,1.053655 0.178181,0.353912 0.265708,0.666824 0.367286,1.313053 l 0.07964,0.506689 0.273887,0.420544 c 0.296034,0.454551 0.505277,0.868749 0.645045,1.276873 0.08395,0.245126 0.08845,0.304418 0.08819,1.162361 -2.56e-4,0.853546 -0.0051,0.917461 -0.08636,1.143912 -0.256812,0.71554 -0.602402,1.2666 -1.110796,1.771217 -0.395367,0.39243 -0.738274,0.63599 -1.200116,0.852416 -0.527952,0.247406 -0.785823,0.29787 -1.587701,0.3107 -0.385609,0.0062 -0.750922,0.0035 -0.811808,-0.006 z m 1.615842,-1.369597 c 0.440822,-0.151945 0.688358,-0.307707 1.040348,-0.654638 0.600333,-0.591706 0.868931,-1.226628 0.866377,-2.047971 -0.0016,-0.523624 -0.106145,-1.089396 -0.195801,-1.059912 -0.02345,0.0077 -0.116642,0.112353 -0.207098,0.232538 -0.24138,0.320713 -0.906885,0.974663 -1.178014,1.157561 -0.297901,0.200958 -0.769461,0.422084 -1.056045,0.495206 -0.282516,0.07208 -0.918883,0.125908 -1.808118,0.152932 -0.385609,0.01172 -0.772439,0.02999 -0.859622,0.04061 -0.141923,0.01728 -0.156093,0.02773 -0.135373,0.09982 0.08141,0.283228 0.764158,1.057732 1.150002,1.304553 0.245527,0.157062 0.681362,0.33298 0.939157,0.379077 0.108542,0.01941 0.40538,0.02989 0.65964,0.0233 0.399021,-0.01035 0.506397,-0.02719 0.784547,-0.123068 z m -1.043886,-3.089744 c 0.626971,-0.197403 1.253248,-0.712211 1.595703,-1.31169 0.346564,-0.60667 0.383516,-1.676145 0.0802,-2.321108 -0.300375,-0.638708 -0.951177,-1.22474 -1.601025,-1.441684 -0.20115,-0.06715 -0.378502,-0.08533 -1.125462,-0.115325 -0.487676,-0.01959 -0.922756,-0.04307 -0.966843,-0.0522 -0.09502,-0.01966 -0.11888,-0.08717 -0.253683,-0.7177253 -0.191057,-0.8936835 -0.38819,-1.289662 -0.91212,-1.8321708 -0.487298,-0.5045773 -1.0625,-0.8565344 -1.62003,-0.9912711 -0.322408,-0.077916 -1.053579,-0.10896 -1.438789,-0.061089 -0.542078,0.067366 -1.2127447,0.386354 -1.7394399,0.8273281 -0.6178989,0.5173342 -0.9876287,1.2707152 -1.136359,2.3155053 -0.024558,0.1725088 -0.064174,0.3351058 -0.088037,0.3613258 -0.023863,0.02622 -0.2247546,0.07973 -0.4464258,0.118912 -0.7715537,0.136376 -1.2115502,0.343913 -1.6394512,0.773294 -0.7044905,0.706928 -0.9592328,1.619754 -0.7152991,2.563156 0.2020333,0.781353 0.9088323,1.561906 1.6613924,1.834757 0.3284699,0.119092 1.0715952,0.134719 5.8807246,0.123672 3.922523,-0.009 4.278158,-0.01488 4.464945,-0.07369 z"
   id="path7" /><path
   style="opacity:0.75;fill:#003039;fill-opacity:1;stroke-width:0.0369004"
   d="m 21.697417,12.209567 c -0.117876,-0.04687 -0.286914,-0.206918 -0.353848,-0.335041 -0.06336,-0.121279 -0.06611,-0.460964 -0.0046,-0.570882 0.09207,-0.164596 1.317814,-1.4059044 1.4504,-1.4688206 0.20352,-0.096577 0.520957,-0.064414 0.698148,0.070736 0.256894,0.1959426 0.340106,0.5298316 0.202755,0.8135606 -0.09231,0.190678 -1.343576,1.400278 -1.528403,1.477504 -0.147674,0.0617 -0.329075,0.06676 -0.464429,0.01294 z"
   id="path8" /><path
   style="opacity:0.75;fill:#003039;fill-opacity:1;stroke-width:0.0369004"
   d="m 21.507644,12.034792 -0.179231,-0.179231 v -0.264324 -0.264324 l 0.327824,-0.359028 c 0.39709,-0.434888 0.981202,-1.0058225 1.121434,-1.0961342 0.126556,-0.081504 0.453722,-0.085554 0.60384,-0.00747 0.318855,0.1658432 0.444954,0.5756562 0.268845,0.8737312 -0.09812,0.166084 -1.172571,1.2196 -1.392186,1.365067 -0.134974,0.0894 -0.206708,0.110948 -0.369399,0.110948 -0.192284,0 -0.210431,-0.0085 -0.381127,-0.17923 z"
   id="path9" /><path
   style="opacity:0.75;fill:#003039;fill-opacity:1;stroke-width:0.0369004"
   d="m 21.617849,12.112546 c -0.259391,-0.215521 -0.287012,-0.266551 -0.28827,-0.532571 l -0.0012,-0.246593 0.439163,-0.472964 c 0.503102,-0.541824 0.949058,-0.9535961 1.091351,-1.0076958 0.519712,-0.1975941 1.03402,0.3345528 0.796847,0.8244858 -0.105,0.216903 -1.277077,1.368253 -1.492441,1.46605 -0.222811,0.101179 -0.398664,0.09128 -0.545484,-0.03071 z"
   id="path10" /><path
   style="opacity:0.75;fill:#003039;fill-opacity:1;stroke-width:0.0369004"
   d="m 21.734317,12.190224 c -0.03044,-0.01203 -0.134225,-0.09815 -0.230627,-0.191374 -0.17467,-0.16892 -0.175277,-0.17036 -0.175277,-0.415839 v -0.246332 l 0.47048,-0.50157 c 0.519797,-0.554146 0.930653,-0.9331962 1.068173,-0.9854811 0.235828,-0.089662 0.517252,-0.010753 0.698705,0.1959111 0.13787,0.157025 0.178872,0.342076 0.122325,0.552076 -0.03504,0.130132 -0.143574,0.256796 -0.656551,0.76623 -0.338014,0.335678 -0.684766,0.657986 -0.77056,0.716239 -0.15291,0.103823 -0.407754,0.157118 -0.526668,0.11014 z"
   id="path11" /><path
   style="opacity:0.75;fill:#003039;fill-opacity:1;stroke-width:0.0369004"
   d="m 23.606018,16.63873 c -0.289489,-0.06818 -0.506387,-0.343343 -0.506387,-0.64242 0,-0.207884 0.130597,-0.448951 0.306175,-0.565165 l 0.149634,-0.09904 h 0.980582 c 0.9202,0 0.989551,0.0047 1.126218,0.0764 0.576914,0.30264 0.472288,1.083769 -0.164825,1.230571 -0.199866,0.04605 -1.695552,0.04578 -1.891397,-3.42e-4 z"
   id="path12" /><path
   style="opacity:0.75;fill:#003039;fill-opacity:1;stroke-width:0.0369004"
   d="m 23.4775,16.564202 c -0.442391,-0.218979 -0.472848,-0.836574 -0.05525,-1.120339 l 0.137317,-0.09331 0.960069,8.1e-4 c 0.854421,7.21e-4 0.976311,0.0083 1.10767,0.06893 0.523345,0.241539 0.523345,0.910487 0,1.152026 -0.13087,0.0604 -0.252173,0.06821 -1.07011,0.0689 -0.864912,7.32e-4 -0.932324,-0.0041 -1.079696,-0.07702 z"
   id="path13" /><path
   style="opacity:0.75;fill:#003039;fill-opacity:1;stroke-width:0.0369004"
   d="m 23.745387,16.618274 c -0.214061,-0.0288 -0.272095,-0.05085 -0.385959,-0.146665 -0.206326,-0.173611 -0.277797,-0.475426 -0.172348,-0.727801 0.0278,-0.06654 0.123282,-0.184023 0.212177,-0.261075 l 0.161629,-0.140093 0.983395,0.01674 c 0.98246,0.01672 0.983554,0.01683 1.149592,0.114137 0.180914,0.106022 0.320887,0.334069 0.320887,0.522795 0,0.188543 -0.13998,0.416777 -0.320503,0.522571 -0.164488,0.0964 -0.172502,0.09724 -1.001991,0.10573 -0.459898,0.0047 -0.885993,0.0019 -0.946879,-0.0063 z"
   id="path14" /><path
   style="opacity:0.75;fill:#003039;fill-opacity:1;stroke-width:0.0369004"
   d="m 23.837638,16.618023 c -0.40352,-0.04245 -0.544226,-0.129323 -0.647527,-0.399812 -0.101964,-0.266988 -0.05166,-0.467183 0.174107,-0.692954 l 0.184846,-0.184847 0.983771,0.01778 c 1.09302,0.01975 1.124483,0.02621 1.327728,0.272785 0.131884,0.159999 0.171112,0.331538 0.119579,0.522914 -0.0426,0.158217 -0.224145,0.351808 -0.389736,0.415602 -0.106472,0.04102 -1.466261,0.07867 -1.752768,0.04854 z"
   id="path15" /><path
   style="opacity:0.75;fill:#003039;fill-opacity:1;stroke-width:0.0369004"
   d="m 22.785092,22.162515 c -0.12664,-0.05518 -1.329069,-1.292397 -1.431255,-1.472667 -0.08921,-0.157376 -0.0701,-0.501429 0.03579,-0.644218 0.173373,-0.233806 0.528487,-0.330419 0.797908,-0.217081 0.06531,0.02747 0.429441,0.355425 0.809185,0.728782 0.593409,0.583429 0.696031,0.700872 0.730204,0.835658 0.04578,0.180572 1.7e-5,0.407264 -0.114758,0.56845 -0.152608,0.214319 -0.566004,0.314823 -0.827071,0.201076 z"
   id="path16" /><path
   style="opacity:0.75;fill:#003039;fill-opacity:1;stroke-width:0.0369004"
   d="m 22.151558,21.533874 c -0.799643,-0.811044 -0.836756,-0.864732 -0.816599,-1.181295 0.01209,-0.189936 0.03399,-0.259813 0.105828,-0.337692 0.190122,-0.206118 0.572019,-0.265548 0.802686,-0.124913 0.06693,0.04081 0.418568,0.3687 0.781406,0.728644 0.70412,0.698505 0.743011,0.757957 0.687607,1.051124 -0.06164,0.326146 -0.309526,0.507308 -0.694411,0.507489 l -0.232097,1.08e-4 z"
   id="path17" /><path
   style="opacity:0.75;fill:#003039;fill-opacity:1;stroke-width:0.0369004"
   d="m 22.188258,21.559041 c -0.789603,-0.807853 -0.841965,-0.881814 -0.835995,-1.180844 0.0028,-0.138371 0.02734,-0.26535 0.06142,-0.317362 0.06855,-0.104619 0.25255,-0.196676 0.45914,-0.229712 0.258012,-0.04126 0.407587,0.06426 1.142451,0.805978 0.747317,0.754282 0.77704,0.804696 0.658072,1.116209 -0.10645,0.278736 -0.351254,0.423142 -0.718112,0.423606 -0.162086,2.05e-4 -0.165695,-0.0027 -0.766971,-0.617875 z"
   id="path18" /><path
   style="opacity:0.75;fill:#003039;fill-opacity:1;stroke-width:0.0369004"
   d="M 22.582681,21.949432 C 22.005755,21.380068 21.479,20.813916 21.419964,20.699754 c -0.07934,-0.153436 -0.07836,-0.518565 0.0017,-0.640797 0.07706,-0.117611 0.331832,-0.225009 0.533769,-0.225009 0.135487,0 0.203876,0.02622 0.351749,0.134864 0.269968,0.198345 1.322628,1.284713 1.379392,1.423562 0.09176,0.224446 -0.04044,0.543202 -0.284363,0.685662 -0.06825,0.03986 -0.221974,0.07902 -0.350772,0.08936 l -0.22928,0.0184 z"
   id="path19" /><path
   style="opacity:0.75;fill:#003039;fill-opacity:1;stroke-width:0.0369004"
   d="m 22.2136,21.575739 c -0.777253,-0.792572 -0.848454,-0.892146 -0.847742,-1.185555 2.99e-4,-0.123273 0.02106,-0.264147 0.04612,-0.313054 0.06751,-0.131695 0.306011,-0.240546 0.527062,-0.240546 0.158177,0 0.217189,0.0213 0.369963,0.133546 0.268592,0.197337 1.321033,1.283887 1.377596,1.422244 0.09176,0.224446 -0.04044,0.543202 -0.284363,0.685662 -0.06909,0.04035 -0.222456,0.07906 -0.355556,0.08974 l -0.234063,0.01879 z"
   id="path20" /><path
   style="opacity:0.75;fill:#003039;fill-opacity:1;stroke-width:0.0369004"
   d="m 17.24935,24.470003 c -0.15863,-0.09674 -0.302765,-0.279223 -0.347357,-0.439784 -0.02144,-0.07718 -0.03785,-0.524762 -0.03751,-1.022839 5.39e-4,-0.790412 0.0081,-0.902204 0.0707,-1.039995 0.161564,-0.355857 0.64025,-0.480787 0.963725,-0.251518 0.285749,0.202531 0.292974,0.23554 0.292974,1.338533 0,0.881561 -0.0064,0.98325 -0.07021,1.107587 -0.08475,0.165261 -0.207363,0.284371 -0.347321,0.3374 -0.159025,0.06025 -0.400141,0.04676 -0.525001,-0.02938 z"
   id="path21" /><path
   style="opacity:0.75;fill:#003039;fill-opacity:1;stroke-width:0.0369004"
   d="m 17.385928,24.501968 c -0.146859,-0.03464 -0.348257,-0.220089 -0.433034,-0.398744 -0.08783,-0.185096 -0.0933,-1.91223 -0.0067,-2.114965 0.137161,-0.321074 0.584725,-0.463197 0.891655,-0.283143 0.246338,0.144509 0.28743,0.232782 0.326143,0.700619 0.04592,0.554914 0.0076,1.624777 -0.06304,1.761438 -0.07633,0.147611 -0.302981,0.334672 -0.405498,0.334672 -0.04837,0 -0.110064,0.0066 -0.137092,0.0146 -0.02703,0.008 -0.104628,0.0015 -0.172441,-0.01448 z"
   id="path22" /><path
   style="opacity:0.75;fill:#003039;fill-opacity:1;stroke-width:0.0369004"
   d="m 17.246165,24.426628 c -0.0635,-0.04069 -0.163133,-0.142756 -0.221402,-0.226822 l -0.105944,-0.152848 v -0.999494 c 0,-0.933747 0.0049,-1.007613 0.0738,-1.122932 0.08121,-0.135836 0.261359,-0.243938 0.472526,-0.283554 0.199946,-0.03751 0.511531,0.120159 0.598139,0.302671 0.08573,0.18067 0.126499,0.905762 0.09022,1.604656 -0.03161,0.608802 -0.07551,0.733476 -0.309163,0.877879 -0.162434,0.10039 -0.441854,0.100597 -0.598173,4.44e-4 z"
   id="path23" /><path
   style="opacity:0.75;fill:#003039;fill-opacity:1;stroke-width:0.0369004"
   d="m 17.320073,24.465487 c -0.113947,-0.04601 -0.343455,-0.293495 -0.374546,-0.403878 -0.01469,-0.05215 -0.02671,-0.529499 -0.02671,-1.060774 0,-0.918064 0.0038,-0.971006 0.07608,-1.067831 0.239785,-0.321083 0.647518,-0.382669 0.934538,-0.141158 0.189491,0.159446 0.207093,0.272172 0.207093,1.326235 0,0.924409 -0.003,0.964173 -0.0812,1.089967 -0.147334,0.236881 -0.489493,0.356683 -0.735255,0.257439 z"
   id="path24" /><path
   style="opacity:0.75;fill:#003039;fill-opacity:1;stroke-width:0.0369004"
   d="m 17.324723,24.46681 c -0.09635,-0.03963 -0.248744,-0.183118 -0.336119,-0.316469 -0.06168,-0.09413 -0.07078,-0.195168 -0.08018,-0.88969 -0.0058,-0.430926 8.16e-4,-0.896673 0.01477,-1.034992 0.02259,-0.223861 0.04011,-0.266302 0.159439,-0.38632 0.242258,-0.243646 0.590477,-0.263176 0.846802,-0.04749 0.189491,0.159446 0.207093,0.272172 0.207093,1.326235 0,0.924409 -0.003,0.964173 -0.0812,1.089967 -0.14622,0.235089 -0.491154,0.357257 -0.730606,0.258762 z"
   id="path25" /><path
   style="opacity:0.75;fill:#003039;fill-opacity:1;stroke-width:0.0369004"
   d="m 17.343173,24.471576 c -0.136797,-0.06199 -0.263485,-0.172357 -0.340057,-0.296254 -0.07751,-0.125417 -0.08399,-0.184311 -0.09716,-0.882596 -0.0078,-0.411516 -0.0021,-0.876106 0.01253,-1.032422 0.0246,-0.262526 0.03699,-0.294573 0.162424,-0.420003 0.256255,-0.256255 0.611085,-0.26466 0.875494,-0.02074 0.176401,0.162734 0.209902,0.413161 0.193087,1.443405 -0.01244,0.761964 -0.01852,0.822946 -0.09433,0.945079 -0.141325,0.227695 -0.498952,0.360063 -0.711987,0.263528 z"
   id="path26" /><path
   style="opacity:0.75;fill:#003039;fill-opacity:1;stroke-width:0.0369004"
   d="m 11.655296,22.134409 c -0.273041,-0.158327 -0.384286,-0.555819 -0.238603,-0.852565 0.100218,-0.204136 1.225882,-1.352447 1.406185,-1.434475 0.324689,-0.147715 0.72952,-0.04293 0.872543,0.225856 0.08605,0.16171 0.09002,0.479066 0.008,0.637709 -0.07873,0.152249 -1.245283,1.355038 -1.393674,1.436966 -0.164724,0.09095 -0.485744,0.08433 -0.654436,-0.01349 z"
   id="path27" /><path
   style="opacity:0.75;fill:#003039;fill-opacity:1;stroke-width:0.0369004"
   d="m 11.856459,22.172 c -0.279026,-0.04904 -0.428726,-0.214937 -0.480204,-0.532159 -0.04281,-0.263783 0.06379,-0.423188 0.741434,-1.108721 0.347264,-0.351308 0.678134,-0.65604 0.735267,-0.677182 0.16602,-0.06143 0.472899,-0.04634 0.616254,0.03031 0.186534,0.09974 0.263914,0.254287 0.262622,0.524521 -6.51e-4,0.13601 -0.02291,0.258982 -0.05602,0.309516 -0.09232,0.140903 -0.962811,1.059965 -1.186186,1.252375 -0.229933,0.198061 -0.380114,0.245816 -0.633169,0.201341 z"
   id="path28" /><path
   style="opacity:0.75;fill:#003039;fill-opacity:1;stroke-width:0.0369004"
   d="m 11.752768,22.132612 c -0.175251,-0.06124 -0.274573,-0.176486 -0.336912,-0.390922 -0.09777,-0.336318 -0.04212,-0.427484 0.739748,-1.211766 0.571353,-0.573121 0.687417,-0.672867 0.807395,-0.693882 0.196293,-0.03438 0.452096,0.0111 0.56589,0.100608 0.185423,0.145853 0.253814,0.486547 0.148141,0.737967 -0.07419,0.176511 -1.228539,1.352245 -1.407657,1.433734 -0.163511,0.07439 -0.34832,0.08307 -0.516605,0.02426 z"
   id="path29" /><path
   style="opacity:0.75;fill:#003039;fill-opacity:1;stroke-width:0.0369004"
   d="m 11.752768,22.121591 c -0.183037,-0.06485 -0.300731,-0.207106 -0.345673,-0.417823 -0.06795,-0.31859 0.05473,-0.503027 0.857869,-1.289767 0.607888,-0.595474 0.693088,-0.641931 1.036381,-0.565105 0.246009,0.05505 0.373096,0.187959 0.40906,0.427786 0.04395,0.293057 0.0029,0.385028 -0.347377,0.778162 -0.452139,0.507473 -0.979362,1.006133 -1.130558,1.069306 -0.157215,0.06569 -0.289047,0.06499 -0.479702,-0.0026 z"
   id="path30" /><path
   style="opacity:0.75;fill:#003039;fill-opacity:1;stroke-width:0.0369004"
   d="m 11.699555,22.096508 c -0.306922,-0.159979 -0.401409,-0.548973 -0.206402,-0.849731 0.05642,-0.08702 0.370389,-0.425663 0.697705,-0.752543 0.645507,-0.644646 0.742488,-0.706518 1.037988,-0.662205 0.338348,0.05074 0.519949,0.294799 0.487788,0.655558 -0.01194,0.133922 -0.04857,0.214562 -0.159234,0.350553 -0.232905,0.286205 -1.038512,1.100846 -1.197801,1.211234 -0.205451,0.142377 -0.444561,0.159452 -0.660044,0.04713 z"
   id="path31" /><path
   style="opacity:0.75;fill:#003039;fill-opacity:1;stroke-width:0.0369004"
   d="M 11.714321,22.107753 C 11.540947,22.029 11.458565,21.918044 11.3996,21.683872 c -0.0696,-0.276399 0.02609,-0.421171 0.775304,-1.17294 0.609389,-0.611472 0.65952,-0.652976 0.817268,-0.676632 0.465311,-0.06978 0.769084,0.201458 0.726142,0.648363 -0.02097,0.218261 -0.105975,0.328868 -0.797972,1.038328 -0.642038,0.65824 -0.838371,0.753762 -1.206021,0.586762 z"
   id="path32" /><path
   style="opacity:0.75;fill:#003039;fill-opacity:1;stroke-width:0.0369004"
   d="m 11.709519,22.105603 c -0.179078,-0.08131 -0.248966,-0.175409 -0.308908,-0.415931 -0.07097,-0.284757 0.02028,-0.423636 0.774803,-1.17922 0.695287,-0.696267 0.75142,-0.732651 1.054464,-0.683474 0.341888,0.05548 0.478609,0.219966 0.478609,0.575799 0,0.236403 -0.0079,0.259451 -0.147187,0.430873 -0.308146,0.379165 -1.137342,1.194838 -1.289554,1.268522 -0.192128,0.09301 -0.362644,0.09405 -0.562227,0.0034 z"
   id="path33" /><path
   style="opacity:0.75;fill:#003039;fill-opacity:1;stroke-width:0.0369004"
   d="m 11.686624,22.100004 c -0.161708,-0.08534 -0.269813,-0.243881 -0.303909,-0.445694 -0.04271,-0.252824 0.07824,-0.427647 0.791215,-1.143638 0.547179,-0.54949 0.670687,-0.65575 0.787571,-0.677584 0.194446,-0.03632 0.447149,0.009 0.564359,0.101178 0.195434,0.153729 0.259944,0.502485 0.139783,0.755705 -0.09167,0.193172 -1.202336,1.319468 -1.391432,1.411008 -0.19654,0.09514 -0.406119,0.0948 -0.587587,-9.75e-4 z"
   id="path34" /><path
   style="opacity:0.75;fill:#003039;fill-opacity:1;stroke-width:0.0369004"
   d="M 16.623616,20.051898 C 15.882385,19.887235 15.188424,19.474686 14.574828,18.833927 14.110737,18.349292 13.785403,17.820445 13.59892,17.247542 l -0.06116,-0.187883 -2.239362,-0.02477 C 7.6934978,16.99502 7.2323042,16.971444 6.7219328,16.800947 6.1365325,16.605385 5.7141099,16.342408 5.2267663,15.870138 4.8140675,15.470205 4.4498005,14.928669 4.2357232,14.396808 L 4.0774908,14.00369 4.0660046,13.118081 4.0545184,12.232472 4.1716974,11.900369 C 4.6173815,10.637231 5.456861,9.7736494 6.6817408,9.3182587 6.8669628,9.2493963 7.0218151,9.1878089 7.0258572,9.1813978 7.0298992,9.1749871 7.0886398,9.0202952 7.1563918,8.8376384 7.5717545,7.7178369 8.1388004,6.9340404 8.9592517,6.3456433 9.3533886,6.0629829 9.9812125,5.755273 10.423658,5.6279065 c 0.697858,-0.2008919 1.879057,-0.2001039 2.586105,0.00173 0.738333,0.2107596 1.467778,0.6598711 2.054696,1.2650548 0.54166,0.5585172 0.901091,1.153038 1.153351,1.9077135 l 0.09923,0.2968649 0.47447,0.045234 c 1.128455,0.1075812 1.865324,0.4367672 2.585547,1.1550563 0.712725,0.710813 0.992644,1.298849 1.157245,2.431072 l 0.06169,0.424355 0.274776,0.420544 c 0.284139,0.434874 0.506124,0.867101 0.650847,1.267265 0.07857,0.217254 0.08355,0.287042 0.08355,1.171969 v 0.94096 l -0.158244,0.393148 c -0.536316,1.332444 -1.595874,2.324641 -2.836067,2.655765 -0.395697,0.105649 -1.595923,0.134195 -1.987239,0.04727 z m 1.678967,-1.290743 c 0.70719,-0.209206 1.376651,-0.771011 1.73038,-1.452118 0.223075,-0.429531 0.274797,-0.6717 0.27643,-1.294277 0.0014,-0.532584 -0.0473,-0.889652 -0.138292,-1.014094 -0.04243,-0.05803 -0.06627,-0.03997 -0.241342,0.1828 -0.284302,0.361768 -0.681651,0.769808 -0.998473,1.025338 -0.306358,0.247092 -0.884943,0.542272 -1.241209,0.633235 -0.289016,0.07379 -0.930201,0.127047 -1.960108,0.162798 -0.450915,0.01565 -0.829799,0.03841 -0.841964,0.05058 -0.03893,0.03893 0.155984,0.378368 0.368378,0.641526 0.499987,0.619486 1.102079,1.000111 1.775905,1.122674 0.262828,0.04781 1.030503,0.01248 1.270295,-0.05846 z m -2.583026,-3.074241 c 1.542935,-0.02608 1.613331,-0.03034 1.815766,-0.110006 0.664338,-0.261431 1.336701,-0.933904 1.577655,-1.577911 0.225671,-0.603162 0.187624,-1.506098 -0.08682,-2.060412 -0.241462,-0.487699 -0.739661,-0.984851 -1.239935,-1.237331 -0.382082,-0.19283 -0.55243,-0.223016 -1.47626,-0.261596 -0.476937,-0.01992 -0.90323,-0.04396 -0.947317,-0.05342 -0.09441,-0.02026 -0.12876,-0.112116 -0.233647,-0.6247631 C 14.92391,8.7590811 14.677403,8.2821805 14.066454,7.7058422 13.457515,7.1314005 12.883397,6.8590211 12.116389,6.7806711 11.641124,6.7321228 10.985531,6.7783303 10.682657,6.8817237 10.330248,7.0020268 9.9034723,7.2337945 9.5745155,7.4835189 8.8229823,8.0540379 8.4576819,8.7192834 8.2811528,9.8388506 8.2463771,10.059401 8.1988148,10.260812 8.1754579,10.28643 c -0.023356,0.02562 -0.2243265,0.08036 -0.4466003,0.12166 -0.4829677,0.08973 -0.6991314,0.155624 -0.9945403,0.303171 -0.4249473,0.212248 -0.7729909,0.537644 -1.0675024,0.99804 -0.4691352,0.733376 -0.5018451,1.731584 -0.083776,2.556603 0.2021695,0.398962 0.681108,0.901016 1.0959282,1.14882 0.071033,0.04243 0.2370849,0.114888 0.3690037,0.161009 0.2119637,0.07411 0.3363902,0.08642 1.0701107,0.105867 1.2442841,0.03299 5.7768095,0.03616 7.6014755,0.0053 z"
   id="path35" /><path
   style="opacity:0.75;fill:#003039;fill-opacity:1;stroke-width:0.0369004"
   d="m 16.642066,20.053401 c -0.702322,-0.150602 -1.308333,-0.485696 -1.896905,-1.048893 -0.54393,-0.520479 -0.966209,-1.163465 -1.152751,-1.755246 l -0.05972,-0.189441 -2.310627,-0.02501 C 7.7064723,16.996761 7.2437787,16.972966 6.7223978,16.803409 5.6574422,16.457078 4.7433525,15.581169 4.2459876,14.430435 L 4.0774908,14.04059 4.0659722,13.13295 C 4.0530827,12.117283 4.0591258,12.081737 4.3509299,11.456802 4.8315976,10.427391 5.6400452,9.6908804 6.7177059,9.3006258 L 7.0295203,9.1877085 7.1350926,8.8835221 C 7.423984,8.0511372 7.8609114,7.3456975 8.4263712,6.7986927 9.2234421,6.0276361 10.180731,5.5808165 11.222415,5.4936245 c 1.540423,-0.1289378 2.733809,0.296064 3.781151,1.3465852 0.589779,0.5915702 0.926518,1.1279168 1.199143,1.9099571 l 0.123871,0.3553328 0.35147,0.025612 c 1.167306,0.085064 1.958212,0.4262144 2.697918,1.1637244 0.70528,0.703186 0.998937,1.318889 1.161742,2.435791 l 0.06186,0.424355 0.292159,0.450194 c 0.339893,0.523749 0.563182,0.986836 0.661855,1.372645 0.05767,0.22548 0.07004,0.408265 0.07004,1.035089 0,0.859784 -0.02248,0.991146 -0.263748,1.541297 -0.573169,1.306963 -1.795703,2.314783 -3.038835,2.505123 -0.424937,0.06506 -1.363354,0.06175 -1.678967,-0.0059 z m 1.570161,-1.270897 c 0.276308,-0.06095 0.820257,-0.341209 1.062152,-0.547249 0.480924,-0.409641 0.832355,-0.945519 0.972221,-1.482487 0.117489,-0.451058 0.0699,-1.553257 -0.07566,-1.752318 -0.04247,-0.05808 -0.07159,-0.03343 -0.288444,0.244225 -0.266386,0.341076 -0.854736,0.920602 -1.119678,1.102887 -0.235684,0.162155 -0.805346,0.427208 -1.061652,0.493968 -0.282242,0.07351 -0.932994,0.129089 -1.928837,0.164723 -0.44791,0.01603 -0.834417,0.04152 -0.858904,0.05666 -0.09518,0.05883 0.183184,0.465805 0.621626,0.908836 0.330745,0.334205 0.481335,0.457688 0.682657,0.559774 0.304465,0.154387 0.583578,0.249469 0.844546,0.287701 0.245958,0.03603 0.917355,0.0146 1.149969,-0.03672 z m -0.969266,-3.139125 c 0.801981,-0.143641 1.673479,-0.966757 1.931413,-1.824191 0.09081,-0.301867 0.09299,-1.153595 0.0038,-1.484673 -0.126937,-0.471229 -0.465676,-0.95611 -0.92183,-1.31954 -0.565332,-0.450414 -0.826754,-0.526779 -1.964838,-0.57396 -0.46679,-0.01935 -0.885669,-0.04368 -0.930843,-0.05408 -0.09172,-0.0211 -0.117587,-0.09753 -0.287054,-0.8481926 -0.186174,-0.8246904 -0.45282,-1.3083572 -1.010648,-1.8332133 -0.745567,-0.7014973 -1.563233,-0.9986318 -2.5882,-0.9405343 -0.560859,0.031791 -0.739402,0.07801 -1.234909,0.3196805 -1.1879966,0.579414 -1.7616668,1.4093675 -1.9768354,2.8599741 -0.024083,0.1623616 -0.062437,0.3154086 -0.08523,0.3401046 -0.022794,0.0247 -0.2540247,0.0872 -0.5138468,0.138898 -0.660615,0.131447 -1.0231499,0.286696 -1.403566,0.601054 -0.4166956,0.344337 -0.780236,0.911784 -0.8949103,1.396856 -0.079286,0.335379 -0.07983,0.955787 -0.00111,1.268475 0.03321,0.131919 0.1294065,0.380996 0.2137708,0.553505 0.1283711,0.262495 0.2141061,0.374066 0.5256419,0.684044 0.3742188,0.372346 0.6725968,0.569126 1.0364587,0.683543 0.2357489,0.07413 2.0144498,0.09848 6.1254621,0.08386 2.373327,-0.0084 3.84269,-0.02751 3.977277,-0.05161 z"
   id="path36" /><path
   style="opacity:0.75;fill:#003039;fill-opacity:1;stroke-width:0.0369004"
   d="m 16.617944,20.053475 c -1.123964,-0.246579 -2.258029,-1.170499 -2.803869,-2.284308 -0.08907,-0.181755 -0.189662,-0.418378 -0.223533,-0.52583 l -0.06158,-0.195367 -1.3309,-5.21e-4 c -0.731995,-2.86e-4 -1.546766,-0.0084 -1.810604,-0.01792 -0.263838,-0.0096 -0.9861625,-0.02587 -1.6051662,-0.03622 C 7.1696823,16.966345 6.822578,16.909504 6.1574632,16.563473 5.6095525,16.278419 5.0602928,15.783321 4.689042,15.239852 4.4346486,14.867449 4.3518287,14.709246 4.1846428,14.276347 L 4.0590406,13.951122 V 13.066639 12.182156 L 4.167738,11.887353 C 4.4003466,11.256485 4.7047714,10.760129 5.132058,10.315057 5.5816576,9.8467435 6.1075524,9.5119945 6.7532872,9.2830919 L 7.0305595,9.184803 7.1333281,8.8868138 C 7.401248,8.109949 7.7910114,7.453059 8.2933797,6.9317138 8.7210461,6.4878926 9.1115982,6.2019011 9.6494465,5.9386996 10.226185,5.6564668 10.631683,5.5424486 11.241159,5.4911409 c 1.633514,-0.1375146 2.934131,0.3835393 4.031371,1.6150498 0.367955,0.4129819 0.660195,0.9229599 0.907137,1.5830091 l 0.151546,0.4050669 0.474855,0.047467 c 0.991372,0.099099 1.618561,0.3425897 2.283303,0.8864363 0.609336,0.498516 1.074743,1.168598 1.274712,1.835299 0.04261,0.142066 0.113877,0.490775 0.158368,0.774907 l 0.08089,0.516606 0.254793,0.387453 c 0.265713,0.404059 0.560196,0.980923 0.678142,1.328414 0.06014,0.177197 0.06888,0.322358 0.06886,1.143911 l -2.6e-5,0.94096 -0.106059,0.276752 c -0.589527,1.538328 -1.865745,2.655018 -3.245267,2.839606 -0.397864,0.05324 -1.358157,0.04232 -1.635843,-0.0186 z m 1.75844,-1.330173 c 0.485382,-0.154621 0.903294,-0.440282 1.273062,-0.870198 0.549439,-0.63881 0.743585,-1.307111 0.649453,-2.235594 -0.03748,-0.369703 -0.111733,-0.672861 -0.164802,-0.672861 -0.0095,0 -0.124264,0.136993 -0.255035,0.304428 -0.261985,0.335441 -0.852193,0.916816 -1.112698,1.096048 -0.246087,0.169313 -0.819205,0.435427 -1.072637,0.498055 -0.291498,0.07203 -0.851808,0.12354 -1.623616,0.149247 -1.015101,0.03381 -1.162362,0.0502 -1.162362,0.129401 0,0.130086 0.373499,0.624284 0.718778,0.951054 0.474377,0.44895 0.933598,0.68198 1.476794,0.749394 0.369706,0.04588 0.963168,-2.56e-4 1.273063,-0.09897 z m -1.95572,-3.052325 c 0.833332,-0.0114 0.876798,-0.01563 1.114262,-0.108395 0.674319,-0.263431 1.337657,-0.922216 1.580544,-1.569694 0.177601,-0.473441 0.179299,-1.331263 0.0036,-1.830129 -0.186518,-0.529652 -0.793094,-1.189163 -1.345451,-1.462867 -0.378408,-0.187509 -0.706524,-0.240454 -1.694646,-0.27345 -0.380722,-0.01271 -0.717036,-0.03264 -0.747364,-0.04427 -0.05936,-0.02278 -0.09795,-0.147331 -0.267043,-0.8618718 C 14.881844,8.7480665 14.700857,8.3823889 14.269432,7.9137121 13.79187,7.3949145 13.198001,7.0212366 12.587628,6.855478 12.209782,6.7528666 11.214986,6.7427364 10.848708,6.8377701 10.477203,6.9341604 9.8363155,7.2698586 9.501845,7.54326 8.8031103,8.1144168 8.4905956,8.6961968 8.2960668,9.7879454 8.2517801,10.036494 8.197362,10.260421 8.175138,10.285561 8.1529137,10.3107 7.9358738,10.37131 7.6928266,10.42025 6.8613393,10.587678 6.5036995,10.768533 6.0372677,11.257448 5.8153414,11.490072 5.6941039,11.656299 5.5797418,11.884754 5.3500352,12.343628 5.3024211,12.57749 5.3214762,13.153256 c 0.025925,0.783347 0.2121098,1.198477 0.8039851,1.792619 0.351515,0.352862 0.6499615,0.548854 1.0147601,0.666402 0.2297474,0.07403 5.6520586,0.108327 9.2804426,0.0587 z"
   id="path37" /><path
   style="opacity:0.75;fill:#003039;fill-opacity:1;stroke-width:0.0369004"
   d="M 16.623616,20.05653 C 16.052732,19.931976 15.38237,19.582191 14.904147,19.159335 14.27752,18.605256 13.873706,18.026672 13.61479,17.311946 13.56813,17.183147 13.512008,17.072427 13.49007,17.065902 13.46813,17.059402 12.379151,17.044022 11.070111,17.031782 8.4836679,17.007596 7.8324919,16.990231 7.3247232,16.931905 5.9578046,16.774892 4.6829349,15.6813 4.1559008,14.213668 c -0.094313,-0.262633 -0.09686,-0.292902 -0.09686,-1.150937 0,-0.858179 0.00253,-0.888261 0.096908,-1.150938 0.229038,-0.637492 0.5355839,-1.137875 0.9818747,-1.602741 C 5.5816083,9.8467948 6.1103334,9.5110085 6.7532872,9.2830919 L 7.0305595,9.184803 7.1342834,8.8820694 C 7.6403847,7.4049372 8.6402207,6.3189458 9.9919948,5.7781105 10.460679,5.5905933 10.864402,5.5051677 11.415259,5.4769557 c 1.516645,-0.077675 2.699148,0.3985644 3.748899,1.5098252 0.43809,0.4637602 0.780952,1.0410288 1.032415,1.7382529 l 0.133534,0.3702474 0.462538,0.043757 c 1.26533,0.1197022 2.162528,0.583231 2.905586,1.5011438 0.49901,0.616436 0.6919,1.092033 0.83718,2.064181 0.06435,0.430615 0.0674,0.438715 0.302849,0.805305 0.319842,0.497984 0.506316,0.849768 0.646278,1.219205 l 0.116697,0.308027 0.01447,0.888826 0.01447,0.888826 -0.116021,0.347337 c -0.502439,1.504158 -1.844061,2.713084 -3.230022,2.910549 -0.36566,0.0521 -1.39397,0.04225 -1.660517,-0.01591 z m 1.623616,-1.296371 c 0.121772,-0.02971 0.362547,-0.123396 0.535056,-0.208181 0.255816,-0.12573 0.378997,-0.219073 0.668017,-0.506203 0.774861,-0.769796 1.002772,-1.553032 0.80235,-2.75734 -0.06492,-0.390069 -0.09315,-0.394949 -0.351667,-0.06078 -0.250025,0.3232 -0.87452,0.93851 -1.133044,1.116379 -0.247473,0.170266 -0.820117,0.436349 -1.074217,0.499142 -0.283071,0.06995 -0.839464,0.122088 -1.586716,0.148681 -1.048606,0.03732 -1.199262,0.05353 -1.199262,0.129018 0,0.102634 0.285958,0.507062 0.571795,0.808684 0.641435,0.676857 1.312948,0.950526 2.214183,0.902367 0.182657,-0.0098 0.431734,-0.04206 0.553505,-0.07177 z m -0.727719,-3.193568 c 0.708627,-0.29856 1.290567,-0.859215 1.561735,-1.504615 0.208783,-0.496918 0.225838,-1.363921 0.03738,-1.900125 -0.190219,-0.54121 -0.793515,-1.186227 -1.396061,-1.492608 -0.275021,-0.139842 -0.589459,-0.189025 -1.449501,-0.226728 -0.456642,-0.02002 -0.865788,-0.0446 -0.909214,-0.05464 -0.09873,-0.02281 -0.102582,-0.03327 -0.252256,-0.6847686 C 14.965883,9.0688668 14.808548,8.6416633 14.612944,8.3491543 14.17804,7.6987926 13.452846,7.1403444 12.738794,6.9059333 12.24039,6.7423156 11.421348,6.7171094 10.848708,6.8477656 10.530632,6.9203395 9.9327952,7.2155469 9.6145439,7.4571871 8.8178391,8.062105 8.4647742,8.7188911 8.2601609,9.9766668 8.2040908,10.321334 8.1805295,10.342701 7.7859779,10.4067 7.3861736,10.47155 6.9175494,10.614067 6.6615087,10.748669 6.3880672,10.89242 5.8257999,11.445136 5.6523695,11.740667 c -0.067396,0.114845 -0.1669244,0.330601 -0.2211743,0.479458 -0.090445,0.248175 -0.098655,0.316613 -0.098864,0.824155 -1.977e-4,0.480241 0.01109,0.587696 0.08528,0.811809 0.138473,0.418297 0.3494959,0.739276 0.7333188,1.115422 0.4082547,0.400089 0.7890071,0.613986 1.192243,0.669774 0.1335946,0.01848 2.3895299,0.03091 5.092251,0.02805 l 4.852399,-0.0051 z"
   id="path38" /><path
   style="opacity:0.75;fill:#003039;fill-opacity:1;stroke-width:0.0369004"
   d="M 16.623616,20.05653 C 16.043115,19.929878 15.381644,19.5817 14.883915,19.140803 14.272554,18.599249 13.930123,18.111467 13.634902,17.361624 l -0.116225,-0.295203 -2.100667,-0.02336 c -2.814217,-0.0313 -3.8212506,-0.0613 -4.2196306,-0.125736 -1.3291458,-0.214974 -2.5329212,-1.284692 -3.0424786,-2.703657 -0.094313,-0.262633 -0.09686,-0.292902 -0.09686,-1.150937 0,-0.858179 0.00253,-0.888261 0.096908,-1.150938 0.229038,-0.637492 0.5355839,-1.137875 0.9818747,-1.602741 C 5.5817658,9.846631 6.1103069,9.5110185 6.7539099,9.2828705 L 7.0318051,9.1843609 7.1374203,8.8732941 C 7.2816135,8.4486046 7.5532898,7.8915769 7.7868266,7.5417935 8.027331,7.1815738 8.7134889,6.4934105 9.0590406,6.2658615 9.7648096,5.8011059 10.452665,5.5547136 11.227062,5.489268 c 1.182834,-0.099963 2.175774,0.1401314 3.060173,0.7399546 0.900184,0.6105295 1.523019,1.424675 1.909338,2.4958112 l 0.133534,0.3702474 0.460738,0.043586 c 0.253406,0.023973 0.568523,0.06859 0.70026,0.09915 0.86957,0.2017199 1.622639,0.6801365 2.207126,1.4021648 0.489015,0.60409 0.65142,0.989045 0.814661,1.931023 l 0.103463,0.597036 0.226587,0.349776 c 0.304373,0.469853 0.500971,0.840251 0.642689,1.210856 l 0.117789,0.308026 8.73e-4,0.94096 c 0.001,1.084725 -0.0034,1.107242 -0.34894,1.790241 -0.625167,1.235651 -1.785266,2.135368 -2.97122,2.304337 -0.36566,0.0521 -1.39397,0.04225 -1.660517,-0.01591 z m 1.623616,-1.297104 c 0.121772,-0.02931 0.362547,-0.122455 0.535056,-0.206987 0.260966,-0.127878 0.375964,-0.216008 0.684598,-0.524654 0.307038,-0.307049 0.400729,-0.429033 0.543828,-0.708048 0.09509,-0.185399 0.200416,-0.451082 0.234066,-0.590406 0.110678,-0.45825 0.06436,-1.539885 -0.07404,-1.729166 -0.03963,-0.05419 -0.07075,-0.02817 -0.256756,0.214679 -0.235765,0.307811 -0.887402,0.951389 -1.136278,1.122224 -0.240863,0.165335 -0.719617,0.397178 -0.996917,0.482772 -0.266273,0.08219 -0.79122,0.138532 -1.599972,0.171725 -1.159315,0.04758 -1.273063,0.05873 -1.273063,0.12484 0,0.215103 0.815486,1.123539 1.224498,1.364067 0.578363,0.340119 1.406885,0.449396 2.114985,0.278954 z m -1.051766,-3.112898 c 0.65905,-0.09524 1.478915,-0.748859 1.81898,-1.450151 0.17808,-0.367238 0.22342,-0.597165 0.22355,-1.133646 1.96e-4,-0.812642 -0.175311,-1.235936 -0.749685,-1.808118 -0.641694,-0.639245 -1.088729,-0.806519 -2.17738,-0.814743 -0.60668,-0.0046 -0.99552,-0.04533 -1.035083,-0.108476 -0.01883,-0.03005 -0.06918,-0.21239 -0.111889,-0.4051947 C 14.945686,8.9408253 14.75875,8.4942236 14.373879,8.0386437 13.899624,7.4772593 13.213513,7.0298097 12.564576,6.8587013 12.172973,6.7554454 11.257692,6.7451148 10.871128,6.8395877 10.286514,6.9824626 9.6269162,7.3824595 9.1565889,7.8793282 8.6960022,8.3659062 8.4543063,8.9022966 8.3007838,9.7785978 8.2563391,10.032288 8.1990509,10.262165 8.1734771,10.289436 c -0.025574,0.02727 -0.2496387,0.08995 -0.4979217,0.139286 -0.7980017,0.158571 -1.2378784,0.387405 -1.6839616,0.876037 -0.2661387,0.291523 -0.4311814,0.560998 -0.5606265,0.915366 -0.09171,0.251066 -0.098745,0.312037 -0.097226,0.842606 0.00157,0.547711 0.00646,0.584637 0.1154308,0.871128 0.1507062,0.396222 0.3355484,0.677896 0.6538982,0.996449 0.4444344,0.444717 0.8453225,0.66035 1.3323543,0.716655 0.3440095,0.03977 9.4846334,0.03936 9.7600414,-4.35e-4 z"
   id="path39" /><path
   style="opacity:0.75;fill:#003039;fill-opacity:1;stroke-width:0.0369004"
   d="m 16.623616,20.058356 c -0.534023,-0.120917 -1.205196,-0.458054 -1.636562,-0.82206 -0.64955,-0.548119 -1.046126,-1.097959 -1.35212,-1.874672 l -0.116299,-0.295203 -1.085886,-0.008 c -0.597237,-0.0044 -1.949354,-0.02472 -3.0047047,-0.0452 C 7.4355635,16.974588 7.1250692,16.949882 6.6728281,16.794025 5.5521965,16.40782 4.5823959,15.413907 4.1550721,14.213668 4.061841,13.951807 4.0590406,13.918244 4.0590406,13.062731 c 0,-0.858179 0.00253,-0.888261 0.096908,-1.150938 C 4.3849868,11.274301 4.6915327,10.773918 5.1378235,10.309052 5.5817658,9.846631 6.1103069,9.5110185 6.7539099,9.2828705 L 7.0318051,9.1843609 7.1374203,8.8732941 C 7.2819106,8.4477296 7.553614,7.8909759 7.7872107,7.5417935 8.0306387,7.1779156 8.7172697,6.4885095 9.0590406,6.2648236 10.072465,5.6015462 11.157596,5.35235 12.380074,5.5021607 c 1.186182,0.1453629 2.356157,0.8532955 3.125877,1.8914164 0.263869,0.3558799 0.467759,0.746411 0.67686,1.2964598 l 0.154305,0.4059041 0.346202,0.027396 c 1.320762,0.1045141 2.243578,0.570427 3.02575,1.527646 0.460603,0.563684 0.668232,1.065709 0.818412,1.978828 0.0895,0.544155 0.08992,0.545386 0.295623,0.854483 0.27765,0.417213 0.519383,0.870637 0.663104,1.243795 l 0.118938,0.308812 10e-6,0.95941 c 1.1e-5,0.953168 -6.42e-4,0.961171 -0.100386,1.230281 -0.50833,1.371479 -1.618735,2.437802 -2.906983,2.791574 -0.32189,0.0884 -1.642534,0.115282 -1.97417,0.04019 z m 1.820465,-1.358497 c 0.359824,-0.128759 0.632443,-0.295231 0.920347,-0.562002 0.568866,-0.527108 0.859026,-1.081253 0.9314,-1.778774 0.05415,-0.521862 -0.04768,-1.380058 -0.163293,-1.376183 -0.02216,7.42e-4 -0.12331,0.109847 -0.224786,0.242454 -0.216107,0.282406 -0.894504,0.950025 -1.128755,1.110825 -0.241436,0.16573 -0.720104,0.397818 -0.996314,0.483075 -0.299344,0.0924 -0.824512,0.143987 -1.952422,0.191794 -0.476937,0.02022 -0.879612,0.03679 -0.894834,0.03684 -0.142309,4.31e-4 0.204667,0.533908 0.614778,0.945223 0.320122,0.321062 0.600306,0.519206 0.914163,0.64649 0.379822,0.154036 0.539586,0.177511 1.137111,0.167086 0.509083,-0.0089 0.601707,-0.02062 0.842605,-0.106827 z m -1.266959,-3.054811 c 0.669352,-0.09367 1.446592,-0.699461 1.816344,-1.415681 0.183145,-0.354759 0.241888,-0.638079 0.241888,-1.166636 0,-0.807334 -0.173953,-1.235206 -0.728647,-1.792255 C 17.86444,10.625482 17.521286,10.498263 16.273063,10.44239 15.836716,10.42286 15.451832,10.40666 15.417765,10.40639 15.300516,10.40547 15.245351,10.294541 15.146976,9.8618679 15.000401,9.2172018 14.914374,8.9399271 14.771958,8.6531365 14.389205,7.8823675 13.567706,7.1760682 12.752511,6.9168797 11.959214,6.6646536 10.912965,6.7339754 10.220694,7.0846314 9.6724207,7.3623486 9.1587749,7.8021214 8.8583882,8.2510097 8.5945487,8.6452825 8.4537734,9.0203494 8.323376,9.6764417 8.2599203,9.995717 8.1890269,10.275918 8.1658351,10.29911 8.1426431,10.3223 7.9189974,10.38188 7.668845,10.431495 7.4186924,10.481115 7.1060886,10.56429 6.9741697,10.616329 6.2790976,10.89052 5.6740151,11.52634 5.4185971,12.250923 c -0.074455,0.211218 -0.084407,0.308132 -0.083361,0.811808 0.00114,0.547375 0.00606,0.584813 0.1144582,0.871128 0.1497834,0.395613 0.3345941,0.677464 0.6533756,0.996449 0.4590875,0.45938 0.8409091,0.659486 1.3633411,0.714503 0.4043781,0.04259 9.406528,0.0428 9.710711,2.37e-4 z"
   id="path40" /></svg>
