<?xml version="1.0" encoding="UTF-8" standalone="no"?>
<!-- Generator: Adobe Illustrator 22.0.1, SVG Export Plug-In . SVG Version: 6.00 Build 0)  -->

<svg
   version="1.1"
   id="Layer_1"
   x="0px"
   y="0px"
   viewBox="0 0 30 30"
   style="enable-background:new 0 0 30 30;"
   xml:space="preserve"
   sodipodi:docname="cloud-bolt.svg"
   inkscape:version="1.3-beta (cedbd6c6ff, 2023-05-28)"
   xmlns:inkscape="http://www.inkscape.org/namespaces/inkscape"
   xmlns:sodipodi="http://sodipodi.sourceforge.net/DTD/sodipodi-0.dtd"
   xmlns="http://www.w3.org/2000/svg"
   xmlns:svg="http://www.w3.org/2000/svg"><defs
   id="defs1"><inkscape:path-effect
     effect="powerstroke"
     id="path-effect42"
     is_visible="true"
     lpeversion="1.3"
     scale_width="1"
     interpolator_type="CentripetalCatmullRom"
     interpolator_beta="0.75"
     start_linecap_type="round"
     end_linecap_type="round"
     offset_points="117.81408,0.34104013 | 53.617147,0.44049815"
     linejoin_type="spiro"
     miter_limit="4"
     not_jump="true"
     sort_points="true"
     message="&lt;b&gt;Ctrl + click&lt;/b&gt; on existing node and move it" /><inkscape:path-effect
     effect="simplify"
     id="path-effect41"
     is_visible="true"
     lpeversion="1.3"
     threshold="0.012"
     steps="1"
     smooth_angles="0"
     helper_size="0"
     simplify_individual_paths="false"
     simplify_just_coalesce="false"
     step="1" /><inkscape:path-effect
     effect="powerstroke"
     id="path-effect40"
     is_visible="true"
     lpeversion="1.3"
     scale_width="1"
     interpolator_type="CentripetalCatmullRom"
     interpolator_beta="0.75"
     start_linecap_type="round"
     end_linecap_type="round"
     offset_points="42.527553,0.52428073 | 84.57162,0.5848204"
     linejoin_type="spiro"
     miter_limit="4"
     not_jump="true"
     sort_points="true"
     message="&lt;b&gt;Ctrl + click&lt;/b&gt; on existing node and move it" /><inkscape:path-effect
     effect="simplify"
     id="path-effect39"
     is_visible="true"
     lpeversion="1.3"
     threshold="0.012"
     steps="1"
     smooth_angles="0"
     helper_size="0"
     simplify_individual_paths="false"
     simplify_just_coalesce="false"
     step="1" /><inkscape:path-effect
     effect="powerstroke"
     id="path-effect38"
     is_visible="true"
     lpeversion="1.3"
     scale_width="1"
     interpolator_type="CentripetalCatmullRom"
     interpolator_beta="0.75"
     start_linecap_type="round"
     end_linecap_type="round"
     offset_points="76.433106,0.54211831 | 23,0.60373905"
     linejoin_type="spiro"
     miter_limit="4"
     not_jump="true"
     sort_points="true"
     message="&lt;b&gt;Ctrl + click&lt;/b&gt; on existing node and move it" /><inkscape:path-effect
     effect="simplify"
     id="path-effect37"
     is_visible="true"
     lpeversion="1.3"
     threshold="0.012"
     steps="1"
     smooth_angles="0"
     helper_size="0"
     simplify_individual_paths="false"
     simplify_just_coalesce="false"
     step="1" /></defs><sodipodi:namedview
   id="namedview1"
   pagecolor="#ffffff"
   bordercolor="#000000"
   borderopacity="0.25"
   inkscape:showpageshadow="2"
   inkscape:pageopacity="0.0"
   inkscape:pagecheckerboard="0"
   inkscape:deskcolor="#d1d1d1"
   showgrid="false"
   inkscape:zoom="27.1"
   inkscape:cx="15"
   inkscape:cy="15"
   inkscape:window-width="1920"
   inkscape:window-height="1009"
   inkscape:window-x="-8"
   inkscape:window-y="-8"
   inkscape:window-maximized="1"
   inkscape:current-layer="Layer_1" />&#10;<path
   d="M4.63,16.91c0,1.11,0.33,2.1,0.99,2.97s1.52,1.47,2.58,1.79l-0.66,1.68c-0.03,0.14,0.02,0.22,0.14,0.22h2.13l-0.98,4.3h0.28  l3.92-5.75c0.04-0.04,0.04-0.09,0.01-0.14c-0.03-0.05-0.08-0.07-0.15-0.07h-2.18l2.48-4.64c0.07-0.14,0.02-0.22-0.14-0.22h-2.94  c-0.09,0-0.17,0.05-0.23,0.15l-1.07,2.87c-0.71-0.18-1.3-0.57-1.77-1.16c-0.47-0.59-0.7-1.26-0.7-2.01c0-0.83,0.28-1.55,0.85-2.17  c0.57-0.61,1.27-0.97,2.1-1.07l0.53-0.07c0.13,0,0.2-0.06,0.2-0.18l0.07-0.51c0.11-1.08,0.56-1.99,1.37-2.72  c0.81-0.73,1.76-1.1,2.85-1.1c1.09,0,2.04,0.37,2.85,1.1c0.82,0.73,1.28,1.64,1.4,2.72l0.07,0.58c0,0.11,0.06,0.17,0.18,0.17h1.6  c0.91,0,1.68,0.32,2.32,0.95c0.64,0.63,0.97,1.4,0.97,2.28c0,0.85-0.3,1.59-0.89,2.21c-0.59,0.62-1.33,0.97-2.2,1.04  c-0.13,0-0.2,0.06-0.2,0.18v1.37c0,0.11,0.07,0.17,0.2,0.17c1.33-0.04,2.46-0.55,3.39-1.51s1.39-2.11,1.39-3.45  c0-0.9-0.22-1.73-0.67-2.49c-0.44-0.76-1.05-1.36-1.81-1.8c-0.77-0.44-1.6-0.66-2.5-0.66H20.1c-0.33-1.33-1.04-2.42-2.11-3.26  s-2.3-1.27-3.68-1.27c-1.41,0-2.67,0.44-3.76,1.31s-1.79,1.99-2.1,3.36c-1.11,0.26-2.02,0.83-2.74,1.73S4.63,15.76,4.63,16.91z   M12.77,26.62c0,0.39,0.19,0.65,0.58,0.77c0.01,0,0.05,0,0.11,0.01c0.06,0.01,0.11,0.01,0.14,0.01c0.17,0,0.33-0.05,0.49-0.15  c0.16-0.1,0.27-0.26,0.32-0.48l2.25-8.69c0.06-0.24,0.04-0.45-0.07-0.65c-0.11-0.19-0.27-0.32-0.5-0.39  c-0.17-0.02-0.26-0.03-0.26-0.03c-0.16,0-0.32,0.05-0.47,0.15c-0.15,0.1-0.26,0.25-0.31,0.45l-2.26,8.72  C12.78,26.44,12.77,26.53,12.77,26.62z M16.93,23.56c0,0.13,0.03,0.26,0.1,0.38c0.14,0.22,0.31,0.37,0.51,0.44  c0.11,0.03,0.21,0.05,0.3,0.05s0.2-0.02,0.32-0.08c0.21-0.09,0.35-0.28,0.42-0.57l1.44-5.67c0.03-0.14,0.05-0.23,0.05-0.27  c0-0.15-0.05-0.3-0.16-0.45s-0.26-0.26-0.46-0.32c-0.17-0.02-0.26-0.03-0.26-0.03c-0.17,0-0.33,0.05-0.47,0.15  c-0.14,0.1-0.24,0.25-0.3,0.45l-1.46,5.7c0,0.02,0,0.05-0.01,0.11C16.93,23.5,16.93,23.53,16.93,23.56z"
   id="path1" />&#10;<path
   style="opacity:0.75;fill:#003039;fill-opacity:1;stroke-width:0.0369004"
   d="m 8.8736443,27.758303 c 0.086275,-0.342566 0.9418539,-4.12783 0.9418539,-4.166961 0,-0.0379 -0.2317159,-0.04985 -1.1162362,-0.05759 l -1.1162362,-0.0098 -0.011825,-0.08328 c -0.0065,-0.0458 0.1297603,-0.444328 0.3028086,-0.885609 0.1730482,-0.441282 0.3195133,-0.825022 0.3254778,-0.852756 0.00706,-0.03283 -0.076412,-0.08038 -0.2392779,-0.136304 C 6.5732161,21.089815 5.3700447,19.878783 4.908997,18.494889 4.7137731,17.9089 4.6689816,17.608582 4.6711796,16.900369 4.6739787,15.998486 4.80768,15.408686 5.171172,14.69474 5.5189777,14.011604 6.1306419,13.293237 6.7158672,12.880577 7.086537,12.619207 7.6881006,12.32673 8.1229237,12.196474 l 0.3553959,-0.106463 0.045793,-0.205522 C 8.652359,11.3089 9.0263638,10.497244 9.4214613,9.9370816 9.5468531,9.7593032 9.8323911,9.4308983 10.05599,9.2072931 c 1.47586,-1.4759006 3.514717,-2.0784314 5.544754,-1.638607 2.058646,0.4460227 3.819739,2.0851718 4.400248,4.0955609 l 0.08099,0.280483 0.503289,0.02329 c 1.027407,0.04754 1.913943,0.345954 2.707659,0.91141 1.426089,1.015969 2.19526,2.674932 2.054146,4.430421 -0.09334,1.161223 -0.516128,2.104297 -1.327891,2.962037 -0.692658,0.731888 -1.507751,1.2139 -2.412059,1.426391 -0.402873,0.09466 -1.008645,0.15366 -1.096271,0.106764 -0.06279,-0.03361 -0.06805,-0.09585 -0.06805,-0.805511 0,-0.571147 0.01187,-0.778514 0.04613,-0.805702 0.02537,-0.02013 0.151528,-0.04808 0.280354,-0.06211 0.95652,-0.104127 1.855431,-0.652695 2.412144,-1.472028 0.423091,-0.62268 0.60669,-1.409257 0.509704,-2.183677 -0.162556,-1.297976 -1.142101,-2.400187 -2.433643,-2.738401 -0.327992,-0.08589 -0.432659,-0.09394 -1.454241,-0.111868 -1.077782,-0.01891 -1.101469,-0.02095 -1.13223,-0.09744 -0.01728,-0.04297 -0.05753,-0.296617 -0.08944,-0.563666 -0.07519,-0.629225 -0.194088,-1.041861 -0.445975,-1.54779 -0.602944,-1.211043 -1.834128,-2.1116875 -3.149634,-2.3040397 -0.434363,-0.063512 -1.336889,-0.026454 -1.725276,0.07084 -1.184066,0.2966197 -2.256756,1.1738267 -2.787996,2.2799207 -0.211769,0.440922 -0.329428,0.878478 -0.418463,1.556197 -0.056964,0.433603 -0.073898,0.49586 -0.1424668,0.523783 -0.0428,0.01743 -0.2853834,0.05851 -0.5390735,0.09129 -0.8607151,0.11122 -1.4670809,0.389509 -2.0387425,0.935671 -0.6801097,0.649773 -1.0018032,1.397922 -1.0018032,2.329853 0,0.676838 0.159292,1.228556 0.5122303,1.774142 0.2047146,0.316457 0.6550544,0.773586 0.9598656,0.974338 0.2532546,0.166795 0.7346458,0.383602 0.9126461,0.411032 l 0.1207484,0.01861 0.5325295,-1.441802 c 0.2928915,-0.792991 0.5600808,-1.466736 0.5937542,-1.49721 0.052807,-0.04779 0.2789329,-0.05408 1.6445919,-0.04578 1.558499,0.0095 1.583246,0.01078 1.575607,0.08343 -0.0043,0.04059 -0.558417,1.103321 -1.231441,2.361623 -0.673024,1.258303 -1.231732,2.30858 -1.241574,2.333949 -0.01408,0.03628 0.22214,0.04612 1.106996,0.04612 0.962695,0 1.13162,0.0081 1.171557,0.05623 0.03083,0.03714 0.03549,0.08 0.01374,0.12627 -0.01811,0.03852 -0.904694,1.349393 -1.970192,2.913046 -1.9150665,2.810422 -1.9386893,2.843018 -2.0611956,2.844209 -0.1169616,0.0011 -0.12249,-0.0045 -0.09837,-0.10027 z"
   id="path2" /><path
   style="opacity:0.75;fill:#003039;fill-opacity:1;stroke-width:0.0369004"
   d="M 8.9091015,27.811642 C 8.8989425,27.785172 9.0808299,26.925849 9.3132974,25.902048 9.8066838,23.729141 9.8365635,23.588101 9.8092923,23.56083 9.7979903,23.54953 9.2966077,23.5298 8.6951092,23.51699 7.6658925,23.49507 7.601476,23.4897 7.601476,23.42575 c 0,-0.0824 0.143614,-0.49628 0.4200219,-1.210451 C 8.2590604,21.601491 8.283732,21.679424 7.7890044,21.480892 6.1815131,20.835813 4.9548791,19.305409 4.7259194,17.65925 4.6753588,17.295732 4.6753037,16.664393 4.725793,16.211601 4.8343804,15.237781 5.3036656,14.287824 6.0866877,13.456792 6.583179,12.929859 7.3464874,12.464837 8.126506,12.214096 l 0.3589785,-0.115395 0.039708,-0.154516 c 0.3093476,-1.203749 0.9625207,-2.2570846 1.8836895,-3.0377217 0.822781,-0.697259 1.678554,-1.1200964 2.727648,-1.3477301 0.336761,-0.073071 0.491255,-0.08397 1.180812,-0.083301 0.676672,6.561e-4 0.848433,0.012685 1.167814,0.081787 2.091369,0.452489 3.769909,1.9436653 4.44051,3.9448458 0.07787,0.232376 0.147816,0.428736 0.155436,0.436356 0.0076,0.0076 0.246332,0.03036 0.530473,0.05053 0.284141,0.02017 0.648846,0.06372 0.810456,0.09678 1.917176,0.392171 3.406238,1.882866 3.823958,3.82815 0.115733,0.538959 0.115733,1.470905 0,2.009865 -0.211875,0.986687 -0.664569,1.783323 -1.431667,2.519405 -0.570038,0.546989 -1.126863,0.889639 -1.821702,1.121009 -0.402097,0.133891 -1.106622,0.257394 -1.352821,0.237149 l -0.141644,-0.01165 -0.03313,-0.358964 c -0.01957,-0.212048 -0.01957,-0.536751 0,-0.793358 l 0.03313,-0.434394 0.276753,-0.0487 c 0.661595,-0.116425 1.213904,-0.345095 1.654023,-0.684809 2.180787,-1.683283 1.489463,-5.016077 -1.192769,-5.7502 -0.211227,-0.05781 -0.462783,-0.07671 -1.380285,-0.103667 -0.61709,-0.01813 -1.134723,-0.04616 -1.150296,-0.06228 C 18.690011,13.537167 18.642051,13.280229 18.599,12.982313 18.49943,12.293232 18.415588,11.991784 18.1941,11.526555 17.966314,11.048099 17.769825,10.76063 17.421072,10.395595 16.890608,9.840372 16.220345,9.4275439 15.479705,9.1998758 15.159734,9.101519 15.117944,9.0977893 14.335793,9.0977852 c -0.948656,-5.1e-6 -1.176818,0.0436 -1.812921,0.3464719 -0.498611,0.2374074 -0.77548,0.4308135 -1.189289,0.8307739 -0.742937,0.718072 -1.111656,1.485094 -1.280934,2.664642 -0.090804,0.632731 -0.04941,0.582324 -0.5388331,0.656194 -1.0762919,0.162447 -1.6288694,0.414636 -2.2397891,1.022209 -0.4397031,0.437294 -0.704281,0.885139 -0.8578322,1.452035 -0.1142154,0.421672 -0.1144463,1.237239 -4.699e-4,1.660516 0.2459931,0.913551 0.882051,1.691031 1.728093,2.112319 0.2883967,0.143607 0.4592428,0.206754 0.565669,0.209077 l 0.1524786,0.0033 0.3969229,-1.070111 C 9.7007181,17.794059 9.9197,17.236983 9.9732705,17.167897 c 0.027587,-0.03558 0.3842075,-0.04613 1.5595955,-0.04613 0.838106,0 1.550523,0.01024 1.58315,0.02276 0.0678,0.02602 -0.114803,0.389667 -1.562404,3.111529 -0.468878,0.88161 -0.852505,1.616388 -0.852505,1.632841 0,0.01645 0.344557,0.03 0.765683,0.0301 1.001876,2.5e-4 1.485804,0.03214 1.511701,0.09963 0.02248,0.05859 -0.28525,0.527069 -1.994733,3.036711 -1.4280949,2.096544 -1.726334,2.522285 -1.8805407,2.684501 -0.1239631,0.130402 -0.1657011,0.145838 -0.1941158,0.07179 z"
   id="path3" /><path
   style="opacity:0.75;fill:#003039;fill-opacity:1;stroke-width:0.0369004"
   d="m 8.9298893,27.765154 c 0,-0.07219 0.2448793,-1.209277 0.6074137,-2.820505 0.1529785,-0.679889 0.2781546,-1.271019 0.278169,-1.313622 2.43e-5,-0.07176 -0.026463,-0.07921 -0.3597524,-0.101285 -0.1978783,-0.0131 -0.6005535,-0.02555 -0.894834,-0.02766 -0.2942804,-0.0021 -0.6263838,-0.01465 -0.7380074,-0.02787 -0.1826363,-0.02162 -0.2020683,-0.03236 -0.194124,-0.107266 0.00763,-0.07193 0.16781,-0.525076 0.4954845,-1.401696 0.065165,-0.174334 0.07649,-0.245548 0.046589,-0.292955 C 8.1491009,21.637846 7.9893444,21.550532 7.8158136,21.478263 6.636618,20.987168 5.6596888,20.067997 5.1335701,18.9546 4.8039649,18.257074 4.7129731,17.820604 4.7130134,16.937269 c 3.65e-5,-0.8032 0.072493,-1.233351 0.3061828,-1.817706 0.5525611,-1.381712 1.6396727,-2.397675 3.0835669,-2.881754 0.1985334,-0.06656 0.3731849,-0.144805 0.3881144,-0.173878 0.01493,-0.02907 0.079964,-0.227215 0.1445214,-0.440315 0.5947771,-1.9633218 2.2034641,-3.4627436 4.3017181,-4.0095365 0.39218,-0.1022 0.426655,-0.1048544 1.361776,-0.1048544 1.02874,0 1.146177,0.014684 1.808118,0.2260742 0.472245,0.1508114 1.288147,0.5704506 1.678967,0.8635354 1.003925,0.752867 1.75129,1.7813083 2.144467,2.9509803 0.06481,0.192805 0.127729,0.361902 0.139821,0.375771 0.01209,0.01387 0.229549,0.04348 0.48324,0.06579 0.961488,0.08457 1.486262,0.222343 2.145638,0.563297 1.108608,0.573245 1.97969,1.603855 2.389166,2.826715 0.158514,0.473388 0.225046,0.927908 0.225046,1.537431 0,0.835296 -0.150398,1.50946 -0.481576,2.158672 -0.586325,1.149379 -1.73905,2.142751 -2.887771,2.488565 -0.611005,0.183938 -1.316614,0.273779 -1.410769,0.179625 -0.05691,-0.05691 -0.07353,-0.375172 -0.05455,-1.044574 0.01343,-0.473824 0.02642,-0.500678 0.256926,-0.531255 0.288368,-0.03825 0.802709,-0.195597 1.106126,-0.338377 0.38133,-0.179445 0.681286,-0.403155 1.012173,-0.75489 0.627476,-0.667011 0.910256,-1.441851 0.86155,-2.360718 -0.02478,-0.467462 -0.0978,-0.766253 -0.287161,-1.175037 -0.37121,-0.801346 -1.033929,-1.410269 -1.88124,-1.728531 -0.385939,-0.144965 -0.690987,-0.180773 -1.823819,-0.214091 -0.887424,-0.0261 -1.00531,-0.04031 -1.030384,-0.124219 -0.01,-0.03339 -0.05383,-0.284875 -0.09745,-0.55886 C 18.493675,12.276072 18.379613,11.886345 18.172546,11.470281 17.917261,10.957332 17.768438,10.752261 17.34567,10.330883 16.794854,9.7818719 16.27071,9.4556317 15.559204,9.218939 15.253541,9.1172558 15.163389,9.1047186 14.611645,9.087165 13.564662,9.0538556 13.098654,9.1435106 12.36801,9.5188163 11.902453,9.757957 11.616538,9.9751182 11.208743,10.399316 10.561205,11.0729 10.247147,11.731087 10.075231,12.774875 9.9792675,13.357514 9.9392214,13.496701 9.86081,13.52013 9.825741,13.530609 9.6392989,13.565795 9.4464945,13.598322 8.3088041,13.790254 7.66512,14.127223 7.042756,14.856679 6.7903214,15.152551 6.49366,15.727737 6.3978772,16.107011 c -0.096243,0.381096 -0.087976,1.263612 0.01543,1.647072 0.1571529,0.582773 0.4857821,1.106032 0.992217,1.579857 0.2609793,0.244174 0.4025348,0.342094 0.7303252,0.505195 0.2236299,0.111273 0.4765654,0.211699 0.5620786,0.223169 0.1846277,0.02476 0.1174067,0.150593 0.5655362,-1.058614 0.1842731,-0.497232 0.4178173,-1.114337 0.5189871,-1.371344 l 0.183945,-0.467285 0.2289787,-0.0155 c 0.302256,-0.02046 2.420728,-0.0205 2.692079,-4.9e-5 0.151395,0.01141 0.212177,0.03103 0.212177,0.06849 0,0.06695 -0.319508,0.704591 -0.950233,1.896386 -0.766488,1.44833 -0.828791,1.565907 -1.148974,2.168338 -0.164624,0.309745 -0.299317,0.576921 -0.299317,0.593726 0,0.0168 0.460793,0.04192 1.023985,0.05581 1.076638,0.02656 1.226938,0.04057 1.226938,0.114371 0,0.07044 -0.327251,0.57601 -1.335377,2.063044 -1.24653,1.83869 -2.0189268,2.959514 -2.3236637,3.371865 -0.2360074,0.31935 -0.3631,0.418618 -0.3631,0.283604 z"
   id="path4" /><path
   style="opacity:0.75;fill:#003039;fill-opacity:1;stroke-width:0.0369004"
   d="m 8.9454638,27.666052 c 0.013754,-0.08626 0.2157724,-1.019173 0.4489303,-2.073151 0.2331579,-1.053977 0.4189598,-1.942354 0.412893,-1.974169 -0.014067,-0.07377 -0.3043399,-0.102884 -1.1541506,-0.115758 -0.3450184,-0.0052 -0.7164371,-0.01683 -0.8253749,-0.02577 L 7.629693,23.460934 7.647841,23.325635 c 0.00998,-0.07442 0.1364736,-0.450537 0.2810944,-0.835827 0.1446209,-0.38529 0.262947,-0.730335 0.262947,-0.766766 0,-0.04866 -0.1248894,-0.125127 -0.4704797,-0.288079 C 7.4626384,21.312944 7.1678967,21.160961 7.0664207,21.097214 6.2491097,20.583787 5.5952426,19.87156 5.1887211,19.051921 4.8177039,18.303868 4.7215098,17.868622 4.7214798,16.937814 4.721456,16.199895 4.7746231,15.820992 4.9474186,15.327632 5.2080263,14.583553 5.6482078,13.905 6.22855,13.352729 6.7327497,12.872917 7.3357492,12.509409 8.0442804,12.258146 8.2167897,12.196969 8.3858827,12.135756 8.4200428,12.122117 8.4604081,12.106 8.5360967,11.92979 8.6362402,11.61879 9.079803,10.241288 9.9623959,9.1158409 11.202035,8.3469926 c 0.531313,-0.3295313 1.301989,-0.6403615 1.952947,-0.7876665 0.308834,-0.069886 1.932431,-0.069263 2.287822,8.783e-4 1.089647,0.2150556 2.200267,0.815597 3.007381,1.626169 0.691864,0.69483 1.155352,1.4324096 1.473569,2.3449916 l 0.141538,0.405904 0.253332,0.02915 c 1.238495,0.142518 1.424712,0.179913 1.950749,0.391735 1.48444,0.597748 2.578103,1.902588 2.956564,3.527453 0.09753,0.418736 0.09871,1.597663 0.0021,2.046221 -0.266941,1.238736 -1.038065,2.343026 -2.156319,3.08796 -0.666764,0.444172 -1.602741,0.751428 -2.28903,0.751428 -0.235769,0 -0.259299,-0.007 -0.279677,-0.08303 -0.02986,-0.111438 -0.02242,-1.277455 0.0089,-1.38922 0.02168,-0.07742 0.06492,-0.09661 0.345919,-0.1535 1.049721,-0.212521 1.802564,-0.694623 2.349143,-1.504329 0.527213,-0.781019 0.665762,-1.857488 0.356191,-2.767464 -0.359847,-1.057757 -1.237288,-1.876536 -2.305026,-2.150921 -0.214447,-0.05511 -0.501006,-0.08053 -1.221159,-0.108314 -0.517527,-0.01997 -1.027182,-0.04542 -1.132566,-0.05655 l -0.191607,-0.02024 -0.0376,-0.191337 c -0.02068,-0.105235 -0.07222,-0.38996 -0.114529,-0.632722 C 18.465586,12.168454 18.351375,11.822427 18.116099,11.3669 17.883394,10.916351 17.640456,10.595655 17.26254,10.240138 16.747325,9.7554609 16.158358,9.4069556 15.498155,9.1961105 15.192976,9.0986474 15.161571,9.0960241 14.335793,9.0990172 c -0.991191,0.00359 -1.186115,0.040689 -1.816749,0.3457481 -0.498727,0.2412511 -0.772295,0.4314086 -1.164316,0.8093177 -0.754103,0.726958 -1.088738,1.398965 -1.295743,2.602087 -0.05461,0.317386 -0.1181389,0.575893 -0.1502511,0.611376 -0.033964,0.03753 -0.1743605,0.0805 -0.3604143,0.110322 -1.0862761,0.174086 -1.6907351,0.449011 -2.2776745,1.03595 -0.7009465,0.700947 -1.0098866,1.529172 -0.941866,2.52501 0.060257,0.882176 0.3867106,1.54951 1.0713671,2.19008 0.2540897,0.237729 0.4025963,0.340405 0.7357358,0.508679 0.3034973,0.153303 0.4607925,0.211777 0.576456,0.214298 l 0.1590679,0.0035 0.3430915,-0.92251 C 9.4031978,18.625461 9.6503,17.975352 9.7636133,17.688154 l 0.2060247,-0.522178 0.319609,-0.01665 c 0.38484,-0.02004 2.079869,-0.01969 2.505956,5.21e-4 0.239939,0.01138 0.304428,0.02619 0.304428,0.06993 0,0.06957 -0.578226,1.197227 -1.604565,3.129215 -0.436677,0.822005 -0.793959,1.51149 -0.793959,1.532189 0,0.0237 0.187898,0.03807 0.50738,0.03881 1.003605,0.0023 1.743543,0.05167 1.743543,0.116285 0,0.0662 -0.342857,0.606501 -0.979173,1.54306 -0.337829,0.497232 -0.774604,1.141399 -0.970612,1.431481 -1.3048675,1.931148 -1.9446428,2.812061 -2.0422981,2.812061 -0.025781,0 -0.030809,-0.05444 -0.014483,-0.156826 z"
   id="path5" /><path
   style="opacity:0.75;fill:#003039;fill-opacity:1;stroke-width:0.0369004"
   d="m 8.9449908,27.666052 c 0.013494,-0.08626 0.2056232,-0.978783 0.426955,-1.983395 0.4944804,-2.244423 0.4657284,-2.086916 0.3865048,-2.117316 -0.03483,-0.01337 -0.3724975,-0.03285 -0.7503724,-0.04329 -0.3778749,-0.01045 -0.8426016,-0.02843 -1.0327264,-0.03997 l -0.3456814,-0.02098 0.018649,-0.134606 c 0.010257,-0.07403 0.1367545,-0.454146 0.2811058,-0.844695 0.1443512,-0.390549 0.2624567,-0.734142 0.2624567,-0.763542 0,-0.03234 -0.2368216,-0.170281 -0.599631,-0.349259 C 6.8935511,21.024313 6.612967,20.825448 6.1067729,20.316153 5.6927421,19.899586 5.4293655,19.537096 5.1898232,19.054136 4.816896,18.302248 4.7207112,17.867244 4.721523,16.936204 4.7223399,15.999332 4.8408709,15.445807 5.1914514,14.741697 5.5310605,14.059623 6.2017481,13.282323 6.7904468,12.888525 7.1447072,12.651551 7.710418,12.370478 8.1419445,12.217035 L 8.4794609,12.09702 8.6349266,11.618578 C 9.2406292,9.7545423 10.665082,8.336984 12.535925,7.7364627 c 0.673416,-0.2161598 0.759361,-0.2272376 1.762968,-0.2272376 1.015299,0 1.240311,0.029619 1.854812,0.2441522 1.796192,0.6270836 3.132817,1.9678793 3.770506,3.7822727 l 0.141154,0.401619 0.566948,0.06201 c 0.744941,0.08148 1.113468,0.156467 1.506952,0.306626 1.543126,0.588879 2.613842,1.798188 3.0551,3.45055 0.08455,0.316628 0.09396,0.421974 0.09723,1.08856 0.005,1.015558 -0.07989,1.431021 -0.446837,2.187544 -0.491314,1.012935 -1.504685,1.973799 -2.525392,2.39454 -0.429896,0.177205 -0.98468,0.308904 -1.400407,0.332439 -0.473079,0.02678 -0.438033,0.08517 -0.438747,-0.730943 -6.24e-4,-0.714493 0.01432,-0.801381 0.142581,-0.828961 1.110079,-0.238704 1.566896,-0.463631 2.163189,-1.06511 0.347959,-0.350985 0.560758,-0.670456 0.729119,-1.094614 0.301975,-0.760773 0.270953,-1.710896 -0.08122,-2.487601 -0.406419,-0.896337 -1.262881,-1.605094 -2.219279,-1.836541 -0.247469,-0.05989 -0.57971,-0.08512 -1.56515,-0.118872 -0.835388,-0.02861 -0.937326,-0.0436 -0.959033,-0.140976 -0.0098,-0.04375 -0.06074,-0.328617 -0.113311,-0.633045 -0.05257,-0.304425 -0.135913,-0.674434 -0.185201,-0.82224 C 18.04148,10.949769 17.256717,10.040451 16.243705,9.5114789 15.54816,9.1482807 15.073044,9.0550017 14.095941,9.0898107 c -0.71634,0.025519 -1.021497,0.092019 -1.532019,0.3338552 -0.522534,0.2475269 -0.841708,0.4721762 -1.255876,0.8839431 -0.736173,0.731906 -1.037923,1.351167 -1.250951,2.56724 -0.0541,0.308843 -0.1169223,0.557958 -0.1498891,0.594386 -0.037378,0.0413 -0.1918358,0.0848 -0.4524587,0.127418 -1.0221151,0.16714 -1.61071,0.446113 -2.1938613,1.039814 -0.5680254,0.578301 -0.8322391,1.119243 -0.9177203,1.878908 -0.051027,0.453477 -0.00268,1.015867 0.1192523,1.387305 0.2157769,0.657289 0.7212479,1.328419 1.2987148,1.724343 0.2756021,0.188959 0.7840227,0.413775 0.9531455,0.421466 l 0.1508812,0.0069 0.346872,-0.92251 c 0.1907797,-0.50738 0.4381014,-1.156612 0.549604,-1.442737 l 0.2027321,-0.520229 0.4144955,-0.02388 c 0.537028,-0.03094 1.824417,-0.03095 2.330127,-6e-6 l 0.395748,0.02421 -0.023,0.09571 c -0.02281,0.09493 -0.648152,1.309717 -1.785841,3.469147 -0.325266,0.617382 -0.584502,1.13366 -0.576083,1.147284 0.0084,0.01362 0.451843,0.03558 0.985384,0.04879 0.897841,0.02223 1.202332,0.04298 1.245209,0.08486 0.03863,0.03773 -0.466156,0.824106 -1.548325,2.412049 -0.228212,0.334871 -0.590398,0.866236 -0.804858,1.180812 -1.1650966,1.708991 -1.5397361,2.214022 -1.6423933,2.214022 -0.019693,0 -0.023898,-0.06699 -0.00984,-0.156826 z"
   id="path6" /><path
   style="opacity:0.75;fill:#003039;fill-opacity:1;stroke-width:0.0369004"
   d="m 8.9450768,27.666052 c 0.013541,-0.08626 0.1576734,-0.762915 0.3202944,-1.50369 0.1626211,-0.740775 0.3549546,-1.617437 0.4274078,-1.948138 0.072453,-0.330701 0.1200361,-0.612989 0.1057398,-0.627306 -0.035885,-0.03594 -0.6070546,-0.07371 -1.1822826,-0.07818 -0.2638377,-0.0021 -0.5917897,-0.01431 -0.7287823,-0.02725 -0.2324804,-0.02196 -0.2490775,-0.02948 -0.2490775,-0.112911 0,-0.04916 0.1245387,-0.431388 0.2767528,-0.849389 0.152214,-0.418001 0.2767527,-0.77977 0.2767527,-0.803933 0,-0.02416 -0.2698339,-0.178577 -0.599631,-0.343144 C 6.8949594,21.024166 6.4962572,20.738579 6.0433375,20.262638 5.3869828,19.572922 4.9393505,18.730907 4.7778962,17.882292 4.7009861,17.478047 4.7018625,16.405359 4.7794663,15.960346 4.8847356,15.356687 5.1259856,14.777179 5.5242488,14.1713 5.7763794,13.787734 6.4465006,13.109282 6.8102689,12.869294 7.1540513,12.642491 7.7239911,12.362335 8.1400168,12.215651 l 0.3355887,-0.118323 0.1562908,-0.473755 c 0.08596,-0.260565 0.2366487,-0.636984 0.3348646,-0.836487 0.7932708,-1.6113509 2.2965461,-2.7837539 4.1144201,-3.2088327 0.248871,-0.058194 0.44578,-0.068943 1.254612,-0.068483 0.929774,5.286e-4 0.97168,0.00373 1.356644,0.1035692 1.950587,0.5058908 3.485886,1.8922339 4.175536,3.7704245 0.07452,0.202952 0.151996,0.411437 0.172164,0.463301 0.03566,0.09169 0.05319,0.09607 0.634798,0.158335 0.741198,0.07935 1.128915,0.162771 1.561602,0.335973 1.124099,0.449971 2.026011,1.282664 2.578395,2.380511 0.215982,0.429256 0.419643,1.094517 0.467117,1.525842 0.05438,0.494102 0.01688,1.387086 -0.07552,1.798243 -0.303281,1.349505 -1.363689,2.649166 -2.678853,3.283262 -0.573467,0.276493 -1.229509,0.44111 -1.76032,0.441708 l -0.247406,2.79e-4 -0.02331,-0.12426 c -0.02953,-0.15741 -0.0069,-1.37428 0.02619,-1.407255 0.01357,-0.01353 0.225149,-0.07255 0.470173,-0.131161 0.732429,-0.175192 1.215304,-0.421304 1.691037,-0.861887 1.686289,-1.561698 1.251977,-4.295571 -0.841393,-5.296352 -0.515788,-0.246584 -0.765234,-0.291836 -1.838666,-0.333552 -1.140717,-0.04433 -1.286504,-0.06014 -1.310629,-0.142154 -0.0099,-0.03372 -0.06075,-0.309032 -0.112964,-0.6118 -0.196951,-1.142111 -0.530791,-1.825794 -1.236311,-2.53188 -0.673996,-0.6745369 -1.511065,-1.1168298 -2.301176,-1.2159013 -0.583785,-0.0732 -1.502214,-0.027951 -1.937942,0.09548 -0.301223,0.085329 -0.983676,0.4223483 -1.243997,0.6143302 -0.676446,0.4988671 -1.198169,1.1448691 -1.482536,1.8356911 -0.141606,0.344006 -0.210121,0.607451 -0.324433,1.247444 C 9.9925295,13.252084 9.9438162,13.429197 9.8991351,13.471 9.859759,13.507839 9.6316498,13.570692 9.3230284,13.629738 8.3047,13.824567 7.8998723,14.021565 7.3033737,14.612546 6.865037,15.046828 6.6555241,15.36539 6.486477,15.854628 c -0.247733,0.716962 -0.1988183,1.725633 0.1163454,2.399159 0.253892,0.542585 0.8041699,1.163259 1.2833779,1.44756 0.3114351,0.184766 0.7976901,0.381557 0.9026931,0.365326 0.059646,-0.0092 0.1481704,-0.210138 0.4764774,-1.081433 0.221772,-0.588561 0.470382,-1.237999 0.5524668,-1.443195 L 9.967083,17.16896 10.293739,17.1443 c 0.343772,-0.02595 2.230933,-0.02217 2.593715,0.0052 0.151483,0.01143 0.212177,0.03104 0.212177,0.06856 0,0.06324 -0.272673,0.611807 -0.823373,1.656487 -1.330424,2.523815 -1.569117,2.98729 -1.552405,3.01433 0.01018,0.01647 0.312272,0.03101 0.671314,0.03231 0.716464,0.0026 1.50744,0.04661 1.546918,0.08609 0.04314,0.04314 -0.0905,0.258293 -1.033824,1.664311 -2.1520673,3.207649 -2.8228422,4.151291 -2.9508872,4.151291 -0.022693,0 -0.027431,-0.06042 -0.012297,-0.156826 z"
   id="path7" /><path
   style="opacity:0.75;fill:#003039;fill-opacity:1;stroke-width:0.0369004"
   d="m 8.9298893,27.753044 c 0,-0.07318 0.063338,-0.372091 0.5520797,-2.605443 0.1643303,-0.750922 0.3074764,-1.408957 0.3181018,-1.462301 0.025859,-0.129816 -0.00224,-0.135125 -0.8517313,-0.160932 -0.3856089,-0.01171 -0.8380996,-0.03054 -1.0055351,-0.04183 -0.2921149,-0.0197 -0.304428,-0.02415 -0.304428,-0.11016 0,-0.0493 0.1150673,-0.408968 0.255705,-0.79927 0.1406378,-0.390302 0.2657349,-0.751153 0.2779937,-0.801891 0.021132,-0.08746 -0.00889,-0.107967 -0.5785833,-0.395135 C 6.8953605,21.024174 6.4930303,20.735188 6.0433375,20.262638 5.3924473,19.578664 4.95522,18.76454 4.7779989,17.906557 c -0.08937,-0.432666 -0.077945,-1.562938 0.020713,-2.049302 0.1848349,-0.911193 0.6775897,-1.781533 1.4026475,-2.477461 0.1945858,-0.186768 0.4718278,-0.418048 0.6160933,-0.513956 0.3498983,-0.232611 0.911003,-0.509157 1.3209557,-0.651044 l 0.3339809,-0.115593 0.1401752,-0.431519 c 0.672389,-2.0699022 2.1812635,-3.4723546 4.3839575,-4.0747543 0.283465,-0.077523 0.379616,-0.083632 1.302371,-0.082743 0.918903,8.846e-4 1.023546,0.00768 1.346863,0.08746 1.998317,0.4930939 3.598892,1.9713102 4.299289,3.9706213 0.05688,0.162361 0.12157,0.313864 0.143761,0.336673 0.02219,0.02281 0.239607,0.06065 0.48315,0.08409 0.962681,0.09266 1.497824,0.234427 2.127108,0.563513 1.066828,0.557901 1.899376,1.511203 2.330799,2.66886 0.237105,0.636235 0.26515,0.817933 0.261997,1.697417 -0.0033,0.90796 -0.04893,1.188026 -0.290275,1.780051 -0.517015,1.268223 -1.633608,2.354693 -2.891951,2.813931 -0.399599,0.145836 -0.970822,0.258417 -1.311175,0.258417 h -0.27851 l -0.02331,-0.12426 c -0.02961,-0.15785 -0.0068,-1.374324 0.02635,-1.407414 0.01366,-0.01362 0.221223,-0.07269 0.461254,-0.131278 0.240031,-0.05858 0.544354,-0.151458 0.676273,-0.206385 1.635042,-0.680784 2.444886,-2.441081 1.873193,-4.071623 -0.290027,-0.827194 -0.857244,-1.463143 -1.670241,-1.872633 -0.510881,-0.257319 -0.74384,-0.292482 -2.466305,-0.372267 -0.448791,-0.02079 -0.667029,-0.04479 -0.68598,-0.07546 -0.01529,-0.02473 -0.066,-0.272459 -0.112685,-0.550498 -0.103375,-0.615605 -0.2127,-1.00866 -0.386829,-1.39076 -0.502898,-1.103539 -1.57006,-2.0237056 -2.741034,-2.3634774 -0.612399,-0.1776945 -1.815168,-0.1583836 -2.440164,0.039177 -1.190785,0.3764069 -2.277741,1.3962024 -2.693293,2.5268784 -0.104147,0.283374 -0.183059,0.605121 -0.283898,1.157524 -0.0504,0.276076 -0.1114762,0.502261 -0.1459054,0.540305 -0.038763,0.04283 -0.1827694,0.08687 -0.4168775,0.127494 -1.030055,0.178724 -1.570667,0.421787 -2.1466674,0.965156 -0.4191674,0.395421 -0.728621,0.877242 -0.8949416,1.393427 -0.092914,0.288365 -0.1322096,1.221327 -0.067172,1.594803 0.1902153,1.092297 1.1943012,2.202225 2.2488526,2.485908 0.1302675,0.03504 0.1712815,0.034 0.2097258,-0.0054 0.026284,-0.02691 0.22951,-0.530473 0.4516114,-1.119034 0.2221019,-0.588561 0.462444,-1.219557 0.5340938,-1.402214 l 0.1302723,-0.332103 0.178689,-0.02344 c 0.246233,-0.0323 2.372169,-0.03948 2.698894,-0.0091 0.188042,0.01748 0.265774,0.03945 0.265774,0.07512 0,0.07156 -0.561962,1.176299 -1.545215,3.037677 -0.46608,0.882327 -0.839461,1.617105 -0.829736,1.632841 0.0097,0.01574 0.32805,0.02946 0.707387,0.03049 0.72021,0.002 1.469053,0.04561 1.51155,0.08811 0.05401,0.05401 -0.360754,0.693294 -2.168128,3.341747 -1.1910305,1.745286 -1.4747574,2.145488 -1.6546729,2.333948 -0.1481417,0.155176 -0.1909266,0.170536 -0.1909266,0.06854 z"
   id="path8" /><path
   style="opacity:0.75;fill:#003039;fill-opacity:1;stroke-width:0.0369004"
   d="m 8.9424941,27.657731 c 0.012449,-0.09083 0.2039738,-0.991661 0.4256089,-2.001845 0.5001756,-2.279734 0.4628645,-2.064859 0.3627291,-2.088965 -0.044762,-0.01078 -0.4134889,-0.02948 -0.819393,-0.04155 -0.405904,-0.01208 -0.8583948,-0.0312 -1.005535,-0.04249 -0.2524221,-0.01938 -0.2675277,-0.02556 -0.2675277,-0.109469 0,-0.04891 0.1246334,-0.439152 0.2769632,-0.867194 0.1523297,-0.42805 0.2672396,-0.794 0.2553552,-0.813229 C 8.1588105,21.673759 7.905487,21.535618 7.6077538,21.386008 6.9751106,21.068106 6.6328755,20.835625 6.2259293,20.44733 5.4448954,19.702093 4.9493724,18.813196 4.7582063,17.814446 4.7377286,17.70746 4.7206011,17.311376 4.7201453,16.93426 c -6.703e-4,-0.554487 0.014092,-0.759217 0.077162,-1.070111 0.3020085,-1.488707 1.392269,-2.812226 2.8410691,-3.44891 0.1928044,-0.08473 0.4590823,-0.189742 0.5917288,-0.233364 l 0.2411752,-0.07931 0.1407901,-0.4332 C 9.2349321,9.752862 10.60538,8.3720132 12.515661,7.7361462 13.16706,7.519318 13.249031,7.5091404 14.335793,7.5101575 c 0.925407,8.66e-4 1.019929,0.00711 1.328192,0.08767 1.995772,0.5215949 3.538005,1.9303768 4.24556,3.8781875 0.07741,0.213099 0.154611,0.40609 0.171558,0.428867 0.01695,0.02278 0.167533,0.05275 0.334634,0.06661 0.91135,0.07557 1.527345,0.218463 2.089804,0.484773 1.179556,0.558487 2.044107,1.506773 2.526722,2.77144 0.230929,0.605134 0.263369,0.821353 0.259267,1.728018 -0.0034,0.749962 -0.01096,0.839215 -0.09935,1.171566 -0.406181,1.527376 -1.640918,2.874039 -3.117141,3.399701 -0.379204,0.135029 -0.949996,0.244231 -1.276584,0.244231 h -0.27851 l -0.02266,-0.120765 c -0.01246,-0.06642 -0.01736,-0.407462 -0.0109,-0.75787 0.009,-0.488751 0.02349,-0.64434 0.06214,-0.668174 0.02771,-0.01709 0.184555,-0.06006 0.348549,-0.09549 1.313215,-0.283737 2.269436,-1.082889 2.649681,-2.214443 0.526776,-1.567606 -0.226351,-3.281904 -1.750651,-3.984904 -0.494189,-0.227917 -0.715762,-0.259262 -2.436084,-0.344621 -0.412599,-0.02047 -0.630692,-0.04568 -0.648804,-0.07498 -0.01501,-0.02428 -0.05607,-0.213715 -0.09125,-0.420967 -0.151257,-0.8911 -0.312045,-1.393568 -0.608211,-1.900673 C 17.716865,10.683382 17.226993,10.158485 16.730001,9.8149146 16.372553,9.5678109 15.766454,9.280405 15.411171,9.1895389 14.798832,9.0329291 13.615398,9.0594476 13.035426,9.2427747 12.402993,9.4426845 11.797241,9.820643 11.291513,10.330888 c -0.694528,0.700731 -1.01357,1.355263 -1.217087,2.49692 -0.096792,0.542968 -0.1358983,0.669024 -0.2150821,0.693299 -0.034263,0.0105 -0.2796254,0.06119 -0.5452502,0.11263 -0.8156003,0.157955 -1.3047634,0.363618 -1.7621097,0.740858 -0.5197048,0.428677 -0.9117354,0.999957 -1.1002115,1.603265 -0.076901,0.246157 -0.08643,0.348143 -0.0862,0.922509 2.941e-4,0.734882 0.039209,0.93388 0.2752139,1.407348 0.3614915,0.725217 0.9630265,1.301222 1.6802471,1.608935 0.3163638,0.135731 0.4792856,0.169544 0.5273956,0.109457 0.019623,-0.02451 0.2540897,-0.620868 0.5210376,-1.325246 0.266948,-0.704378 0.5089211,-1.337076 0.5377177,-1.405996 0.049585,-0.118675 0.064462,-0.126575 0.2809516,-0.149203 0.293194,-0.03064 2.462606,-0.03063 2.717768,1.8e-5 0.128355,0.01542 0.193727,0.04037 0.193727,0.07394 0,0.07335 -0.429603,0.920328 -1.439129,2.837284 -0.488417,0.927438 -0.891634,1.721623 -0.896037,1.764856 -0.0079,0.07784 0.0011,0.07882 0.932952,0.101021 0.978104,0.0233 1.254613,0.04886 1.254613,0.115963 0,0.09092 -0.548015,0.9275 -2.096941,3.201105 -1.4633883,2.148049 -1.7835127,2.583026 -1.9009976,2.583026 -0.019316,0 -0.02437,-0.07196 -0.011597,-0.165147 z"
   id="path9" /><path
   style="opacity:0.75;fill:#003039;fill-opacity:1;stroke-width:0.0369004"
   d="m 8.9427125,27.656135 c 0.01257,-0.09171 0.1317307,-0.660435 0.2648012,-1.263837 0.1330704,-0.603402 0.3161907,-1.445804 0.4069335,-1.872003 0.090743,-0.426199 0.1729067,-0.810233 0.182586,-0.853408 0.024123,-0.107598 -0.02993,-0.115214 -1.0362273,-0.146007 -0.4651222,-0.01423 -0.8705845,-0.03054 -0.9010273,-0.03624 -0.030443,-0.0057 -0.094899,-0.01163 -0.143235,-0.01318 -0.080024,-0.0026 -0.086171,-0.0152 -0.068727,-0.1412 0.010537,-0.07611 0.1371478,-0.468098 0.281358,-0.871092 0.1442102,-0.402996 0.2526855,-0.748114 0.2410563,-0.76693 C 8.1586017,21.673421 7.905487,21.53591 7.6077538,21.386658 6.9836013,21.073772 6.5882702,20.80423 6.205184,20.430364 5.4276346,19.671529 4.9478887,18.806416 4.7592108,17.822878 4.7082027,17.556984 4.7078079,16.363011 4.7586189,16.03321 4.8485769,15.449319 5.1362314,14.741906 5.5163597,14.169742 5.7690916,13.789332 6.4788683,13.080027 6.8450185,12.841965 7.1992953,12.611623 7.6967386,12.369202 8.099631,12.23055 8.2619926,12.17468 8.4145391,12.110737 8.4386236,12.088465 8.4627076,12.066195 8.5432218,11.865314 8.6175435,11.642066 9.3005738,9.5903831 10.813805,8.1789058 12.956283,7.5950745 c 0.286892,-0.078179 0.38322,-0.084358 1.32416,-0.084939 0.721093,-4.452e-4 1.078833,0.013816 1.236162,0.049278 0.758392,0.1709434 1.677119,0.5975284 2.309525,1.0723616 0.952229,0.7149688 1.72928,1.7907679 2.12103,2.9364909 0.05551,0.162361 0.12267,0.313159 0.149234,0.335107 0.02656,0.02195 0.260619,0.06049 0.520124,0.08565 0.580013,0.05624 1.10834,0.15978 1.460247,0.286179 1.564464,0.561931 2.763259,1.922153 3.149408,3.573503 0.08776,0.375302 0.09876,1.65783 0.01773,2.066421 -0.311363,1.569942 -1.618479,3.05979 -3.168858,3.611858 -0.378154,0.134655 -0.949719,0.244231 -1.273953,0.244231 -0.254902,0 -0.277569,-0.0063 -0.298127,-0.08303 -0.02893,-0.107951 -0.02898,-1.275643 -5.5e-5,-1.383556 0.02349,-0.08766 0.0355,-0.09228 0.603289,-0.232337 1.732828,-0.427427 2.823859,-1.972857 2.569908,-3.640238 -0.166636,-1.094088 -0.844045,-2.00382 -1.849387,-2.48365 -0.511388,-0.244076 -0.599469,-0.256781 -2.522375,-0.363844 -0.367396,-0.02046 -0.576051,-0.04699 -0.593664,-0.07549 -0.01494,-0.02417 -0.07251,-0.295029 -0.12794,-0.60191 -0.14457,-0.80038 -0.314707,-1.292937 -0.621434,-1.799073 -0.241055,-0.397769 -0.710678,-0.89842 -1.151279,-1.2273451 -0.358769,-0.2678344 -1.01093,-0.5903415 -1.391991,-0.6883681 -0.563265,-0.144898 -1.673807,-0.1357068 -2.278598,0.018858 -0.286724,0.073278 -1.04661,0.4514716 -1.319918,0.6569212 -0.314665,0.2365376 -0.739711,0.6587446 -0.947951,0.9416176 -0.413536,0.561749 -0.596544,1.01677 -0.779688,1.938577 -0.06908,0.347679 -0.1361488,0.659646 -0.1490477,0.69326 -0.028863,0.07522 -0.035392,0.07724 -0.623824,0.193849 -0.8419679,0.166846 -1.2845002,0.354419 -1.769237,0.749915 -0.5017708,0.409395 -0.885402,0.954841 -1.0811227,1.537137 -0.092647,0.275639 -0.099359,0.339222 -0.10128,0.95941 -0.00185,0.597001 0.00669,0.692048 0.08435,0.93937 0.3236154,1.030552 1.181321,1.907245 2.1462994,2.193812 0.2478845,0.07361 0.2371317,0.08435 0.4324177,-0.431643 0.076617,-0.202439 0.3148428,-0.826681 0.5293904,-1.387204 l 0.3900867,-1.019132 0.1634192,-0.02494 c 0.206968,-0.03159 2.662432,-0.03739 2.847921,-0.0067 0.08421,0.01392 0.138376,0.04339 0.138376,0.07528 0,0.0665 -0.559852,1.174152 -1.348798,2.668567 -0.933876,1.76894 -1.02706,1.960884 -0.969634,1.997289 0.02698,0.01711 0.356255,0.03216 0.731716,0.03346 0.691391,0.0024 1.384299,0.04236 1.424092,0.08215 0.01197,0.01197 0.01074,0.05649 -0.0027,0.09893 -0.04242,0.133651 -2.334735,3.548042 -3.3335417,4.965291 -0.3094111,0.439036 -0.5807521,0.756457 -0.6466425,0.756457 -0.019365,0 -0.024307,-0.07242 -0.011379,-0.166743 z"
   id="path10" /><path
   style="opacity:0.75;fill:#003039;fill-opacity:1;stroke-width:0.0369004"
   d="m 8.9298893,27.754152 c 0,-0.09375 0.135983,-0.750853 0.4057749,-1.960794 0.1244487,-0.558118 0.2817096,-1.277316 0.3494686,-1.598217 l 0.1231986,-0.583456 -0.080898,-0.03076 c -0.044494,-0.01692 -0.4455565,-0.04128 -0.8912506,-0.05415 -0.4456941,-0.01287 -0.8975299,-0.03241 -1.0040797,-0.04342 -0.1745215,-0.01805 -0.1937269,-0.02884 -0.1937269,-0.108886 0,-0.04887 0.1057193,-0.392232 0.2349318,-0.763027 C 8.2112387,21.641699 8.1926131,21.706919 8.143046,21.666921 8.1191677,21.647653 7.87704,21.521309 7.6049843,21.386156 7.0049932,21.088091 6.6449982,20.84567 6.2589011,20.479705 5.501537,19.76183 4.9766063,18.870897 4.7918276,17.98973 c -0.091817,-0.437853 -0.10036,-1.62322 -0.014895,-2.066696 0.112384,-0.583159 0.3642487,-1.185208 0.7257637,-1.734842 0.2572268,-0.391078 0.9648225,-1.100767 1.3423223,-1.346293 0.3442638,-0.223909 0.9292917,-0.50982 1.2768952,-0.624036 0.1340268,-0.04404 0.2696092,-0.10028 0.3012944,-0.124981 0.031685,-0.0247 0.1177461,-0.227568 0.1912465,-0.450816 0.6630989,-2.0140666 2.1846193,-3.4440359 4.2897513,-4.0316333 0.353594,-0.098697 0.383605,-0.1009009 1.376237,-0.1010526 0.860888,-1.315e-4 1.059523,0.010288 1.309963,0.068717 1.000978,0.233532 2.026762,0.7934775 2.780591,1.5178439 0.712823,0.684963 1.161328,1.37663 1.541799,2.377703 0.08821,0.232091 0.177962,0.432849 0.199449,0.44613 0.02149,0.01328 0.249949,0.04457 0.507693,0.06953 0.91778,0.08888 1.397463,0.216577 2.036889,0.54225 1.161695,0.591678 2.033642,1.625819 2.454762,2.911386 0.153952,0.469972 0.207501,0.876084 0.198975,1.508985 -0.0091,0.674946 -0.05608,1.014957 -0.200203,1.448821 -0.334918,1.008203 -0.968649,1.8571 -1.888854,2.530161 -0.66688,0.487772 -1.686991,0.840314 -2.431522,0.840314 -0.253947,0 -0.273402,-0.0057 -0.293527,-0.08588 -0.02957,-0.117824 -0.0046,-1.41477 0.02783,-1.447114 0.01437,-0.01432 0.213634,-0.07386 0.442804,-0.132312 0.90939,-0.231945 1.454575,-0.546355 1.960218,-1.130464 1.3128,-1.516521 0.918152,-3.853786 -0.823987,-4.879981 -0.301059,-0.177337 -0.717618,-0.334127 -1.031772,-0.388351 -0.153005,-0.02641 -0.697481,-0.06638 -1.209947,-0.08883 -1.03794,-0.04546 -1.142797,-0.05844 -1.169615,-0.144826 -0.01028,-0.0331 -0.0607,-0.292654 -0.112063,-0.576787 -0.208803,-1.155171 -0.514577,-1.794875 -1.195631,-2.501361 -0.972,-1.0082957 -2.094687,-1.4182834 -3.525107,-1.2873133 -0.605555,0.055445 -0.829622,0.1136678 -1.303568,0.3387261 -0.483207,0.2294557 -0.837631,0.4756423 -1.210584,0.8408822 -0.720926,0.706018 -1.040832,1.337042 -1.254235,2.474012 -0.1159004,0.617498 -0.1516686,0.73492 -0.231455,0.759843 -0.034263,0.0107 -0.2366502,0.05372 -0.4497498,0.09559 -1.0722,0.210684 -1.5504088,0.43937 -2.1297849,1.018495 -0.4954293,0.495214 -0.8201854,1.114878 -0.9016903,1.720508 -0.050903,0.378235 -0.019983,1.119558 0.05887,1.411465 0.1502302,0.556138 0.4654822,1.054628 0.969523,1.533051 0.3504152,0.332606 0.7939732,0.598941 1.1912299,0.715276 C 8.836535,20.08578 8.8468247,20.07822 8.969897,19.742257 9.0109,19.630328 9.2469945,19.0076 9.4945494,18.358423 l 0.4501,-1.180322 0.1476016,-0.02604 c 0.182919,-0.03227 2.678974,-0.03802 2.869004,-0.0066 0.08202,0.01356 0.138376,0.04362 0.138376,0.0738 0,0.07123 -0.514544,1.091336 -1.332721,2.642171 -0.881143,1.670186 -1.039186,1.985595 -1.009716,2.01511 0.01309,0.0131 0.46035,0.0345 0.993921,0.04754 0.991909,0.02425 1.200915,0.04415 1.200915,0.114353 0,0.0905 -0.745734,1.227514 -2.281229,3.47817 -1.4324412,2.099605 -1.7409117,2.496074 -1.7409117,2.237547 z"
   id="path11" /><path
   style="opacity:0.75;fill:#003039;fill-opacity:1;stroke-width:0.0369004"
   d="m 8.9298893,27.731179 c 0,-0.05043 0.1896395,-0.959567 0.4214207,-2.020295 0.2317815,-1.060728 0.4268922,-1.969259 0.4335793,-2.018957 0.016587,-0.123273 -0.060421,-0.135801 -1.0139712,-0.164962 -0.4300934,-0.01315 -0.8628684,-0.03349 -0.961722,-0.0452 l -0.1797337,-0.02128 0.023234,-0.152751 C 7.6654751,23.22372 7.7903659,22.831181 7.9302316,22.435424 8.0700972,22.039668 8.1768239,21.703284 8.167402,21.687905 8.15798,21.672525 7.9176372,21.543985 7.6333067,21.402259 6.9998816,21.086525 6.6445818,20.846376 6.2410913,20.461255 5.4822703,19.736979 4.9775521,18.875616 4.7924248,17.98893 4.699676,17.5447 4.6925219,16.366131 4.7797935,15.908014 4.9578282,14.973453 5.4450587,14.108754 6.2109038,13.368192 6.7368807,12.85958 7.2660215,12.538765 8.1054758,12.219525 L 8.459555,12.084871 8.6178734,11.628769 c 0.4749768,-1.368365 1.1951391,-2.3356482 2.3313956,-3.1314059 0.646483,-0.4527526 1.746965,-0.8932235 2.434123,-0.9742646 0.548454,-0.064683 1.904589,-0.021323 2.280815,0.072924 0.993941,0.2489899 1.968752,0.7884165 2.703551,1.496051 0.695767,0.6700461 1.1872,1.4297775 1.559528,2.4109545 0.179739,0.473655 0.09947,0.422617 0.773821,0.492014 1.048341,0.107884 1.751341,0.348267 2.508662,0.85781 0.353824,0.238061 1.000438,0.884668 1.244693,1.24468 0.409846,0.604078 0.747074,1.43733 0.820338,2.026961 0.05002,0.40252 0.04956,1.145558 -9.53e-4,1.569234 -0.16903,1.417619 -1.275764,2.911717 -2.672371,3.607718 -0.598371,0.298199 -1.243115,0.468173 -1.77974,0.469194 -0.287408,5.48e-4 -0.304883,-0.004 -0.325278,-0.0853 -0.01186,-0.04723 -0.01632,-0.388272 -0.0099,-0.757867 0.0094,-0.544327 0.02199,-0.678388 0.0662,-0.705659 0.03002,-0.01852 0.179465,-0.06129 0.332104,-0.09506 1.14729,-0.253784 1.996703,-0.868542 2.469029,-1.786946 0.257811,-0.501295 0.338358,-0.847971 0.339899,-1.462931 0.0022,-0.880674 -0.317004,-1.647082 -0.949417,-2.279495 -0.508424,-0.508424 -1.230788,-0.857087 -1.914089,-0.923873 -0.121771,-0.0119 -0.595018,-0.03826 -1.05166,-0.05858 -0.910215,-0.0405 -1.056423,-0.0574 -1.082416,-0.125138 -0.0096,-0.02496 -0.06205,-0.293165 -0.116593,-0.596004 -0.215889,-1.198601 -0.572121,-1.904918 -1.325561,-2.62825 -0.711662,-0.6832249 -1.517174,-1.0698003 -2.403472,-1.153457 -1.403007,-0.1324282 -2.489055,0.2220224 -3.433133,1.120463 -0.786815,0.748778 -1.097558,1.34029 -1.322027,2.516532 -0.1203908,0.630857 -0.156044,0.747477 -0.2360521,0.772117 -0.034263,0.01055 -0.3087885,0.0702 -0.6100572,0.132542 -0.8375531,0.173327 -1.1840981,0.324599 -1.7066723,0.744988 -0.506802,0.407702 -0.9438581,1.059427 -1.108483,1.652937 -0.094244,0.339769 -0.095666,1.354264 -0.00238,1.697416 0.2496587,0.918372 1.0299006,1.801624 1.9181693,2.171411 0.1537996,0.06403 0.3292096,0.116412 0.3898,0.116412 0.1246483,0 0.047045,0.175224 0.8251587,-1.863143 0.367152,-0.9618 0.3839933,-0.996796 0.4906866,-1.01962 0.143955,-0.03079 2.725248,-0.03851 2.905689,-0.0087 0.08196,0.01355 0.138376,0.04362 0.138376,0.07376 0,0.07159 -0.554427,1.167641 -1.527959,3.020633 -0.4585,0.872694 -0.833642,1.597094 -0.83365,1.609779 -3e-5,0.04758 0.236371,0.06652 0.910743,0.07297 0.725837,0.0069 1.24918,0.04054 1.291566,0.08292 0.01371,0.01371 -0.0046,0.08699 -0.04058,0.162838 -0.103467,0.217825 -1.984724,3.016073 -3.1068967,4.621308 -0.6844454,0.979078 -0.8629616,1.173843 -0.8629616,0.941511 z"
   id="path12" /><path
   style="opacity:0.75;fill:#003039;fill-opacity:1;stroke-width:0.0369004"
   d="m 8.9298893,27.727272 c 0,-0.05258 0.1568878,-0.812271 0.3486395,-1.688192 0.5071708,-2.316758 0.500069,-2.283079 0.500069,-2.371528 0,-0.10282 -0.092488,-0.115228 -1.0701107,-0.143567 -0.3957565,-0.01147 -0.8004374,-0.03045 -0.899291,-0.04218 L 7.6294624,23.460483 7.652523,23.307732 C 7.6652064,23.22372 7.7901922,22.831181 7.9302692,22.435424 8.0703462,22.039668 8.1740595,21.704477 8.160743,21.690555 8.1474266,21.676634 7.9070641,21.547676 7.6266041,21.403983 6.9573022,21.061068 6.6240665,20.831997 6.2042545,20.426241 5.5957609,19.838122 5.1549492,19.157669 4.9121196,18.431655 4.7537235,17.95808 4.7179264,17.673943 4.7192002,16.900369 c 0.00117,-0.712041 0.044869,-1.059737 0.190769,-1.517963 0.1190953,-0.374041 0.458807,-1.021751 0.7147512,-1.362777 0.283773,-0.378106 0.8783279,-0.957363 1.2045789,-1.173586 0.2893426,-0.191762 0.9482053,-0.513034 1.3335546,-0.650262 0.2693786,-0.09593 0.2875933,-0.109521 0.3400372,-0.253736 0.2672082,-0.734791 0.3457484,-0.930615 0.4836082,-1.205779 0.7231963,-1.4434766 2.0228727,-2.5319865 3.6272277,-3.0378898 0.599291,-0.1889754 0.910352,-0.2207717 1.925018,-0.1967736 0.772128,0.018262 0.903554,0.030577 1.199262,0.1123732 1.342272,0.3712886 2.487196,1.1455398 3.305651,2.2354359 0.32618,0.4343583 0.697014,1.1304033 0.900497,1.6902083 0.156821,0.431431 0.0811,0.38587 0.756952,0.455422 1.049183,0.107971 1.742668,0.344196 2.50211,0.852307 0.355741,0.238012 1.001556,0.883478 1.25086,1.250183 0.409572,0.602446 0.747388,1.43676 0.820723,2.026961 0.04979,0.400722 0.04987,1.188121 1.54e-4,1.584603 -0.176073,1.404207 -1.287241,2.898528 -2.673478,3.595348 -0.600512,0.301859 -1.29667,0.47838 -1.811034,0.459214 l -0.292287,-0.01089 -0.01003,-0.712174 c -0.0055,-0.391695 0.0051,-0.739177 0.02356,-0.772183 0.02108,-0.03767 0.186409,-0.09841 0.444047,-0.163154 0.225755,-0.05673 0.536031,-0.153423 0.689501,-0.214876 0.786151,-0.31479 1.496921,-1.012206 1.818261,-1.784101 0.184459,-0.443089 0.237208,-0.769885 0.21801,-1.35064 -0.0144,-0.435623 -0.03167,-0.546789 -0.132289,-0.851581 -0.27565,-0.834979 -0.879292,-1.525144 -1.687947,-1.929889 -0.501143,-0.25083 -0.794276,-0.30168 -2.069178,-0.358938 -0.489813,-0.022 -0.938152,-0.05267 -0.99631,-0.06816 -0.103974,-0.02769 -0.107381,-0.03715 -0.203972,-0.566239 -0.135315,-0.7412 -0.227194,-1.056493 -0.433142,-1.486367 -0.511317,-1.067272 -1.611028,-1.9911901 -2.719821,-2.28505 -0.605979,-0.1606005 -1.69292,-0.1523049 -2.302311,0.017572 -0.637472,0.1777046 -1.230741,0.5317839 -1.778147,1.061246 -0.723254,0.699548 -1.039985,1.321301 -1.264619,2.482489 -0.1173569,0.606644 -0.1546052,0.725891 -0.2344211,0.750472 -0.034263,0.01055 -0.310007,0.07045 -0.6127653,0.133105 -0.3027579,0.06266 -0.6853753,0.167481 -0.8502605,0.232946 -0.9425413,0.374217 -1.7292869,1.264025 -1.9789902,2.238236 -0.078337,0.305629 -0.067541,1.313065 0.017377,1.621462 0.2568852,0.932939 1.0226173,1.801955 1.9152159,2.173545 0.3006915,0.125178 0.4372697,0.14408 0.4994775,0.06912 0.021585,-0.02601 0.2726339,-0.660264 0.5578863,-1.409457 0.2852521,-0.749192 0.5361174,-1.379665 0.5574779,-1.401051 0.043413,-0.04346 2.7112915,-0.07847 2.9780415,-0.03907 0.101819,0.01504 0.156827,0.04194 0.156827,0.07671 0,0.07645 -0.428106,0.924538 -1.466161,2.904503 -0.497816,0.949527 -0.893862,1.737672 -0.880101,1.751433 0.01376,0.01376 0.479656,0.03657 1.035322,0.05068 1.034462,0.02627 1.163339,0.03968 1.163339,0.121004 0,0.0721 -0.306675,0.560927 -0.943788,1.504356 -2.1960363,3.251862 -2.8655806,4.204353 -2.9885884,4.251555 -0.086911,0.03335 -0.089764,0.03103 -0.089764,-0.073 z"
   id="path13" /><path
   style="opacity:0.75;fill:#003039;fill-opacity:1;stroke-width:0.0369004"
   d="m 13.228782,27.318862 c -0.30098,-0.158393 -0.424354,-0.368027 -0.424354,-0.721051 0,-0.332695 2.24842,-9.022312 2.387141,-9.225741 0.302195,-0.443157 1.061689,-0.416937 1.347963,0.04654 0.203752,0.32987 0.258654,0.06088 -1.01988,4.996766 -0.900082,3.47484 -1.18722,4.532775 -1.260176,4.64302 -0.183542,0.277351 -0.734189,0.416507 -1.030694,0.26047 z"
   id="path14" /><path
   style="opacity:0.75;fill:#003039;fill-opacity:1;stroke-width:0.0369004"
   d="m 13.307648,27.326022 c -0.160944,-0.05737 -0.33628,-0.209961 -0.415456,-0.36155 -0.08558,-0.163859 -0.06861,-0.45403 0.05772,-0.986612 0.526371,-2.219132 1.966357,-7.73957 2.20391,-8.449081 0.05374,-0.160503 0.100355,-0.224749 0.227586,-0.313653 0.146652,-0.102474 0.185373,-0.111805 0.46395,-0.111805 0.269197,0 0.321331,0.01151 0.456036,0.10065 0.08365,0.05536 0.197207,0.177632 0.252346,0.271721 0.09839,0.167883 0.09944,0.176283 0.05679,0.450673 -0.0667,0.429018 -0.212857,1.025511 -0.951151,3.881753 -0.761941,2.947727 -1.181798,4.525741 -1.323483,4.974254 -0.111717,0.353646 -0.212293,0.451901 -0.55357,0.540792 -0.261444,0.0681 -0.291164,0.06828 -0.474673,0.0029 z"
   id="path15" /><path
   style="opacity:0.75;fill:#003039;fill-opacity:1;stroke-width:0.0369004"
   d="m 13.399382,27.340302 c -0.208129,-0.04447 -0.419142,-0.2194 -0.500005,-0.414515 -0.06632,-0.160028 -0.06875,-0.201048 -0.02833,-0.478455 0.09878,-0.67789 2.064656,-8.311065 2.301953,-8.938107 0.105326,-0.278317 0.295657,-0.387454 0.675706,-0.387454 0.306178,0 0.421969,0.04192 0.576969,0.208883 0.203462,0.219166 0.221851,0.299104 0.157109,0.682954 -0.11415,0.676787 -1.961294,7.842919 -2.247852,8.720709 -0.09226,0.282627 -0.185651,0.429318 -0.319137,0.5013 -0.1268,0.06838 -0.494265,0.130782 -0.616415,0.104685 z"
   id="path16" /><path
   style="opacity:0.75;fill:#003039;fill-opacity:1;stroke-width:0.0369004"
   d="m 13.265683,27.294101 c -0.163982,-0.07528 -0.34652,-0.279455 -0.395248,-0.442094 -0.06075,-0.202763 -0.03747,-0.331434 0.345161,-1.907358 0.387469,-1.595875 1.558599,-6.081581 1.827298,-6.998989 0.209883,-0.716596 0.312125,-0.823555 0.787364,-0.823694 0.336734,-9.8e-5 0.484836,0.06527 0.653984,0.288652 0.198263,0.261831 0.189544,0.331827 -0.269673,2.165028 -0.436329,1.741831 -1.294779,5.050336 -1.632443,6.291513 -0.308889,1.135403 -0.363199,1.258254 -0.609643,1.379032 -0.182929,0.08965 -0.56018,0.115222 -0.7068,0.04791 z"
   id="path17" /><path
   style="opacity:0.75;fill:#003039;fill-opacity:1;stroke-width:0.0369004"
   d="m 13.265683,27.291495 c -0.232725,-0.102569 -0.424355,-0.376804 -0.424355,-0.607281 0,-0.304132 0.614753,-2.789335 1.82687,-7.385321 0.264851,-1.004237 0.495515,-1.778846 0.565276,-1.898292 0.119756,-0.205051 0.276821,-0.27883 0.593592,-0.27883 0.336794,0 0.483183,0.06508 0.658174,0.29261 0.199867,0.259874 0.192692,0.313725 -0.307607,2.308866 -0.788544,3.144629 -1.626471,6.327445 -1.829118,6.947794 -0.06156,0.188446 -0.153119,0.391586 -0.203469,0.451423 -0.158734,0.188645 -0.629529,0.279141 -0.879363,0.169031 z"
   id="path18" /><path
   style="opacity:0.75;fill:#003039;fill-opacity:1;stroke-width:0.0369004"
   d="m 13.195758,27.252078 c -0.3193,-0.218699 -0.388183,-0.39913 -0.320692,-0.840008 0.09628,-0.628924 1.809808,-7.304094 2.201956,-8.577864 0.1924,-0.624949 0.314291,-0.730139 0.819447,-0.707173 0.25131,0.01142 0.308626,0.02733 0.428735,0.118939 0.307686,0.234686 0.339569,0.429163 0.184595,1.125969 -0.184565,0.82985 -1.209259,4.837397 -1.770216,6.923262 -0.340504,1.26613 -0.4614,1.650819 -0.562266,1.789112 -0.101158,0.138696 -0.319508,0.230444 -0.593404,0.249341 -0.219264,0.01513 -0.259227,0.0067 -0.388155,-0.08158 z"
   id="path19" /><path
   style="opacity:0.75;fill:#003039;fill-opacity:1;stroke-width:0.0369004"
   d="m 13.202598,27.262398 c -0.171622,-0.107004 -0.316388,-0.300411 -0.347001,-0.463594 -0.01293,-0.06892 -0.003,-0.252568 0.02211,-0.408097 0.04386,-0.271864 0.736113,-3.097098 1.086688,-4.434987 0.09307,-0.355166 0.253699,-0.969558 0.356962,-1.365314 0.313022,-1.199658 0.733677,-2.731562 0.808659,-2.9449 0.146709,-0.417413 0.286811,-0.523389 0.692205,-0.523597 0.322082,-1.65e-4 0.467762,0.05448 0.626165,0.234895 0.14991,0.170738 0.172515,0.263235 0.142708,0.583942 -0.04267,0.459106 -1.943725,7.865103 -2.252356,8.774566 -0.05155,0.151908 -0.124189,0.31796 -0.161418,0.369003 -0.101772,0.139539 -0.31977,0.230628 -0.593404,0.247953 -0.207845,0.01316 -0.264918,0.0027 -0.381315,-0.06987 z"
   id="path20" /><path
   style="opacity:0.75;fill:#003039;fill-opacity:1;stroke-width:0.0369004"
   d="m 13.183164,27.250877 c -0.197867,-0.121242 -0.341836,-0.359853 -0.341836,-0.566554 0,-0.08482 0.04042,-0.340737 0.08982,-0.568713 0.275747,-1.272511 1.592861,-6.390668 2.085916,-8.105635 0.214619,-0.746499 0.341901,-0.888204 0.797798,-0.888204 0.308869,0 0.434133,0.03827 0.58142,0.177625 0.231402,0.21894 0.260437,0.43982 0.133136,1.012803 -0.176401,0.793979 -1.144965,4.586802 -1.754964,6.872303 -0.334931,1.254899 -0.479352,1.719638 -0.58259,1.874753 -0.108927,0.163662 -0.324848,0.260693 -0.612529,0.27526 -0.20598,0.01043 -0.261929,-0.0014 -0.396172,-0.08364 z"
   id="path21" /><path
   style="opacity:0.75;fill:#003039;fill-opacity:1;stroke-width:0.0369004"
   d="m 17.730627,24.402909 c -0.463532,-0.1041 -0.774215,-0.445386 -0.766519,-0.842023 0.0021,-0.108915 0.30802,-1.371222 0.746691,-3.081181 0.810778,-3.160445 0.808038,-3.152248 1.109901,-3.320485 0.30822,-0.17178 0.752089,-0.09571 0.999811,0.171349 0.172922,0.18642 0.227552,0.336513 0.205192,0.563758 -0.02189,0.222485 -1.475334,5.970489 -1.543143,6.102745 -0.08625,0.168227 -0.272427,0.32295 -0.453196,0.376633 -0.100639,0.02989 -0.19242,0.05241 -0.203958,0.05006 -0.01154,-0.0024 -0.05419,-0.01174 -0.09478,-0.02085 z"
   id="path22" /><path
   style="opacity:0.75;fill:#003039;fill-opacity:1;stroke-width:0.0369004"
   d="m 17.509225,24.303051 c -0.294043,-0.139245 -0.535055,-0.449026 -0.535055,-0.687723 0,-0.208149 1.209273,-4.992433 1.461707,-5.782999 0.149741,-0.468954 0.221184,-0.580027 0.435761,-0.677483 0.3794,-0.172315 0.88151,0.0084 1.08066,0.388925 0.0904,0.172733 0.04592,0.448046 -0.296205,1.833243 -0.367406,1.487576 -1.030235,4.075865 -1.133163,4.424902 -0.0792,0.268562 -0.221387,0.436743 -0.449789,0.532007 -0.190975,0.07965 -0.348762,0.07102 -0.563916,-0.03087 z"
   id="path23" /><path
   style="opacity:0.75;fill:#003039;fill-opacity:1;stroke-width:0.0369004"
   d="m 17.675038,24.357818 c -0.29206,-0.09248 -0.550626,-0.321925 -0.64692,-0.574068 -0.05938,-0.155471 -0.05841,-0.161677 0.183956,-1.185887 0.460361,-1.945411 1.200271,-4.742427 1.341872,-5.072556 0.187086,-0.436175 0.704279,-0.556413 1.130698,-0.262868 0.313932,0.216109 0.348631,0.440965 0.182556,1.182982 -0.329987,1.474365 -1.331117,5.331546 -1.439813,5.547349 -0.134297,0.266633 -0.501092,0.444606 -0.752349,0.365048 z"
   id="path24" /><path
   style="opacity:0.75;fill:#003039;fill-opacity:1;stroke-width:0.0369004"
   d="m 17.693727,24.355179 c -0.27636,-0.06363 -0.610737,-0.366373 -0.679426,-0.615143 -0.04063,-0.147145 0.04463,-0.548688 0.512028,-2.411623 0.678096,-2.702697 0.968832,-3.730009 1.117553,-3.948854 0.260084,-0.382717 0.960174,-0.335453 1.237452,0.08354 0.08435,0.127461 0.0905,0.16381 0.07187,0.424858 -0.0112,0.15701 -0.105224,0.642484 -0.208936,1.078831 -0.192176,0.808545 -0.983897,3.918944 -1.108329,4.354243 -0.03771,0.131919 -0.09537,0.335259 -0.128144,0.451865 -0.116168,0.41338 -0.464754,0.662713 -0.814071,0.582281 z"
   id="path25" /><path
   style="opacity:0.75;fill:#003039;fill-opacity:1;stroke-width:0.0369004"
   d="m 17.673122,24.356154 c -0.158854,-0.0482 -0.268336,-0.115403 -0.416016,-0.255351 -0.179667,-0.17026 -0.255046,-0.314454 -0.252715,-0.483419 0.0031,-0.225007 0.579918,-2.605979 1.115687,-4.605338 0.397767,-1.484373 0.481783,-1.690163 0.74561,-1.826301 0.310507,-0.160226 0.808846,-0.0287 1.009374,0.266403 0.176053,0.259086 0.14729,0.425405 -0.559531,3.235406 -0.548608,2.181016 -0.809599,3.154203 -0.885002,3.300017 -0.07492,0.144882 -0.291742,0.320556 -0.449816,0.364454 -0.157499,0.04374 -0.17623,0.04399 -0.307591,0.0041 z"
   id="path26" /><path
   style="opacity:0.75;fill:#003039;fill-opacity:1;stroke-width:0.0369004"
   d="m 17.564576,24.314514 c -0.188091,-0.08497 -0.421361,-0.295229 -0.505458,-0.455609 -0.03111,-0.05934 -0.05573,-0.16727 -0.05471,-0.239852 0.006,-0.427834 1.333758,-5.59341 1.570751,-6.11107 0.136291,-0.297699 0.40178,-0.435469 0.744265,-0.386222 0.19985,0.02874 0.483892,0.199668 0.57205,0.344249 0.09937,0.162971 0.09237,0.457211 -0.0233,0.979732 -0.259697,1.173108 -1.311182,5.251285 -1.413712,5.483066 -0.08222,0.18586 -0.291151,0.372509 -0.47375,0.423217 -0.188695,0.0524 -0.224174,0.0492 -0.416137,-0.03751 z"
   id="path27" /><path
   style="opacity:0.75;fill:#003039;fill-opacity:1;stroke-width:0.0369004"
   d="m 17.546125,24.302943 c -0.225133,-0.106744 -0.450227,-0.33413 -0.513789,-0.519021 -0.06678,-0.194256 -0.02495,-0.398512 0.552022,-2.695361 0.532455,-2.119639 0.854086,-3.281955 0.9908,-3.580578 0.187091,-0.408661 0.633472,-0.517347 1.071204,-0.260819 0.341759,0.200284 0.3869,0.436952 0.225624,1.182891 -0.268776,1.243142 -1.330886,5.344714 -1.436265,5.546453 -0.11153,0.213514 -0.413743,0.415162 -0.620883,0.414275 -0.04632,-1.98e-4 -0.167237,-0.03973 -0.268713,-0.08784 z"
   id="path28" /><path
   style="opacity:0.75;fill:#003039;fill-opacity:1;stroke-width:0.0369004"
   d="m 17.546125,24.304126 c -0.200276,-0.09368 -0.397673,-0.274201 -0.487418,-0.44576 -0.110091,-0.210454 -0.08259,-0.360672 0.471607,-2.576469 0.633801,-2.534045 0.959269,-3.675247 1.112479,-3.900721 0.193852,-0.285288 0.599569,-0.354153 0.955815,-0.162237 0.408916,0.220291 0.445268,0.438784 0.231951,1.394122 -0.209598,0.938678 -1.105554,4.456922 -1.29058,5.067853 -0.104893,0.346344 -0.246434,0.536699 -0.476932,0.641411 -0.19557,0.08885 -0.295589,0.08532 -0.516922,-0.0182 z"
   id="path29" /><path
   style="opacity:0.75;fill:#003039;fill-opacity:1;stroke-width:0.0369004"
   d="m 17.545352,24.304146 c -0.206098,-0.09597 -0.39538,-0.268037 -0.484549,-0.440471 -0.114363,-0.221154 -0.09405,-0.331995 0.484828,-2.645963 0.638257,-2.551308 0.939784,-3.604973 1.098442,-3.838436 0.193833,-0.285223 0.595752,-0.354538 0.948984,-0.163661 0.385992,0.208579 0.44332,0.437836 0.293101,1.172123 -0.164514,0.804162 -1.26976,5.11426 -1.402294,5.46849 -0.08055,0.215274 -0.248701,0.394727 -0.447623,0.477695 -0.185011,0.07717 -0.272652,0.07185 -0.490889,-0.02978 z"
   id="path30" /><path
   style="opacity:0.75;fill:#003039;fill-opacity:1;stroke-width:0.0369004"
   d="m 13.183164,27.250877 c -0.08961,-0.05491 -0.198089,-0.167058 -0.254199,-0.262801 -0.08764,-0.149553 -0.09572,-0.192776 -0.07723,-0.413344 0.02341,-0.279203 0.26733,-1.317667 0.807594,-3.438201 0.61469,-2.412661 1.197612,-4.605975 1.417123,-5.332103 0.169463,-0.560573 0.305875,-0.682299 0.764861,-0.682519 0.327791,-1.57e-4 0.438774,0.04322 0.610238,0.238506 0.26374,0.300384 0.265329,0.290823 -0.637819,3.838231 -1.027022,4.033965 -1.467626,5.62913 -1.616622,5.852821 -0.113982,0.171125 -0.32602,0.268274 -0.617777,0.283048 -0.20598,0.01043 -0.261929,-0.0014 -0.396172,-0.08364 z"
   id="path31" /><path
   style="opacity:0.75;fill:#003039;fill-opacity:1;stroke-width:0.0369004"
   d="m 13.183164,27.250877 c -0.198547,-0.121658 -0.341836,-0.359773 -0.341836,-0.568056 0,-0.243394 0.116122,-0.756412 0.664886,-2.937434 0.651001,-2.587353 1.336333,-5.18403 1.567976,-5.940959 0.171473,-0.560312 0.308581,-0.682299 0.767126,-0.682519 0.314162,-1.5e-4 0.428572,0.04074 0.584065,0.208745 0.284121,0.306985 0.277584,0.359296 -0.361275,2.890748 -0.38631,1.530739 -1.191441,4.628128 -1.419591,5.461255 -0.235259,0.859086 -0.357987,1.234569 -0.447402,1.36881 -0.113982,0.171125 -0.32602,0.268274 -0.617777,0.283048 -0.20598,0.01043 -0.261929,-0.0014 -0.396172,-0.08364 z"
   id="path32" /><path
   style="opacity:0.75;fill:#003039;fill-opacity:1;stroke-width:0.0369004"
   d="m 13.284133,27.312904 c -0.255797,-0.115912 -0.442805,-0.382012 -0.442805,-0.630083 0,-0.08564 0.03503,-0.324959 0.07784,-0.531814 0.230693,-1.114613 1.840794,-7.346775 2.170668,-8.40193 0.157047,-0.502341 0.306361,-0.626955 0.751478,-0.627168 0.314162,-1.5e-4 0.428572,0.04074 0.584065,0.208745 0.286832,0.309914 0.281071,0.353908 -0.397886,3.03835 -0.213024,0.842251 -0.476198,1.871771 -0.58483,2.287823 -0.108632,0.416051 -0.266436,1.02214 -0.350675,1.346863 -0.293026,1.129557 -0.700371,2.59744 -0.780052,2.810956 -0.140244,0.375798 -0.373006,0.531098 -0.787953,0.525728 -0.101476,-0.0013 -0.209409,-0.01367 -0.239852,-0.02747 z"
   id="path33" /><path
   style="opacity:0.75;fill:#003039;fill-opacity:1;stroke-width:0.0369004"
   d="m 13.209756,27.275493 c -0.07072,-0.03722 -0.182542,-0.147035 -0.248501,-0.244023 -0.145718,-0.214266 -0.152335,-0.347243 -0.04388,-0.881762 0.155294,-0.765343 1.436004,-5.770996 1.993545,-7.791774 0.302454,-1.096225 0.40735,-1.236163 0.926624,-1.236163 0.34122,0 0.446166,0.04364 0.634763,0.263977 0.230982,0.269851 0.209375,0.41556 -0.442374,2.983256 -0.576655,2.27185 -1.286797,4.980822 -1.51058,5.762395 -0.204197,0.713171 -0.288722,0.923955 -0.417047,1.040006 -0.189496,0.171372 -0.660404,0.226288 -0.892554,0.104088 z"
   id="path34" /><path
   style="opacity:0.75;fill:#0084b0;fill-opacity:0.937255;stroke-width:0.0369004"
   d="m 17.522784,24.29867 c -0.330972,-0.172391 -0.523068,-0.435469 -0.517581,-0.708834 0.0038,-0.191742 0.164452,-0.89491 0.583933,-2.556626 0.609426,-2.414162 0.890734,-3.395802 1.044328,-3.644248 0.207114,-0.33502 0.72301,-0.383392 1.091486,-0.102342 0.25849,0.19716 0.29512,0.445864 0.162365,1.102417 -0.166095,0.821442 -1.301101,5.228201 -1.419706,5.512132 -0.07688,0.184038 -0.223323,0.335959 -0.404878,0.420017 -0.1959,0.0907 -0.333613,0.08496 -0.539947,-0.02252 z"
   id="path42" /><path
   style="opacity:0.75;fill:#0084b0;fill-opacity:0.937255;stroke-width:0.0369004"
   d="m 13.210332,27.278022 c -0.07103,-0.03862 -0.183118,-0.149564 -0.249077,-0.246552 -0.203804,-0.299676 -0.201918,-0.311678 0.475745,-3.02778 0.801432,-3.21217 1.626813,-6.27769 1.760389,-6.538196 0.138242,-0.269605 0.231219,-0.323658 0.581986,-0.338347 0.378133,-0.01583 0.483569,0.02213 0.679456,0.244673 0.13505,0.153425 0.146335,0.182967 0.146335,0.383079 0,0.119259 -0.04034,0.40336 -0.08965,0.631337 -0.248084,1.147074 -1.866492,7.387754 -2.127612,8.204204 -0.184116,0.57568 -0.333067,0.716585 -0.785022,0.742619 -0.2094,0.01206 -0.28988,7.79e-4 -0.392553,-0.05504 z"
   id="path43" /><path
   style="opacity:0.75;fill:#0084b0;fill-opacity:0.937255;stroke-width:0.0369004"
   d="m 17.527675,24.28251 c -0.198349,-0.105159 -0.391668,-0.312878 -0.461594,-0.495977 -0.06088,-0.159412 -0.06021,-0.180455 0.01788,-0.564619 0.194659,-0.957527 1.118272,-4.539166 1.373242,-5.325235 0.125958,-0.388326 0.171577,-0.482272 0.288525,-0.594184 0.219939,-0.210466 0.501008,-0.237829 0.814033,-0.07925 0.28728,0.145538 0.366434,0.281263 0.366434,0.62832 0,0.374808 -0.266523,1.527773 -0.982849,4.251754 -0.432921,1.646271 -0.49029,1.828375 -0.625919,1.986827 -0.221579,0.258865 -0.524945,0.332756 -0.789756,0.192362 z"
   id="path44" /><path
   style="opacity:0.75;fill:#003c50;fill-opacity:0.93725502;stroke-width:0.0369004"
   d="m 8.9298893,27.727267 c 0,-0.05259 0.183228,-0.934511 0.4071734,-1.959832 0.2239454,-1.02532 0.4169067,-1.935229 0.4288026,-2.02202 l 0.021629,-0.1578 -0.2166255,-0.02154 c -0.1191439,-0.01184 -0.523821,-0.03087 -0.8992823,-0.04228 -0.3754612,-0.01141 -0.763537,-0.03033 -0.8623906,-0.04203 l -0.1797337,-0.02128 0.022091,-0.152751 C 7.6637035,23.22372 7.7819454,22.849748 7.9143131,22.476685 8.0466807,22.103622 8.1548838,21.771519 8.1547643,21.738678 8.1546208,21.699254 7.9759628,21.586694 7.628934,21.407389 7.3398469,21.258021 6.9877293,21.058759 6.8464505,20.964584 6.501134,20.734401 5.9131193,20.165378 5.6280248,19.785512 5.202166,19.218087 4.856479,18.44424 4.7595344,17.841328 4.7140361,17.558368 4.7024863,16.389117 4.7423573,16.102397 4.8419541,15.386179 5.1669218,14.626624 5.6454568,13.99156 5.9138559,13.635367 6.5128343,13.05578 6.8292993,12.846043 7.1257677,12.649558 7.7877487,12.326158 8.16279,12.194586 8.4829985,12.082251 8.4257247,12.165676 8.6879007,11.429712 9.3259919,9.6385042 10.748387,8.2865762 12.613727,7.6983762 c 0.598176,-0.1886237 0.91008,-0.2204895 1.925018,-0.1966706 0.702369,0.016483 0.919751,0.034336 1.143912,0.093943 1.696131,0.4510225 3.111327,1.5814846 3.887642,3.1054584 0.129231,0.25369 0.297118,0.6243 0.373084,0.823579 0.09887,0.259354 0.16062,0.371262 0.217294,0.393775 0.04355,0.0173 0.278437,0.0508 0.52198,0.07445 1.384047,0.134387 2.292764,0.540774 3.175302,1.420025 0.609004,0.606737 0.979693,1.204934 1.251421,2.019474 0.151279,0.453477 0.204273,0.839094 0.204273,1.486413 0,0.62565 -0.05115,1.016447 -0.190257,1.453515 -0.594125,1.866753 -2.466835,3.365911 -4.219337,3.377703 l -0.405904,0.0027 -0.01,-0.7207 c -0.0075,-0.540248 0.0018,-0.735154 0.0369,-0.77843 0.02578,-0.03175 0.254443,-0.110216 0.508133,-0.174366 0.762151,-0.192721 1.298339,-0.491563 1.773482,-0.988442 0.424714,-0.444143 0.673414,-0.892581 0.809246,-1.459174 0.08839,-0.3687 0.09875,-1.033303 0.02178,-1.396396 -0.211204,-0.996223 -0.892287,-1.843205 -1.838873,-2.28679 -0.437837,-0.205178 -0.68304,-0.253603 -1.503638,-0.296953 -1.039579,-0.05492 -1.554026,-0.0982 -1.586673,-0.133503 -0.01573,-0.01701 -0.07234,-0.273297 -0.125801,-0.569525 -0.133575,-0.740192 -0.216728,-1.023643 -0.428087,-1.459265 -0.57252,-1.17999 -1.752932,-2.1016937 -3.00038,-2.3427932 -0.376636,-0.072794 -1.383894,-0.054018 -1.802038,0.033591 -0.69861,0.1463719 -1.369275,0.5131868 -1.951765,1.0675022 -0.756645,0.720046 -1.080759,1.349105 -1.310427,2.543352 -0.1464597,0.761571 -0.1242508,0.728432 -0.5379017,0.802643 -1.1066606,0.198542 -1.6399514,0.43685 -2.2114147,0.988198 -0.6233613,0.60142 -0.9394067,1.270662 -0.9816994,2.0788 -0.055681,1.063962 0.2182763,1.795776 0.9472569,2.530378 0.3648269,0.36764 0.6790043,0.582723 1.1026631,0.754871 0.285642,0.116066 0.4109007,0.108857 0.475897,-0.02739 0.026257,-0.05504 0.2716148,-0.685516 0.5452395,-1.401055 0.2736247,-0.715539 0.5146059,-1.318107 0.5355144,-1.33904 0.041819,-0.04187 2.8064719,-0.07727 3.0141179,-0.0386 0.07193,0.0134 0.119926,0.04444 0.119926,0.07756 0,0.06952 -0.527016,1.122967 -1.24447,2.487556 -0.926006,1.761251 -1.121903,2.147772 -1.099759,2.169917 0.01169,0.01169 0.475571,0.03297 1.030847,0.04728 0.555276,0.01431 1.044736,0.03718 1.087687,0.05081 0.04295,0.01363 0.07809,0.04876 0.07809,0.07805 0,0.07348 -0.268054,0.496891 -1.026047,1.620726 -2.0519361,3.042294 -2.7835118,4.08156 -2.9063299,4.128689 -0.086912,0.03335 -0.089764,0.03103 -0.089764,-0.07301 z"
   id="path45" /><path
   style="opacity:0.75;fill:#003c50;fill-opacity:0.937255;stroke-width:0.0369004"
   d="m 13.202611,27.251371 c -0.05498,-0.03112 -0.150464,-0.129968 -0.212177,-0.219665 -0.207955,-0.302252 -0.191767,-0.400733 0.552356,-3.360119 0.829205,-3.297757 1.550192,-5.969374 1.677266,-6.215109 0.02973,-0.05748 0.107469,-0.149467 0.172765,-0.204409 0.114324,-0.0962 0.132224,-0.09943 0.483568,-0.08742 l 0.364849,0.01247 0.163514,0.173129 c 0.289325,0.306338 0.276412,0.390947 -0.559309,3.664509 -0.580167,2.272543 -1.132741,4.369123 -1.362621,5.170064 -0.27554,0.960032 -0.378694,1.089938 -0.88203,1.110779 -0.218371,0.009 -0.324974,-0.0028 -0.398181,-0.04423 z"
   id="path46" /><path
   style="opacity:0.75;fill:#005977;fill-opacity:0.93725502;stroke-width:0.0369004"
   d="m 17.704765,24.316492 c -0.314403,-0.05489 -0.618014,-0.379406 -0.647141,-0.691698 -0.01757,-0.188405 0.11622,-0.810881 0.48961,-2.277931 0.560489,-2.202167 0.912563,-3.478822 1.04385,-3.785103 0.20053,-0.467817 0.759626,-0.560671 1.144501,-0.190077 0.190759,0.183681 0.212524,0.352602 0.117243,0.909938 -0.150577,0.880783 -1.235657,5.136264 -1.425627,5.591041 -0.131231,0.314163 -0.426416,0.49551 -0.722436,0.44383 z"
   id="path47" /><path
   style="opacity:0.75;fill:#003548;fill-opacity:0.93725502;stroke-width:0.0369004"
   d="m 8.9298956,27.776753 c 2.91e-5,-0.04235 0.1644513,-0.830611 0.4778306,-2.290773 0.2039793,-0.950423 0.3708716,-1.766767 0.3708716,-1.814099 0,-0.106716 -0.064612,-0.11815 -0.8302583,-0.146926 -0.3044281,-0.01144 -0.724084,-0.0308 -0.9325688,-0.04303 l -0.3790633,-0.02222 0.02511,-0.133911 c 0.01381,-0.07365 0.1304222,-0.448931 0.259137,-0.833955 0.1287149,-0.385024 0.2339623,-0.725429 0.2338832,-0.756457 -8.81e-5,-0.03458 -0.1964287,-0.16203 -0.50738,-0.329344 C 7.3684777,21.255927 7.0250314,21.059143 6.8842437,20.968739 6.5254261,20.738333 5.8037167,20.020324 5.531617,19.623048 5.1120906,19.010523 4.816975,18.266207 4.7593411,17.675277 c -0.046299,-0.474715 -0.044717,-1.259807 0.00325,-1.611721 0.091904,-0.674285 0.4834443,-1.55593 0.9475653,-2.133667 0.2409414,-0.299923 0.8727046,-0.895106 1.1390396,-1.073086 0.3079354,-0.20578 0.8646215,-0.480852 1.3302868,-0.657325 0.1453936,-0.0551 0.2757454,-0.128336 0.2896708,-0.162745 0.013925,-0.03441 0.1069845,-0.276872 0.2067986,-0.538805 0.5967841,-1.5660901 1.5345018,-2.6490301 2.9071838,-3.3574144 1.059817,-0.5469276 1.75855,-0.6822075 3.181651,-0.615991 0.635681,0.029578 0.803123,0.049968 1.083923,0.1319949 1.145948,0.3347502 2.231717,1.0442452 2.989003,1.9531608 0.416346,0.4997097 0.725418,1.0366327 1.070797,1.8602027 0.121481,0.289675 0.199356,0.428033 0.253367,0.450147 0.04289,0.01756 0.34366,0.06582 0.668383,0.107242 1.37399,0.175271 2.142508,0.533471 3.008288,1.402138 0.599627,0.601627 0.910922,1.074325 1.182685,1.795895 0.212515,0.56426 0.268439,0.91598 0.269268,1.693516 9.81e-4,0.92063 -0.103845,1.414167 -0.446742,2.103321 -0.51806,1.041198 -1.523402,1.992151 -2.555033,2.416805 -0.447659,0.184271 -0.8236,0.26587 -1.320089,0.286528 l -0.45203,0.01881 -0.0031,-0.32786 c -0.0017,-0.180323 -0.0099,-0.394958 -0.01822,-0.476966 -0.0083,-0.08201 -0.0027,-0.272796 0.01234,-0.423973 l 0.02744,-0.274869 0.505404,-0.152172 c 0.84987,-0.255886 1.300167,-0.510224 1.766233,-0.997611 0.384,-0.401566 0.612535,-0.782298 0.772166,-1.286402 0.113483,-0.358367 0.145427,-1.171463 0.06187,-1.574893 -0.198777,-0.959787 -0.860521,-1.795334 -1.790708,-2.261026 -0.424996,-0.212771 -0.717269,-0.270071 -1.695709,-0.332444 -1.396279,-0.08901 -1.409647,-0.09068 -1.447345,-0.181262 -0.01795,-0.04313 -0.08404,-0.339894 -0.146867,-0.659473 -0.133726,-0.680229 -0.229996,-0.981184 -0.448,-1.400508 -0.54453,-1.047387 -1.63161,-1.9248339 -2.728028,-2.2019535 -0.556046,-0.1405405 -1.68228,-0.1242388 -2.247544,0.032532 -0.385131,0.1068128 -0.959711,0.3946796 -1.309963,0.6562972 -0.32547,0.2431073 -0.859033,0.7785453 -1.043625,1.0472933 -0.319171,0.464681 -0.517302,0.993776 -0.709205,1.893887 -0.0649,0.304428 -0.1329373,0.58144 -0.1511845,0.615583 -0.040222,0.07526 -0.047531,0.07759 -0.620593,0.19774 -0.5710635,0.119734 -0.9896381,0.258945 -1.2969547,0.431347 -0.5371623,0.301342 -1.1297021,0.937464 -1.3841513,1.485958 -0.2135874,0.460411 -0.2531775,0.6704 -0.2539291,1.346863 -5.844e-4,0.525881 0.010864,0.649086 0.084005,0.904059 0.193057,0.673002 0.7303393,1.397824 1.3544476,1.827222 0.2388158,0.16431 0.6914701,0.371733 0.8607815,0.394442 0.1244366,0.01669 0.153627,0.0068 0.2007307,-0.06786 0.030316,-0.04806 0.230652,-0.544029 0.4451919,-1.102147 0.5817848,-1.513493 0.6334169,-1.633927 0.7131339,-1.663416 0.107574,-0.03979 2.660117,-0.07848 2.871462,-0.04352 0.154826,0.02561 0.182443,0.04207 0.171701,0.102343 -0.01713,0.09612 -0.652622,1.36206 -1.388988,2.76695 -0.784531,1.496781 -0.950444,1.829809 -0.924515,1.855738 0.01181,0.01181 0.448732,0.03578 0.970937,0.05326 1.062742,0.03558 1.213598,0.05489 1.196279,0.153191 -0.01724,0.09784 -0.495056,0.837049 -1.488829,2.303297 -1.9195651,2.832195 -2.3307695,3.402043 -2.4549274,3.402043 -0.026646,0 -0.048444,-0.0042 -0.048441,-0.0092 z"
   id="path48" /></svg>
