<?xml version="1.0" encoding="UTF-8" standalone="no"?>
<svg
   fill="hsl(200, 100%, 20%)"
   viewBox="0 0 448 512"
   version="1.1"
   id="svg1"
   sodipodi:docname="snowflake.svg"
   inkscape:version="1.3-beta (cedbd6c6ff, 2023-05-28)"
   xmlns:inkscape="http://www.inkscape.org/namespaces/inkscape"
   xmlns:sodipodi="http://sodipodi.sourceforge.net/DTD/sodipodi-0.dtd"
   xmlns="http://www.w3.org/2000/svg"
   xmlns:svg="http://www.w3.org/2000/svg">
  <defs
     id="defs1" />
  <sodipodi:namedview
     id="namedview1"
     pagecolor="#ffffff"
     bordercolor="#000000"
     borderopacity="0.25"
     inkscape:showpageshadow="2"
     inkscape:pageopacity="0.0"
     inkscape:pagecheckerboard="0"
     inkscape:deskcolor="#d1d1d1"
     showgrid="false"
     inkscape:zoom="1.5878906"
     inkscape:cx="223.88192"
     inkscape:cy="256"
     inkscape:window-width="1920"
     inkscape:window-height="1009"
     inkscape:window-x="-8"
     inkscape:window-y="-8"
     inkscape:window-maximized="1"
     inkscape:current-layer="svg1" />
  <!--! Font Awesome Pro 6.2.1 by @fontawesome - https://fontawesome.com License - https://fontawesome.com/license (Commercial License) Copyright 2022 Fonticons, Inc. -->
  <path
     d="M224 0c17.7 0 32 14.3 32 32V62.1l15-15c9.4-9.4 24.6-9.4 33.9 0s9.4 24.6 0 33.9l-49 49v70.3l61.4-35.8 17.7-66.1c3.4-12.8 16.6-20.4 29.4-17s20.4 16.6 17 29.4l-5.2 19.3 23.6-13.8c15.3-8.9 34.9-3.7 43.8 11.5s3.7 34.9-11.5 43.8l-25.3 14.8 21.7 5.8c12.8 3.4 20.4 16.6 17 29.4s-16.6 20.4-29.4 17l-67.7-18.1L287.5 256l60.9 35.5 67.7-18.1c12.8-3.4 26 4.2 29.4 17s-4.2 26-17 29.4l-21.7 5.8 25.3 14.8c15.3 8.9 20.4 28.5 11.5 43.8s-28.5 20.4-43.8 11.5l-23.6-13.8 5.2 19.3c3.4 12.8-4.2 26-17 29.4s-26-4.2-29.4-17l-17.7-66.1L256 311.7v70.3l49 49c9.4 9.4 9.4 24.6 0 33.9s-24.6 9.4-33.9 0l-15-15V480c0 17.7-14.3 32-32 32s-32-14.3-32-32V449.9l-15 15c-9.4 9.4-24.6 9.4-33.9 0s-9.4-24.6 0-33.9l49-49V311.7l-61.4 35.8-17.7 66.1c-3.4 12.8-16.6 20.4-29.4 17s-20.4-16.6-17-29.4l5.2-19.3L48.1 395.6c-15.3 8.9-34.9 3.7-43.8-11.5s-3.7-34.9 11.5-43.8l25.3-14.8-21.7-5.8c-12.8-3.4-20.4-16.6-17-29.4s16.6-20.4 29.4-17l67.7 18.1L160.5 256 99.6 220.5 31.9 238.6c-12.8 3.4-26-4.2-29.4-17s4.2-26 17-29.4l21.7-5.8L15.9 171.6C.6 162.7-4.5 143.1 4.4 127.9s28.5-20.4 43.8-11.5l23.6 13.8-5.2-19.3c-3.4-12.8 4.2-26 17-29.4s26 4.2 29.4 17l17.7 66.1L192 200.3V129.9L143 81c-9.4-9.4-9.4-24.6 0-33.9s24.6-9.4 33.9 0l15 15V32c0-17.7 14.3-32 32-32z"
     id="path1" />
  <path
     style="opacity:0.75;fill:#003f53;fill-opacity:0.937255;stroke-width:0.629766"
     d="m 214.12054,509.93144 c -7.60981,-2.61428 -13.63537,-7.6152 -17.6158,-14.62025 -3.50045,-6.16033 -3.79625,-8.32842 -3.79625,-27.82402 0,-9.80872 -0.21664,-17.83403 -0.48142,-17.83403 -0.26477,0 -4.16145,3.69516 -8.65928,8.21148 -9.34169,9.38008 -12.25288,11.47835 -17.95053,12.93802 -10.6249,2.72198 -22.10329,-2.89781 -26.83303,-13.13738 -1.59155,-3.44559 -1.81006,-4.64088 -1.81006,-9.90142 0,-10.224 -0.66734,-9.33017 29.63421,-39.69214 l 26.10011,-26.15216 v -35.09262 c 0,-24.04854 -0.20773,-35.0926 -0.66005,-35.0926 -0.36303,0 -14.35843,7.99681 -31.10089,17.7707 l -30.44085,17.77071 -8.92842,33.3978 c -4.91063,18.3688 -9.5939,34.86442 -10.40726,36.65695 -4.16769,9.18495 -14.904459,14.96978 -24.844155,13.3857 -7.683759,-1.22455 -14.436328,-6.38882 -17.873422,-13.66934 -2.968756,-6.28847 -2.757602,-11.66444 0.982605,-25.01732 1.55233,-5.54194 2.736354,-10.17576 2.631164,-10.29736 -0.10519,-0.12161 -6.156854,3.20383 -13.448151,7.38986 -15.619048,8.96711 -19.02391,10.28863 -26.50098,10.28581 -11.155613,-0.004 -20.487363,-5.01788 -26.5421913,-14.26031 -6.7490228,-10.30209 -6.860132,-23.77199 -0.280302,-33.98137 3.6121461,-5.60468 8.1608723,-9.14349 22.2602253,-17.31798 7.362339,-4.26852 13.50919,-7.96016 13.65967,-8.20364 0.150479,-0.24348 -4.88137,-1.78981 -11.181889,-3.43629 C 23.733075,320.56176 17.099471,318.5071 15.29225,317.64233 2.0520775,311.3068 -2.1052719,293.6376 6.9490901,282.18297 c 4.9156169,-6.21872 13.4468189,-10.08687 20.4228789,-9.26 1.744433,0.20677 18.537731,4.48959 37.318437,9.51738 18.780715,5.0278 34.399637,9.14145 34.70872,9.14145 1.073094,0 60.876014,-35.02594 60.810074,-35.61583 -0.0829,-0.74179 -59.42501,-35.48231 -60.673786,-35.52013 -0.501767,-0.0152 -16.23018,4.05517 -34.95203,9.04527 -18.721844,4.9901 -35.173298,9.25056 -36.558784,9.46768 -1.385486,0.21712 -4.057003,0.0997 -5.936704,-0.261 -8.196042,-1.57264 -14.3732324,-6.32181 -17.8777061,-13.74482 -1.7492596,-3.7052 -1.9922472,-4.87277 -1.9922472,-9.5729 0,-4.70012 0.2429876,-5.86769 1.9922472,-9.57289 2.4062438,-5.09679 6.6594141,-9.52065 11.0953361,-11.54061 1.799919,-0.81962 8.442962,-2.85162 14.762317,-4.51554 6.319355,-1.66393 11.488017,-3.16702 11.485916,-3.34021 -0.0021,-0.17318 -6.162141,-3.85731 -13.688975,-8.18696 C 16.982463,171.96405 13.326106,169.51261 10.0122,166.25444 3.5185614,159.87002 0.6297663,152.97295 0.6297663,143.85363 c 0,-17.42083 13.7289007,-31.19411 31.1734317,-31.27422 7.894216,-0.0363 11.406597,1.303 26.260801,10.01311 7.308016,4.28522 13.432323,7.64629 13.609571,7.46905 0.177254,-0.17725 -0.927715,-4.92912 -2.455478,-10.5597 -3.613441,-13.31738 -3.767652,-18.22403 -0.771533,-24.548712 2.406356,-5.079707 6.440337,-9.196332 11.396736,-11.630234 3.21713,-1.579813 4.271674,-1.768188 9.898402,-1.768188 5.519392,0 6.744067,0.209214 9.909871,1.692918 4.098952,1.921046 9.204012,6.699958 11.075072,10.367528 0.69411,1.360579 5.393,17.890518 10.44196,36.733218 5.04897,18.84269 9.39544,34.44676 9.65881,34.67572 0.74353,0.64635 59.19558,34.58746 60.28539,35.00566 0.86101,0.3304 0.96592,-3.48252 0.96592,-35.10421 V 129.4507 L 166.04445,103.29854 C 138.52548,75.654953 138.22666,75.294437 136.69569,67.889758 c -2.03087,-9.822438 3.80907,-20.597972 13.69205,-25.263824 3.7052,-1.74926 4.87278,-1.992247 9.5729,-1.992247 4.72576,0 5.85917,0.238913 9.67262,2.038912 3.5616,1.681125 5.90996,3.605842 13.38253,10.968317 l 9.06293,8.929407 0.0109,-16.328213 c 0.0123,-18.296889 0.52786,-22.190634 3.79566,-28.664103 1.16927,-2.316315 3.64564,-5.624106 5.89281,-7.8712774 6.21121,-6.211209 13.28332,-9.11550588 22.23445,-9.13099549 6.23545,-0.0107903 9.23344,0.72817629 14.8278,3.65486969 7.76873,4.0642074 14.34245,12.8013422 16.1488,21.4633702 0.40693,1.951381 0.69595,10.289518 0.69595,20.078521 v 16.74125 l 9.20151,-8.965966 c 10.21481,-9.953324 13.93791,-12.286238 20.74274,-12.997484 7.04711,-0.736569 15.18639,2.460128 19.88269,7.808922 1.09973,1.252521 2.86258,4.121661 3.91745,6.375868 2.51011,5.363982 2.67925,12.173044 0.4472,18.002922 -1.35416,3.536951 -3.13325,5.471202 -27.81913,30.245463 l -26.37246,26.46686 V 164.858 c 0,19.47423 0.23843,35.40768 0.52984,35.40768 0.29142,0 14.22911,-8.0059 30.97265,-17.7909 l 30.44279,-17.79089 9.20659,-34.32227 c 5.06363,-18.87724 9.85212,-35.558762 10.6411,-37.070037 3.1183,-5.973094 10.16499,-10.874981 17.30346,-12.036799 13.3584,-2.174136 26.13329,8.354096 26.76079,22.054506 0.18863,4.11838 -0.18535,6.28276 -2.70822,15.67363 -1.6099,5.99248 -2.80524,11.01726 -2.65631,11.16619 0.14892,0.14893 6.12164,-3.1608 13.2727,-7.35494 7.15106,-4.19414 14.52267,-8.14892 16.38137,-8.78841 10.75242,-3.69937 22.78871,-1.09621 31.2993,6.7693 8.51866,7.87298 12.02539,18.33889 9.74843,29.09444 -1.37338,6.4874 -3.63535,10.77842 -8.26505,15.67907 -3.35088,3.54699 -6.03237,5.38902 -17.86411,12.27164 -7.65678,4.454 -13.92142,8.28566 -13.92142,8.5148 0,0.22913 5.17195,1.79572 11.49323,3.48131 6.32128,1.68559 12.70618,3.62789 14.18866,4.31622 4.35736,2.02316 8.68474,6.37374 10.98274,11.04164 1.89727,3.8539 2.066,4.68739 2.066,10.20589 0,5.51851 -0.16873,6.352 -2.066,10.2059 -4.83112,9.81339 -15.32817,15.04597 -25.78668,12.85416 -2.34597,-0.49166 -18.66866,-4.74772 -36.27263,-9.45792 -17.60397,-4.7102 -32.37366,-8.56401 -32.82154,-8.56401 -1.40035,0 -61.55674,35.40363 -61.0116,35.90694 1.21591,1.1226 60.26679,35.25666 60.99295,35.25666 0.4405,0 16.20326,-4.14638 35.02835,-9.21417 39.52119,-10.63927 40.5185,-10.79173 47.92474,-7.32593 5.56652,2.60489 9.45659,6.3148 11.96571,11.41152 1.87467,3.80801 2.0467,4.66142 2.0467,10.15346 0,5.17672 -0.22894,6.48438 -1.67544,9.57004 -2.21294,4.72061 -5.99282,8.72302 -10.44625,11.06124 -2.00221,1.05124 -8.76317,3.26803 -15.11571,4.95618 -6.32128,1.67984 -11.49323,3.24172 -11.49323,3.47085 0,0.22914 6.2626,4.0608 13.91688,8.5148 18.03268,10.49316 21.83402,14.11927 25.25293,24.08887 1.93165,5.63274 1.91331,14.45007 -0.0413,19.85516 -5.9797,16.53569 -23.95119,25.43525 -40.12566,19.87042 -1.8587,-0.63949 -9.23031,-4.59427 -16.38137,-8.78841 -7.15106,-4.19414 -13.12378,-7.50387 -13.2727,-7.35494 -0.14893,0.14893 1.04641,5.17371 2.65631,11.16619 2.52287,9.39087 2.89685,11.55525 2.70822,15.67363 -0.76696,16.7453 -18.57769,27.24084 -33.6846,19.84971 -4.07039,-1.99145 -8.45436,-6.14412 -10.37965,-9.832 -0.78898,-1.51128 -5.57929,-18.1928 -10.64513,-37.07004 l -9.21063,-34.32227 -30.39749,-17.79089 c -16.71863,-9.785 -30.6545,-17.7909 -30.96861,-17.7909 -0.33481,0 -0.57111,14.51729 -0.57111,35.08569 v 35.0857 l 25.785,25.85525 c 23.82925,23.89417 25.9427,26.1888 27.86403,30.25257 1.87521,3.96624 2.07835,4.9529 2.07224,10.06519 -0.006,4.78523 -0.26366,6.21908 -1.6564,9.20719 -3.21273,6.89292 -9.12986,11.73796 -16.58091,13.57669 -3.65057,0.90087 -4.93206,0.94714 -8.63671,0.31186 -2.39257,-0.41028 -5.5402,-1.34501 -6.99475,-2.07719 -1.45455,-0.73217 -6.76564,-5.40663 -11.80242,-10.38768 -5.03678,-4.98105 -9.35856,-9.05645 -9.60394,-9.05645 -0.24538,0 -0.44614,7.73382 -0.44614,17.18626 0,13.40054 -0.21241,18.00176 -0.9643,20.88843 -2.65051,10.17602 -10.43634,18.63667 -20.38064,22.14711 -5.75306,2.03088 -14.40213,2.05505 -20.21964,0.0565 z"
     id="path2" />
  <path
     style="opacity:0.75;fill:#003f53;fill-opacity:0.937255;stroke-width:0.629766"
     d="m 217.66869,510.6432 c -8.73501,-1.67085 -17.27226,-8.22445 -21.45151,-16.46719 -2.91416,-5.7476 -3.48224,-10.65219 -3.4975,-30.19569 -0.006,-7.87995 -0.18896,-14.32718 -0.40623,-14.32718 -0.21726,0 -4.02302,3.51501 -8.45723,7.81113 -12.41402,12.02742 -15.95345,13.9393 -24.98208,13.49446 -6.22604,-0.30674 -11.00406,-2.42341 -15.20406,-6.73538 -4.84963,-4.97893 -5.99929,-7.95745 -6.23159,-16.14463 -0.1896,-6.68262 -0.13165,-7.03871 1.64016,-10.07626 2.58606,-4.43347 7.51657,-9.72168 32.05443,-34.37987 l 21.56359,-21.66933 0.006,-35.10947 c 0.004,-23.77902 -0.20442,-35.10947 -0.64582,-35.10947 -0.59949,0 -22.33831,12.36632 -36.50448,20.76589 -3.29053,1.95106 -10.30445,6.05214 -15.58649,9.11351 -8.87379,5.14307 -9.64906,5.73883 -10.20034,7.83844 -9.67816,36.86039 -17.48929,64.72247 -19.17531,68.39778 -1.93778,4.22414 -5.92696,8.05284 -10.984583,10.5427 -3.772445,1.85716 -4.710457,2.05262 -9.850616,2.05262 -4.819223,0 -6.206642,-0.24938 -9.144855,-1.64373 -5.144227,-2.44124 -9.070303,-6.25309 -11.470091,-11.13639 -1.936985,-3.94154 -2.066912,-4.61671 -2.023571,-10.51543 0.03904,-5.31283 0.45454,-7.8214 2.643878,-15.96226 2.194906,-8.16155 2.43178,-9.59527 1.528103,-9.24907 -0.588208,0.22534 -5.178688,2.76281 -10.201074,5.63882 -16.800347,9.62051 -21.890621,11.69463 -28.700723,11.69463 -20.513092,0 -36.0037145,-19.56951 -30.8419438,-38.96303 2.6704412,-10.03324 8.1665393,-15.8602 23.3311048,-24.73564 11.285218,-6.60495 16.05904,-9.57499 16.05904,-9.99114 0,-0.25554 -4.697689,-1.78754 -10.43931,-3.40443 -5.74162,-1.61689 -11.962599,-3.50973 -13.824397,-4.20632 -4.757152,-1.77988 -9.2589057,-6.04234 -11.7711587,-11.14545 -1.9181834,-3.89638 -2.065995,-4.64814 -2.065995,-10.50753 0,-5.15533 0.2513047,-6.85488 1.3724327,-9.28166 3.0554964,-6.61389 10.461317,-12.24337 17.920751,-13.62232 4.458142,-0.82413 5.484153,-0.59946 45.301542,9.92009 17.169407,4.53607 31.532191,8.2474 31.9173,8.2474 0.742376,0 20.866216,-11.52888 50.223526,-28.77288 5.88831,-3.4587 10.67491,-6.54399 10.63688,-6.85621 -0.0757,-0.62135 -26.96123,-16.63333 -51.57169,-30.71408 l -8.816732,-5.04445 -12.595326,3.25448 c -6.927429,1.78996 -22.939237,5.96675 -35.581796,9.28176 -20.799622,5.45389 -23.409142,6.00347 -27.429279,5.77675 -8.497222,-0.47921 -15.4826611,-5.21571 -19.4819316,-13.20978 -2.0214042,-4.04054 -2.2105602,-4.88916 -2.2105602,-9.91732 0,-5.01092 0.192676,-5.88324 2.1721679,-9.8342 2.7340334,-5.45699 6.6275649,-9.31034 11.3445529,-11.22747 2.008605,-0.81635 8.574284,-2.85461 14.590399,-4.52945 6.016115,-1.67485 10.938391,-3.20605 10.938391,-3.40268 0,-0.19663 -4.605166,-3.03085 -10.233703,-6.29827 C 12.61767,169.22482 8.1289201,165.5722 4.1960646,158.00763 c -6.057584,-11.65132 -3.71453232,-26.75081 5.5821863,-35.97368 6.6152431,-6.5627 15.0780821,-9.69984 24.6294271,-9.13004 6.095145,0.36362 10.892421,2.44736 26.933452,11.6988 5.508348,3.17687 10.153353,5.63794 10.322238,5.46906 0.168884,-0.16889 -0.771495,-4.49453 -2.089735,-9.61254 -1.616736,-6.27689 -2.490404,-11.2139 -2.684404,-15.16921 -0.28131,-5.735588 -0.237441,-5.965213 2.007456,-10.507446 2.5922,-5.244971 6.407519,-9.066639 11.398518,-11.417493 2.651492,-1.248903 4.143516,-1.483157 9.446494,-1.483157 5.353461,0 6.792181,0.230237 9.59602,1.535622 3.903893,1.81755 9.275873,6.653714 10.855053,9.772361 1.04839,2.07042 3.66474,10.875803 8.14443,27.410343 7.24767,26.75113 12.13703,44.13186 12.52019,44.50678 0.92351,0.90366 58.35763,34.19451 60.23801,34.91607 0.88428,0.33933 0.98051,-3.19726 0.95545,-35.11439 l -0.0279,-35.49174 -23.92972,-24.246 c -13.16135,-13.3353 -25.32932,-26.088067 -27.03992,-28.339482 -3.59471,-4.731182 -4.68926,-8.445443 -4.28732,-14.548665 0.53366,-8.1035 5.48387,-15.238562 13.27729,-19.137453 4.04055,-2.021405 4.88916,-2.210561 9.91732,-2.210561 8.1917,0 11.66437,1.93387 22.98647,12.800763 4.8492,4.654237 8.86541,8.283238 8.92492,8.064446 0.0595,-0.218792 0.25574,-8.049464 0.4361,-17.401494 0.42822,-22.206161 1.33341,-25.576508 9.0725,-33.780348 14.15869,-15.0089614 37.7867,-12.6847311 48.9833,4.818368 4.45039,6.957084 4.7551,8.647632 5.10667,28.332214 0.17322,9.698401 0.36574,17.853641 0.42782,18.122756 0.0621,0.269115 3.75135,-2.989926 8.19834,-7.242312 12.86229,-12.299412 16.16495,-14.073278 25.28085,-13.578401 8.89115,0.482676 15.65701,5.009945 19.41196,12.989202 3.6957,7.853331 2.90347,17.027003 -2.00263,23.189562 -1.33357,1.675103 -13.36405,14.098036 -26.73441,27.606525 l -24.30973,24.56088 -0.0288,35.42436 c -0.0159,19.48339 0.18651,35.42435 0.4497,35.42435 0.55342,0 17.26364,-9.575 43.38016,-24.85694 l 18.2642,-10.68719 4.6032,-17.33741 c 7.2025,-27.12736 13.73246,-50.129293 15.19861,-53.537443 3.93351,-9.143709 16.86885,-14.733257 27.16734,-11.739411 6.4803,1.883877 12.50189,7.550734 15.03107,14.145559 2.1866,5.701585 1.89999,11.073395 -1.24442,23.323485 -1.45579,5.67154 -2.53332,10.42546 -2.39451,10.56428 0.13881,0.13881 5.03942,-2.49332 10.89025,-5.84918 16.90177,-9.69436 20.19639,-11.11559 26.53936,-11.44851 6.49375,-0.34083 11.0189,0.58438 16.61882,3.39787 15.41111,7.7428 21.29909,26.1642 13.47453,42.15702 -3.00659,6.14525 -8.21815,10.5075 -23.22669,19.44155 -7.5001,4.46454 -13.63612,8.29037 -13.63559,8.50185 5.2e-4,0.21148 3.33041,1.32039 7.39975,2.46426 18.32595,5.15131 19.35937,5.56265 23.41941,9.32153 2.36761,2.19198 4.47048,4.90261 5.67793,7.31895 1.74073,3.4835 1.91769,4.40022 1.91769,9.93412 0,5.54782 -0.17441,6.44551 -1.93788,9.97454 -3.9255,7.85562 -10.64837,12.51466 -18.94058,13.1261 -5.16232,0.38065 -4.12659,0.61975 -50.69804,-11.70394 -13.21603,-3.49721 -24.47671,-6.35857 -25.02375,-6.35857 -0.54703,0 -2.34498,0.80685 -3.99545,1.793 -1.65047,0.98615 -7.81857,4.57514 -13.70688,7.97554 -16.57234,9.57022 -42.76356,24.9873 -43.36172,25.52422 -0.58502,0.52515 11.21919,7.622 46.44534,27.92357 7.58431,4.371 14.18066,7.94727 14.65856,7.94727 0.4779,0 10.00097,-2.43712 21.16238,-5.41582 35.07737,-9.36127 47.21875,-12.30829 52.19702,-12.66954 4.45066,-0.32296 5.1432,-0.20046 8.95737,1.58441 5.47382,2.5615 10.1824,7.01728 12.44595,11.7777 1.5865,3.33655 1.79603,4.4785 1.79103,9.76138 -0.007,7.34641 -1.54978,11.21971 -6.45796,16.21278 -3.92148,3.98929 -7.90989,5.7412 -22.03134,9.67722 -5.45481,1.5204 -9.91828,2.94422 -9.91882,3.16404 -5.3e-4,0.21982 5.34629,3.57509 11.88184,7.45617 19.72112,11.71122 23.74227,15.41119 26.79835,24.65792 3.13566,9.48754 1.85157,19.59349 -3.50974,27.62211 -3.16458,4.739 -7.48464,8.28041 -13.75937,11.27936 -4.60487,2.20087 -4.91264,2.25756 -12.28044,2.26243 l -7.5572,0.005 -5.35301,-2.57792 c -2.94416,-1.41786 -10.13739,-5.32426 -15.98496,-8.68089 -5.84757,-3.35663 -10.7507,-5.98421 -10.89585,-5.83906 -0.14514,0.14515 0.86396,4.76003 2.24245,10.2553 3.2519,12.96345 3.449,14.42198 2.58949,19.16186 -1.43804,7.93033 -5.86558,13.73383 -13.06155,17.12074 -10.60583,4.99181 -23.72812,1.14672 -29.45885,-8.63202 -1.65055,-2.81645 -7.30909,-22.16993 -15.76024,-53.9035 l -4.95636,-18.61086 -9.47023,-5.56239 c -24.14094,-14.1793 -51.55505,-29.95389 -52.05584,-29.95389 -0.31139,0 -0.55256,15.35311 -0.55152,35.10947 l 0.002,35.10947 19.99322,20.10436 c 35.61583,35.81381 35.42109,35.56048 35.422,46.07796 4.4e-4,5.10343 -0.20488,6.13575 -1.8919,9.51176 -4.66691,9.33933 -14.62077,14.84431 -24.14089,13.35112 -6.37737,-1.00027 -9.40263,-2.95816 -19.30988,-12.49706 -5.02239,-4.83566 -9.34416,-8.80473 -9.60394,-8.82018 -0.25978,-0.0154 -0.47979,5.85236 -0.48891,13.03957 -0.0282,22.18691 -0.61205,26.32832 -4.68367,33.22017 -6.75624,11.43598 -19.95101,17.25876 -33.31617,14.70224 z"
     id="path3" />
  <path
     style="opacity:0.75;fill:#003f53;fill-opacity:0.937255;stroke-width:0.629766"
     d="m 218.30855,510.7096 c -9.20255,-1.54411 -18.28375,-8.55553 -22.48633,-17.36126 -2.39974,-5.02819 -2.93024,-10.03506 -3.0584,-28.86473 -0.0541,-7.94951 -0.22462,-14.57991 -0.37893,-14.73423 -0.15431,-0.15431 -3.19813,2.52401 -6.76404,5.95182 -14.42018,13.86172 -16.41995,15.04911 -25.34533,15.04911 -5.57944,0 -6.69565,-0.19546 -9.78738,-1.71387 -4.6954,-2.30601 -9.16756,-6.72945 -11.2015,-11.07949 -1.37368,-2.93794 -1.71393,-4.68773 -1.89578,-9.74939 -0.36994,-10.29723 -0.73814,-9.81912 36.23143,-47.04643 l 19.07489,-19.20787 0.006,-35.10947 c 0.004,-23.82309 -0.20426,-35.10947 -0.64735,-35.10947 -0.79911,0 -47.80951,27.12783 -60.95201,35.17298 -0.45791,0.28031 -1.95268,4.73788 -3.32171,9.90573 -10.70698,40.417 -16.10219,59.2011 -17.9033,62.33267 -2.06346,3.58769 -6.68524,7.65518 -10.892933,9.58654 -2.998916,1.37653 -4.490511,1.64376 -9.24383,1.65607 -4.988082,0.0129 -6.121108,-0.20489 -9.446494,-1.81605 -4.663835,-2.25963 -9.088151,-6.70595 -11.441437,-11.49833 -1.620477,-3.30005 -1.776854,-4.2085 -1.709286,-9.93002 0.06019,-5.09692 0.516654,-7.96228 2.394063,-15.02828 1.275837,-4.80183 2.234247,-9.09802 2.129813,-9.54707 -0.123573,-0.53135 -3.708505,1.16594 -10.266142,4.86054 -17.419059,9.81395 -22.612368,11.87699 -29.720448,11.80643 -19.4842,-0.19341 -34.3574495,-18.75294 -30.3532005,-37.87612 0.3843395,-1.8355 1.7008244,-5.2618 2.9255221,-7.61401 3.3805327,-6.49279 8.4591164,-10.76154 23.6817014,-19.90539 7.149461,-4.29452 12.99902,-8.00301 12.99902,-8.24109 0,-0.23809 -5.589468,-2.04911 -12.421042,-4.02449 -16.310444,-4.71623 -20.1611004,-7.19582 -24.038351,-15.47927 -1.4168715,-3.02704 -1.6351685,-4.3317 -1.6380932,-9.79012 -0.003,-5.60599 0.1876749,-6.68669 1.7361446,-9.83981 3.524642,-7.17715 11.5439286,-12.56203 19.4043466,-13.02987 4.739375,-0.28207 4.808669,-0.26605 47.136372,10.89808 l 27.975196,7.3786 2.253588,-1.07334 c 2.70889,-1.29019 30.21525,-17.1605 47.25099,-27.26235 12.07103,-7.15787 12.22806,-7.27832 10.77449,-8.26469 -2.5153,-1.70683 -34.98791,-20.87813 -47.58493,-28.09337 l -11.965562,-6.85355 -13.854858,3.5826 c -7.620173,1.97042 -17.680689,4.5934 -22.356704,5.82882 -31.217358,8.2478 -35.518691,9.22203 -39.360394,8.91495 -8.374334,-0.6694 -15.3140745,-5.30219 -19.5255677,-13.03478 -1.7557751,-3.22372 -1.886486,-3.92188 -1.886486,-10.07626 0,-6.15771 0.1299518,-6.85079 1.8892989,-10.07626 2.1345816,-3.9134 6.7090928,-8.81275 9.6469358,-10.33196 1.081327,-0.55918 7.42988,-2.59679 14.107896,-4.52803 6.678016,-1.93124 12.350052,-3.7094 12.604525,-3.95145 0.254473,-0.24206 -3.854752,-2.96109 -9.131611,-6.04228 C 12.867295,169.30699 7.4565879,164.83323 3.8018377,157.17538 -0.64850312,147.85054 0.1104015,135.87339 5.7039061,127.15667 13.559481,114.91482 29.65959,109.6058 42.879358,114.89803 c 2.245186,0.89881 9.598472,4.73925 16.340636,8.53431 6.742163,3.79506 12.34156,6.65743 12.443103,6.36083 0.101544,-0.29661 -0.852143,-4.61182 -2.119302,-9.58935 -1.432366,-5.62648 -2.426055,-11.21544 -2.626762,-14.77412 -0.305631,-5.41915 -0.220084,-5.939088 1.606182,-9.761373 2.513737,-5.261124 5.423163,-8.562686 9.934846,-11.273868 3.469383,-2.084829 4.007405,-2.210348 10.414634,-2.429651 6.120422,-0.209492 7.071911,-0.08574 10.110294,1.314939 4.310051,1.986907 9.512021,6.696891 11.151711,10.097006 0.70621,1.464433 2.83669,8.188807 4.73441,14.943047 4.5406,16.16068 15.49251,55.99704 15.49251,56.3523 0,0.52017 60.32461,35.59358 61.21928,35.59358 0.2738,0 0.48348,-15.94096 0.46595,-35.42435 l -0.0319,-35.42436 -21.11241,-21.41205 c -27.3029,-27.690402 -31.27152,-32.103143 -33.00603,-36.699662 -2.88061,-7.633706 -0.6164,-17.226893 5.4938,-23.276629 4.74459,-4.697633 8.95241,-6.653987 14.98808,-6.968443 2.77527,-0.14459 6.20402,0.04989 7.61946,0.432175 4.08131,1.102296 9.41696,5.020043 17.89388,13.138726 l 7.87208,7.539405 0.40962,-15.982046 c 0.45571,-17.779817 1.08884,-22.750704 3.55201,-27.887732 2.40719,-5.02026 9.44076,-11.9197147 14.69995,-14.4196538 12.46015,-5.9228832 26.49304,-3.31247997 35.88853,6.6759948 4.3195,4.592114 7.06966,9.50072 8.15288,14.551572 0.37268,1.737764 0.87011,10.827953 1.10539,20.200421 L 256,62.3499 l 7.79287,-7.372715 c 12.65482,-11.972533 14.899,-13.382023 22.09163,-13.875018 7.95022,-0.54492 14.15368,1.845841 19.15565,7.382426 7.3948,8.185154 8.07972,20.345828 1.6143,28.661778 -1.34647,1.731858 -13.35157,14.20123 -26.67799,27.709719 l -24.22985,24.56088 -0.0308,35.42436 c -0.0169,19.48339 0.19511,35.42435 0.47116,35.42435 0.50928,0 22.41244,-12.56057 47.74434,-27.37944 l 13.92396,-8.14537 5.44146,-20.4959 c 9.20186,-34.66 13.85161,-50.171154 15.92329,-53.118801 4.43979,-6.317053 13.14995,-10.358056 20.9218,-9.706493 5.91254,0.495683 10.57324,2.83044 14.83132,7.42968 6.94152,7.49767 7.70451,14.107004 3.54861,30.739564 -1.41884,5.67845 -2.47998,10.4242 -2.35808,10.54611 0.12191,0.1219 6.00874,-3.04174 13.08186,-7.03031 15.13701,-8.53585 18.20181,-9.81245 24.53172,-10.21836 11.86744,-0.76099 22.89589,5.06857 29.14076,15.40362 5.43574,8.99597 5.65798,19.90848 0.61517,30.20724 -2.78559,5.68891 -8.89334,10.75568 -23.71207,19.67067 -7.14567,4.29887 -12.99013,7.983 -12.98768,8.18697 0.002,0.20397 4.89102,1.7416 10.86347,3.41696 13.54065,3.79834 17.74548,5.74884 21.57473,10.0079 5.05353,5.62073 5.65821,7.28791 5.65821,15.60035 0,6.40374 -0.17212,7.5651 -1.48652,10.03006 -3.99002,7.48267 -11.62929,12.58789 -19.5825,13.08671 -4.62432,0.29003 -5.77097,0.023 -48.91057,-11.39268 -13.8964,-3.67728 -25.7115,-6.68596 -26.25577,-6.68596 -0.54428,0 -7.73686,3.91856 -15.98352,8.70791 -22.33545,12.97159 -44.52513,26.03507 -45.10016,26.55131 -0.27898,0.25045 5.38892,3.93904 12.59532,8.19686 7.20641,4.25781 14.37784,8.51453 15.93651,9.45938 8.19766,4.96929 31.93913,18.24814 32.62615,18.24814 0.43784,0 12.47608,-3.09151 26.75163,-6.87002 36.55203,-9.67473 41.09363,-10.76889 46.42296,-11.18426 4.31879,-0.3366 5.07378,-0.20798 8.81673,1.50211 5.1201,2.33927 9.88441,6.5988 12.28095,10.97977 1.59099,2.9084 1.87524,4.18495 2.08214,9.35099 0.32732,8.17273 -1.10992,12.05078 -6.4359,17.36578 -4.33923,4.33026 -7.47307,5.69654 -23.19903,10.11418 -4.7626,1.33788 -8.65928,2.60662 -8.65928,2.81941 0,0.2128 5.47661,3.66858 12.17024,7.67951 18.78998,11.25926 22.37784,14.44288 26.0567,23.12102 1.56398,3.68931 1.72999,4.8061 1.72999,11.63811 0,6.80293 -0.16991,7.95772 -1.70235,11.57008 -3.23535,7.62658 -9.01013,13.38798 -17.27521,17.2352 -4.05168,1.88597 -4.71132,1.99873 -11.84776,2.02521 -7.40664,0.0275 -7.6513,-0.0171 -12.28044,-2.23763 -2.59779,-1.24612 -9.79493,-5.14861 -15.99364,-8.6722 -6.19872,-3.52359 -11.37706,-6.29985 -11.50744,-6.16949 -0.13037,0.13038 0.93231,4.88306 2.36152,10.56151 3.1182,12.38913 3.40568,17.77197 1.24917,23.39001 -1.92065,5.00362 -6.61789,9.98929 -11.8278,12.55412 -3.69895,1.82099 -4.69873,2.03219 -9.55462,2.01835 -4.04269,-0.0115 -6.30517,-0.36204 -8.88709,-1.37684 -4.39293,-1.7266 -9.5658,-6.23093 -11.32199,-9.85873 -1.74255,-3.59963 -5.3646,-16.01023 -13.60937,-46.63122 -4.74236,-17.61311 -6.95293,-24.84978 -7.81448,-25.58214 -1.97478,-1.67865 -59.66838,-35.19031 -60.58356,-35.19031 -0.27818,0 -0.50217,15.79926 -0.49777,35.10947 l 0.008,35.10947 19.37669,19.52275 c 25.70386,25.89763 31.56969,32.18607 33.82254,36.25933 1.77769,3.21416 1.8893,3.82518 1.8893,10.34338 0,5.90371 -0.2019,7.30455 -1.36624,9.47939 -2.42923,4.5375 -6.92057,8.91406 -11.41802,11.12621 -3.85425,1.89577 -4.69404,2.06599 -10.19266,2.06599 -8.18585,0 -9.78828,-0.88796 -21.70872,-12.02948 -5.33589,-4.98723 -9.86301,-9.06769 -10.06026,-9.06769 -0.19726,0 -0.36596,6.02214 -0.3749,13.38253 -0.0233,19.19021 -0.66929,24.84735 -3.49219,30.58228 -6.20405,12.60396 -19.78062,19.45542 -33.86813,17.09165 z"
     id="path4" />
  <path
     style="opacity:0.75;fill:#003f53;fill-opacity:0.937255;stroke-width:0.629766"
     d="m 217.23872,510.51204 c -11.55165,-2.48806 -22.47365,-13.77541 -23.59587,-24.38518 -0.19844,-1.87604 -0.47072,-4.40287 -0.60508,-5.61517 -0.13435,-1.21231 -0.2634,-8.67504 -0.28678,-16.58385 -0.0234,-7.90882 -0.28634,-14.2852 -0.58437,-14.16974 -0.29803,0.11545 -4.19471,3.70798 -8.65928,7.98339 -9.34592,8.9499 -11.96439,10.91621 -16.5219,12.4069 -4.81802,1.5759 -12.06926,1.04797 -16.69565,-1.21551 -4.46691,-2.18545 -8.64807,-6.24226 -10.87734,-10.55385 -1.50614,-2.91299 -1.77738,-4.2745 -1.98931,-9.98543 -0.23351,-6.29261 -0.1589,-6.77396 1.54212,-9.94875 2.35201,-4.38979 10.21808,-12.88225 34.06115,-36.77351 l 19.6783,-19.71808 0.002,-35.10947 c 0.001,-22.12919 -0.22271,-35.10947 -0.6056,-35.10947 -0.33411,0 -3.38061,1.59949 -6.76999,3.55443 -19.31284,11.13932 -54.35836,31.5861 -54.78575,31.96391 -0.0722,0.0638 -2.99063,10.73151 -6.48542,23.70598 -8.82901,32.77779 -12.49062,45.21118 -14.19099,48.18706 -2.03536,3.56212 -6.65628,7.64349 -10.885238,9.61423 -3.0407,1.41699 -4.419794,1.66385 -9.241915,1.6543 -4.914186,-0.01 -6.153408,-0.24669 -9.318935,-1.78182 -4.644961,-2.25261 -9.262987,-6.8622 -11.558831,-11.53771 -1.630358,-3.32023 -1.787535,-4.22701 -1.72488,-9.95079 0.05588,-5.10464 0.50848,-7.95637 2.389189,-15.05359 1.276139,-4.81576 2.236999,-9.12591 2.135241,-9.57811 -0.122691,-0.54525 -2.412326,0.46977 -6.797552,3.01341 -11.187857,6.4895 -22.963408,12.30984 -26.392995,13.04535 C 22.528557,401.99043 5.8945212,391.76691 1.7843002,376.02161 -1.0097649,365.3182 1.5689469,355.03846 9.0258962,347.15384 12.65412,343.31753 18.792223,339.072 31.96064,331.29061 c 4.935793,-2.91662 8.974169,-5.48541 8.974169,-5.70841 0,-0.223 -5.155823,-1.88939 -11.457385,-3.70308 -6.301561,-1.81369 -12.972812,-4.03966 -14.825,-4.94659 -4.154196,-2.03411 -7.9362108,-6.04594 -10.1396665,-10.75581 -1.4587235,-3.11801 -1.6724909,-4.37753 -1.6754347,-9.87168 -0.003,-5.60599 0.1876749,-6.68669 1.7361446,-9.83981 2.1463405,-4.37054 6.8977116,-8.91041 11.6631266,-11.14396 3.164634,-1.48327 4.326097,-1.67941 9.583824,-1.61845 5.587117,0.0648 8.210986,0.66085 39.675277,9.01321 32.663818,8.67079 33.754145,8.91454 35.711725,7.98347 3.65378,-1.73782 57.96587,-33.3924 58.97837,-34.37422 0.29701,-0.28802 -4.9458,-3.77265 -11.65068,-7.74364 -13.03049,-7.71735 -40.31289,-23.60977 -45.65024,-26.59197 l -3.230752,-1.80516 -29.517096,7.74799 C 30.700052,238.28437 28.137703,238.86983 23.931119,238.48997 15.77649,237.75359 8.554622,232.86306 4.6415136,225.42736 2.9841155,222.27797 2.8339483,221.44327 2.8339483,215.38007 c 0,-6.1524 0.1299618,-6.84717 1.8676539,-9.98442 2.7524156,-4.96924 6.2548758,-8.63321 9.9628598,-10.42229 1.806133,-0.87145 8.243287,-3.01329 14.304788,-4.75967 6.0615,-1.74636 11.432906,-3.3297 11.936458,-3.51853 0.552334,-0.20711 -3.576857,-3.01822 -10.408408,-7.08594 C 11.783964,168.46672 7.5310848,164.89643 3.7854514,157.18467 0.51231973,150.44574 0.01894135,142.98616 2.3041922,134.78894 c 1.402994,-5.03255 2.9103921,-7.64449 6.8966292,-11.9501 8.8871036,-9.59913 22.4043856,-12.61972 34.2916606,-7.66285 2.576552,1.07439 9.927444,4.92389 16.335316,8.55445 6.407872,3.63055 11.733756,6.35855 11.835299,6.06223 0.101544,-0.29633 -0.852143,-4.61132 -2.119302,-9.58885 -1.432366,-5.62648 -2.426055,-11.21544 -2.626762,-14.77412 -0.309335,-5.484775 -0.236773,-5.904356 1.735901,-10.03772 2.458494,-5.151312 6.593684,-9.477775 11.293593,-11.815978 3.048516,-1.516628 4.133993,-1.705697 9.761377,-1.70023 7.498804,0.0073 10.665306,1.182776 15.885946,5.897289 5.15188,4.652423 4.40853,2.538134 16.96629,48.256459 4.32888,15.7599 8.06767,28.8373 8.30841,29.06089 0.24075,0.22359 8.93957,5.352 19.33071,11.39647 31.68866,18.43313 39.8749,23.14434 40.89803,23.53695 0.88181,0.33838 0.97801,-3.22577 0.94774,-35.11512 l -0.0337,-35.49174 -21.44113,-21.72693 C 137.13276,73.806847 136.26005,72.651018 136.8,62.964165 c 0.469,-8.413936 4.69903,-15.045312 12.3407,-19.346369 4.12217,-2.320135 4.34134,-2.368104 10.81994,-2.368104 5.98206,0 6.92264,0.163532 9.86484,1.71511 3.42596,1.806702 7.65758,5.418357 16.74279,14.289851 l 5.51045,5.380833 0.009,-11.00778 c 0.0212,-27.104119 1.40143,-32.978474 9.70269,-41.294671 10.00526,-10.02326579 23.61699,-12.3946285 36.00432,-6.2724791 7.62292,3.7674499 14.67004,12.4881401 16.62452,20.5725381 0.36722,1.518957 0.83975,10.555098 1.05006,20.080313 0.21031,9.525215 0.42788,17.377843 0.48348,17.450282 0.0556,0.07244 3.59586,-3.173749 7.86723,-7.213754 12.62822,-11.944206 14.87624,-13.355047 22.06488,-13.847768 7.95022,-0.54492 14.15368,1.845841 19.15565,7.382426 7.06431,7.819337 8.03725,19.79169 2.27494,27.993836 -0.9881,1.406482 -12.99406,13.893035 -26.67991,27.747891 l -24.88335,25.19065 -0.0334,35.42436 c -0.0183,19.48339 0.19389,35.42435 0.47163,35.42435 0.68686,0 60.07184,-34.49849 61.02752,-35.45268 0.72724,-0.72611 1.79004,-4.44275 8.14085,-28.4686 2.9759,-11.25815 8.03625,-29.2204 10.66909,-37.871075 2.60244,-8.550752 7.25913,-13.348369 15.55384,-16.024529 8.69949,-2.806755 16.94379,-0.56405 23.34568,6.350752 6.93547,7.491146 7.69176,14.025172 3.56246,30.778362 -1.38548,5.62114 -2.51906,10.37304 -2.51906,10.55978 0,0.3456 2.08187,-0.77037 15.35957,-8.23335 15.25857,-8.57638 18.12315,-9.55228 26.44832,-9.01042 6.01387,0.39141 10.8253,2.05943 16.09923,5.58122 4.40546,2.94185 9.47695,9.31669 11.4603,14.40555 1.84444,4.7324 2.26413,12.94228 0.9282,18.15694 -3.0374,11.85613 -7.70761,16.20823 -34.2415,31.90924 -2.85756,1.69092 -5.19557,3.24912 -5.19557,3.46266 0,0.21354 2.05461,0.91746 4.5658,1.56425 9.4389,2.43112 20.13681,5.95761 22.79032,7.51268 3.14654,1.84399 7.41472,6.44839 9.39239,10.13224 1.15886,2.15864 1.35235,3.55527 1.35235,9.76137 0,6.40374 -0.17212,7.5651 -1.48652,10.03006 -3.98349,7.47041 -11.61234,12.57401 -19.5825,13.10043 -4.23782,0.2799 -11.22212,-1.33142 -46.94574,-10.83067 -28.77982,-7.65283 -28.02962,-7.49257 -30.209,-6.4533 -1.09399,0.52169 -13.02347,7.40093 -26.50996,15.28719 -13.48649,7.88628 -26.28948,15.35518 -28.4511,16.59757 -2.16162,1.24238 -3.9277,2.54228 -3.92462,2.88865 0.005,0.61699 20.39848,12.76871 47.12137,28.07854 l 13.44611,7.70343 7.65106,-1.98863 c 4.20808,-1.09374 17.85326,-4.68782 30.32263,-7.98685 24.90781,-6.58986 33.34747,-8.48792 37.74129,-8.48792 6.3812,0 15.25663,5.9615 18.96365,12.73761 1.56252,2.85615 1.85063,4.15953 2.05668,9.30421 0.19939,4.97846 0.0126,6.58555 -1.11281,9.57348 -1.56389,4.15212 -5.78881,9.14914 -9.63876,11.40022 -2.66209,1.55653 -11.61074,4.56687 -22.03219,7.41165 -3.03075,0.82731 -5.51045,1.65661 -5.51045,1.84287 0,0.18627 5.38029,3.57728 11.95621,7.53559 18.9051,11.37976 23.2536,15.28755 26.48709,23.80264 1.70286,4.48432 2.30231,12.94928 1.26918,17.92233 -1.9671,9.46874 -8.58007,17.26705 -18.71156,22.06549 -4.11765,1.95019 -4.65293,2.04229 -11.86931,2.04229 -7.38519,0 -7.6647,-0.0517 -12.28044,-2.27009 -2.59779,-1.24854 -9.80754,-5.13842 -16.02169,-8.64416 -6.21413,-3.50575 -11.39849,-6.27402 -11.52079,-6.15172 -0.1223,0.1223 0.76642,4.15387 1.97492,8.95905 3.13083,12.44859 3.65638,16.29342 2.83801,20.76257 -1.84105,10.05418 -10.58047,17.97077 -20.9027,18.93468 -7.82768,0.73096 -16.75572,-3.4596 -20.9843,-9.84941 -2.11412,-3.19466 -6.1532,-16.78436 -16.94365,-57.00783 -2.32296,-8.65929 -4.54731,-16.07711 -4.943,-16.48405 -1.20811,-1.24247 -60.14874,-35.47167 -61.08008,-35.47167 -0.22649,0 -0.4118,15.80162 -0.4118,35.11471 v 35.11473 l 14.23073,14.16449 c 21.88172,21.77986 36.85871,37.76458 38.98452,41.6076 1.77772,3.21373 1.8893,3.82456 1.8893,10.34287 0,6.47843 -0.11927,7.14271 -1.8402,10.24886 -6.77414,12.22688 -23.00505,16.61116 -33.18321,8.96343 -1.77602,-1.33447 -6.85617,-5.84891 -11.28923,-10.03209 -4.43306,-4.18318 -8.22477,-7.60578 -8.42601,-7.60578 -0.20125,0 -0.36823,6.30553 -0.37107,14.0123 -0.007,18.74952 -0.63163,24.05237 -3.5321,29.98191 -6.29752,12.87426 -20.83313,19.89645 -34.90913,16.86469 z"
     id="path5" />
  <path
     style="opacity:0.75;fill:#003b4e;fill-opacity:0.93725502;stroke-width:0.629766"
     d="m 216.85081,510.51458 c -8.65588,-2.2064 -17.20082,-9.11176 -20.90384,-16.89287 -2.66249,-5.59465 -3.19547,-10.27654 -3.21904,-28.27689 -0.0107,-8.1686 -0.20057,-15.03312 -0.42195,-15.25451 -0.22138,-0.22137 -4.1154,3.17451 -8.65338,7.54642 -12.46916,12.01284 -16.02296,13.88418 -25.24323,13.29246 -5.82466,-0.3738 -10.80612,-2.67333 -14.90881,-6.88218 -4.66951,-4.79033 -5.8592,-7.85449 -6.10766,-15.73088 -0.18344,-5.81517 -0.0379,-7.02948 1.11326,-9.28586 2.18613,-4.28517 8.01624,-10.6288 31.65772,-34.44618 l 22.54461,-22.71234 -0.01,-34.28151 c -0.005,-18.85483 -0.24605,-34.65432 -0.535,-35.10997 -0.54148,-0.85392 -3.06867,0.55116 -44.79854,24.90734 -9.17884,5.35735 -16.73292,9.78291 -16.78684,9.83457 -0.0539,0.0517 -3.08349,11.14633 -6.73237,24.65482 -8.49623,31.45377 -12.12494,43.95371 -13.59779,46.84073 -1.68132,3.29568 -7.02953,8.06904 -11.237668,10.02982 -3.052994,1.42254 -4.463658,1.67941 -9.268945,1.68781 -4.967294,0.009 -6.119458,-0.21183 -9.321026,-1.78392 -4.661253,-2.28884 -9.267899,-6.89548 -11.55674,-11.55674 -1.618645,-3.29638 -1.790779,-4.26812 -1.762678,-9.95079 0.0258,-5.21789 0.430716,-7.78289 2.361623,-14.9601 2.517523,-9.35767 2.616925,-9.91567 1.766444,-9.91567 -0.310223,0 -4.631994,2.29512 -9.603936,5.10027 -17.795008,10.03987 -22.445688,11.90342 -29.706154,11.90342 -4.506099,0 -10.256868,-1.42211 -14.551835,-3.59854 C 13.388056,393.65681 6.5194094,386.77074 4.2632218,382.53588 0.801454,376.03815 -0.30827631,367.22628 1.4933033,360.54121 4.4669994,349.50679 9.6396425,344.53643 31.96064,331.26528 c 4.935793,-2.93462 8.974169,-5.49344 8.974169,-5.68626 0,-0.19282 -5.098028,-1.81785 -11.328951,-3.61117 -6.230924,-1.79332 -12.902174,-4.03091 -14.825001,-4.97243 -4.095336,-2.00529 -7.7007579,-5.69359 -10.1661756,-10.39986 -1.6161069,-3.08501 -1.7625617,-3.93588 -1.7712556,-10.29052 -0.00888,-6.48738 0.1074162,-7.13841 1.8307192,-10.24886 3.9422992,-7.11559 11.649674,-12.16563 19.256974,-12.61761 4.931566,-0.293 5.900618,-0.0729 45.460147,10.32446 29.017817,7.62671 30.094849,7.85988 31.927504,6.91218 1.98084,-1.02433 44.42944,-25.62991 53.43082,-30.97149 2.84905,-1.69067 5.18279,-3.35735 5.18608,-3.70372 0.007,-0.7314 -2.02591,-1.96148 -35.24194,-21.3248 l -24.875772,-14.50135 -10.076261,2.64086 c -5.541943,1.45248 -18.719803,4.91484 -29.284132,7.69413 -28.361031,7.4613 -32.429517,8.34394 -36.841329,7.9926 -7.993261,-0.63656 -15.5676672,-6.08213 -19.2312036,-13.82615 -1.6113227,-3.40603 -1.8649736,-4.67026 -1.8649736,-9.29522 0,-4.63135 0.2527653,-5.88731 1.8749179,-9.31624 2.5588461,-5.40892 7.4808863,-10.24097 12.2488413,-12.02489 2.032016,-0.76028 8.328767,-2.70119 13.992783,-4.31314 5.664014,-1.61195 10.298208,-3.15045 10.298208,-3.41889 0,-0.26844 -4.180073,-2.95194 -9.289053,-5.96336 C 13.064884,169.39133 8.1269508,165.40503 4.2204103,158.20362 c -4.5903463,-8.46197 -4.41436826,-20.22247 0.4431566,-29.61588 1.8046758,-3.48987 8.3603591,-9.90897 12.2216041,-11.96699 4.3794,-2.3342 10.415213,-3.87035 15.258038,-3.88327 7.070562,-0.0189 11.933669,1.9636 29.888771,12.18429 5.195572,2.95751 9.529202,5.14324 9.630292,4.85718 0.10109,-0.28606 -0.833552,-4.45206 -2.076975,-9.25777 -1.434646,-5.54475 -2.397017,-10.9589 -2.633608,-14.81629 -0.358784,-5.849637 -0.29968,-6.234934 1.568843,-10.227879 2.363362,-5.050386 7.076325,-9.941712 11.615334,-12.054918 2.814841,-1.310493 4.247307,-1.540169 9.605831,-1.540169 7.8022,0 11.131323,1.347209 16.612963,6.722837 3.41723,3.351144 3.88611,4.154877 5.62308,9.638781 1.74516,5.509778 7.03513,24.438858 15.23643,54.520468 2.57786,9.45534 3.56266,12.19352 4.62804,12.86788 1.57666,0.99798 50.67258,29.64592 55.88943,32.61202 1.93874,1.10229 3.70996,1.8192 3.93604,1.59313 0.22607,-0.22607 0.39693,-16.16307 0.37968,-35.41556 l -0.0314,-35.00451 -22.10313,-22.3567 C 146.76735,83.649237 140.57401,76.916992 138.33807,72.738007 c -1.10357,-2.062579 -1.34926,-3.603226 -1.35585,-8.501845 -0.007,-5.154418 0.21953,-6.462357 1.63568,-9.446494 2.30669,-4.860689 6.09722,-8.864093 10.74948,-11.353163 3.50533,-1.875431 4.66949,-2.160648 9.74833,-2.388326 9.0433,-0.405402 12.16402,1.352584 25.78424,14.52499 l 6.99631,6.766281 0.35011,-16.842542 c 0.36932,-17.766751 0.85888,-21.60281 3.47559,-27.233685 2.29112,-4.930273 9.36398,-11.8440485 14.72225,-14.3911303 14.6351,-6.9568669 31.02586,-2.1849192 39.94214,11.6286163 4.26661,6.610036 4.73043,9.226132 5.1184,28.869782 0.19185,9.713819 0.38177,17.702696 0.42203,17.753061 0.0403,0.05036 2.90717,-2.58981 6.37088,-5.867053 14.97632,-14.170056 16.36258,-14.984576 25.50554,-14.986128 6.04979,-10e-4 6.92219,0.154853 10.25106,1.831643 7.26861,3.661294 12.33101,11.234928 12.90896,19.312535 0.38549,5.387797 -0.60626,9.452221 -3.28735,13.47229 -1.15502,1.731857 -13.31043,14.484625 -27.01202,28.339481 l -24.912,25.19065 -0.0334,35.42436 c -0.0184,19.48339 0.14467,35.42435 0.36229,35.42435 0.64605,0 59.3891,-34.00159 61.09425,-35.36251 0.39461,-0.31495 0.85119,-1.20162 1.01461,-1.97037 0.66995,-3.15137 10.93911,-40.7992 14.72221,-53.97315 2.23638,-7.78782 4.73859,-15.297783 5.56046,-16.688811 5.66993,-9.596549 19.55979,-13.779369 29.54098,-8.896028 3.83103,1.874348 8.99403,7.010791 11.19392,11.13634 1.31788,2.471492 1.4848,3.609323 1.47135,10.030059 -0.0132,6.28766 -0.32459,8.43895 -2.36262,16.32044 -1.29111,4.99297 -2.2669,9.1587 -2.16843,9.25717 0.0985,0.0985 4.70409,-2.38963 10.23471,-5.5291 5.53061,-3.13947 12.70555,-7.00325 15.9443,-8.58618 5.20287,-2.54288 6.48928,-2.90957 11.04638,-3.14875 6.35722,-0.33367 10.87796,0.56175 16.54309,3.27669 13.06193,6.25976 19.90368,21.14033 16.25426,35.35244 -2.92755,11.40089 -7.58403,15.69814 -34.13014,31.49713 -2.84904,1.69561 -4.9745,3.27136 -4.72325,3.50167 0.25125,0.2303 5.13283,1.74308 10.84796,3.36172 5.71513,1.61864 11.86992,3.61388 13.67731,4.43388 4.21015,1.91011 8.90378,6.30764 11.24756,10.53801 1.73453,3.13071 1.8402,3.73731 1.8402,10.56374 0,8.51652 -0.60335,10.16468 -5.75999,15.73447 -4.02313,4.34546 -9.29117,6.95172 -14.96582,7.40408 -4.56722,0.36407 -6.30772,-0.0327 -46.59302,-10.62202 -25.15522,-6.61224 -29.11478,-7.50094 -30.53571,-6.85352 -1.68574,0.76808 -47.66063,27.52153 -54.77718,31.87564 -2.20377,1.34833 -4.04584,2.72808 -4.09348,3.0661 -0.0476,0.33801 1.75546,1.73334 4.00687,3.10073 5.48477,3.33113 37.96644,22.27863 48.05629,28.03263 l 8.06613,4.5999 5.47385,-1.36828 c 3.01061,-0.75255 13.36541,-3.48566 23.01066,-6.07357 28.074,-7.53253 40.06754,-10.38919 45.22528,-10.77189 4.45811,-0.3308 5.13681,-0.21135 8.95737,1.57651 5.04217,2.35952 9.63661,6.53771 12.06872,10.97533 1.60005,2.91944 1.8506,4.10614 2.07012,9.80492 0.24024,6.23656 0.17446,6.63644 -1.72722,10.49928 -2.65366,5.39036 -7.48299,9.7757 -13.10863,11.90348 -2.34698,0.88769 -8.37645,2.79248 -13.39884,4.23286 -5.02239,1.44038 -9.3364,2.80269 -9.58669,3.02736 -0.2503,0.22466 3.29213,2.64767 7.87207,5.38448 11.95759,7.14541 19.8663,12.37551 23.17256,15.32422 5.39361,4.81033 8.77084,13.37638 8.77084,22.24648 0,12.44227 -6.87081,22.54569 -19.35298,28.45826 -4.06179,1.92399 -4.6207,2.01943 -11.82711,2.01943 h -7.56387 l -5.97611,-2.91682 c -3.28686,-1.60425 -10.49412,-5.49363 -16.01611,-8.64307 -5.522,-3.14944 -10.14422,-5.62203 -10.27161,-5.49464 -0.12739,0.12739 0.75195,4.01677 1.95408,8.64307 3.38177,13.01446 3.84399,16.28627 2.94934,20.87692 -1.47544,7.57083 -6.57112,13.99367 -13.73862,17.31684 -3.01111,1.39608 -4.47799,1.66834 -8.95406,1.66191 -6.51645,-0.009 -11.07589,-1.60847 -15.37442,-5.3922 -5.35506,-4.71371 -6.01228,-6.56132 -18.00371,-50.6129 -3.48861,-12.81574 -6.63312,-24.20757 -6.98778,-25.31518 -0.56422,-1.76203 -2.31338,-2.99239 -13.9894,-9.84018 -22.88727,-13.42301 -46.04409,-26.77854 -47.1945,-27.21909 -1.0415,-0.39884 -1.10209,1.51234 -1.10209,34.75983 v 35.18187 l 14.861,14.79448 c 21.88716,21.78919 36.18775,37.06969 38.35492,40.98308 1.77717,3.20916 1.88863,3.81924 1.88863,10.33785 0,6.47843 -0.11927,7.14271 -1.8402,10.24886 -2.28674,4.12741 -6.69911,8.31605 -11.14383,10.57878 -4.04186,2.05764 -10.69915,2.72163 -15.57058,1.553 -4.18873,-1.00487 -7.16309,-3.20102 -17.56114,-12.96645 L 256,449.34672 l -0.37183,17.62923 c -0.21184,10.04417 -0.69169,18.93648 -1.11528,20.66758 -2.4042,9.82543 -10.49653,18.54016 -20.30914,21.87116 -4.95354,1.68153 -12.88573,2.13859 -17.35294,0.99989 z"
     id="path6" />
</svg>
