<?xml version="1.0" encoding="UTF-8" standalone="no"?>
<!-- Uploaded to: SVG Repo, www.svgrepo.com, Transformed by: SVG Repo Mixer Tools -->

<svg
   fill="#2a7d98"
   width="221px"
   height="221px"
   viewBox="0 0 24 24"
   data-name="Layer 1"
   stroke="#2a7d98"
   stroke-width="0.00024000000000000003"
   version="1.1"
   id="svg1"
   sodipodi:docname="undefined.svg"
   inkscape:version="1.3-beta (cedbd6c6ff, 2023-05-28)"
   xmlns:inkscape="http://www.inkscape.org/namespaces/inkscape"
   xmlns:sodipodi="http://sodipodi.sourceforge.net/DTD/sodipodi-0.dtd"
   xmlns="http://www.w3.org/2000/svg"
   xmlns:svg="http://www.w3.org/2000/svg">
  <defs
     id="defs1" />
  <sodipodi:namedview
     id="namedview1"
     pagecolor="#ffffff"
     bordercolor="#000000"
     borderopacity="0.25"
     inkscape:showpageshadow="2"
     inkscape:pageopacity="0.0"
     inkscape:pagecheckerboard="0"
     inkscape:deskcolor="#d1d1d1"
     showgrid="false"
     inkscape:zoom="3.678733"
     inkscape:cx="110.5"
     inkscape:cy="110.5"
     inkscape:window-width="1920"
     inkscape:window-height="1009"
     inkscape:window-x="-8"
     inkscape:window-y="-8"
     inkscape:window-maximized="1"
     inkscape:current-layer="svg1" />
  <g
     id="SVGRepo_bgCarrier"
     stroke-width="0" />
  <g
     id="SVGRepo_tracerCarrier"
     stroke-linecap="round"
     stroke-linejoin="round" />
  <g
     id="SVGRepo_iconCarrier">
    <path
       d="M18.42,8.22A7,7,0,0,0,5.06,10.11,4,4,0,0,0,6,18H8a1,1,0,0,0,0-2H6a2,2,0,0,1,0-4,1,1,0,0,0,1-1,5,5,0,0,1,9.73-1.61,1,1,0,0,0,.78.67A3,3,0,0,1,20,13a3,3,0,0,1-3,3,1,1,0,0,0,0,2,5,5,0,0,0,1.42-9.78Zm-5.5,10.4a.56.56,0,0,0-.09-.17l-.12-.16a1.15,1.15,0,0,0-.33-.21,1,1,0,0,0-1.09.21l-.12.16a.56.56,0,0,0-.09.17.64.64,0,0,0-.06.18,1.5,1.5,0,0,0,0,.2,1.23,1.23,0,0,0,0,.19.6.6,0,0,0,.06.19.56.56,0,0,0,.09.17l.12.16A1.05,1.05,0,0,0,12,20a1,1,0,0,0,.38-.08,1.15,1.15,0,0,0,.33-.21l.12-.16a.56.56,0,0,0,.09-.17.6.6,0,0,0,.06-.19A1.23,1.23,0,0,0,13,19a1.5,1.5,0,0,0,0-.2A.64.64,0,0,0,12.92,18.62ZM12,11a3,3,0,0,0-2.6,1.5,1,1,0,0,0,.37,1.37,1,1,0,0,0,1.36-.37A1,1,0,0,1,12,13a1,1,0,0,1,0,2,1,1,0,0,0,0,2,3,3,0,0,0,0-6Z"
       id="path1" />
  </g>
  <path
     style="opacity:0.75;fill:#002a31;fill-opacity:0.937255;stroke-width:6.52399e-05"
     d="M 49.337638,165.12334 C 39.19285,163.4092 30.264482,157.62387 24.58056,149.08147 c -7.050332,-10.596 -8.019439,-24.20627 -2.542264,-35.7039 1.990273,-4.17796 4.074385,-7.13049 7.30886,-10.35435 4.360792,-4.346486 9.011433,-7.188478 14.745942,-9.011201 l 2.638608,-0.838685 0.172103,-1.258561 C 47.265797,89.267576 48.47984,84.273892 49.522438,81.143621 52.605209,71.888014 57.523919,63.822392 64.420899,56.713363 80.05691,40.596615 102.3147,33.90115 124.49938,38.640886 c 6.04516,1.291542 14.42097,4.712633 19.84379,8.105177 5.43122,3.397792 11.60344,8.776112 15.68568,13.668112 2.6376,3.160789 6.0795,8.46944 7.86749,12.134476 l 1.59136,3.261998 1.76691,0.583079 c 2.85311,0.94152 8.63144,3.932911 11.41192,5.907841 3.07365,2.183167 8.00065,6.989531 10.1653,9.916389 6.39538,8.647302 9.45617,18.496902 9.05077,29.125232 -0.26195,6.86743 -1.51333,11.978 -4.43293,18.10375 -6.26121,13.13697 -18.04158,22.28624 -32.58313,25.30581 -2.27228,0.47184 -3.93644,0.6253 -6.93173,0.63918 -3.75631,0.0174 -4.00546,-0.0155 -5.30074,-0.70094 -3.09641,-1.63849 -4.79451,-4.2436 -4.97433,-7.63127 -0.1764,-3.32326 1.10682,-6.09777 3.61992,-7.82683 1.79495,-1.23495 2.99496,-1.56373 6.84496,-1.87536 1.91396,-0.15492 4.45853,-0.53866 5.65459,-0.85276 7.94811,-2.08727 15.07419,-8.27548 18.28046,-15.87454 5.21577,-12.3617 0.86358,-26.68429 -10.32221,-33.969296 -2.92597,-1.90561 -5.48521,-2.985047 -9.13564,-3.853226 -5.23932,-1.246068 -7.22667,-2.904658 -8.73563,-7.290537 -3.253,-9.455017 -11.42193,-19.139381 -20.40615,-24.191746 -13.05165,-7.339732 -28.17001,-8.087077 -41.846238,-2.068583 -9.6747,4.257541 -18.296427,12.692818 -22.795549,22.302586 -2.696227,5.758931 -3.980278,10.944632 -4.387633,17.719665 -0.290103,4.824967 -0.890263,6.506207 -3.040544,8.517537 -1.870644,1.74977 -3.317384,2.31568 -6.589541,2.57758 -3.569394,0.2857 -4.994583,0.64242 -7.637558,1.91167 -5.313433,2.5517 -8.887716,7.17368 -10.073633,13.02642 -1.92532,9.50184 4.046509,19.10161 13.365385,21.48498 1.901272,0.48626 3.045062,0.53656 12.314153,0.54152 10.879852,0.006 12.926663,0.15594 14.855275,1.08957 1.580718,0.76521 3.411098,2.61028 4.223777,4.25766 0.54067,1.096 0.645329,1.72444 0.647772,3.88962 0.0026,2.27056 -0.08393,2.74719 -0.716192,3.94695 -0.99475,1.88761 -3.046285,3.73049 -4.942759,4.44005 -1.512259,0.56581 -1.919321,0.58264 -13.44197,0.55581 -8.615996,-0.0201 -12.480299,-0.12868 -14.057147,-0.39512 z"
     id="path2"
     transform="scale(0.10859729)" />
  <path
     style="opacity:0.75;fill:#002a31;fill-opacity:0.937255;stroke-width:6.52399e-05"
     d="m 49.346348,164.97169 c -0.892256,-0.12997 -2.693721,-0.54456 -4.003256,-0.9213 -11.733598,-3.37566 -21.152843,-12.43488 -24.904531,-23.95263 -1.317029,-4.0433 -1.546445,-5.71885 -1.540219,-11.24905 0.0052,-4.63415 0.08619,-5.62549 0.643879,-7.88315 3.171571,-12.83926 11.915784,-22.464031 24.222847,-26.662131 1.420326,-0.48449 2.718604,-0.984545 2.885064,-1.11123 0.166459,-0.126685 0.381772,-0.903512 0.478474,-1.726285 0.245552,-2.089271 2.129013,-9.3196 3.149576,-12.09076 7.235771,-19.647477 24.179763,-34.938224 44.416569,-40.082799 5.650209,-1.436388 9.312559,-1.878596 15.669329,-1.89198 8.93308,-0.01881 14.84301,1.042218 22.78662,4.09094 8.79184,3.374272 15.37335,7.611011 22.29868,14.354421 5.0304,4.898249 8.63657,9.808457 12.23503,16.659384 l 1.80329,3.433196 1.49508,0.496812 c 2.19322,0.7288 8.26333,3.784923 10.52216,5.297596 8.10201,5.425699 14.87072,14.240383 17.88642,23.292966 1.51611,4.55107 2.05656,7.66565 2.22702,12.83414 0.28866,8.75231 -1.00582,14.86861 -4.70693,22.23983 -6.22872,12.40527 -16.90465,20.77477 -30.9383,24.25438 -2.09696,0.51994 -3.76758,0.71633 -7.13896,0.83921 -4.37702,0.15954 -4.40962,0.15638 -5.89607,-0.57087 -1.94987,-0.95398 -4.05227,-3.24682 -4.6629,-5.08526 -0.71281,-2.14606 -0.4651,-5.39165 0.55446,-7.26492 1.6857,-3.09719 3.77273,-4.17086 9.33787,-4.80384 6.22972,-0.70857 9.30641,-1.70071 13.27089,-4.27948 3.87583,-2.5211 6.71996,-5.42928 9.0327,-9.23612 4.16139,-6.84979 5.00483,-15.9487 2.19266,-23.6542 -3.2347,-8.86332 -10.00327,-14.877556 -19.77773,-17.573587 -5.63371,-1.553913 -7.18356,-2.826134 -8.90879,-7.312909 -1.44315,-3.753216 -2.79468,-6.355748 -4.98457,-9.598405 -7.05359,-10.444556 -17.06316,-17.146415 -29.65815,-19.857458 -3.89141,-0.837618 -12.82694,-0.907128 -16.98954,-0.132163 -5.790332,1.078004 -12.315595,3.674106 -17.125463,6.813431 -6.970223,4.549355 -13.289325,11.804535 -16.590152,19.047725 -2.42117,5.312905 -3.692613,10.246242 -4.203624,16.310501 -0.522391,6.199345 -1.034981,7.740375 -3.236127,9.728985 -1.79781,1.62421 -3.018072,2.08952 -6.639675,2.53186 -4.278413,0.52256 -4.995793,0.72421 -7.930668,2.22926 -6.192404,3.17556 -9.921894,9.37722 -9.921894,16.49882 0,5.24024 1.825875,9.5345 5.667101,13.3284 1.923077,1.89938 3.933688,3.1825 6.49971,4.14796 2.012451,0.75718 0.608166,0.67161 18.278453,1.11368 9.791083,0.24495 10.150019,0.32166 12.603674,2.69355 1.962548,1.89714 2.613044,3.46899 2.616303,6.32202 0.0022,1.95031 -0.109011,2.54925 -0.689988,3.71512 -0.849561,1.70485 -2.675603,3.43107 -4.555201,4.30619 l -1.412057,0.65744 -12.368389,-0.0305 c -6.802613,-0.0168 -13.098417,-0.13683 -13.990675,-0.2668 z"
     id="path3"
     transform="scale(0.10859729)" />
  <path
     style="opacity:0.75;fill:#002a31;fill-opacity:0.937255;stroke-width:6.52399e-05"
     d="m 57.628536,165.00053 c -9.132777,-0.15928 -9.439187,-0.18233 -11.707356,-0.88081 -12.4534,-3.83496 -21.09189,-11.94285 -25.235194,-23.68518 -1.255453,-3.55802 -1.658,-6.36708 -1.655642,-11.55348 0.0024,-5.29227 0.228212,-6.9276 1.487294,-10.77124 3.692069,-11.27089 11.771903,-19.541265 23.0896,-23.634114 1.483028,-0.53631 2.847552,-1.100542 3.032276,-1.25385 0.184721,-0.153306 0.474139,-1.099104 0.643145,-2.101773 0.492327,-2.920815 2.623376,-10.588202 3.650673,-13.134902 C 55.82575,65.856722 64.390821,55.36633 75.433579,47.97758 c 3.838257,-2.568192 10.521359,-5.813191 14.989112,-7.278003 7.684423,-2.519442 13.706939,-3.353932 22.387889,-3.102106 8.39414,0.243507 13.94616,1.431452 22.01845,4.711213 8.42361,3.422501 14.7718,7.782517 21.76723,14.950009 4.59424,4.707242 7.66656,9.02534 11.38413,16.000225 l 1.44885,2.718327 2.63843,1.038442 c 3.33867,1.314047 8.54192,4.121473 11.01167,5.941371 2.76835,2.039936 8.15157,7.578925 10.19372,10.48869 3.58835,5.11288 6.30202,11.303722 7.53507,17.190172 0.70471,3.36425 0.70037,14.89871 -0.007,18.17874 -0.78046,3.61972 -1.75585,6.44745 -3.45458,10.01507 -5.40034,11.3416 -13.73607,19.04288 -25.55017,23.60549 -4.0159,1.55094 -7.50862,2.29097 -12.12539,2.56908 -5.70266,0.34353 -6.4083,0.17398 -8.87384,-2.13224 -2.36721,-2.21425 -3.21855,-4.78352 -2.6408,-7.96965 0.37593,-2.07314 0.80093,-2.9295 2.21542,-4.46405 1.42938,-1.55069 3.19584,-2.19391 7.83193,-2.85186 7.73918,-1.09832 11.11981,-2.42302 15.81838,-6.19844 6.68263,-5.36965 10.26703,-12.88734 10.27679,-21.55388 0.009,-7.63693 -2.69044,-14.33474 -7.87476,-19.54161 -3.57557,-3.59112 -7.31755,-5.712369 -13.46054,-7.63048 -5.83487,-1.821907 -6.88971,-2.713231 -8.98595,-7.592992 -2.57415,-5.992275 -5.04874,-10.014312 -8.81293,-14.323934 -7.21337,-8.258583 -18.17335,-14.105492 -28.62528,-15.270951 -9.8818,-1.101886 -18.960855,0.511129 -27.514335,4.888287 -10.182337,5.210709 -18.558316,14.924292 -22.256603,25.81088 -1.237298,3.642219 -1.917915,6.974127 -2.470505,12.094148 -0.618025,5.726342 -0.99164,6.911972 -2.790289,8.854722 -1.805924,1.95062 -3.149348,2.50322 -7.572708,3.11492 -5.46741,0.75609 -8.378244,2.14828 -11.978582,5.72909 -3.614658,3.59506 -5.251075,7.65203 -5.251075,13.01836 0,4.68296 1.149958,7.9952 4.034287,11.62002 1.964583,2.46894 3.881353,3.9543 6.97142,5.40236 l 2.416946,1.13261 7.351999,0.23552 c 16.12363,0.51651 18.437318,0.66157 19.735833,1.23743 1.543303,0.68442 3.706025,2.85459 4.413079,4.42828 0.82303,1.83182 0.810814,5.41052 -0.02427,7.11006 -0.765038,1.55699 -2.785405,3.48573 -4.630953,4.42094 -1.567545,0.79434 -0.163975,0.76323 -19.345256,0.42869 z"
     id="path4"
     transform="scale(0.10859729)" />
  <path
     style="opacity:0.75;fill:#002a31;fill-opacity:0.937255;stroke-width:6.52399e-05"
     d="m 59.939114,165.00166 c -6.250494,-0.11556 -11.690073,-0.33525 -12.385951,-0.50024 -2.232549,-0.5293 -6.048711,-1.9836 -8.681084,-3.30828 -7.032114,-3.53873 -13.157127,-9.74069 -16.372473,-16.57813 -1.282245,-2.7267 -2.329225,-5.69362 -2.82831,-8.01484 -0.568394,-2.64357 -0.783465,-9.7342 -0.391772,-12.91628 0.5497,-4.46573 2.806339,-10.3203 5.661233,-14.68737 4.375236,-6.69272 10.618433,-11.471979 19.159244,-14.66669 1.305524,-0.488334 2.480748,-1.025372 2.611606,-1.193419 0.13086,-0.168045 0.560763,-1.773434 0.955339,-3.56753 0.920643,-4.186064 2.84277,-10.5248 4.051855,-13.36209 1.265112,-2.968769 3.071734,-6.244976 5.321723,-9.650651 6.535609,-9.892558 14.739145,-17.126 25.394004,-22.391078 11.843545,-5.852465 23.551132,-7.710627 37.443702,-5.942852 9.90746,1.260687 21.41499,6.110686 29.20221,12.307659 8.4524,6.726321 14.18663,13.704036 19.15544,23.309352 1.13349,2.191186 1.15896,2.216795 2.80024,2.815235 2.39945,0.874883 8.1606,3.809619 10.68405,5.442461 3.03855,1.96615 9.79185,8.80349 12.06442,12.21455 3.1339,4.703902 5.36859,9.765723 6.72688,15.237123 0.99243,3.99769 0.90748,16.85268 -0.13782,20.8539 -1.42985,5.47324 -4.18002,11.30539 -7.59925,16.11535 -5.40043,7.59699 -13.59273,13.47356 -23.08966,16.56286 -4.23945,1.37907 -6.9629,1.78264 -12.04185,1.78439 l -4.23349,0.001 -1.52839,-1.15309 c -2.62662,-1.98167 -3.80854,-4.23374 -3.76709,-7.17798 0.0302,-2.14751 0.38919,-3.38635 1.44159,-4.97519 1.56106,-2.35677 3.47899,-3.166 9.73846,-4.10894 5.71109,-0.86034 8.71262,-1.89258 12.17993,-4.18875 7.05386,-4.67132 11.28342,-11.09889 12.56424,-19.0936 0.46778,-2.91984 0.21053,-8.71488 -0.50634,-11.4061 -1.30281,-4.89093 -3.63188,-8.98268 -7.10385,-12.48018 -3.49083,-3.51649 -6.79899,-5.413363 -13.21425,-7.576945 -4.44387,-1.49872 -6.0303,-2.324993 -7.06267,-3.678503 -0.39318,-0.515484 -1.48826,-2.633018 -2.4335,-4.705628 -5.31997,-11.664916 -12.3489,-19.247409 -22.58434,-24.362991 -6.38455,-3.190936 -11.44892,-4.45988 -18.73036,-4.693134 -7.59709,-0.243367 -12.883646,0.632945 -19.269513,3.194159 -13.72401,5.504364 -24.248452,17.66398 -27.631605,31.924711 -0.28375,1.196064 -0.822311,4.565569 -1.196804,7.48779 -0.37449,2.922221 -0.898372,5.901101 -1.16418,6.619731 -0.601795,1.62699 -2.670276,3.82501 -4.262332,4.52925 -0.659434,0.2917 -2.708897,0.78098 -4.554364,1.08729 -1.84547,0.3063 -3.967021,0.75069 -4.714561,0.98753 -5.984386,1.89601 -10.835344,7.00152 -12.376,13.02543 -1.104035,4.31673 -0.511198,9.98813 1.401347,13.40604 2.127624,3.80229 4.905686,6.44211 8.853912,8.41335 2.691419,1.34374 2.420828,1.31299 14.760962,1.67779 11.970516,0.35387 14.062682,0.54856 15.60449,1.45212 1.314145,0.77014 2.894243,2.41931 3.593903,3.75101 0.709228,1.3499 0.848833,5.31747 0.242931,6.90401 -0.531957,1.39291 -2.571048,3.56654 -4.290238,4.57331 -1.523641,0.89226 -3.312436,0.96423 -17.461664,0.70263 z"
     id="path5"
     transform="scale(0.10859729)" />
  <path
     style="opacity:0.75;fill:#002a31;fill-opacity:0.937255;stroke-width:6.52399e-05"
     d="m 107.19901,155.73779 c -2.01562,-0.77515 -3.72074,-2.3958 -4.77604,-4.53943 -0.77065,-1.5654 -0.89345,-2.09664 -0.89345,-3.86503 0,-1.76838 0.1228,-2.29962 0.89345,-3.86502 1.58905,-3.22782 4.12064,-4.84693 8.13817,-5.20485 3.98635,-0.35514 6.7058,-2.05819 8.21988,-5.1477 1.79937,-3.67162 1.25394,-7.51348 -1.487,-10.47402 -2.07166,-2.23765 -3.60184,-2.88972 -6.79402,-2.89522 -2.07911,-0.004 -2.67101,0.10231 -3.94157,0.7051 -1.74752,0.82908 -3.1124,2.09747 -4.48946,4.1721 -1.10942,1.67141 -3.629812,3.53325 -5.24599,3.87525 -5.793377,1.22596 -11.252161,-2.93184 -11.285322,-8.59571 -0.01356,-2.31679 0.387578,-3.47493 2.141641,-6.18312 3.565647,-5.5052 9.422851,-9.65931 16.128481,-11.43882 3.6179,-0.9601 9.32387,-1.01666 12.8919,-0.12779 6.97653,1.73799 12.8731,5.89511 16.78552,11.83389 6.05878,9.19681 5.94433,21.07458 -0.2928,30.38806 -1.70828,2.55084 -5.7498,6.39211 -8.37227,7.95743 -5.74622,3.42985 -13.60672,4.94871 -17.62112,3.40488 z"
     id="path6"
     transform="scale(0.10859729)" />
  <path
     style="opacity:0.75;fill:#002a31;fill-opacity:0.937255;stroke-width:6.52399e-05"
     d="m 108.96647,156.03784 c -2.84644,-0.50577 -4.92717,-2.12965 -6.33527,-4.94427 -0.81962,-1.63833 -0.96576,-2.20734 -0.96576,-3.76024 0,-1.55077 0.14635,-2.12233 0.95982,-3.74836 1.62744,-3.25306 3.35663,-4.37661 7.99693,-5.196 1.66851,-0.29463 3.57067,-0.79566 4.22703,-1.1134 1.62506,-0.78668 3.22888,-2.45556 4.13704,-4.30488 0.6662,-1.35659 0.7559,-1.84649 0.75474,-4.12198 -0.001,-2.27485 -0.0882,-2.74734 -0.73069,-3.96725 -0.96996,-1.84161 -2.92831,-3.81621 -4.50905,-4.54647 -1.06052,-0.48993 -1.77775,-0.59268 -4.13718,-0.59268 -2.65705,0 -2.95502,0.0558 -4.313,0.80797 -0.80232,0.44438 -1.96441,1.41364 -2.58241,2.15392 -2.04733,2.45238 -4.370875,4.65959 -5.472975,5.19896 -1.703342,0.83361 -4.984311,0.7494 -6.964357,-0.17874 -2.071847,-0.97118 -3.60731,-2.42437 -4.509046,-4.26745 -0.630713,-1.28913 -0.752756,-1.89105 -0.755635,-3.7268 -0.0031,-1.94889 0.09663,-2.38658 0.90755,-3.98492 2.302047,-4.53735 6.692371,-8.69721 11.865153,-11.24229 4.00502,-1.97052 6.43427,-2.57792 11.00923,-2.75269 2.99511,-0.11442 4.14498,-0.0416 6.25487,0.39613 7.86113,1.6309 14.93491,6.90604 18.73866,13.97401 7.22812,13.43099 1.83066,30.37172 -11.80965,37.06638 -4.64246,2.27852 -10.34334,3.45922 -13.766,2.85105 z"
     id="path7"
     transform="scale(0.10859729)" />
  <path
     style="opacity:0.75;fill:#002a31;fill-opacity:0.937255;stroke-width:6.52399e-05"
     d="m 108.18942,155.7958 c -2.54317,-0.84384 -4.47343,-2.60431 -5.66627,-5.16785 -1.42498,-3.06243 -0.72885,-6.57013 1.86163,-9.38046 1.29394,-1.40377 2.7257,-2.03334 6.25114,-2.74872 4.65804,-0.94521 6.72097,-2.26611 8.3397,-5.33994 0.70044,-1.33007 0.76669,-1.70344 0.76669,-4.3207 0,-2.79112 -0.0245,-2.90556 -0.95141,-4.44889 -1.29403,-2.15452 -3.29729,-3.87647 -5.13614,-4.41489 -1.94397,-0.5692 -6.0209,-0.40707 -7.34819,0.29222 -0.51229,0.26991 -2.48201,2.05592 -4.37716,3.96892 -3.788806,3.82448 -4.218218,4.06531 -7.253469,4.06804 -3.188523,0.003 -6.246618,-1.77004 -7.897642,-4.57857 -0.668888,-1.13783 -0.743244,-1.52267 -0.743244,-3.84673 0,-2.26246 0.09159,-2.76765 0.739275,-4.07749 3.101535,-6.27242 10.999504,-12.06953 18.36293,-13.47839 2.56487,-0.49074 8.62644,-0.49054 10.94196,3.6e-4 9.08971,1.92707 17.21949,9.18695 20.08689,17.93757 1.09523,3.3424 1.38189,5.15398 1.37767,8.70631 -0.008,7.12966 -2.45701,13.30259 -7.3074,18.42239 -4.91662,5.18972 -11.56102,8.27094 -18.37722,8.52212 -1.64458,0.0606 -3.29597,0.009 -3.66974,-0.1153 z"
     id="path8"
     transform="scale(0.10859729)" />
  <path
     style="opacity:0.75;fill:#002a31;fill-opacity:0.937255;stroke-width:6.52399e-05"
     d="m 107.99534,183.65383 c -2.74129,-0.89846 -4.79466,-2.79164 -5.89241,-5.43272 -0.58269,-1.40191 -0.58894,-5.17848 -0.0109,-6.56205 1.13288,-2.71135 3.46531,-4.71967 6.32608,-5.447 2.13045,-0.54166 3.76363,-0.35441 5.95729,0.68303 2.0496,0.96931 3.3796,2.34613 4.44855,4.60516 0.77348,1.63459 0.83562,1.96444 0.70296,3.73119 -0.36295,4.83365 -3.83148,8.36884 -8.51158,8.67514 -1.18258,0.0774 -2.29739,-0.0159 -3.02004,-0.25275 z"
     id="path9"
     transform="scale(0.10859729)" />
  <path
     style="opacity:0.75;fill:#002a31;fill-opacity:0.937255;stroke-width:6.52399e-05"
     d="m 107.57064,183.35731 c -1.31461,-0.49994 -3.23133,-1.87563 -3.93008,-2.82074 -1.40788,-1.90426 -1.75271,-3.00801 -1.75271,-5.6101 0,-3.00781 0.61926,-4.50604 2.62771,-6.35736 1.91014,-1.76071 3.38364,-2.33546 5.98444,-2.3343 1.81915,8.2e-4 2.42542,0.12334 3.70858,0.74944 1.79751,0.87708 3.44236,2.5608 4.45619,4.56151 0.63534,1.25378 0.71098,1.67858 0.62155,3.49039 -0.24794,5.02261 -3.70225,8.47362 -8.6504,8.64212 -1.27558,0.0434 -2.42301,-0.0767 -3.06528,-0.32096 z"
     id="path10"
     transform="scale(0.10859729)" />
  <path
     style="opacity:0.75;fill:#003548;fill-opacity:0.937255;stroke-width:6.52399e-05"
     d="m 106.90537,155.1914 c -2.83589,-1.40375 -4.9675,-4.73163 -4.96789,-7.75593 -2.6e-4,-2.04427 0.51038,-3.55551 1.79078,-5.29976 1.35043,-1.83965 2.69458,-2.53674 6.9656,-3.61244 2.02381,-0.50971 4.07511,-1.13125 4.55845,-1.3812 1.31253,-0.67874 3.07345,-2.56045 3.82467,-4.08704 0.5778,-1.1742 0.66533,-1.72758 0.66533,-4.20632 0,-3.43481 -0.42385,-4.4392 -2.8929,-6.85516 -1.24009,-1.21343 -1.92786,-1.65401 -3.1255,-2.00217 -2.00714,-0.58349 -6.06865,-0.43542 -7.4074,0.27006 -0.50682,0.26708 -2.54246,2.05552 -4.52364,3.97433 -4.058719,3.93094 -4.677899,4.25045 -7.697406,3.97203 -3.136512,-0.2892 -6.041854,-2.17114 -7.369547,-4.77364 -0.444249,-0.8708 -0.554945,-1.6066 -0.554945,-3.68877 0,-2.33971 0.08052,-2.7605 0.801549,-4.18885 2.813242,-5.573 9.663332,-10.83041 16.736599,-12.84524 1.87832,-0.53505 2.80861,-0.61891 6.9268,-0.62442 4.23247,-0.006 4.9819,0.0636 6.79582,0.62847 3.33116,1.03727 5.15425,1.89395 7.89512,3.70999 9.79424,6.48942 14.239,18.1808 11.26,29.61795 -1.76857,6.79002 -6.74472,13.04166 -13.1748,16.55179 -4.04945,2.21055 -7.80796,3.1652 -12.46026,3.16485 -2.39258,-1.7e-4 -3.09863,-0.0994 -4.04643,-0.56853 z"
     id="path11"
     transform="scale(0.10859729)" />
  <path
     style="opacity:0.75;fill:#003548;fill-opacity:0.937255;stroke-width:6.52399e-05"
     d="m 108.01496,155.50084 c -1.19806,-0.2857 -2.62576,-1.21951 -3.65266,-2.38908 -3.0316,-3.4528 -3.07178,-8.17771 -0.0975,-11.46983 1.32958,-1.47168 1.8076,-1.70276 6.14757,-2.97184 1.99334,-0.58289 4.05178,-1.24114 4.5743,-1.46278 1.16592,-0.49456 3.06505,-2.37845 4.01013,-3.97796 0.62827,-1.06334 0.70616,-1.4886 0.72192,-3.94158 0.0244,-3.80608 -0.28475,-4.64698 -2.53924,-6.90595 -1.5863,-1.58944 -2.11354,-1.94193 -3.47697,-2.32448 -1.72329,-0.48354 -4.12081,-0.56513 -5.98852,-0.20381 -1.33687,0.25862 -2.5265,1.13477 -6.07203,4.47199 -3.779723,3.55765 -4.289784,3.85116 -6.617246,3.80781 -3.452133,-0.0643 -6.736438,-1.91062 -8.094592,-4.55051 -0.811787,-1.57789 -0.985128,-4.83433 -0.359477,-6.75326 1.828508,-5.60821 9.954187,-12.17109 17.439725,-14.08556 1.684,-0.4307 3.00689,-0.5349 6.79096,-0.5349 4.31572,0 4.88376,0.0582 6.95473,0.71241 3.17634,1.00341 4.7904,1.76178 7.21471,3.38986 3.07646,2.06604 4.54396,3.37725 6.51329,5.81963 5.45865,6.76987 7.27902,16.02246 4.82102,24.50448 -2.86869,9.89924 -11.9299,17.61679 -22.12816,18.84684 -2.59723,0.31326 -4.89692,0.32018 -6.16191,0.0185 z"
     id="path12"
     transform="scale(0.10859729)" />
  <path
     style="opacity:0.75;fill:#003548;fill-opacity:0.937255;stroke-width:6.52399e-05"
     d="m 107.54792,155.33496 c -1.70354,-0.54699 -3.77039,-2.58929 -4.73174,-4.67554 -1.80386,-3.91456 -0.0378,-9.02215 3.69079,-10.6741 0.64448,-0.28554 2.66284,-0.95498 4.48524,-1.48764 4.54803,-1.32933 4.5872,-1.34871 6.24917,-3.09111 2.23001,-2.33793 2.46541,-2.93582 2.47494,-6.28603 0.01,-3.46352 -0.4216,-4.58964 -2.59139,-6.76374 -1.80983,-1.81342 -3.25326,-2.48136 -5.7743,-2.67203 -3.95631,-0.29921 -4.71784,0.0757 -10.11885,4.98243 -3.600513,3.27096 -3.984423,3.45911 -6.760778,3.31339 -3.390949,-0.17798 -5.856128,-1.59397 -7.426963,-4.26603 -0.669051,-1.13808 -0.7371,-1.50504 -0.736602,-3.97225 5.18e-4,-2.56722 0.05115,-2.81167 0.910822,-4.39756 2.908462,-5.36543 9.389501,-10.35795 16.214091,-12.49016 1.37712,-0.43025 2.51957,-0.50957 7.33948,-0.50957 h 5.70849 l 2.95572,1.14957 c 8.49848,3.30531 14.66641,10.01668 17.05559,18.5583 0.56432,2.01751 0.6464,2.89671 0.64713,6.93174 7.3e-4,3.97704 -0.0865,4.94321 -0.62568,6.93173 -2.62676,9.68724 -10.96868,17.46215 -20.71234,19.30449 -2.76856,0.52348 -6.80411,0.57928 -8.25282,0.11411 z"
     id="path13"
     transform="scale(0.10859729)" />
  <path
     style="opacity:0.75;fill:#003548;fill-opacity:0.937255;stroke-width:6.52399e-05"
     d="m 107.90503,155.39014 c -4.7585,-1.28343 -7.18,-7.33565 -4.82314,-12.0548 1.22166,-2.44612 2.59104,-3.22085 9.51823,-5.38491 3.10236,-0.96918 3.22759,-1.03912 4.69145,-2.62026 2.22042,-2.39832 2.40453,-2.87217 2.41277,-6.20963 0.006,-2.30858 -0.0995,-3.0881 -0.55011,-4.07749 -0.65522,-1.43853 -3.4373,-4.17402 -4.9065,-4.82431 -1.41125,-0.62464 -6.06061,-0.63551 -7.45376,-0.0174 -0.54324,0.24101 -2.47699,1.76539 -4.29723,3.38751 -4.979199,4.43724 -5.107058,4.50817 -7.898953,4.3818 -3.507556,-0.15877 -5.942281,-1.53794 -7.567609,-4.28674 -0.655083,-1.1079 -0.722675,-1.47959 -0.716772,-3.94158 0.0058,-2.39884 0.09034,-2.87854 0.71971,-4.08149 2.799192,-5.35025 8.784513,-10.15609 15.642784,-12.56019 2.04784,-0.71784 2.30285,-0.74183 7.96002,-0.74861 5.79161,-0.007 5.86281,6e-5 7.88315,0.77469 8.99509,3.44887 14.92948,9.44309 17.66082,17.83885 0.85825,2.63815 1.186,5.70574 1.01654,9.51415 -0.18195,4.0889 -0.85058,6.85672 -2.42424,10.0353 -4.13618,8.35445 -11.97887,13.95252 -20.94813,14.95265 -3.24516,0.36186 -4.3433,0.34748 -5.91903,-0.0775 z"
     id="path14"
     transform="scale(0.10859729)" />
  <path
     style="opacity:0.75;fill:#003548;fill-opacity:0.937255;stroke-width:6.52399e-05"
     d="m 107.62105,155.33785 c -0.68637,-0.21143 -1.81338,-0.88214 -2.50446,-1.49045 -3.57066,-3.14302 -4.00713,-8.62158 -0.9635,-12.09365 1.08692,-1.23992 3.07896,-2.1813 7.16241,-3.38478 3.62541,-1.06849 4.60119,-1.55146 5.86972,-2.90528 1.65452,-1.76576 2.12032,-2.65401 2.42645,-4.62705 0.36658,-2.36273 0.0106,-4.84716 -0.92276,-6.4398 -0.85338,-1.45618 -3.14876,-3.60739 -4.45696,-4.17702 -1.3911,-0.60573 -6.07456,-0.62738 -7.40399,-0.0342 -0.52454,0.23403 -2.63442,1.90874 -4.68862,3.72158 -2.0542,1.81283 -4.12352,3.49702 -4.59849,3.74264 -1.182379,0.61143 -4.776729,0.42043 -6.490699,-0.34491 -1.628098,-0.727 -3.096435,-2.04295 -4.006112,-3.59035 -0.661921,-1.12595 -0.73715,-1.51747 -0.73715,-3.83633 0,-2.996 0.224593,-3.67913 2.124509,-6.46201 2.894561,-4.23977 8.078915,-8.03081 14.049542,-10.27368 2.00334,-0.75255 2.14258,-0.76613 8.01906,-0.78169 5.85661,-0.0155 6.02074,-6.1e-4 7.93412,0.71974 9.29865,3.50076 15.51162,9.98214 18.0837,18.86492 0.54641,1.88706 0.62063,2.73677 0.61479,7.03912 -0.006,4.23652 -0.0881,5.17703 -0.61348,7.01015 -2.21337,7.72204 -7.74031,14.10588 -15.1023,17.44381 -4.38758,1.98933 -10.68777,2.85668 -13.79578,1.89926 z"
     id="path15"
     transform="scale(0.10859729)" />
  <path
     style="opacity:0.75;fill:#003548;fill-opacity:0.937255;stroke-width:6.52399e-05"
     d="m 107.46206,155.31501 c -1.70298,-0.60343 -3.47666,-2.31907 -4.45767,-4.3118 -1.99644,-4.05533 -0.52467,-8.94435 3.27169,-10.86811 0.69392,-0.35164 2.8915,-1.13277 4.8835,-1.73584 3.99274,-1.20878 5.18263,-1.86117 6.64128,-3.64126 1.49324,-1.8223 1.85769,-2.95002 1.86729,-5.77793 0.0103,-3.04129 -0.50624,-4.37718 -2.51307,-6.49911 -2.05623,-2.17416 -3.32489,-2.6901 -6.65508,-2.70648 -3.46985,-0.0171 -3.82768,0.15788 -8.08033,3.95071 -4.67115,4.16608 -5.115421,4.4052 -7.902775,4.25347 -3.490019,-0.18997 -5.879241,-1.55329 -7.472856,-4.2641 -0.669529,-1.13889 -0.736933,-1.50328 -0.734781,-3.97225 0.0021,-2.42487 0.08255,-2.87427 0.7451,-4.16292 2.660508,-5.17464 8.34796,-9.76234 15.426582,-12.44363 2.01649,-0.76382 2.1055,-0.77235 8.15498,-0.78149 l 6.11623,-0.009 2.27559,0.91593 c 9.00495,3.62451 14.97571,10.00298 17.49026,18.68456 0.55294,1.90904 0.61911,2.70167 0.59904,7.17503 -0.0208,4.64086 -0.0788,5.21365 -0.75088,7.42307 -2.50071,8.22056 -9.17018,15.12882 -17.21242,17.82867 -3.78257,1.26984 -9.47351,1.72872 -11.69168,0.94273 z"
     id="path16"
     transform="scale(0.10859729)" />
  <path
     style="opacity:0.75;fill:#003548;fill-opacity:0.937255;stroke-width:6.52399e-05"
     d="m 108.01496,155.51969 c -2.09193,-0.54502 -4.06505,-2.40083 -5.22245,-4.91196 -1.30527,-2.83195 -0.75929,-6.43791 1.33611,-8.82444 1.11947,-1.27501 2.6383,-2.04041 6.23546,-3.14232 4.74498,-1.45352 5.22534,-1.67843 6.66958,-3.12268 2.00616,-2.00617 2.41194,-3.01913 2.5254,-6.30427 0.11556,-3.34569 -0.29813,-4.50644 -2.39707,-6.72575 -1.98381,-2.09758 -3.52336,-2.71317 -6.79791,-2.71815 -3.32592,-0.005 -3.76616,0.2145 -7.95736,3.96839 -4.621879,4.13964 -5.09226,4.39243 -7.889825,4.24015 -2.606871,-0.1419 -4.209171,-0.76132 -5.884429,-2.27481 -1.642629,-1.48402 -2.25601,-2.84608 -2.404991,-5.34046 -0.09083,-1.52075 0.0018,-2.48567 0.336906,-3.51026 1.700079,-5.19769 8.619851,-11.12005 16.188389,-13.85501 1.65423,-0.59777 2.15696,-0.63895 7.88315,-0.64579 l 6.11623,-0.007 2.58241,1.02945 c 6.74705,2.68964 12.23836,7.53675 15.15562,13.37768 2.2681,4.54119 2.9306,7.87818 2.71406,13.67074 -0.12437,3.32719 -0.27319,4.38626 -0.88653,6.30897 -3.49713,10.96297 -13.23657,18.48926 -24.45855,18.9007 -1.64458,0.0603 -3.37448,0.009 -3.8442,-0.11287 z"
     id="path17"
     transform="scale(0.10859729)" />
  <path
     style="opacity:0.75;fill:#80ddff;fill-opacity:0.93725502;stroke-width:0.0000652399"
     d="m 107.57725,155.39174 c -4.28144,-1.60945 -6.74095,-7.27993 -4.9161,-11.33421 1.25931,-2.79781 2.88482,-3.94228 7.70293,-5.42341 4.80361,-1.47667 5.2293,-1.67554 6.66958,-3.11583 2.125,-2.12501 2.43682,-2.97847 2.43682,-6.66958 0,-2.90098 -0.0523,-3.21416 -0.72584,-4.34932 -1.01579,-1.71188 -2.83781,-3.40007 -4.43898,-4.11294 -1.09635,-0.4881 -1.85852,-0.60492 -3.94158,-0.6041 -3.28392,0.001 -3.76135,0.24119 -8.01906,4.02963 -4.572725,4.06873 -5.041703,4.31836 -7.828125,4.16668 -2.606871,-0.1419 -4.209171,-0.76132 -5.884429,-2.27481 -1.598984,-1.44459 -2.250207,-2.85428 -2.403592,-5.20299 -0.227216,-3.47927 0.811087,-5.88815 4.075086,-9.45429 2.924784,-3.19553 7.223878,-6.02212 12.09804,-7.95428 1.81698,-0.72027 1.94576,-0.73184 8.23392,-0.73949 l 6.38807,-0.008 2.70987,1.16223 c 8.35695,3.58421 13.89263,9.4901 16.61871,17.73014 0.73551,2.22318 0.76442,2.51624 0.76442,7.74724 0,5.23997 -0.0278,5.52024 -0.76817,7.74723 -3.00305,9.03287 -10.12495,15.86298 -18.8981,18.12384 -3.26423,0.84119 -8.33007,1.11623 -9.87347,0.53604 z"
     id="path18"
     transform="scale(0.10859729)" />
  <path
     style="opacity:0.75;fill:#80ddff;fill-opacity:0.937255;stroke-width:6.52399e-05"
     d="m 106.93552,182.93326 c -1.70432,-0.84364 -3.16308,-2.22269 -4.05549,-3.83388 -0.74762,-1.34977 -0.80582,-1.65623 -0.79295,-4.17502 0.0113,-2.21724 0.11933,-2.92 0.58589,-3.81235 0.65917,-1.26075 2.83082,-3.38313 4.18251,-4.08762 1.36329,-0.71054 4.71386,-0.84787 6.46837,-0.26511 1.75778,0.58384 3.99703,2.59179 5.05205,4.53022 0.6756,1.24131 0.77964,1.7139 0.74553,3.38655 -0.0802,3.93175 -2.07222,7.01412 -5.31774,8.22843 -2.11742,0.79222 -5.29891,0.80556 -6.86817,0.0288 z"
     id="path19"
     transform="scale(0.10859729)" />
  <path
     style="opacity:0.75;fill:#80ddff;fill-opacity:0.937255;stroke-width:6.52399e-05"
     d="m 108.58185,183.23486 c -2.27357,-0.3672 -4.62424,-2.29832 -5.83617,-4.79454 -0.61685,-1.27053 -0.73861,-4.68012 -0.23228,-6.50398 0.40374,-1.45432 3.57252,-4.60252 5.04383,-5.01108 1.70264,-0.47279 4.95759,-0.35244 6.24201,0.23079 2.35106,1.06759 4.79771,4.01316 5.14682,6.19637 0.41734,2.60992 -1.04922,6.61925 -2.95216,8.07068 -1.97894,1.50942 -4.88533,2.21984 -7.41205,1.81176 z"
     id="path20"
     transform="scale(0.10859729)" />
  <path
     style="opacity:0.75;fill:#80ddff;fill-opacity:0.937255;stroke-width:6.52399e-05"
     d="m 107.46206,182.77012 c -1.54351,-0.54693 -3.3439,-2.1929 -4.28008,-3.91297 -0.69005,-1.26784 -0.77702,-1.70194 -0.78747,-3.93055 -0.0104,-2.22194 0.0685,-2.64221 0.69772,-3.7159 0.8139,-1.38882 2.71084,-3.22537 4.04673,-3.9179 1.3885,-0.7198 5.24156,-0.6442 6.84995,0.13441 1.44022,0.6972 3.42502,2.73766 4.26547,4.38508 1.28556,2.51991 0.0311,7.4888 -2.39795,9.49851 -1.99621,1.65157 -5.92452,2.33448 -8.39437,1.45932 z"
     id="path21"
     transform="scale(0.10859729)" />
  <path
     style="opacity:0.75;fill:#80ddff;fill-opacity:0.937255;stroke-width:6.52399e-05"
     d="m 106.91373,182.37881 c -1.39901,-0.69251 -3.21062,-2.6141 -3.90371,-4.14073 -0.71081,-1.56563 -0.71633,-5.06099 -0.0104,-6.57572 0.63953,-1.37223 3.10658,-3.78561 4.43353,-4.33706 1.18965,-0.4944 3.81655,-0.54708 5.54739,-0.11125 1.47268,0.37083 3.84762,2.42627 4.92235,4.26015 0.59829,1.0209 0.71836,1.54387 0.69384,3.02193 -0.0634,3.82444 -2.20991,7.11548 -5.22387,8.00939 -2.1338,0.63286 -5.03979,0.57585 -6.45913,-0.12671 z"
     id="path22"
     transform="scale(0.10859729)" />
  <path
     style="opacity:0.75;fill:#c6efff;fill-opacity:0.93725502;stroke-width:0.0000652399"
     d="m 107.23801,182.43582 c -1.52521,-0.69528 -2.6527,-1.71313 -3.6924,-3.33336 -0.78551,-1.22412 -0.9084,-1.66863 -1.01318,-3.66501 -0.10736,-2.04542 -0.0469,-2.41976 0.60624,-3.75476 0.92124,-1.88295 3.30998,-4.10902 4.86168,-4.53062 0.68515,-0.18615 1.94512,-0.24289 3.15587,-0.1421 2.4033,0.20005 3.77603,0.90618 5.46897,2.81323 1.64907,1.85762 1.97901,2.79853 1.83764,5.24055 -0.21774,3.76128 -2.22021,6.50826 -5.44175,7.46495 -1.89803,0.56366 -4.43212,0.52295 -5.78307,-0.0929 z"
     id="path23"
     transform="scale(0.10859729)" />
  <path
     style="opacity:0.75;fill:#c6efff;fill-opacity:0.937255;stroke-width:6.52399e-05"
     d="m 106.80489,154.83231 c -2.49199,-1.33777 -4.31808,-4.26304 -4.53436,-7.26374 -0.11147,-1.54659 -0.0261,-2.03066 0.59924,-3.39791 1.35103,-2.9539 2.75016,-3.87346 8.85348,-5.81889 3.6407,-1.16046 3.6839,-1.18387 5.45854,-2.95785 2.10968,-2.10889 2.42774,-3.01225 2.41864,-6.86946 -0.007,-3.08415 -0.46217,-4.24727 -2.43115,-6.21625 -2.08754,-2.08754 -3.35623,-2.5659 -6.8052,-2.5659 -3.4856,0 -3.84402,0.17925 -8.42681,4.21429 -4.155004,3.65838 -4.636959,3.89669 -7.593048,3.75453 -1.92989,-0.0928 -2.578236,-0.24787 -3.784621,-0.90517 -1.764351,-0.9613 -3.36455,-2.71312 -3.797116,-4.1569 -0.494471,-1.6504 -0.39889,-4.7312 0.195301,-6.29498 1.790932,-4.71335 8.122351,-10.1457 15.115404,-12.969 l 1.90283,-0.76823 h 6.79581 6.79582 l 2.91016,1.40253 c 7.30309,3.51967 12.16668,8.4663 14.89728,15.15166 1.50958,3.69592 1.70019,5.01097 1.56376,10.78877 -0.10605,4.49083 -0.1886,5.20066 -0.80338,6.90796 -3.2678,9.07505 -9.96648,15.42479 -18.83965,17.85829 -1.25452,0.34406 -3.15315,0.56525 -5.57257,0.6492 -3.50611,0.12167 -3.72542,0.0975 -4.91836,-0.54295 z"
     id="path24"
     transform="scale(0.10859729)" />
  <path
     style="opacity:0.75;fill:#c6efff;fill-opacity:0.937255;stroke-width:6.52399e-05"
     d="m 106.54228,154.46516 c -4.4671,-2.89057 -5.45888,-9.29454 -1.95661,-12.63399 1.01365,-0.96652 3.4551,-2.12667 6.72983,-3.19794 3.60721,-1.18003 4.36341,-1.59432 6.03602,-3.30692 1.96699,-2.01402 2.25488,-2.84631 2.25488,-6.51896 0,-3.72837 -0.38175,-4.68348 -2.74722,-6.8735 -1.2047,-1.11533 -2.01231,-1.61602 -3.13147,-1.94136 -1.97786,-0.57499 -5.80362,-0.43958 -7.2207,0.25555 -0.55155,0.27056 -2.50875,1.77533 -4.34932,3.34393 -4.292998,3.65865 -4.758842,3.89758 -7.599166,3.89758 -2.523507,0 -3.725792,-0.43831 -5.597911,-2.04077 -1.721773,-1.47378 -2.32029,-2.97718 -2.299625,-5.77639 0.01557,-2.10849 0.110703,-2.52338 0.983627,-4.28962 2.126359,-4.3024 7.558876,-8.82113 14.020455,-11.66212 l 2.20136,-0.96788 h 6.86499 6.86499 l 2.2962,1.10771 c 4.89263,2.36024 9.79926,6.2796 12.33505,9.8531 1.21164,1.70747 2.91223,5.02742 3.7147,7.25198 0.57308,1.58866 0.64709,2.32337 0.7336,7.28254 0.10852,6.22041 -0.0203,7.11878 -1.51869,10.59441 -3.21985,7.46853 -9.25578,12.97166 -16.91004,15.41739 -1.95457,0.62453 -2.93882,0.759 -6.38807,0.87277 l -4.07749,0.13448 z"
     id="path25"
     transform="scale(0.10859729)" />
  <path
     style="opacity:0.75;fill:#c6efff;fill-opacity:0.937255;stroke-width:6.52399e-05"
     d="m 108.6659,182.63299 c -1.57811,-0.22984 -2.88488,-1.00798 -4.12414,-2.45577 -1.43392,-1.67522 -1.79241,-2.65845 -1.8434,-5.05587 -0.0534,-2.51349 0.46664,-3.79679 2.31985,-5.72404 1.66772,-1.73436 2.78364,-2.22019 5.09963,-2.22019 2.68499,0 3.87983,0.42645 5.60015,1.99872 2.18952,2.0011 2.61742,3.01617 2.47289,5.86616 -0.12496,2.46417 -0.60036,3.76291 -1.97574,5.39745 -1.40547,1.6703 -4.65633,2.61488 -7.54924,2.19354 z"
     id="path26"
     transform="scale(0.10859729)" />
  <path
     style="opacity:0.75;fill:#001f2a;fill-opacity:0.93725502;stroke-width:0.0000652399"
     d="m 107.85345,182.40092 c -1.90942,-0.57493 -4.02542,-2.63219 -4.7274,-4.59617 -0.42497,-1.18894 -0.47139,-3.8754 -0.0907,-5.24626 0.38642,-1.39135 2.1834,-3.5796 3.64103,-4.43382 1.47825,-0.86632 3.56381,-1.12467 5.62489,-0.69679 1.12628,0.23382 1.9195,0.64246 3.09578,1.59484 2.14171,1.73405 2.71122,2.89781 2.68854,5.49389 -0.0376,4.30292 -1.75847,6.81456 -5.31826,7.76207 -1.58309,0.42138 -3.7421,0.47508 -4.91393,0.12224 z"
     id="path27"
     transform="scale(0.10859729)" />
  <path
     style="opacity:0.75;fill:#004d68;fill-opacity:0.93725502;stroke-width:0.0000652399"
     d="m 106.83026,154.55688 c -3.0698,-2.06763 -4.78288,-5.84286 -4.07819,-8.98734 0.74437,-3.32151 2.29454,-4.58365 8.23102,-6.70163 3.88466,-1.38595 4.76133,-1.86016 6.30544,-3.41079 1.97359,-1.98192 2.30483,-2.92028 2.3119,-6.54918 0.007,-3.69261 -0.27654,-4.5173 -2.24891,-6.53683 -2.0827,-2.13249 -3.09001,-2.5747 -6.17194,-2.70946 -4.08788,-0.17875 -4.38794,-0.0407 -10.01163,4.60438 -3.366233,2.78048 -4.00786,3.07263 -6.70608,3.05339 -2.642902,-0.0189 -3.726621,-0.44009 -5.57124,-2.16551 -1.71173,-1.60113 -2.309611,-3.34183 -2.109318,-6.14119 0.182543,-2.55128 1.324008,-4.782 3.814295,-7.4541 2.675507,-2.87084 5.615791,-4.9858 9.815263,-7.06015 l 3.53413,-1.7457 6.81133,0.006 6.81132,0.006 2.80681,1.47702 c 7.43338,3.91167 11.773,8.3389 14.79443,15.0931 l 1.15522,2.58242 v 6.93173 6.93173 l -0.87792,2.17704 c -3.27027,8.10946 -10.81574,14.82225 -18.60463,16.5515 -0.94622,0.21008 -3.37179,0.45098 -5.39014,0.53534 -3.5327,0.14764 -3.70528,0.12944 -4.62116,-0.48744 z"
     id="path28"
     transform="scale(0.10859729)" />
  <path
     style="opacity:0.75;fill:#004d68;fill-opacity:0.937255;stroke-width:6.52399e-05"
     d="m 107.23979,181.97212 c -1.55409,-0.81033 -2.59716,-1.78895 -3.4014,-3.19123 -0.71789,-1.25173 -0.80897,-1.66334 -0.81124,-3.66616 -0.002,-1.54837 0.13598,-2.52903 0.43905,-3.12608 0.85068,-1.67585 2.27776,-3.14105 3.77079,-3.87152 1.29618,-0.63416 1.74255,-0.71393 3.46283,-0.61878 2.38278,0.13178 3.60984,0.67997 5.37878,2.40298 1.58816,1.54691 2.02479,2.87222 1.80875,5.4901 -0.2746,3.32758 -1.73531,5.44538 -4.45862,6.4643 -1.81152,0.67777 -4.99739,0.73769 -6.18894,0.11639 z"
     id="path29"
     transform="scale(0.10859729)" />
  <path
     style="opacity:0.75;fill:#004d68;fill-opacity:0.937255;stroke-width:6.52399e-05"
     d="m 108.22293,182.14211 c -2.26435,-0.57095 -4.69699,-3.24467 -5.04134,-5.54098 -0.42687,-2.84657 0.47538,-5.50072 2.46322,-7.24607 1.48195,-1.30117 2.67785,-1.71952 4.82549,-1.68807 2.3612,0.0346 4.3146,0.92904 5.85791,2.68233 1.25556,1.42639 1.49412,2.34392 1.31889,5.07257 -0.27173,4.2314 -2.53972,6.43853 -7.01118,6.82309 -0.8223,0.0707 -1.90814,0.0244 -2.41299,-0.10287 z"
     id="path30"
     transform="scale(0.10859729)" />
  <path
     style="opacity:0.75;fill:#004d68;fill-opacity:0.937255;stroke-width:6.52399e-05"
     d="m 106.96618,154.46609 c -4.12815,-2.64252 -5.45423,-8.48395 -2.66557,-11.74188 1.09717,-1.28179 3.0576,-2.34441 7.15081,-3.876 1.56983,-0.58739 3.35057,-1.35639 3.95721,-1.70888 1.37673,-0.79997 3.29931,-2.86087 3.81075,-4.0849 0.52283,-1.2513 0.53347,-7.14071 0.0151,-8.3599 -0.54449,-1.28064 -2.4855,-3.35608 -3.93634,-4.20897 -1.14375,-0.67237 -1.56464,-0.75233 -4.41351,-0.83851 -2.93724,-0.0889 -3.23909,-0.0489 -4.48524,0.59386 -0.73483,0.37903 -2.80395,1.86786 -4.59805,3.30853 -4.387878,3.52349 -4.401578,3.53008 -7.33948,3.53132 -2.168284,9.2e-4 -2.588185,-0.0823 -3.692478,-0.73146 -1.593121,-0.93657 -3.080255,-2.58322 -3.510585,-3.88713 -0.205,-0.62116 -0.291526,-1.88582 -0.220961,-3.22957 0.160768,-3.06146 1.175191,-4.94006 4.428063,-8.20026 2.853937,-2.86037 5.1063,-4.41665 9.706591,-6.70684 l 3.32277,-1.65419 6.61182,0.15613 6.61183,0.15613 2.37086,1.27536 c 3.70434,1.99269 5.98712,3.60347 8.45264,5.96436 2.75762,2.64061 4.14511,4.54103 6.05672,8.29578 l 1.45314,2.85424 0.0806,7.2956 0.0806,7.29559 -1.4634,3.03405 c -3.01107,6.24279 -7.26329,10.62828 -13.20391,13.6177 -2.92416,1.47149 -5.51028,2.04874 -9.95877,2.22288 -3.44036,0.13468 -3.88393,0.0989 -4.62115,-0.37304 z"
     id="path31"
     transform="scale(0.10859729)" />
  <path
     style="opacity:0.75;fill:#0088b8;fill-opacity:0.58506227;stroke-width:0.0000652399"
     d="m 106.55843,154.01199 c -2.87504,-2.15692 -4.30542,-6.48267 -3.14679,-9.51651 0.85594,-2.24123 2.56837,-3.38969 8.57558,-5.75131 2.92888,-1.15143 3.61828,-1.5459 5.06776,-2.89971 2.37778,-2.22085 2.55142,-2.69693 2.55142,-6.99575 0,-4.26606 -0.16645,-4.73481 -2.45718,-6.91979 -2.19611,-2.09474 -2.8555,-2.32252 -6.72319,-2.32252 -3.13511,0 -3.25193,0.0217 -4.56192,0.84907 -0.73944,0.467 -2.65972,1.87365 -4.2673,3.12591 -4.034478,3.14274 -4.500588,3.3645 -7.071687,3.3645 -2.46076,0 -3.50416,-0.36459 -5.056202,-1.76677 -2.006707,-1.81294 -2.274342,-2.49312 -2.167973,-5.50984 0.128332,-3.63963 0.826959,-5.02383 4.285527,-8.49102 2.956782,-2.96415 4.689702,-4.16969 9.582575,-6.66629 l 3.44519,-1.75792 6.562,0.17923 6.56199,0.17924 2.90487,1.60908 c 3.60643,1.99768 6.10632,3.88833 8.77896,6.63942 2.30618,2.37388 3.40084,3.96753 5.19685,7.56581 l 1.22111,2.44649 0.15298,7.268 0.15297,7.26799 -1.40601,2.78981 c -0.77331,1.53441 -1.88933,3.52377 -2.48004,4.42082 -1.48877,2.2608 -5.34575,6.07533 -7.62462,7.54069 -4.68176,3.01048 -7.03319,3.72493 -12.91205,3.9231 l -4.21341,0.14204 z"
     id="path32"
     transform="scale(0.10859729)" />
  <path
     style="opacity:0.75;fill:#0088b8;fill-opacity:0.585062;stroke-width:6.52399e-05"
     d="m 107.23801,181.67759 c -1.17261,-0.61624 -2.52474,-1.95609 -3.30192,-3.27194 -1.25926,-2.13207 -0.88806,-5.84436 0.79126,-7.91339 2.35434,-2.90068 5.77363,-3.55508 9.37893,-1.795 2.66121,1.29919 3.90876,3.75115 3.47951,6.83872 -0.47944,3.44856 -1.90529,5.38746 -4.53652,6.16885 -1.84057,0.54659 -4.74525,0.53298 -5.81126,-0.0272 z"
     id="path33"
     transform="scale(0.10859729)" />
  <path
     style="opacity:0.75;fill:#0088b8;fill-opacity:0.585062;stroke-width:6.52399e-05"
     d="m 106.9555,181.35024 c -1.30237,-0.79421 -3.08615,-2.9977 -3.41723,-4.22125 -0.86555,-3.19885 0.67844,-6.86013 3.55266,-8.42447 3.3213,-1.80768 8.35416,-0.30257 9.82628,2.93861 0.627,1.3805 0.66528,3.89815 0.0888,5.83945 -0.52726,1.77547 -2.21427,3.55966 -3.8192,4.0392 -1.76648,0.52781 -5.24134,0.43215 -6.23129,-0.17154 z"
     id="path34"
     transform="scale(0.10859729)" />
  <path
     style="opacity:0.75;fill:#00b1b8;fill-opacity:0.58506227;stroke-width:0.0000652399"
     d="m 108.15842,181.61816 c -2.00469,-0.42472 -4.17914,-2.91444 -4.71373,-5.39715 -0.50046,-2.3242 1.15761,-5.82744 3.4157,-7.21683 3.24234,-1.99499 8.23837,-0.67505 9.94634,2.6278 0.54179,1.04772 0.60053,3.9693 0.11379,5.65953 -0.43716,1.51804 -1.8264,3.23464 -3.11116,3.8443 -1.07807,0.51158 -4.23935,0.78142 -5.65094,0.48235 z"
     id="path35"
     transform="scale(0.10859729)" />
  <path
     style="opacity:0.75;fill:#cecece;fill-opacity:0.58506227;stroke-width:0.0000652399"
     d="m 105.93565,153.24488 c -3.22833,-3.15186 -3.7336,-8.05594 -1.08797,-10.55972 1.40536,-1.33001 2.41407,-1.89279 6.06007,-3.38106 4.24174,-1.73145 4.50862,-1.88401 6.34931,-3.62965 2.17792,-2.06545 2.34934,-2.5635 2.34934,-6.82574 0,-4.23437 -0.17292,-4.75154 -2.27218,-6.79582 -2.22568,-2.16739 -2.95455,-2.43085 -6.74856,-2.43936 -1.74699,-0.004 -3.45954,0.10079 -3.80566,0.2327 -0.34613,0.1319 -2.39681,1.54809 -4.55706,3.14708 -5.081513,3.76126 -5.116736,3.77841 -7.76107,3.77986 -2.628017,0.001 -3.591369,-0.40033 -5.425951,-2.26292 -1.534724,-1.55815 -1.818534,-2.66105 -1.50605,-5.85254 0.257847,-2.63346 0.994077,-4.05448 3.457147,-6.67274 2.818928,-2.99654 5.536263,-4.95986 9.998844,-7.22432 l 3.80565,-1.93112 6.45959,0.20092 6.45958,0.20091 2.78273,1.55671 c 3.72957,2.0864 5.85833,3.70248 8.65828,6.5731 2.52479,2.58851 3.58892,4.10018 5.42145,7.70156 l 1.17571,2.31058 0.11455,7.38392 0.11455,7.38392 -1.67516,3.14045 c -2.05361,3.84993 -3.45782,5.74644 -6.14406,8.29811 -3.22701,3.06535 -7.24357,5.43946 -10.59108,6.26019 -1.07395,0.26331 -7.21668,0.78577 -9.70586,0.82552 -0.25496,0.004 -1.12172,-0.63517 -1.92614,-1.42054 z"
     id="path36"
     transform="scale(0.10859729)" />
  <path
     style="opacity:0.75;fill:#cecece;fill-opacity:0.585062;stroke-width:6.52399e-05"
     d="m 107.06704,181.03896 c -1.92436,-1.01686 -3.48215,-3.54804 -3.4928,-5.67532 -0.009,-1.70402 0.46429,-3.05186 1.59231,-4.53899 1.34148,-1.76858 2.90921,-2.5602 5.0702,-2.5602 3.01723,0 5.33853,1.24758 6.39959,3.43944 0.49642,1.02547 0.57116,1.55551 0.46647,3.30812 -0.19318,3.23384 -1.78003,5.62927 -4.15631,6.27414 -1.76419,0.47876 -4.74262,0.35354 -5.87946,-0.24719 z"
     id="path37"
     transform="scale(0.10859729)" />
  <path
     style="opacity:0.75;fill:#cecece;fill-opacity:0.585062;stroke-width:6.52399e-05"
     d="m 107.23295,180.93361 c -1.00536,-0.43807 -2.50869,-2.10878 -3.03852,-3.37686 -1.21356,-2.90444 0.36092,-7.03887 3.23989,-8.50761 2.10782,-1.07533 6.14664,-0.53379 7.90971,1.06057 1.43791,1.30032 1.95079,4.18181 1.24394,6.98894 -0.36036,1.43113 -1.91081,3.32759 -3.14054,3.8414 -1.13575,0.47454 -5.12008,0.47041 -6.21448,-0.006 z"
     id="path38"
     transform="scale(0.10859729)" />
  <path
     style="opacity:0.75;fill:#cecece;fill-opacity:0.585062;stroke-width:6.52399e-05"
     d="m 108.63004,181.04805 c -1.49822,-0.14583 -1.67819,-0.24263 -2.87904,-1.54861 -1.96354,-2.13544 -2.33767,-4.33178 -1.2012,-7.05173 0.49527,-1.18534 1.87916,-2.74104 2.93243,-3.29646 1.18432,-0.62454 4.29116,-0.61704 5.92731,0.0143 2.57658,0.99423 3.82398,3.63138 3.23211,6.83308 -0.33337,1.80339 -0.58633,2.3121 -1.83945,3.69915 -0.61054,0.6758 -1.26265,1.10198 -1.81243,1.18452 -1.85383,0.27829 -2.82434,0.31519 -4.35973,0.16574 z"
     id="path39"
     transform="scale(0.10859729)" />
  <path
     style="opacity:0.75;fill:#cecece;fill-opacity:0.585062;stroke-width:6.52399e-05"
     d="m 107.78167,180.84769 c -0.82751,-0.19762 -2.58551,-1.9849 -3.15251,-3.20501 -0.70624,-1.51976 -0.65569,-3.50206 0.13172,-5.16482 0.7196,-1.51957 2.08716,-2.94571 3.24236,-3.38124 0.97326,-0.36693 3.55363,-0.36943 4.86686,-0.005 3.0458,0.84591 4.46728,4.25684 3.34663,8.03047 -0.49999,1.68365 -2.09537,3.31735 -3.57468,3.66055 -1.09395,0.25379 -3.91161,0.29134 -4.86038,0.0648 z"
     id="path40"
     transform="scale(0.10859729)" />
  <path
     style="opacity:0.75;fill:#cecece;fill-opacity:0.585062;stroke-width:6.52399e-05"
     d="m 106.1021,153.15079 c -2.40751,-2.41524 -3.39356,-5.83063 -2.41963,-8.38084 0.82479,-2.15968 2.71054,-3.45962 8.49218,-5.85406 3.29807,-1.36587 6.10862,-3.50977 6.90743,-5.26901 0.73843,-1.62627 0.74702,-7.95134 0.013,-9.56731 -0.6218,-1.36893 -3.35848,-3.84606 -4.64339,-4.20302 -0.52883,-0.14692 -2.42942,-0.26735 -4.22351,-0.26762 -3.77649,-5.8e-4 -3.33207,-0.18774 -8.46891,3.56646 -3.972072,2.90294 -5.166528,3.48523 -7.161473,3.49117 -2.312227,0.007 -3.461783,-0.43726 -5.071156,-1.95934 -1.767345,-1.67148 -2.130232,-2.75509 -1.890261,-5.64449 0.246186,-2.96424 1.093182,-4.49369 4.226527,-7.63197 2.865886,-2.8704 4.808889,-4.23971 9.619503,-6.77927 l 3.21487,-1.69716 6.43519,0.19401 6.43519,0.194 1.76691,0.9682 c 7.27766,3.98784 12.1506,8.81922 15.29035,15.15994 l 0.94223,1.90283 0.16627,7.33051 0.16628,7.3305 -1.39223,2.59139 c -2.6731,4.97552 -4.80578,7.61794 -8.59241,10.64614 -2.56918,2.05459 -6.95902,4.21916 -9.29881,4.58511 -0.9718,0.15199 -3.43625,0.35503 -5.47655,0.4512 l -3.70964,0.17484 z"
     id="path41"
     transform="scale(0.10859729)" />
  <path
     style="opacity:0.75;fill:#cecece;fill-opacity:0.585062;stroke-width:6.52399e-05"
     d="m 106.17431,153.03896 c -2.36692,-2.53042 -3.29483,-5.98015 -2.26824,-8.43271 0.55617,-1.32868 2.24869,-2.75787 4.58859,-3.87465 1.10294,-0.52641 3.22537,-1.53541 4.71653,-2.24224 2.10246,-0.99659 3.08663,-1.66058 4.38341,-2.95736 1.94579,-1.94578 2.08656,-2.42107 2.06597,-6.97536 -0.0181,-4.0097 -0.2646,-4.74398 -2.21791,-6.60711 -2.24888,-2.14507 -2.84209,-2.34313 -7.01788,-2.34313 -3.46705,0 -3.50056,0.006 -4.96968,0.89538 -0.81349,0.49246 -2.59779,1.70716 -3.96509,2.69933 -3.687153,2.67556 -5.014526,3.27842 -7.1884,3.26481 -2.194231,-0.0137 -3.481548,-0.60604 -5.075526,-2.3353 -1.376045,-1.49284 -1.52525,-2.02505 -1.367891,-4.87924 0.171403,-3.10893 0.948077,-4.53362 4.257259,-7.80929 2.929754,-2.90008 4.982273,-4.35054 9.555288,-6.75244 l 3.12532,-1.64153 6.41379,0.20017 6.41379,0.20016 2.28259,1.31759 c 6.62822,3.82604 11.37492,8.55046 14.36411,14.29669 l 1.20197,2.31058 0.1213,7.38327 0.1213,7.38327 -1.3001,2.40271 c -3.84262,7.10151 -8.87528,11.86539 -15.14452,14.3357 -1.92038,0.7567 -4.13963,1.09718 -8.93152,1.37027 l -2.87956,0.1641 z"
     id="path42"
     transform="scale(0.10859729)" />
  <path
     style="opacity:0.75;fill:#cecece;fill-opacity:0.585062;stroke-width:6.52399e-05"
     d="m 106.36815,153.10726 c -2.22437,-2.63797 -3.17139,-5.5594 -2.5501,-7.86672 0.48935,-1.81728 2.37474,-3.26847 7.4526,-5.73624 3.47074,-1.68674 4.75831,-2.46876 6.0811,-3.69343 2.15053,-1.99101 2.36831,-2.64944 2.34776,-7.09808 -0.0191,-4.14146 -0.23707,-4.82091 -2.1701,-6.76545 -2.06175,-2.07404 -2.84813,-2.32797 -7.23103,-2.33497 l -3.73545,-0.006 -3.3322,2.3036 c -6.208245,4.29184 -7.972836,4.98485 -10.77173,4.23038 -1.191214,-0.3211 -3.562685,-2.24713 -4.182058,-3.39652 -0.16646,-0.30891 -0.276844,-1.63128 -0.248913,-2.98194 0.07206,-3.48467 0.689323,-4.6887 4.198181,-8.18898 2.971439,-2.96417 4.909866,-4.34372 9.56654,-6.80836 l 2.93434,-1.55307 6.49021,0.17161 6.49021,0.17161 2.3752,1.42951 c 6.51216,3.91934 11.50523,8.96523 14.19263,14.34278 l 1.02262,2.04629 0.19096,7.28445 0.19095,7.28446 -1.27557,2.36561 c -4.3324,8.03465 -10.99783,13.73981 -17.68774,15.13952 -0.99619,0.20843 -3.10825,0.45273 -4.69348,0.5429 -1.58524,0.0902 -3.25923,0.22115 -3.71999,0.29108 -0.73313,0.11126 -0.97478,-0.0354 -1.93494,-1.17407 z"
     id="path43"
     transform="scale(0.10859729)" />
  <path
     style="opacity:0.75;fill:#003439;fill-opacity:1;stroke-width:0.0000652399"
     d="m 106.42914,153.01337 c -2.39999,-2.65651 -3.33407,-6.72096 -2.02964,-8.83157 0.7275,-1.17712 3.3155,-2.87057 7.84627,-5.1342 4.03819,-2.01753 6.51914,-4.03675 7.14183,-5.81265 0.46132,-1.31571 0.44766,-7.44428 -0.0196,-8.80885 -0.45153,-1.31854 -2.67618,-3.60139 -4.1705,-4.27962 -0.97132,-0.44086 -1.78987,-0.52913 -4.95286,-0.53411 l -3.78922,-0.006 -3.55026,2.41159 c -5.039164,3.42296 -6.665099,4.20163 -8.78807,4.20867 -1.556093,0.005 -1.839206,-0.0895 -3.261993,-1.09114 -0.856904,-0.60324 -1.845593,-1.51303 -2.197085,-2.02175 -0.583593,-0.84466 -0.628475,-1.13766 -0.51696,-3.37491 0.171394,-3.43857 0.713923,-4.51327 3.931829,-7.78856 2.989522,-3.04283 5.171522,-4.63967 9.606859,-7.03056 l 3.09242,-1.66698 6.39777,0.18379 6.39776,0.18378 2.50605,1.47653 c 6.28771,3.70461 11.34959,8.81946 14.12839,14.27623 l 1.01858,2.00022 0.20156,7.30386 0.20155,7.30386 -1.50247,2.63283 c -2.86116,5.01367 -6.30041,8.92132 -10.12104,11.49946 -3.61099,2.43667 -6.07408,3.25703 -11.18969,3.72687 -5.13032,0.47118 -5.21917,0.45967 -6.38144,-0.82682 z"
     id="path44"
     transform="scale(0.10859729)" />
  <path
     style="opacity:0.75;fill:#003439;fill-opacity:1;stroke-width:6.52399e-05"
     d="m 106.67534,152.99753 c -1.31027,-1.49231 -1.9763,-2.73237 -2.44029,-4.5435 -0.9729,-3.79763 -0.006,-4.95776 7.4882,-8.98211 4.34391,-2.33274 6.26315,-3.71673 7.27546,-5.24644 0.73031,-1.10358 0.7436,-1.19932 0.7436,-5.35692 0,-4.82101 -0.12345,-5.189 -2.4647,-7.3471 -1.89171,-1.74371 -2.52459,-1.91506 -7.0732,-1.91506 h -3.98279 l -3.48839,2.32359 c -4.569851,3.04395 -6.307046,3.91941 -8.156008,4.11024 -1.840529,0.18996 -3.082442,-0.36277 -4.997916,-2.2244 l -1.293917,-1.25754 0.112798,-2.76715 c 0.146341,-3.59001 0.57269,-4.41187 4.127939,-7.95728 2.957642,-2.94946 5.231146,-4.60102 9.594014,-6.96948 l 2.76529,-1.50117 6.35245,0.19704 6.35244,0.19705 2.80137,1.74035 c 6.35015,3.94505 11.14651,8.89373 13.85676,14.29682 l 0.84429,1.68316 0.18172,7.28732 0.18172,7.28733 -1.55454,2.59632 c -4.96014,8.28419 -10.85152,13.19928 -17.42132,14.53432 -1.19606,0.24306 -3.7065,0.51146 -5.57874,0.59645 l -3.40409,0.15454 z"
     id="path45"
     transform="scale(0.10859729)" />
  <path
     style="opacity:0.75;fill:#003439;fill-opacity:1;stroke-width:6.52399e-05"
     d="m 106.58619,152.69605 c -1.32358,-1.64696 -2.23437,-3.78727 -2.403,-5.64698 -0.23986,-2.64519 0.73408,-3.6474 6.86048,-7.05961 1.9436,-1.08253 4.17621,-2.39268 4.96134,-2.91145 1.86296,-1.23092 3.5441,-3.16225 3.76155,-4.32135 0.0953,-0.50783 0.12706,-2.60409 0.0706,-4.65835 -0.11673,-4.25033 -0.3882,-4.97517 -2.51651,-6.71917 -1.94599,-1.59459 -2.67013,-1.77274 -7.20572,-1.77274 h -4.07223 l -3.54922,2.32278 c -1.95207,1.27753 -4.313113,2.68417 -5.246766,3.12586 -3.136051,1.48361 -5.405236,0.99648 -8.035891,-1.72506 l -0.901685,-0.93283 0.268833,-2.90154 c 0.331947,-3.58273 0.837373,-4.47711 4.5191,-7.99687 2.632857,-2.51703 5.427699,-4.51512 9.383829,-6.70869 l 2.31057,-1.28116 6.38807,0.18409 6.38807,0.18409 2.71833,1.73374 c 6.58564,4.20032 11.15483,8.90713 13.85028,14.26742 l 0.8885,1.76691 0.15586,7.19579 0.15586,7.1958 -1.34207,2.22187 c -4.48214,7.4204 -9.60782,12.20261 -15.12037,14.10716 -1.98733,0.6866 -4.66381,1.09203 -8.78179,1.33022 l -2.58241,0.14938 z"
     id="path46"
     transform="scale(0.10859729)" />
  <path
     style="opacity:0.75;fill:#003439;fill-opacity:1;stroke-width:6.52399e-05"
     d="m 106.65783,152.70157 c -1.25883,-1.70625 -1.91111,-3.14128 -2.27991,-5.01589 -0.60026,-3.05103 0.21934,-3.93473 7.52115,-8.10941 4.52749,-2.58851 6.80562,-4.3951 7.56787,-6.00141 0.39574,-0.83397 0.4514,-1.62004 0.36105,-5.09868 -0.12047,-4.63821 -0.27381,-5.12679 -2.13754,-6.81055 -2.01958,-1.82457 -2.83814,-2.04651 -7.57261,-2.05326 l -4.18782,-0.006 -3.28758,2.13655 c -5.00418,3.25215 -6.501865,3.95295 -8.452402,3.9551 -1.866962,0.002 -2.676901,-0.35665 -4.56822,-2.02317 l -1.306227,-1.15097 0.162147,-1.52672 c 0.397224,-3.7401 0.724757,-4.89388 1.825737,-6.43138 2.026944,-2.83059 7.462039,-7.12994 12.488165,-9.87857 l 2.07761,-1.13618 6.3492,0.18823 6.3492,0.18823 2.31058,1.48572 c 6.76949,4.35283 11.48776,9.20391 14.20609,14.60601 l 0.96007,1.90793 0.0916,7.07598 0.0916,7.07597 -1.14142,1.9213 c -2.61066,4.3944 -5.75995,8.15337 -8.99573,10.73726 -3.63445,2.90225 -7.40707,4.29947 -12.68763,4.69896 -1.19606,0.0905 -2.78629,0.22195 -3.53383,0.29213 -1.33695,0.12554 -1.37308,0.10875 -2.21117,-1.02721 z"
     id="path47"
     transform="scale(0.10859729)" />
  <path
     style="opacity:0.75;fill:#003439;fill-opacity:1;stroke-width:6.52399e-05"
     d="m 106.80308,152.83342 c -1.09126,-1.24288 -2.0581,-3.33335 -2.45446,-5.30695 -0.56963,-2.8364 0.32933,-3.78283 7.62035,-8.02273 4.6283,-2.69147 6.7541,-4.3613 7.46834,-5.86645 0.52981,-1.1165 0.61701,-6.65906 0.13977,-8.88436 -0.35282,-1.64513 -1.59108,-3.1666 -3.48177,-4.27812 -1.19221,-0.70088 -1.43677,-0.73644 -5.6663,-0.82389 l -4.42031,-0.0914 -3.59875,2.31915 c -4.713054,3.03723 -6.435741,3.82477 -8.355829,3.8199 -1.725329,-0.004 -2.588569,-0.40616 -4.433391,-2.06348 l -1.307316,-1.17445 0.298023,-2.58 c 0.420714,-3.64214 1.13815,-5.05638 3.938509,-7.76376 2.585255,-2.49942 6.046366,-5.03654 9.722394,-7.12687 l 2.51917,-1.43249 6.38807,0.18337 6.38807,0.18337 2.58241,1.67753 c 6.6661,4.33028 11.24285,9.0689 13.94439,14.43758 l 0.9702,1.92805 0.0584,7.07483 0.0584,7.07483 -0.87359,1.52688 c -4.01874,7.02402 -9.76818,12.53701 -15.08887,14.46831 -1.74651,0.63395 -5.92672,1.3206 -9.58915,1.57514 l -1.95749,0.13605 z"
     id="path48"
     transform="scale(0.10859729)" />
  <path
     style="opacity:0.75;fill:#003439;fill-opacity:1;stroke-width:6.52399e-05"
     d="m 106.86897,152.90847 c -1.20039,-1.36718 -2.10677,-3.26952 -2.49291,-5.23222 -0.58704,-2.98388 0.25451,-3.91031 7.22539,-7.95423 4.86786,-2.82392 6.85079,-4.36796 7.68293,-5.98244 0.58791,-1.14064 0.62356,-1.48094 0.54089,-5.1627 -0.0753,-3.35154 -0.17314,-4.10435 -0.65384,-5.02891 -0.70036,-1.34704 -3.00925,-3.27201 -4.38176,-3.65315 -0.56522,-0.15697 -2.77694,-0.28607 -4.91492,-0.28691 l -3.88724,-0.002 -3.60902,2.30405 c -4.756891,3.03688 -6.418357,3.79295 -8.324369,3.78812 -1.724615,-0.004 -2.577799,-0.4014 -4.460024,-2.07546 l -1.333948,-1.18642 0.327871,-2.57043 c 0.19809,-1.55298 0.597124,-3.16039 1.008092,-4.06085 1.258782,-2.75807 6.699731,-7.40427 12.676228,-10.82463 l 2.51917,-1.44173 6.38807,0.18279 6.38807,0.18278 2.58241,1.68815 c 6.71339,4.38859 11.24628,9.08475 13.94439,14.4466 l 0.9702,1.92805 0.0585,7.08556 0.0585,7.08555 -0.76466,1.31604 c -4.31295,7.42283 -9.7726,12.6884 -15.19797,14.6577 -1.68881,0.61301 -5.6018,1.27029 -9.56323,1.60637 l -1.93157,0.16387 z"
     id="path49"
     transform="scale(0.10859729)" />
  <path
     style="opacity:0.75;fill:#003439;fill-opacity:1;stroke-width:6.52399e-05"
     d="m 106.65783,152.70979 c -1.90502,-2.60049 -2.84827,-5.67534 -2.2744,-7.41419 0.43985,-1.33275 1.70447,-2.3084 7.3725,-5.68785 5.56522,-3.31814 7.35414,-4.84627 7.86385,-6.71746 0.21054,-0.77293 0.27688,-2.43897 0.19006,-4.77342 -0.12071,-3.24551 -0.2009,-3.7013 -0.84439,-4.79934 -0.82045,-1.39999 -2.49283,-2.81628 -3.93276,-3.33053 -0.64555,-0.23056 -2.41663,-0.36096 -5.00715,-0.36867 l -4.00828,-0.0119 -3.42465,2.20087 c -4.670427,3.00148 -6.646383,3.90267 -8.538489,3.8942 -1.740783,-0.008 -2.664009,-0.43648 -4.479202,-2.07988 l -1.303905,-1.1805 0.296049,-2.50383 c 0.478668,-4.04833 1.565681,-5.88489 5.457712,-9.22106 2.378297,-2.03863 5.092657,-3.92373 8.430325,-5.85479 l 2.33641,-1.35177 6.38807,0.18625 6.38807,0.18625 2.31058,1.51326 c 6.82503,4.4699 11.2152,8.95236 14.19913,14.49764 l 0.95875,1.78173 0.10033,7.19397 0.10034,7.19396 -1.19191,2.03354 c -4.47018,7.62665 -10.59454,13.04185 -16.42477,14.52291 -1.78649,0.45382 -4.73338,0.8603 -7.9356,1.09459 l -2.17466,0.15911 z"
     id="path50"
     transform="scale(0.10859729)" />
  <path
     style="opacity:0.75;fill:#003439;fill-opacity:1;stroke-width:6.52399e-05"
     d="m 108.37585,180.84413 c -1.15391,-0.12272 -2.787,-1.531 -3.61695,-3.11903 -0.6383,-1.22135 -0.62401,-3.86365 0.0277,-5.11132 1.52398,-2.91778 2.72581,-3.67924 5.74426,-3.63944 3.52773,0.0465 5.15701,1.27503 5.82562,4.39265 0.56394,2.62954 -0.80871,6.01604 -2.81186,6.93722 -0.95836,0.44071 -3.55306,0.71175 -5.16873,0.53992 z"
     id="path51"
     transform="scale(0.10859729)" />
  <path
     style="opacity:0.75;fill:#003439;fill-opacity:1;stroke-width:6.52399e-05"
     d="m 107.4205,180.31051 c -2.04691,-1.00863 -3.35456,-3.82125 -2.91405,-6.2678 0.30688,-1.70435 1.89944,-3.83852 3.33985,-4.47568 1.55752,-0.68897 4.37352,-0.57307 5.96209,0.24538 2.86694,1.47709 3.31095,6.78892 0.79036,9.45534 -1.34089,1.41847 -5.26034,1.98783 -7.17825,1.04276 z"
     id="path52"
     transform="scale(0.10859729)" />
  <path
     style="opacity:0.75;fill:#003439;fill-opacity:1;stroke-width:6.52399e-05"
     d="m 109.27675,180.56986 c -1.43383,-0.18825 -1.88866,-0.36794 -2.73605,-1.08098 -2.01216,-1.69312 -2.47975,-4.87799 -1.0756,-7.32621 1.17935,-2.05629 2.15859,-2.64956 4.57469,-2.77157 3.97955,-0.20096 5.74242,1.25716 5.95981,4.9295 0.10351,1.74858 0.0322,2.12617 -0.65296,3.458 -0.61378,1.19307 -1.01625,1.6133 -1.9924,2.08034 -1.24084,0.59368 -2.84293,0.87301 -4.07749,0.71092 z"
     id="path53"
     transform="scale(0.10859729)" />
  <path
     style="opacity:0.75;fill:#003439;fill-opacity:1;stroke-width:6.52399e-05"
     d="m 107.43457,179.92102 c -3.20825,-1.58805 -3.58027,-6.53055 -0.69716,-9.2624 0.96684,-0.91613 2.99259,-1.39122 4.91037,-1.1516 2.84762,0.35578 4.20807,2.03464 4.24842,5.24274 0.0239,1.89645 -0.5556,3.4654 -1.64307,4.4488 -1.46364,1.32359 -4.87411,1.68495 -6.81856,0.72246 z"
     id="path54"
     transform="scale(0.10859729)" />
  <path
     style="opacity:0.75;fill:#003439;fill-opacity:1;stroke-width:6.52399e-05"
     d="m 108.08186,180.21465 c -0.94566,-0.28299 -2.22692,-1.45238 -2.81802,-2.57197 -0.25439,-0.48184 -0.43054,-1.4828 -0.43054,-2.44649 0,-3.947 2.93726,-6.3074 7.07645,-5.68669 2.59633,0.38934 3.87303,2.07785 3.92032,5.18483 0.0304,2.0005 -0.36108,3.16538 -1.47229,4.38039 -1.04692,1.14471 -4.29091,1.73393 -6.27592,1.13993 z"
     id="path55"
     transform="scale(0.10859729)" />
  <path
     style="opacity:0.75;fill:#003439;fill-opacity:1;stroke-width:6.52399e-05"
     d="m 108.08186,180.21465 c -0.94566,-0.28299 -2.22692,-1.45238 -2.81802,-2.57197 -0.59377,-1.12465 -0.56375,-3.81705 0.0561,-5.0289 1.18959,-2.32586 2.50581,-3.09558 5.31657,-3.10911 2.45016,-0.0118 3.62983,0.5518 4.54801,2.17284 1.19386,2.10773 0.70697,6.03949 -0.93136,7.52105 -1.21929,1.10263 -4.22714,1.59786 -6.17127,1.01609 z"
     id="path56"
     transform="scale(0.10859729)" />
  <path
     style="opacity:0.75;fill:#003439;fill-opacity:1;stroke-width:6.52399e-05"
     d="m 107.78167,180.11013 c -3.13654,-1.40583 -4.03003,-5.8881 -1.72995,-8.67849 1.23857,-1.50261 2.22117,-1.91559 4.58476,-1.92697 2.45016,-0.0118 3.62983,0.5518 4.54801,2.17284 1.19386,2.10773 0.70697,6.03949 -0.93136,7.52105 -1.30563,1.1807 -4.77932,1.67001 -6.47146,0.91157 z"
     id="path57"
     transform="scale(0.10859729)" />
  <path
     style="opacity:0.75;fill:#003439;fill-opacity:1;stroke-width:6.52399e-05"
     d="m 107.78167,180.11013 c -3.34246,-1.49812 -4.08056,-5.98965 -1.47139,-8.95382 1.26873,-1.44136 2.93666,-1.97278 5.27487,-1.68064 2.92625,0.36561 4.18065,1.93434 4.20253,5.25564 0.0194,2.93741 -0.94914,4.58223 -3.16298,5.37178 -1.32868,0.47387 -3.7935,0.47745 -4.84303,0.007 z"
     id="path58"
     transform="scale(0.10859729)" />
  <path
     style="opacity:0.75;fill:#00626c;fill-opacity:1;stroke-width:0.0000652399"
     d="m 107.43457,179.92102 c -2.08029,-1.02972 -3.19964,-3.88248 -2.50161,-6.37558 0.20669,-0.73822 0.79856,-1.73152 1.46208,-2.45371 0.92076,-1.00217 1.37503,-1.26641 2.60988,-1.51811 2.84888,-0.58069 5.35114,0.30231 6.31969,2.23008 0.67115,1.33585 0.65006,4.56844 -0.0386,5.91777 -0.28311,0.5547 -0.76431,1.23424 -1.06934,1.5101 -1.45803,1.31858 -4.82052,1.66041 -6.78209,0.68945 z"
     id="path59"
     transform="scale(0.10859729)" />
  <path
     style="opacity:0.75;fill:#00626c;fill-opacity:1;stroke-width:6.52399e-05"
     d="m 106.66195,152.73128 c -1.98178,-2.77432 -2.84445,-5.51793 -2.30312,-7.32473 0.4181,-1.3955 1.65468,-2.39347 6.64609,-5.36363 5.24671,-3.12207 7.25401,-4.59456 8.08445,-5.93046 0.61648,-0.99168 0.65294,-1.28685 0.65294,-5.28518 0,-4.23302 -3.5e-4,-4.23539 -0.81549,-5.54491 -0.47456,-0.76237 -1.47683,-1.77624 -2.39732,-2.42507 l -1.58181,-1.11499 -4.39851,-0.0943 -4.3985,-0.0943 -3.4648,2.21479 c -4.79706,3.0664 -6.751937,3.95827 -8.631759,3.93806 -1.744188,-0.0188 -2.678703,-0.45487 -4.49146,-2.09607 l -1.316165,-1.1916 0.309062,-2.51015 c 0.372578,-3.02603 1.140216,-4.81171 2.910376,-6.77014 2.326915,-2.5744 6.74765,-5.89323 11.286836,-8.4735 l 2.03874,-1.15892 6.38807,0.17942 6.38807,0.17941 3.53383,2.36608 c 2.5314,1.69491 4.42924,3.25284 6.69043,5.49216 3.16998,3.13932 4.51065,4.87907 6.28432,8.15498 l 0.95665,1.76691 0.14717,7.20357 0.14717,7.20357 -1.2279,2.03874 c -3.66869,6.09133 -7.97136,10.52705 -12.63793,13.02876 -2.81939,1.51145 -5.53828,2.11635 -11.77776,2.62032 l -2.17553,0.17572 z"
     id="path60"
     transform="scale(0.10859729)" />
  <path
     style="opacity:0.75;fill:#00626c;fill-opacity:1;stroke-width:6.52399e-05"
     d="m 106.78417,152.68359 c -1.58737,-2.15271 -2.26449,-3.94471 -2.26449,-5.99295 0,-1.8639 0.001,-1.86713 1.19914,-2.9301 0.65953,-0.58528 3.14662,-2.25326 5.52686,-3.70662 4.54371,-2.77436 6.9812,-4.57458 7.92917,-5.85611 0.52256,-0.70643 0.56746,-1.12936 0.56746,-5.34474 v -4.5776 l -0.82285,-1.17131 c -0.45256,-0.64423 -1.49391,-1.68138 -2.31409,-2.30478 l -1.49125,-1.13346 -4.48415,-0.0974 -4.48414,-0.0974 -3.88707,2.41503 c -2.13789,1.32826 -4.583298,2.70137 -5.434235,3.05135 -2.840273,1.16818 -4.846354,0.73528 -7.370837,-1.59056 l -1.103368,-1.01655 0.291758,-2.09765 c 0.363511,-2.61356 0.908928,-4.24612 1.899736,-5.68638 1.713916,-2.49137 6.741024,-6.5169 11.958886,-9.57625 l 2.29081,-1.34315 6.25216,0.13222 6.25215,0.13223 2.58241,1.69848 c 6.56593,4.31848 10.97168,8.81045 14.1444,14.42121 l 0.92055,1.62792 0.10243,7.34256 0.10244,7.34255 -2.25969,3.39791 c -4.04159,6.07739 -9.34212,10.75499 -14.02625,12.37786 -1.67901,0.58172 -5.66536,1.23477 -9.66497,1.58333 l -1.57469,0.13723 z"
     id="path61"
     transform="scale(0.10859729)" />
  <path
     style="opacity:0.75;fill:#00647f;fill-opacity:1;stroke-width:0.0000652399"
     d="m 107.41449,179.76394 c -1.45008,-0.71447 -2.31969,-2.28428 -2.43839,-4.40179 -0.0936,-1.66977 -0.0364,-1.89177 0.80876,-3.13656 1.40175,-2.06466 2.08869,-2.45031 4.52962,-2.54294 1.77159,-0.0672 2.25098,0.0151 3.16053,0.54264 1.61941,0.93928 2.15473,2.06892 2.15054,4.53809 -0.005,2.7942 -0.91662,4.42005 -2.90063,5.17177 -1.17759,0.44618 -4.25899,0.34683 -5.31043,-0.17121 z"
     id="path62"
     transform="scale(0.10859729)" />
  <path
     style="opacity:0.75;fill:#00647f;fill-opacity:1;stroke-width:6.52399e-05"
     d="m 106.58612,152.25012 c -1.45119,-2.16113 -1.93052,-3.5598 -1.93052,-5.63317 0,-1.69757 0.0497,-1.83792 0.9371,-2.64486 0.5154,-0.46869 3.15202,-2.2589 5.85914,-3.97824 5.7665,-3.6624 7.74334,-5.29882 8.14406,-6.74159 0.15361,-0.55311 0.27998,-2.80535 0.28081,-5.00499 l 0.002,-3.99935 -1.15825,-1.42086 c -0.63704,-0.78147 -1.70739,-1.81085 -2.37854,-2.2875 -1.21961,-0.86616 -1.22273,-0.86673 -5.65703,-1.03919 l -4.43674,-0.17255 -3.57353,2.22 c -4.783148,2.97146 -6.682702,3.83935 -8.442547,3.85732 -1.700919,0.0174 -3.050453,-0.58954 -4.6694,-2.09991 l -1.196684,-1.11642 0.376133,-2.17466 c 0.447521,-2.58741 0.822723,-3.70631 1.731932,-5.16483 1.461527,-2.34453 6.532549,-6.51136 11.616526,-9.54524 l 2.57294,-1.53541 6.18047,0.0454 6.18048,0.0453 1.35916,0.83254 c 6.55698,4.0164 11.97805,9.2622 15.1817,14.69087 l 1.23159,2.08697 0.19358,7.37119 0.19358,7.37119 -2.13919,3.17164 c -3.66336,5.43143 -8.92149,10.3574 -12.96427,12.14531 -1.99048,0.88028 -5.51108,1.53038 -11.70671,2.16171 -0.66272,0.0675 -0.90652,-0.12899 -1.78731,-1.44068 z"
     id="path63"
     transform="scale(0.10859729)" />
</svg>
